M48
;Layer_Color=9474304
;FILE_FORMAT=4:4
METRIC,TZ
;TYPE=PLATED
T01F00S00C0.3000
T02F00S00C0.3048
T03F00S00C0.7112
T04F00S00C1.1000
T05F00S00C1.3000
T06F00S00C1.6000
T07F00S00C2.5000
%
T01
X157920Y-30250
X132920Y19750
X-17080
X-67080
X-117080
X-142080Y-30250
X7920
X-142080Y69750
T02
X59690Y-54610
X82550
X96520Y40640
X146050Y-110490
X11430
X-44450Y-39370
X-80000Y-53330
X-91324Y40756
X-16510Y72390
X-12700Y119380
X-63500Y133350
X-38100Y175260
X118110Y68580
T03
X54610Y-175260
X223520
X226060Y-116840
X-8890Y-176530
X-68580Y-175260
X-224790Y-173990
X-223520Y-114300
Y118110
X-224790Y172720
X223520
X222250Y115570
T04
X120650Y-175260
X146050
X171450
X-120650
X-146050
X-171450
Y176530
X-146050
X-120650
X-38100Y158750
X-12700
X12700
X38100
X120650Y176530
X146050
X171450
T05
X199999Y-44999
Y45001
X-199999Y44999
Y-45001
T06
X174499Y-70499
X225499
Y-19499
Y19502
X174499
Y-19499
X-174499Y-19502
Y19499
X-225499
Y-19502
Y-70501
X-174499
Y70499
X-225499
X174499Y70501
X225499
T07
X203200Y-152400
X-203200
Y152400
X203200
M30
