G04*
G04 #@! TF.GenerationSoftware,Altium Limited,Altium Designer,25.7.1 (20)*
G04*
G04 Layer_Color=16711935*
%FSLAX44Y44*%
%MOMM*%
G71*
G04*
G04 #@! TF.SameCoordinates,AB1990B8-A504-43CA-8B73-EC26852D1935*
G04*
G04*
G04 #@! TF.FilePolarity,Negative*
G04*
G01*
G75*
%ADD21C,2.3016*%
%ADD22C,1.7000*%
%ADD23R,1.6748X1.7000*%
%ADD24C,1.9032*%
%ADD25R,1.9032X1.9032*%
%ADD26C,2.1016*%
%ADD27C,2.7032*%
%ADD28C,0.8032*%
%ADD29C,1.4732*%
%ADD30C,0.8128*%
D21*
X-174500Y-70500D02*
D03*
Y-19500D02*
D03*
Y19500D02*
D03*
Y70500D02*
D03*
X-225500D02*
D03*
Y19500D02*
D03*
Y-19500D02*
D03*
Y-70500D02*
D03*
X174500D02*
D03*
X225500D02*
D03*
Y-19500D02*
D03*
Y19500D02*
D03*
Y70500D02*
D03*
X174500D02*
D03*
Y19500D02*
D03*
Y-19500D02*
D03*
D22*
X-146050Y-175260D02*
D03*
X-120650D02*
D03*
X146050D02*
D03*
X171450D02*
D03*
Y176530D02*
D03*
X146050D02*
D03*
X-120650D02*
D03*
X-146050D02*
D03*
D23*
X-171450Y-175260D02*
D03*
X120650D02*
D03*
Y176530D02*
D03*
X-171450D02*
D03*
D24*
X38100Y158750D02*
D03*
X12700D02*
D03*
X-12700D02*
D03*
D25*
X-38100Y158750D02*
D03*
D26*
X-199999Y-45001D02*
D03*
Y44999D02*
D03*
X199999Y-44999D02*
D03*
Y45001D02*
D03*
D27*
X-203200Y-152400D02*
D03*
Y152400D02*
D03*
X203200Y-152400D02*
D03*
Y152400D02*
D03*
D28*
X-142080Y-30250D02*
D03*
X-117080Y19750D02*
D03*
X-67080D02*
D03*
X-17080D02*
D03*
X7920Y-30250D02*
D03*
X132920Y19750D02*
D03*
X157920Y-30250D02*
D03*
X-142080Y69750D02*
D03*
D29*
X-224790Y-173990D02*
D03*
X-223520Y-114300D02*
D03*
X-68580Y-175260D02*
D03*
X-8890Y-176530D02*
D03*
X54610Y-175260D02*
D03*
X223520D02*
D03*
X226060Y-116840D02*
D03*
X222250Y115570D02*
D03*
X223520Y172720D02*
D03*
X-224790D02*
D03*
X-223520Y118110D02*
D03*
D30*
X-80000Y-53330D02*
D03*
X-44450Y-39370D02*
D03*
X11430Y-110490D02*
D03*
X59690Y-54610D02*
D03*
X82550D02*
D03*
X146050Y-110490D02*
D03*
X96520Y40640D02*
D03*
X118110Y68580D02*
D03*
X-12700Y119380D02*
D03*
X-16510Y72390D02*
D03*
X-63500Y133350D02*
D03*
X-38100Y175260D02*
D03*
X-91324Y40756D02*
D03*
M02*
