G04*
G04 #@! TF.GenerationSoftware,Altium Limited,Altium Designer,25.7.1 (20)*
G04*
G04 Layer_Physical_Order=4*
G04 Layer_Color=16711680*
%FSLAX44Y44*%
%MOMM*%
G71*
G04*
G04 #@! TF.SameCoordinates,AB1990B8-A504-43CA-8B73-EC26852D1935*
G04*
G04*
G04 #@! TF.FilePolarity,Positive*
G04*
G01*
G75*
%ADD22C,1.7000*%
%ADD36C,0.5080*%
%ADD37C,0.7620*%
%ADD38C,2.2000*%
%ADD39C,1.6000*%
%ADD40R,1.5748X1.6000*%
%ADD41R,1.7000X1.7000*%
%ADD42C,2.0000*%
%ADD43C,2.5000*%
%ADD44C,0.6000*%
%ADD45C,1.2700*%
%ADD46C,0.6096*%
G36*
X112807Y170180D02*
X112756Y170663D01*
X112603Y171094D01*
X112349Y171475D01*
X111994Y171806D01*
X111537Y172085D01*
X110978Y172314D01*
X110317Y172491D01*
X109555Y172618D01*
X108692Y172695D01*
X107726Y172720D01*
Y177800D01*
X108692Y177825D01*
X109555Y177902D01*
X110317Y178029D01*
X110978Y178206D01*
X111537Y178435D01*
X111994Y178714D01*
X112349Y179045D01*
X112603Y179426D01*
X112756Y179857D01*
X112807Y180340D01*
Y170180D01*
D02*
G37*
G36*
X174248Y169035D02*
X174031Y168923D01*
X173836Y168757D01*
X173665Y168536D01*
X173516Y168262D01*
X173391Y167934D01*
X173288Y167552D01*
X173208Y167116D01*
X173151Y166627D01*
X173116Y166083D01*
X173105Y165485D01*
X168025D01*
X168015Y166199D01*
X167873Y167969D01*
X167787Y168435D01*
X167682Y168839D01*
X167558Y169181D01*
X167416Y169461D01*
X167254Y169678D01*
X167073Y169834D01*
X174248Y169035D01*
D02*
G37*
G36*
X44324Y152849D02*
X43370Y151292D01*
X42983Y150524D01*
X42655Y149762D01*
X42387Y149007D01*
X42178Y148258D01*
X42029Y147516D01*
X41940Y146781D01*
X41910Y146052D01*
X36830Y145245D01*
X36793Y146020D01*
X36682Y146770D01*
X36496Y147494D01*
X36237Y148193D01*
X35903Y148867D01*
X35496Y149516D01*
X35014Y150140D01*
X34458Y150738D01*
X33828Y151311D01*
X33124Y151859D01*
X44890Y153637D01*
X44324Y152849D01*
D02*
G37*
G36*
X98638Y118303D02*
X80190Y99855D01*
X61742Y118303D01*
X62714Y120650D01*
X97666D01*
X98638Y118303D01*
D02*
G37*
G36*
X217644Y62801D02*
X216866Y63540D01*
X216061Y64201D01*
X215226Y64784D01*
X214363Y65290D01*
X213471Y65718D01*
X212550Y66068D01*
X211601Y66340D01*
X210623Y66535D01*
X209615Y66652D01*
X208580Y66690D01*
X208579Y74310D01*
X209615Y74349D01*
X210622Y74466D01*
X211600Y74661D01*
X212550Y74933D01*
X213470Y75283D01*
X214362Y75711D01*
X215226Y76217D01*
X216060Y76800D01*
X216866Y77461D01*
X217642Y78201D01*
X217644Y62801D01*
D02*
G37*
G36*
X183132Y77461D02*
X183938Y76800D01*
X184772Y76217D01*
X185635Y75711D01*
X186527Y75283D01*
X187448Y74933D01*
X188397Y74661D01*
X189375Y74466D01*
X190382Y74349D01*
X191418Y74310D01*
X191418Y66690D01*
X190382Y66652D01*
X189375Y66535D01*
X188397Y66340D01*
X187447Y66068D01*
X186527Y65718D01*
X185634Y65290D01*
X184771Y64784D01*
X183937Y64201D01*
X183131Y63540D01*
X182354Y62801D01*
X182355Y78201D01*
X183132Y77461D01*
D02*
G37*
G36*
X-182356Y62800D02*
X-183133Y63539D01*
X-183938Y64200D01*
X-184772Y64784D01*
X-185636Y65290D01*
X-186528Y65718D01*
X-187448Y66068D01*
X-188398Y66340D01*
X-189376Y66535D01*
X-190383Y66651D01*
X-191419Y66690D01*
X-191417Y74310D01*
X-190382Y74349D01*
X-189375Y74466D01*
X-188396Y74660D01*
X-187447Y74933D01*
X-186526Y75283D01*
X-185634Y75711D01*
X-184771Y76216D01*
X-183936Y76800D01*
X-183130Y77461D01*
X-182353Y78200D01*
X-182356Y62800D01*
D02*
G37*
G36*
X-216867Y77461D02*
X-216061Y76800D01*
X-215227Y76216D01*
X-214363Y75711D01*
X-213471Y75283D01*
X-212551Y74933D01*
X-211601Y74660D01*
X-210623Y74466D01*
X-209616Y74349D01*
X-208580Y74310D01*
X-208579Y66690D01*
X-209615Y66651D01*
X-210622Y66535D01*
X-211600Y66340D01*
X-212549Y66068D01*
X-213470Y65718D01*
X-214362Y65290D01*
X-215225Y64784D01*
X-216059Y64200D01*
X-216865Y63539D01*
X-217642Y62800D01*
X-217644Y78200D01*
X-216867Y77461D01*
D02*
G37*
G36*
X232461Y61870D02*
X231800Y61064D01*
X231216Y60229D01*
X230711Y59366D01*
X230283Y58474D01*
X229933Y57553D01*
X229660Y56604D01*
X229466Y55625D01*
X229349Y54618D01*
X229310Y53583D01*
X221690Y53581D01*
X221651Y54617D01*
X221535Y55624D01*
X221340Y56602D01*
X221068Y57552D01*
X220718Y58472D01*
X220290Y59364D01*
X219784Y60227D01*
X219200Y61062D01*
X218539Y61867D01*
X217800Y62644D01*
X233200Y62647D01*
X232461Y61870D01*
D02*
G37*
G36*
X-217800Y62642D02*
X-218539Y61865D01*
X-219200Y61059D01*
X-219784Y60225D01*
X-220290Y59362D01*
X-220718Y58470D01*
X-221068Y57549D01*
X-221340Y56600D01*
X-221535Y55622D01*
X-221651Y54615D01*
X-221690Y53579D01*
X-229310Y53580D01*
X-229349Y54616D01*
X-229466Y55623D01*
X-229660Y56601D01*
X-229933Y57551D01*
X-230283Y58471D01*
X-230711Y59363D01*
X-231216Y60227D01*
X-231800Y61061D01*
X-232461Y61867D01*
X-233200Y62644D01*
X-217800Y62642D01*
D02*
G37*
G36*
X176530Y84230D02*
X176282Y84040D01*
X175770D01*
Y70500D01*
Y56960D01*
X176282D01*
X176530Y56770D01*
Y33230D01*
X176282Y33040D01*
X175770D01*
Y19500D01*
Y5960D01*
X176282D01*
X176530Y5770D01*
Y-5770D01*
X176282Y-5960D01*
X175770D01*
Y-19500D01*
Y-33040D01*
X176282D01*
X176530Y-33230D01*
Y-56770D01*
X176282Y-56960D01*
X175770D01*
Y-70500D01*
Y-84040D01*
X176282D01*
X176530Y-84230D01*
Y-130810D01*
X173990Y-133350D01*
X-172720D01*
Y-84040D01*
X-172717D01*
X-169273Y-83118D01*
X-166186Y-81335D01*
X-163665Y-78814D01*
X-161882Y-75727D01*
X-160960Y-72283D01*
Y-71770D01*
X-174500D01*
Y-69230D01*
X-160960D01*
Y-68718D01*
X-161882Y-65274D01*
X-163665Y-62187D01*
X-166186Y-59666D01*
X-169273Y-57883D01*
X-172717Y-56960D01*
X-172720D01*
Y-33040D01*
X-172717D01*
X-169273Y-32117D01*
X-166186Y-30334D01*
X-163665Y-27813D01*
X-161882Y-24726D01*
X-160960Y-21282D01*
Y-20770D01*
X-174500D01*
Y-18230D01*
X-160960D01*
Y-17717D01*
X-161882Y-14274D01*
X-163665Y-11186D01*
X-166186Y-8665D01*
X-169273Y-6882D01*
X-172717Y-5960D01*
X-172720D01*
Y5960D01*
X-172717D01*
X-169273Y6882D01*
X-166186Y8665D01*
X-163665Y11186D01*
X-161882Y14274D01*
X-160960Y17717D01*
Y18230D01*
X-174500D01*
Y20770D01*
X-160960D01*
Y21282D01*
X-161882Y24726D01*
X-163665Y27813D01*
X-166186Y30334D01*
X-169273Y32117D01*
X-172717Y33040D01*
X-172720D01*
Y56960D01*
X-172717D01*
X-169273Y57883D01*
X-166186Y59666D01*
X-163665Y62187D01*
X-161882Y65274D01*
X-160960Y68718D01*
Y69230D01*
X-174500D01*
Y71770D01*
X-160960D01*
Y72283D01*
X-161882Y75727D01*
X-163665Y78814D01*
X-166186Y81335D01*
X-169273Y83118D01*
X-172717Y84040D01*
X-172720D01*
Y120650D01*
X-86625D01*
X-86085Y120117D01*
X-84929Y118110D01*
X-85180Y116850D01*
Y46107D01*
X-87719Y45055D01*
X-88158Y45494D01*
X-90054Y46279D01*
Y40756D01*
Y35234D01*
X-88158Y36019D01*
X-87719Y36458D01*
X-85180Y35406D01*
Y-51232D01*
X-85588Y-52218D01*
Y-54441D01*
X-84737Y-56495D01*
X-83165Y-58067D01*
X-81111Y-58918D01*
X-78889D01*
X-77902Y-58509D01*
X55687D01*
X56525Y-59347D01*
X58579Y-60198D01*
X60802D01*
X62855Y-59347D01*
X64427Y-57775D01*
X65278Y-55722D01*
Y-53499D01*
X64427Y-51445D01*
X62855Y-49873D01*
X60880Y-49055D01*
X60117Y-48545D01*
X58135Y-48151D01*
X-74820D01*
Y17323D01*
X-72281Y17828D01*
X-71777Y16612D01*
X-70218Y15053D01*
X-68350Y14280D01*
Y19750D01*
Y25220D01*
X-70218Y24447D01*
X-71777Y22888D01*
X-72281Y21672D01*
X-74820Y22177D01*
Y114705D01*
X-68875Y120650D01*
X44745D01*
X75010Y90385D01*
Y72709D01*
X75405Y70727D01*
X76527Y69047D01*
X91341Y54234D01*
Y42738D01*
X90932Y41751D01*
Y39529D01*
X91783Y37475D01*
X93355Y35903D01*
X95408Y35052D01*
X97632D01*
X99685Y35903D01*
X101257Y37475D01*
X102108Y39529D01*
Y41751D01*
X101699Y42738D01*
Y56379D01*
X101305Y58361D01*
X100183Y60042D01*
X85369Y74855D01*
Y90385D01*
X115635Y120650D01*
X176530D01*
Y84230D01*
D02*
G37*
G36*
X229310Y36420D02*
X229349Y35384D01*
X229466Y34377D01*
X229660Y33399D01*
X229933Y32449D01*
X230283Y31529D01*
X230711Y30637D01*
X231216Y29773D01*
X231800Y28939D01*
X232461Y28133D01*
X233200Y27356D01*
X217800Y27358D01*
X218539Y28135D01*
X219200Y28941D01*
X219784Y29775D01*
X220290Y30638D01*
X220718Y31530D01*
X221068Y32451D01*
X221340Y33400D01*
X221535Y34378D01*
X221651Y35385D01*
X221690Y36421D01*
X229310Y36420D01*
D02*
G37*
G36*
X-221651Y35383D02*
X-221535Y34376D01*
X-221340Y33398D01*
X-221068Y32448D01*
X-220718Y31528D01*
X-220290Y30636D01*
X-219784Y29773D01*
X-219200Y28938D01*
X-218539Y28133D01*
X-217800Y27356D01*
X-233200Y27353D01*
X-232461Y28130D01*
X-231800Y28936D01*
X-231216Y29771D01*
X-230711Y30634D01*
X-230283Y31526D01*
X-229933Y32447D01*
X-229660Y33396D01*
X-229466Y34375D01*
X-229349Y35382D01*
X-229310Y36417D01*
X-221690Y36419D01*
X-221651Y35383D01*
D02*
G37*
G36*
X217644Y11800D02*
X216867Y12539D01*
X216061Y13200D01*
X215227Y13784D01*
X214363Y14289D01*
X213471Y14717D01*
X212551Y15067D01*
X211601Y15340D01*
X210623Y15534D01*
X209616Y15651D01*
X208580Y15690D01*
X208579Y23310D01*
X209615Y23349D01*
X210622Y23465D01*
X211600Y23660D01*
X212549Y23932D01*
X213470Y24282D01*
X214362Y24710D01*
X215225Y25216D01*
X216059Y25800D01*
X216865Y26461D01*
X217642Y27200D01*
X217644Y11800D01*
D02*
G37*
G36*
X183133Y26461D02*
X183938Y25800D01*
X184772Y25216D01*
X185636Y24710D01*
X186528Y24282D01*
X187448Y23932D01*
X188398Y23660D01*
X189376Y23465D01*
X190383Y23349D01*
X191419Y23310D01*
X191417Y15690D01*
X190382Y15651D01*
X189375Y15534D01*
X188396Y15340D01*
X187447Y15067D01*
X186526Y14717D01*
X185634Y14289D01*
X184771Y13784D01*
X183936Y13200D01*
X183130Y12539D01*
X182353Y11800D01*
X182356Y27200D01*
X183133Y26461D01*
D02*
G37*
G36*
X-182355Y11799D02*
X-183132Y12539D01*
X-183938Y13200D01*
X-184772Y13784D01*
X-185635Y14289D01*
X-186527Y14717D01*
X-187448Y15067D01*
X-188397Y15340D01*
X-189375Y15534D01*
X-190382Y15651D01*
X-191418Y15690D01*
X-191418Y23310D01*
X-190382Y23349D01*
X-189375Y23465D01*
X-188397Y23660D01*
X-187447Y23932D01*
X-186527Y24282D01*
X-185634Y24710D01*
X-184771Y25216D01*
X-183937Y25799D01*
X-183131Y26460D01*
X-182354Y27199D01*
X-182355Y11799D01*
D02*
G37*
G36*
X-216866Y26460D02*
X-216061Y25799D01*
X-215226Y25216D01*
X-214363Y24710D01*
X-213471Y24282D01*
X-212550Y23932D01*
X-211601Y23660D01*
X-210623Y23465D01*
X-209615Y23349D01*
X-208580Y23310D01*
X-208579Y15690D01*
X-209615Y15651D01*
X-210622Y15534D01*
X-211600Y15340D01*
X-212550Y15067D01*
X-213470Y14717D01*
X-214362Y14289D01*
X-215226Y13784D01*
X-216060Y13200D01*
X-216866Y12539D01*
X-217642Y11799D01*
X-217644Y27199D01*
X-216866Y26460D01*
D02*
G37*
G36*
X217644Y-27199D02*
X216866Y-26460D01*
X216061Y-25799D01*
X215226Y-25216D01*
X214363Y-24710D01*
X213471Y-24282D01*
X212550Y-23932D01*
X211601Y-23660D01*
X210623Y-23465D01*
X209615Y-23349D01*
X208580Y-23310D01*
X208579Y-15690D01*
X209615Y-15651D01*
X210622Y-15534D01*
X211600Y-15340D01*
X212550Y-15067D01*
X213470Y-14717D01*
X214362Y-14289D01*
X215226Y-13784D01*
X216060Y-13200D01*
X216866Y-12539D01*
X217642Y-11799D01*
X217644Y-27199D01*
D02*
G37*
G36*
X183132Y-12539D02*
X183938Y-13200D01*
X184772Y-13784D01*
X185635Y-14289D01*
X186527Y-14717D01*
X187448Y-15067D01*
X188397Y-15340D01*
X189375Y-15534D01*
X190382Y-15651D01*
X191418Y-15690D01*
X191418Y-23310D01*
X190382Y-23349D01*
X189375Y-23465D01*
X188397Y-23660D01*
X187447Y-23932D01*
X186527Y-24282D01*
X185634Y-24710D01*
X184771Y-25216D01*
X183937Y-25799D01*
X183131Y-26460D01*
X182354Y-27199D01*
X182355Y-11799D01*
X183132Y-12539D01*
D02*
G37*
G36*
X-182356Y-27200D02*
X-183133Y-26461D01*
X-183938Y-25800D01*
X-184772Y-25216D01*
X-185636Y-24710D01*
X-186528Y-24282D01*
X-187448Y-23932D01*
X-188398Y-23660D01*
X-189376Y-23465D01*
X-190383Y-23349D01*
X-191419Y-23310D01*
X-191417Y-15690D01*
X-190382Y-15651D01*
X-189375Y-15534D01*
X-188396Y-15340D01*
X-187447Y-15067D01*
X-186526Y-14717D01*
X-185634Y-14289D01*
X-184771Y-13784D01*
X-183936Y-13200D01*
X-183130Y-12539D01*
X-182353Y-11800D01*
X-182356Y-27200D01*
D02*
G37*
G36*
X-216867Y-12539D02*
X-216061Y-13200D01*
X-215227Y-13784D01*
X-214363Y-14289D01*
X-213471Y-14717D01*
X-212551Y-15067D01*
X-211601Y-15340D01*
X-210623Y-15534D01*
X-209616Y-15651D01*
X-208580Y-15690D01*
X-208579Y-23310D01*
X-209615Y-23349D01*
X-210622Y-23465D01*
X-211600Y-23660D01*
X-212549Y-23932D01*
X-213470Y-24282D01*
X-214362Y-24710D01*
X-215225Y-25216D01*
X-216059Y-25800D01*
X-216865Y-26461D01*
X-217642Y-27200D01*
X-217644Y-11800D01*
X-216867Y-12539D01*
D02*
G37*
G36*
X232461Y-28130D02*
X231800Y-28936D01*
X231216Y-29771D01*
X230711Y-30634D01*
X230283Y-31526D01*
X229933Y-32447D01*
X229660Y-33396D01*
X229466Y-34375D01*
X229349Y-35382D01*
X229310Y-36417D01*
X221690Y-36419D01*
X221651Y-35383D01*
X221535Y-34376D01*
X221340Y-33398D01*
X221068Y-32448D01*
X220718Y-31528D01*
X220290Y-30636D01*
X219784Y-29773D01*
X219200Y-28938D01*
X218539Y-28133D01*
X217800Y-27356D01*
X233200Y-27353D01*
X232461Y-28130D01*
D02*
G37*
G36*
X-217800Y-27358D02*
X-218539Y-28135D01*
X-219200Y-28941D01*
X-219784Y-29775D01*
X-220290Y-30638D01*
X-220718Y-31530D01*
X-221068Y-32451D01*
X-221340Y-33400D01*
X-221535Y-34378D01*
X-221651Y-35385D01*
X-221690Y-36421D01*
X-229310Y-36420D01*
X-229349Y-35384D01*
X-229466Y-34377D01*
X-229660Y-33399D01*
X-229933Y-32449D01*
X-230283Y-31529D01*
X-230711Y-30637D01*
X-231216Y-29773D01*
X-231800Y-28939D01*
X-232461Y-28133D01*
X-233200Y-27356D01*
X-217800Y-27358D01*
D02*
G37*
G36*
X229310Y-53580D02*
X229349Y-54616D01*
X229466Y-55623D01*
X229660Y-56601D01*
X229933Y-57551D01*
X230283Y-58471D01*
X230711Y-59363D01*
X231216Y-60227D01*
X231800Y-61061D01*
X232461Y-61867D01*
X233200Y-62644D01*
X217800Y-62642D01*
X218539Y-61865D01*
X219200Y-61059D01*
X219784Y-60225D01*
X220290Y-59362D01*
X220718Y-58470D01*
X221068Y-57549D01*
X221340Y-56600D01*
X221535Y-55622D01*
X221651Y-54615D01*
X221690Y-53579D01*
X229310Y-53580D01*
D02*
G37*
G36*
X-221651Y-54617D02*
X-221535Y-55624D01*
X-221340Y-56602D01*
X-221068Y-57552D01*
X-220718Y-58472D01*
X-220290Y-59364D01*
X-219784Y-60227D01*
X-219200Y-61062D01*
X-218539Y-61867D01*
X-217800Y-62644D01*
X-233200Y-62647D01*
X-232461Y-61870D01*
X-231800Y-61064D01*
X-231216Y-60229D01*
X-230711Y-59366D01*
X-230283Y-58474D01*
X-229933Y-57553D01*
X-229660Y-56604D01*
X-229466Y-55625D01*
X-229349Y-54618D01*
X-229310Y-53583D01*
X-221690Y-53581D01*
X-221651Y-54617D01*
D02*
G37*
G36*
X217644Y-78200D02*
X216867Y-77461D01*
X216061Y-76800D01*
X215227Y-76216D01*
X214363Y-75711D01*
X213471Y-75283D01*
X212551Y-74933D01*
X211601Y-74660D01*
X210623Y-74466D01*
X209616Y-74349D01*
X208580Y-74310D01*
X208579Y-66690D01*
X209615Y-66651D01*
X210622Y-66535D01*
X211600Y-66340D01*
X212549Y-66068D01*
X213470Y-65718D01*
X214362Y-65290D01*
X215225Y-64784D01*
X216059Y-64200D01*
X216865Y-63539D01*
X217642Y-62800D01*
X217644Y-78200D01*
D02*
G37*
G36*
X183133Y-63539D02*
X183938Y-64200D01*
X184772Y-64784D01*
X185636Y-65290D01*
X186528Y-65718D01*
X187448Y-66068D01*
X188398Y-66340D01*
X189376Y-66535D01*
X190383Y-66651D01*
X191419Y-66690D01*
X191417Y-74310D01*
X190382Y-74349D01*
X189375Y-74466D01*
X188396Y-74660D01*
X187447Y-74933D01*
X186526Y-75283D01*
X185634Y-75711D01*
X184771Y-76216D01*
X183936Y-76800D01*
X183130Y-77461D01*
X182353Y-78200D01*
X182356Y-62800D01*
X183133Y-63539D01*
D02*
G37*
G36*
X-182355Y-78201D02*
X-183132Y-77461D01*
X-183938Y-76800D01*
X-184772Y-76217D01*
X-185635Y-75711D01*
X-186527Y-75283D01*
X-187448Y-74933D01*
X-188397Y-74661D01*
X-189375Y-74466D01*
X-190382Y-74349D01*
X-191418Y-74310D01*
X-191418Y-66690D01*
X-190382Y-66652D01*
X-189375Y-66535D01*
X-188397Y-66340D01*
X-187447Y-66068D01*
X-186527Y-65718D01*
X-185634Y-65290D01*
X-184771Y-64784D01*
X-183937Y-64201D01*
X-183131Y-63540D01*
X-182354Y-62801D01*
X-182355Y-78201D01*
D02*
G37*
G36*
X-216866Y-63540D02*
X-216061Y-64201D01*
X-215226Y-64784D01*
X-214363Y-65290D01*
X-213471Y-65718D01*
X-212550Y-66068D01*
X-211601Y-66340D01*
X-210623Y-66535D01*
X-209615Y-66652D01*
X-208580Y-66690D01*
X-208579Y-74310D01*
X-209615Y-74349D01*
X-210622Y-74466D01*
X-211600Y-74661D01*
X-212550Y-74933D01*
X-213470Y-75283D01*
X-214362Y-75711D01*
X-215226Y-76217D01*
X-216060Y-76800D01*
X-216866Y-77461D01*
X-217642Y-78201D01*
X-217644Y-62801D01*
X-216866Y-63540D01*
D02*
G37*
%LPC*%
G36*
X-7178Y118110D02*
X-11430D01*
Y113858D01*
X-9535Y114643D01*
X-7963Y116215D01*
X-7178Y118110D01*
D02*
G37*
G36*
X-13970D02*
X-18222D01*
X-17437Y116215D01*
X-15865Y114643D01*
X-13970Y113858D01*
Y118110D01*
D02*
G37*
G36*
X-15240Y77912D02*
Y73660D01*
X-10988D01*
X-11773Y75555D01*
X-13345Y77127D01*
X-15240Y77912D01*
D02*
G37*
G36*
X-17780D02*
X-19675Y77127D01*
X-21247Y75555D01*
X-22032Y73660D01*
X-17780D01*
Y77912D01*
D02*
G37*
G36*
X173230Y84040D02*
X172717D01*
X169273Y83118D01*
X166186Y81335D01*
X163665Y78814D01*
X161882Y75727D01*
X160960Y72283D01*
Y71770D01*
X173230D01*
Y84040D01*
D02*
G37*
G36*
X-140810Y75220D02*
Y71020D01*
X-136610D01*
X-137383Y72888D01*
X-138942Y74447D01*
X-140810Y75220D01*
D02*
G37*
G36*
X-143350D02*
X-145218Y74447D01*
X-146777Y72888D01*
X-147550Y71020D01*
X-143350D01*
Y75220D01*
D02*
G37*
G36*
X119380Y74102D02*
Y69850D01*
X123632D01*
X122847Y71745D01*
X121275Y73317D01*
X119380Y74102D01*
D02*
G37*
G36*
X116840D02*
X114945Y73317D01*
X113373Y71745D01*
X112588Y69850D01*
X116840D01*
Y74102D01*
D02*
G37*
G36*
X-10988Y71120D02*
X-15240D01*
Y66868D01*
X-13345Y67653D01*
X-11773Y69225D01*
X-10988Y71120D01*
D02*
G37*
G36*
X-17780D02*
X-22032D01*
X-21247Y69225D01*
X-19675Y67653D01*
X-17780Y66868D01*
Y71120D01*
D02*
G37*
G36*
X-136610Y68480D02*
X-140810D01*
Y64280D01*
X-138942Y65053D01*
X-137383Y66612D01*
X-136610Y68480D01*
D02*
G37*
G36*
X-143350D02*
X-147550D01*
X-146777Y66612D01*
X-145218Y65053D01*
X-143350Y64280D01*
Y68480D01*
D02*
G37*
G36*
X123632Y67310D02*
X119380D01*
Y63058D01*
X121275Y63843D01*
X122847Y65415D01*
X123632Y67310D01*
D02*
G37*
G36*
X116840D02*
X112588D01*
X113373Y65415D01*
X114945Y63843D01*
X116840Y63058D01*
Y67310D01*
D02*
G37*
G36*
X173230Y69230D02*
X160960D01*
Y68718D01*
X161882Y65274D01*
X163665Y62187D01*
X166186Y59666D01*
X169273Y57883D01*
X172717Y56960D01*
X173230D01*
Y69230D01*
D02*
G37*
G36*
X-92594Y46279D02*
X-94489Y45494D01*
X-96061Y43922D01*
X-96846Y42026D01*
X-92594D01*
Y46279D01*
D02*
G37*
G36*
Y39486D02*
X-96846D01*
X-96061Y37591D01*
X-94489Y36019D01*
X-92594Y35234D01*
Y39486D01*
D02*
G37*
G36*
X134190Y25220D02*
Y21020D01*
X138390D01*
X137617Y22888D01*
X136058Y24447D01*
X134190Y25220D01*
D02*
G37*
G36*
X131650D02*
X129782Y24447D01*
X128223Y22888D01*
X127450Y21020D01*
X131650D01*
Y25220D01*
D02*
G37*
G36*
X-15810D02*
Y21020D01*
X-11610D01*
X-12383Y22888D01*
X-13942Y24447D01*
X-15810Y25220D01*
D02*
G37*
G36*
X-18350D02*
X-20218Y24447D01*
X-21777Y22888D01*
X-22550Y21020D01*
X-18350D01*
Y25220D01*
D02*
G37*
G36*
X-65810D02*
Y21020D01*
X-61610D01*
X-62383Y22888D01*
X-63942Y24447D01*
X-65810Y25220D01*
D02*
G37*
G36*
X-115810D02*
Y21020D01*
X-111610D01*
X-112383Y22888D01*
X-113942Y24447D01*
X-115810Y25220D01*
D02*
G37*
G36*
X-118350D02*
X-120218Y24447D01*
X-121777Y22888D01*
X-122550Y21020D01*
X-118350D01*
Y25220D01*
D02*
G37*
G36*
X173230Y33040D02*
X172717D01*
X169273Y32117D01*
X166186Y30334D01*
X163665Y27813D01*
X161882Y24726D01*
X160960Y21282D01*
Y20770D01*
X173230D01*
Y33040D01*
D02*
G37*
G36*
X138390Y18480D02*
X134190D01*
Y14280D01*
X136058Y15053D01*
X137617Y16612D01*
X138390Y18480D01*
D02*
G37*
G36*
X131650D02*
X127450D01*
X128223Y16612D01*
X129782Y15053D01*
X131650Y14280D01*
Y18480D01*
D02*
G37*
G36*
X-11610D02*
X-15810D01*
Y14280D01*
X-13942Y15053D01*
X-12383Y16612D01*
X-11610Y18480D01*
D02*
G37*
G36*
X-18350D02*
X-22550D01*
X-21777Y16612D01*
X-20218Y15053D01*
X-18350Y14280D01*
Y18480D01*
D02*
G37*
G36*
X-61610D02*
X-65810D01*
Y14280D01*
X-63942Y15053D01*
X-62383Y16612D01*
X-61610Y18480D01*
D02*
G37*
G36*
X-111610D02*
X-115810D01*
Y14280D01*
X-113942Y15053D01*
X-112383Y16612D01*
X-111610Y18480D01*
D02*
G37*
G36*
X-118350D02*
X-122550D01*
X-121777Y16612D01*
X-120218Y15053D01*
X-118350Y14280D01*
Y18480D01*
D02*
G37*
G36*
X173230Y18230D02*
X160960D01*
Y17717D01*
X161882Y14274D01*
X163665Y11186D01*
X166186Y8665D01*
X169273Y6882D01*
X172717Y5960D01*
X173230D01*
Y18230D01*
D02*
G37*
G36*
Y-5960D02*
X172717D01*
X169273Y-6882D01*
X166186Y-8665D01*
X163665Y-11186D01*
X161882Y-14274D01*
X160960Y-17717D01*
Y-18230D01*
X173230D01*
Y-5960D01*
D02*
G37*
G36*
Y-20770D02*
X160960D01*
Y-21282D01*
X161406Y-22948D01*
X159277Y-24815D01*
X159190Y-24780D01*
Y-30250D01*
Y-35720D01*
X161058Y-34947D01*
X162617Y-33388D01*
X163460Y-31352D01*
Y-31201D01*
X166000Y-30148D01*
X166186Y-30334D01*
X169273Y-32117D01*
X172717Y-33040D01*
X173230D01*
Y-20770D01*
D02*
G37*
G36*
X156650Y-24780D02*
X154782Y-25553D01*
X153223Y-27112D01*
X152450Y-28980D01*
X156650D01*
Y-24780D01*
D02*
G37*
G36*
X9190D02*
Y-28980D01*
X13390D01*
X12617Y-27112D01*
X11058Y-25553D01*
X9190Y-24780D01*
D02*
G37*
G36*
X6650D02*
X4782Y-25553D01*
X3223Y-27112D01*
X2450Y-28980D01*
X6650D01*
Y-24780D01*
D02*
G37*
G36*
X-140810D02*
Y-28980D01*
X-136610D01*
X-137383Y-27112D01*
X-138942Y-25553D01*
X-140810Y-24780D01*
D02*
G37*
G36*
X-143350D02*
X-145218Y-25553D01*
X-146777Y-27112D01*
X-147550Y-28980D01*
X-143350D01*
Y-24780D01*
D02*
G37*
G36*
X156650Y-31520D02*
X152450D01*
X153223Y-33388D01*
X154782Y-34947D01*
X156650Y-35720D01*
Y-31520D01*
D02*
G37*
G36*
X13390D02*
X9190D01*
Y-35720D01*
X11058Y-34947D01*
X12617Y-33388D01*
X13390Y-31520D01*
D02*
G37*
G36*
X6650D02*
X2450D01*
X3223Y-33388D01*
X4782Y-34947D01*
X6650Y-35720D01*
Y-31520D01*
D02*
G37*
G36*
X-136610D02*
X-140810D01*
Y-35720D01*
X-138942Y-34947D01*
X-137383Y-33388D01*
X-136610Y-31520D01*
D02*
G37*
G36*
X-143350D02*
X-147550D01*
X-146777Y-33388D01*
X-145218Y-34947D01*
X-143350Y-35720D01*
Y-31520D01*
D02*
G37*
G36*
X-43180Y-33848D02*
Y-38100D01*
X-38928D01*
X-39713Y-36205D01*
X-41285Y-34633D01*
X-43180Y-33848D01*
D02*
G37*
G36*
X-45720D02*
X-47615Y-34633D01*
X-49187Y-36205D01*
X-49972Y-38100D01*
X-45720D01*
Y-33848D01*
D02*
G37*
G36*
X-38928Y-40640D02*
X-43180D01*
Y-44892D01*
X-41285Y-44107D01*
X-39713Y-42535D01*
X-38928Y-40640D01*
D02*
G37*
G36*
X-45720D02*
X-49972D01*
X-49187Y-42535D01*
X-47615Y-44107D01*
X-45720Y-44892D01*
Y-40640D01*
D02*
G37*
G36*
X83820Y-49088D02*
Y-53340D01*
X88072D01*
X87287Y-51445D01*
X85715Y-49873D01*
X83820Y-49088D01*
D02*
G37*
G36*
X81280D02*
X79385Y-49873D01*
X77813Y-51445D01*
X77028Y-53340D01*
X81280D01*
Y-49088D01*
D02*
G37*
G36*
X88072Y-55880D02*
X83820D01*
Y-60132D01*
X85715Y-59347D01*
X87287Y-57775D01*
X88072Y-55880D01*
D02*
G37*
G36*
X81280D02*
X77028D01*
X77813Y-57775D01*
X79385Y-59347D01*
X81280Y-60132D01*
Y-55880D01*
D02*
G37*
G36*
X173230Y-56960D02*
X172717D01*
X169273Y-57883D01*
X166186Y-59666D01*
X163665Y-62187D01*
X161882Y-65274D01*
X160960Y-68718D01*
Y-69230D01*
X173230D01*
Y-56960D01*
D02*
G37*
G36*
Y-71770D02*
X160960D01*
Y-72283D01*
X161882Y-75727D01*
X163665Y-78814D01*
X166186Y-81335D01*
X169273Y-83118D01*
X172717Y-84040D01*
X173230D01*
Y-71770D01*
D02*
G37*
G36*
X147320Y-104968D02*
Y-109220D01*
X151572D01*
X150787Y-107325D01*
X149215Y-105753D01*
X147320Y-104968D01*
D02*
G37*
G36*
X144780D02*
X142885Y-105753D01*
X141313Y-107325D01*
X140528Y-109220D01*
X144780D01*
Y-104968D01*
D02*
G37*
G36*
X12700D02*
Y-109220D01*
X16952D01*
X16167Y-107325D01*
X14595Y-105753D01*
X12700Y-104968D01*
D02*
G37*
G36*
X10160D02*
X8265Y-105753D01*
X6693Y-107325D01*
X5908Y-109220D01*
X10160D01*
Y-104968D01*
D02*
G37*
G36*
X151572Y-111760D02*
X147320D01*
Y-116012D01*
X149215Y-115227D01*
X150787Y-113655D01*
X151572Y-111760D01*
D02*
G37*
G36*
X144780D02*
X140528D01*
X141313Y-113655D01*
X142885Y-115227D01*
X144780Y-116012D01*
Y-111760D01*
D02*
G37*
G36*
X16952D02*
X12700D01*
Y-116012D01*
X14595Y-115227D01*
X16167Y-113655D01*
X16952Y-111760D01*
D02*
G37*
G36*
X10160D02*
X5908D01*
X6693Y-113655D01*
X8265Y-115227D01*
X10160Y-116012D01*
Y-111760D01*
D02*
G37*
%LPD*%
D22*
X38100Y158750D02*
D03*
X12700D02*
D03*
X-12700D02*
D03*
D36*
X-80000Y-53330D02*
X58135D01*
X59415Y-54610D01*
X59690D01*
X96520Y40640D02*
Y56379D01*
X80190Y72709D01*
Y92530D01*
X137520Y149860D01*
X154940D01*
X170565Y165485D01*
Y175645D01*
X171450Y176530D01*
X120650D02*
X119380Y175260D01*
X-38100D01*
X-63500Y133350D02*
X-80000Y116850D01*
Y-53330D01*
X80190Y92530D02*
X39370Y133350D01*
Y157480D01*
X38100Y158750D01*
D37*
X-174500Y-70500D02*
X-174499Y-70501D01*
X-174500Y-70500D02*
X-225498D01*
X-225499Y-70501D01*
X-225500Y-70499D02*
Y-19503D01*
X-225499Y-19502D01*
X-225497Y-19500D01*
X-174501D01*
X-174499Y-19502D01*
Y19499D02*
X-174500Y19500D01*
X-225498D01*
X-225499Y19499D01*
X-225500Y19501D02*
Y70497D01*
X-225499Y70499D01*
X-225497Y70500D01*
X-174501D01*
X-174499Y70499D01*
X174499Y-70499D02*
X174501Y-70500D01*
X225497D01*
X225499Y-70499D01*
X225500Y-70497D01*
Y-19501D01*
X225499Y-19499D01*
X225498Y-19500D01*
X174500D01*
X174499Y-19499D01*
X225497Y19500D02*
X225499Y19502D01*
X225500Y19503D01*
Y70499D01*
X225499Y70501D01*
X225498Y70500D01*
X174500D01*
X174499Y70501D01*
Y19502D02*
X174501Y19500D01*
X225497D01*
D38*
X-174500Y-70500D02*
D03*
Y-19500D02*
D03*
Y19500D02*
D03*
Y70500D02*
D03*
X-225500D02*
D03*
Y19500D02*
D03*
Y-19500D02*
D03*
Y-70500D02*
D03*
X174500D02*
D03*
X225500D02*
D03*
Y-19500D02*
D03*
Y19500D02*
D03*
Y70500D02*
D03*
X174500D02*
D03*
Y19500D02*
D03*
Y-19500D02*
D03*
D39*
X-146050Y-175260D02*
D03*
X-120650D02*
D03*
X146050D02*
D03*
X171450D02*
D03*
Y176530D02*
D03*
X146050D02*
D03*
X-120650D02*
D03*
X-146050D02*
D03*
D40*
X-171450Y-175260D02*
D03*
X120650D02*
D03*
Y176530D02*
D03*
X-171450D02*
D03*
D41*
X-38100Y158750D02*
D03*
D42*
X-199999Y-45001D02*
D03*
Y44999D02*
D03*
X199999Y-44999D02*
D03*
Y45001D02*
D03*
D43*
X-203200Y-152400D02*
D03*
Y152400D02*
D03*
X203200Y-152400D02*
D03*
Y152400D02*
D03*
D44*
X-142080Y-30250D02*
D03*
X-117080Y19750D02*
D03*
X-67080D02*
D03*
X-17080D02*
D03*
X7920Y-30250D02*
D03*
X132920Y19750D02*
D03*
X157920Y-30250D02*
D03*
X-142080Y69750D02*
D03*
D45*
X-224790Y-173990D02*
D03*
X-223520Y-114300D02*
D03*
X-68580Y-175260D02*
D03*
X-8890Y-176530D02*
D03*
X54610Y-175260D02*
D03*
X223520D02*
D03*
X226060Y-116840D02*
D03*
X222250Y115570D02*
D03*
X223520Y172720D02*
D03*
X-224790D02*
D03*
X-223520Y118110D02*
D03*
D46*
X-80000Y-53330D02*
D03*
X-44450Y-39370D02*
D03*
X11430Y-110490D02*
D03*
X59690Y-54610D02*
D03*
X82550D02*
D03*
X146050Y-110490D02*
D03*
X96520Y40640D02*
D03*
X118110Y68580D02*
D03*
X-12700Y119380D02*
D03*
X-16510Y72390D02*
D03*
X-63500Y133350D02*
D03*
X-38100Y175260D02*
D03*
X-91324Y40756D02*
D03*
M02*
