G04*
G04 #@! TF.GenerationSoftware,Altium Limited,Altium Designer,25.7.1 (20)*
G04*
G04 Layer_Physical_Order=1*
G04 Layer_Color=255*
%FSLAX44Y44*%
%MOMM*%
G71*
G04*
G04 #@! TF.SameCoordinates,78D6477F-6DFE-48DE-8AD8-3E08B5764921*
G04*
G04*
G04 #@! TF.FilePolarity,Positive*
G04*
G01*
G75*
%ADD13C,0.2540*%
%ADD22C,1.7000*%
%ADD29R,1.1325X1.3770*%
%ADD30R,1.3500X1.4100*%
%ADD31R,1.4100X1.3500*%
%ADD32R,0.8000X0.9000*%
%ADD33O,1.8000X0.5880*%
%ADD34C,0.5080*%
%ADD35C,0.7620*%
%ADD36C,2.2000*%
%ADD37C,1.6000*%
%ADD38R,1.5748X1.6000*%
%ADD39R,1.7000X1.7000*%
%ADD40C,2.0000*%
%ADD41C,2.5000*%
%ADD42C,0.6096*%
G36*
X-126363Y170930D02*
X-126740Y171270D01*
X-127169Y171574D01*
X-127651Y171843D01*
X-128185Y172076D01*
X-128771Y172272D01*
X-129409Y172434D01*
X-130099Y172559D01*
X-130842Y172648D01*
X-131637Y172702D01*
X-132484Y172720D01*
Y180340D01*
X-131637Y180358D01*
X-130099Y180501D01*
X-129409Y180626D01*
X-128771Y180788D01*
X-128185Y180984D01*
X-127651Y181217D01*
X-127169Y181486D01*
X-126740Y181790D01*
X-126363Y182130D01*
Y170930D01*
D02*
G37*
G36*
X-139960Y181790D02*
X-139531Y181486D01*
X-139049Y181217D01*
X-138515Y180984D01*
X-137929Y180788D01*
X-137291Y180626D01*
X-136601Y180501D01*
X-135858Y180412D01*
X-135063Y180358D01*
X-134216Y180340D01*
Y172720D01*
X-135063Y172702D01*
X-136601Y172559D01*
X-137291Y172434D01*
X-137929Y172272D01*
X-138515Y172076D01*
X-139049Y171843D01*
X-139531Y171574D01*
X-139960Y171270D01*
X-140337Y170930D01*
Y182130D01*
X-139960Y181790D01*
D02*
G37*
G36*
X-163530Y183426D02*
X-163302Y182778D01*
X-162921Y182207D01*
X-162387Y181712D01*
X-161702Y181292D01*
X-160863Y180950D01*
X-159873Y180683D01*
X-158730Y180492D01*
X-157434Y180378D01*
X-156956Y180366D01*
X-155499Y180501D01*
X-154809Y180626D01*
X-154171Y180788D01*
X-153585Y180984D01*
X-153051Y181217D01*
X-152569Y181486D01*
X-152140Y181790D01*
X-151763Y182130D01*
Y170930D01*
X-152140Y171270D01*
X-152569Y171574D01*
X-153051Y171843D01*
X-153585Y172076D01*
X-154171Y172272D01*
X-154809Y172434D01*
X-155499Y172559D01*
X-156242Y172648D01*
X-156933Y172695D01*
X-157434Y172682D01*
X-158730Y172568D01*
X-159873Y172377D01*
X-160863Y172110D01*
X-161702Y171768D01*
X-162387Y171348D01*
X-162921Y170853D01*
X-163302Y170282D01*
X-163530Y169634D01*
X-163606Y168910D01*
Y184150D01*
X-163530Y183426D01*
D02*
G37*
G36*
X-35535Y171334D02*
X-35458Y170471D01*
X-35331Y169709D01*
X-35154Y169048D01*
X-34925Y168489D01*
X-34646Y168032D01*
X-34315Y167677D01*
X-33934Y167423D01*
X-33503Y167270D01*
X-33020Y167220D01*
X-43180D01*
X-42697Y167270D01*
X-42266Y167423D01*
X-41885Y167677D01*
X-41554Y168032D01*
X-41275Y168489D01*
X-41046Y169048D01*
X-40869Y169709D01*
X-40742Y170471D01*
X-40665Y171334D01*
X-40640Y172299D01*
X-35560D01*
X-35535Y171334D01*
D02*
G37*
G36*
X49929Y164510D02*
X49442Y163984D01*
X48986Y163410D01*
X48560Y162787D01*
X48165Y162117D01*
X47800Y161398D01*
X47466Y160631D01*
X47163Y159816D01*
X46647Y158041D01*
X46435Y157082D01*
X39935Y167050D01*
X40795Y166894D01*
X41625Y166814D01*
X42423Y166809D01*
X43190Y166880D01*
X43925Y167027D01*
X44629Y167250D01*
X45302Y167549D01*
X45944Y167923D01*
X46554Y168373D01*
X47133Y168898D01*
X49929Y164510D01*
D02*
G37*
G36*
X-112653Y177311D02*
X-112517Y176939D01*
X-112321Y176535D01*
X-112065Y176099D01*
X-111748Y175630D01*
X-110935Y174595D01*
X-110438Y174029D01*
X-109263Y172799D01*
X-113456Y166216D01*
X-114070Y166804D01*
X-115229Y167761D01*
X-115774Y168130D01*
X-116297Y168426D01*
X-116797Y168648D01*
X-117274Y168797D01*
X-117728Y168873D01*
X-118160Y168876D01*
X-118569Y168806D01*
X-112729Y177650D01*
X-112653Y177311D01*
D02*
G37*
G36*
X145970Y168530D02*
X145463Y168504D01*
X144944Y168416D01*
X144414Y168265D01*
X143872Y168052D01*
X143318Y167777D01*
X142753Y167440D01*
X142176Y167040D01*
X141588Y166578D01*
X140988Y166054D01*
X140376Y165468D01*
X134988Y170856D01*
X135574Y171468D01*
X136560Y172656D01*
X136960Y173233D01*
X137297Y173798D01*
X137572Y174352D01*
X137785Y174894D01*
X137936Y175424D01*
X138024Y175943D01*
X138050Y176450D01*
X145970Y168530D01*
D02*
G37*
G36*
X-8869Y170567D02*
X-8804Y169733D01*
X-8697Y168949D01*
X-8548Y168213D01*
X-8355Y167526D01*
X-8120Y166888D01*
X-7841Y166298D01*
X-7520Y165757D01*
X-7157Y165264D01*
X-6750Y164820D01*
X-18650D01*
X-18243Y165264D01*
X-17880Y165757D01*
X-17559Y166298D01*
X-17280Y166888D01*
X-17045Y167526D01*
X-16852Y168213D01*
X-16703Y168949D01*
X-16596Y169733D01*
X-16531Y170567D01*
X-16510Y171448D01*
X-8890D01*
X-8869Y170567D01*
D02*
G37*
G36*
X58880Y164440D02*
X66819D01*
X66548Y164390D01*
X66305Y164237D01*
X66090Y163983D01*
X65904Y163628D01*
X65747Y163171D01*
X65619Y162612D01*
X65518Y161951D01*
X65447Y161189D01*
X65390Y159361D01*
X60310D01*
X60296Y160326D01*
X60181Y161951D01*
X60081Y162612D01*
X59952Y163171D01*
X59795Y163628D01*
X59609Y163983D01*
X59395Y164237D01*
X59152Y164390D01*
X58880Y164440D01*
X58829Y164807D01*
X58677Y165135D01*
X58423Y165424D01*
X58067Y165675D01*
X57610Y165888D01*
X57051Y166061D01*
X56391Y166196D01*
X55629Y166293D01*
X54765Y166351D01*
X53800Y166370D01*
Y171450D01*
X54765Y171469D01*
X56391Y171624D01*
X57051Y171759D01*
X57610Y171932D01*
X58067Y172145D01*
X58423Y172395D01*
X58677Y172685D01*
X58829Y173013D01*
X58880Y173379D01*
Y164440D01*
D02*
G37*
G36*
X-58829Y173013D02*
X-58677Y172685D01*
X-58423Y172395D01*
X-58067Y172145D01*
X-57610Y171932D01*
X-57051Y171759D01*
X-56391Y171624D01*
X-55629Y171527D01*
X-54765Y171469D01*
X-53800Y171450D01*
Y166370D01*
X-54765Y166351D01*
X-56391Y166196D01*
X-57051Y166061D01*
X-57610Y165888D01*
X-58067Y165675D01*
X-58423Y165424D01*
X-58677Y165135D01*
X-58829Y164807D01*
X-58880Y164440D01*
X-59152Y164390D01*
X-59395Y164237D01*
X-59609Y163983D01*
X-59795Y163628D01*
X-59952Y163171D01*
X-60081Y162612D01*
X-60181Y161951D01*
X-60253Y161189D01*
X-60310Y159361D01*
X-65390D01*
X-65404Y160326D01*
X-65518Y161951D01*
X-65619Y162612D01*
X-65747Y163171D01*
X-65904Y163628D01*
X-66090Y163983D01*
X-66305Y164237D01*
X-66548Y164390D01*
X-66819Y164440D01*
X-58880D01*
Y173379D01*
X-58829Y173013D01*
D02*
G37*
G36*
X24373Y165035D02*
X23765Y164396D01*
X23221Y163762D01*
X22742Y163132D01*
X22328Y162505D01*
X21978Y161883D01*
X21693Y161265D01*
X21473Y160651D01*
X21317Y160042D01*
X21226Y159436D01*
X21200Y158835D01*
X12785Y167250D01*
X13386Y167276D01*
X13992Y167367D01*
X14602Y167523D01*
X15215Y167743D01*
X15833Y168028D01*
X16455Y168378D01*
X17082Y168792D01*
X17712Y169271D01*
X18346Y169815D01*
X18985Y170423D01*
X24373Y165035D01*
D02*
G37*
G36*
X80789Y164364D02*
X80762Y164136D01*
X80738Y163755D01*
X80688Y159329D01*
X80820Y153060D01*
X72881D01*
X72911Y153136D01*
X72938Y153364D01*
X72962Y153745D01*
X73012Y158171D01*
X72881Y164440D01*
X80820D01*
X80789Y164364D01*
D02*
G37*
G36*
X65404Y157174D02*
X65518Y155549D01*
X65619Y154888D01*
X65747Y154330D01*
X65904Y153872D01*
X66090Y153517D01*
X66305Y153263D01*
X66548Y153110D01*
X66819Y153060D01*
X58880D01*
X59152Y153110D01*
X59395Y153263D01*
X59609Y153517D01*
X59795Y153872D01*
X59952Y154330D01*
X60081Y154888D01*
X60181Y155549D01*
X60253Y156311D01*
X60310Y158139D01*
X65390D01*
X65404Y157174D01*
D02*
G37*
G36*
X-60296D02*
X-60181Y155549D01*
X-60081Y154888D01*
X-59952Y154330D01*
X-59795Y153872D01*
X-59609Y153517D01*
X-59395Y153263D01*
X-59152Y153110D01*
X-58880Y153060D01*
X-66819D01*
X-66548Y153110D01*
X-66305Y153263D01*
X-66090Y153517D01*
X-65904Y153872D01*
X-65747Y154330D01*
X-65619Y154888D01*
X-65518Y155549D01*
X-65447Y156311D01*
X-65390Y158139D01*
X-60310D01*
X-60296Y157174D01*
D02*
G37*
G36*
X-72881Y173379D02*
X-80820D01*
Y164440D01*
X-72881D01*
X-72911Y164364D01*
X-72938Y164136D01*
X-72962Y163755D01*
X-73012Y159329D01*
X-72881Y153060D01*
X-80820D01*
X-80789Y153136D01*
X-80762Y153364D01*
X-80738Y153745D01*
X-80688Y158171D01*
X-80820Y164440D01*
X-80896Y164566D01*
X-81125Y164678D01*
X-81506Y164777D01*
X-82039Y164863D01*
X-82725Y164935D01*
X-85697Y165074D01*
X-88440Y165100D01*
Y172720D01*
X-86992Y172727D01*
X-81506Y173043D01*
X-81125Y173142D01*
X-80896Y173254D01*
X-80820Y173379D01*
X-80789Y173430D01*
X-80762Y173581D01*
X-80738Y173833D01*
X-80686Y175193D01*
X-80660Y178416D01*
X-73040D01*
X-72881Y173379D01*
D02*
G37*
G36*
X6630Y152800D02*
X6186Y153207D01*
X5693Y153570D01*
X5152Y153891D01*
X4562Y154170D01*
X3924Y154405D01*
X3237Y154598D01*
X2501Y154747D01*
X1717Y154854D01*
X883Y154919D01*
X2Y154940D01*
Y162560D01*
X883Y162581D01*
X1717Y162646D01*
X2501Y162753D01*
X3237Y162902D01*
X3924Y163095D01*
X4562Y163330D01*
X5152Y163609D01*
X5693Y163930D01*
X6186Y164293D01*
X6630Y164700D01*
Y152800D01*
D02*
G37*
G36*
X-6186Y164293D02*
X-5693Y163930D01*
X-5152Y163609D01*
X-4562Y163330D01*
X-3924Y163095D01*
X-3237Y162902D01*
X-2501Y162753D01*
X-1717Y162646D01*
X-883Y162581D01*
X-2Y162560D01*
Y154940D01*
X-883Y154919D01*
X-1717Y154854D01*
X-2501Y154747D01*
X-3237Y154598D01*
X-3924Y154405D01*
X-4562Y154170D01*
X-5152Y153891D01*
X-5693Y153570D01*
X-6186Y153207D01*
X-6630Y152800D01*
Y164700D01*
X-6186Y164293D01*
D02*
G37*
G36*
X-7157Y152236D02*
X-7520Y151743D01*
X-7841Y151202D01*
X-8120Y150612D01*
X-8355Y149974D01*
X-8548Y149287D01*
X-8697Y148551D01*
X-8804Y147767D01*
X-8869Y146933D01*
X-8890Y146052D01*
X-16510D01*
X-16531Y146933D01*
X-16596Y147767D01*
X-16703Y148551D01*
X-16852Y149287D01*
X-17045Y149974D01*
X-17280Y150612D01*
X-17559Y151202D01*
X-17880Y151743D01*
X-18243Y152236D01*
X-18650Y152680D01*
X-6750D01*
X-7157Y152236D01*
D02*
G37*
G36*
X80896Y152934D02*
X81125Y152822D01*
X81506Y152723D01*
X82039Y152637D01*
X82725Y152565D01*
X85697Y152426D01*
X88440Y152400D01*
Y144780D01*
X86992Y144773D01*
X81506Y144457D01*
X81125Y144358D01*
X80896Y144246D01*
X80820Y144121D01*
Y153060D01*
X80896Y152934D01*
D02*
G37*
G36*
X66065Y144121D02*
X65346Y144085D01*
X64628Y143977D01*
X63909Y143797D01*
X63191Y143546D01*
X62472Y143223D01*
X61754Y142827D01*
X61035Y142360D01*
X60317Y141821D01*
X59599Y141211D01*
X58880Y140528D01*
X55288Y144121D01*
X55971Y144839D01*
X56581Y145557D01*
X57120Y146276D01*
X57587Y146994D01*
X57982Y147713D01*
X58306Y148431D01*
X58557Y149149D01*
X58737Y149868D01*
X58844Y150586D01*
X58880Y151305D01*
X66065Y144121D01*
D02*
G37*
G36*
X-59239Y144070D02*
X-59559Y143917D01*
X-59842Y143663D01*
X-60087Y143308D01*
X-60294Y142851D01*
X-60464Y142292D01*
X-60596Y141631D01*
X-60690Y140869D01*
X-60747Y140006D01*
X-60766Y139040D01*
X-65846D01*
X-65855Y140006D01*
X-66001Y142292D01*
X-66089Y142851D01*
X-66196Y143308D01*
X-66323Y143663D01*
X-66469Y143917D01*
X-66634Y144070D01*
X-66819Y144121D01*
X-58880D01*
X-59239Y144070D01*
D02*
G37*
G36*
X63130Y88095D02*
X63105Y88336D01*
X63029Y88552D01*
X62902Y88743D01*
X62724Y88908D01*
X62495Y89048D01*
X62216Y89162D01*
X61886Y89251D01*
X61505Y89314D01*
X61073Y89352D01*
X60590Y89365D01*
Y91905D01*
X61073Y91918D01*
X61505Y91956D01*
X61886Y92019D01*
X62216Y92108D01*
X62495Y92223D01*
X62724Y92362D01*
X62902Y92527D01*
X63029Y92718D01*
X63105Y92934D01*
X63130Y93175D01*
Y88095D01*
D02*
G37*
G36*
X51218Y92934D02*
X51294Y92718D01*
X51421Y92527D01*
X51599Y92362D01*
X51827Y92223D01*
X52107Y92108D01*
X52437Y92019D01*
X52818Y91956D01*
X53250Y91918D01*
X53732Y91905D01*
Y89365D01*
X53250Y89352D01*
X52818Y89314D01*
X52437Y89251D01*
X52107Y89162D01*
X51827Y89048D01*
X51599Y88908D01*
X51421Y88743D01*
X51294Y88552D01*
X51218Y88336D01*
X51192Y88095D01*
Y93175D01*
X51218Y92934D01*
D02*
G37*
G36*
X-72760Y87940D02*
X-72785Y88181D01*
X-72861Y88397D01*
X-72988Y88588D01*
X-73166Y88753D01*
X-73395Y88892D01*
X-73674Y89007D01*
X-74004Y89096D01*
X-74385Y89159D01*
X-74817Y89197D01*
X-75300Y89210D01*
Y91750D01*
X-74817Y91763D01*
X-74385Y91801D01*
X-74004Y91864D01*
X-73674Y91953D01*
X-73395Y92067D01*
X-73166Y92207D01*
X-72988Y92372D01*
X-72861Y92563D01*
X-72785Y92779D01*
X-72760Y93020D01*
Y87940D01*
D02*
G37*
G36*
X-84832Y92779D02*
X-84756Y92563D01*
X-84629Y92372D01*
X-84451Y92207D01*
X-84222Y92067D01*
X-83943Y91953D01*
X-83613Y91864D01*
X-83232Y91801D01*
X-82800Y91763D01*
X-82317Y91750D01*
Y89210D01*
X-82800Y89197D01*
X-83232Y89159D01*
X-83613Y89096D01*
X-83943Y89007D01*
X-84222Y88892D01*
X-84451Y88753D01*
X-84629Y88588D01*
X-84756Y88397D01*
X-84832Y88181D01*
X-84857Y87940D01*
Y93020D01*
X-84832Y92779D01*
D02*
G37*
G36*
X126630Y87630D02*
X126605Y87871D01*
X126529Y88087D01*
X126402Y88278D01*
X126224Y88443D01*
X125995Y88582D01*
X125716Y88697D01*
X125386Y88786D01*
X125005Y88849D01*
X124573Y88887D01*
X124090Y88900D01*
Y91440D01*
X124573Y91453D01*
X125005Y91491D01*
X125386Y91554D01*
X125716Y91643D01*
X125995Y91757D01*
X126224Y91897D01*
X126402Y92062D01*
X126529Y92253D01*
X126605Y92469D01*
X126630Y92710D01*
Y87630D01*
D02*
G37*
G36*
X117258Y92469D02*
X117334Y92253D01*
X117461Y92062D01*
X117639Y91897D01*
X117867Y91757D01*
X118147Y91643D01*
X118477Y91554D01*
X118858Y91491D01*
X119290Y91453D01*
X119772Y91440D01*
Y88900D01*
X119290Y88887D01*
X118858Y88849D01*
X118477Y88786D01*
X118147Y88697D01*
X117867Y88582D01*
X117639Y88443D01*
X117461Y88278D01*
X117334Y88087D01*
X117258Y87871D01*
X117232Y87630D01*
Y92710D01*
X117258Y92469D01*
D02*
G37*
G36*
X85968Y87630D02*
X85942Y87871D01*
X85866Y88087D01*
X85739Y88278D01*
X85561Y88443D01*
X85333Y88582D01*
X85053Y88697D01*
X84723Y88786D01*
X84342Y88849D01*
X83910Y88887D01*
X83428Y88900D01*
Y91440D01*
X83910Y91453D01*
X84342Y91491D01*
X84723Y91554D01*
X85053Y91643D01*
X85333Y91757D01*
X85561Y91897D01*
X85739Y92062D01*
X85866Y92253D01*
X85942Y92469D01*
X85968Y92710D01*
Y87630D01*
D02*
G37*
G36*
X76595Y92469D02*
X76671Y92253D01*
X76798Y92062D01*
X76976Y91897D01*
X77205Y91757D01*
X77484Y91643D01*
X77814Y91554D01*
X78195Y91491D01*
X78627Y91453D01*
X79110Y91440D01*
Y88900D01*
X78627Y88887D01*
X78195Y88849D01*
X77814Y88786D01*
X77484Y88697D01*
X77205Y88582D01*
X76976Y88443D01*
X76798Y88278D01*
X76671Y88087D01*
X76595Y87871D01*
X76570Y87630D01*
Y92710D01*
X76595Y92469D01*
D02*
G37*
G36*
X-9260Y87630D02*
X-9285Y87871D01*
X-9361Y88087D01*
X-9488Y88278D01*
X-9666Y88443D01*
X-9895Y88582D01*
X-10174Y88697D01*
X-10504Y88786D01*
X-10885Y88849D01*
X-11317Y88887D01*
X-11800Y88900D01*
Y91440D01*
X-11317Y91453D01*
X-10885Y91491D01*
X-10504Y91554D01*
X-10174Y91643D01*
X-9895Y91757D01*
X-9666Y91897D01*
X-9488Y92062D01*
X-9361Y92253D01*
X-9285Y92469D01*
X-9260Y92710D01*
Y87630D01*
D02*
G37*
G36*
X-18632Y92469D02*
X-18556Y92253D01*
X-18429Y92062D01*
X-18251Y91897D01*
X-18023Y91757D01*
X-17743Y91643D01*
X-17413Y91554D01*
X-17032Y91491D01*
X-16600Y91453D01*
X-16118Y91440D01*
Y88900D01*
X-16600Y88887D01*
X-17032Y88849D01*
X-17413Y88786D01*
X-17743Y88697D01*
X-18023Y88582D01*
X-18251Y88443D01*
X-18429Y88278D01*
X-18556Y88087D01*
X-18632Y87871D01*
X-18658Y87630D01*
Y92710D01*
X-18632Y92469D01*
D02*
G37*
G36*
X-49922Y87630D02*
X-49948Y87871D01*
X-50024Y88087D01*
X-50151Y88278D01*
X-50329Y88443D01*
X-50557Y88582D01*
X-50837Y88697D01*
X-51167Y88786D01*
X-51548Y88849D01*
X-51980Y88887D01*
X-52462Y88900D01*
Y91440D01*
X-51980Y91453D01*
X-51548Y91491D01*
X-51167Y91554D01*
X-50837Y91643D01*
X-50557Y91757D01*
X-50329Y91897D01*
X-50151Y92062D01*
X-50024Y92253D01*
X-49948Y92469D01*
X-49922Y92710D01*
Y87630D01*
D02*
G37*
G36*
X-59295Y92469D02*
X-59219Y92253D01*
X-59092Y92062D01*
X-58914Y91897D01*
X-58685Y91757D01*
X-58406Y91643D01*
X-58076Y91554D01*
X-57695Y91491D01*
X-57263Y91453D01*
X-56780Y91440D01*
Y88900D01*
X-57263Y88887D01*
X-57695Y88849D01*
X-58076Y88786D01*
X-58406Y88697D01*
X-58685Y88582D01*
X-58914Y88443D01*
X-59092Y88278D01*
X-59219Y88087D01*
X-59295Y87871D01*
X-59320Y87630D01*
Y92710D01*
X-59295Y92469D01*
D02*
G37*
G36*
X-112530Y83625D02*
X-112889Y83608D01*
X-113248Y83554D01*
X-113607Y83464D01*
X-113966Y83338D01*
X-114326Y83176D01*
X-114685Y82979D01*
X-115044Y82745D01*
X-115403Y82476D01*
X-115763Y82171D01*
X-116122Y81829D01*
X-117918Y83625D01*
X-117577Y83985D01*
X-117271Y84344D01*
X-117002Y84703D01*
X-116768Y85062D01*
X-116571Y85421D01*
X-116409Y85781D01*
X-116283Y86140D01*
X-116194Y86499D01*
X-116140Y86858D01*
X-116122Y87218D01*
X-112530Y83625D01*
D02*
G37*
G36*
X109560Y83315D02*
X109201Y83298D01*
X108841Y83244D01*
X108482Y83154D01*
X108123Y83028D01*
X107764Y82866D01*
X107405Y82669D01*
X107045Y82435D01*
X106686Y82166D01*
X106327Y81861D01*
X105968Y81519D01*
X104172Y83315D01*
X104513Y83675D01*
X104818Y84034D01*
X105088Y84393D01*
X105321Y84752D01*
X105519Y85112D01*
X105680Y85471D01*
X105806Y85830D01*
X105896Y86189D01*
X105950Y86548D01*
X105968Y86908D01*
X109560Y83315D01*
D02*
G37*
G36*
X-26330D02*
X-26689Y83298D01*
X-27048Y83244D01*
X-27408Y83154D01*
X-27767Y83028D01*
X-28126Y82866D01*
X-28485Y82669D01*
X-28845Y82435D01*
X-29204Y82166D01*
X-29563Y81861D01*
X-29922Y81519D01*
X-31718Y83315D01*
X-31377Y83675D01*
X-31072Y84034D01*
X-30802Y84393D01*
X-30569Y84752D01*
X-30371Y85112D01*
X-30210Y85471D01*
X-30084Y85830D01*
X-29994Y86189D01*
X-29940Y86548D01*
X-29922Y86908D01*
X-26330Y83315D01*
D02*
G37*
G36*
X27858Y83755D02*
X27642Y83679D01*
X27452Y83552D01*
X27287Y83374D01*
X27147Y83146D01*
X27033Y82866D01*
X26944Y82536D01*
X26880Y82155D01*
X26842Y81723D01*
X26830Y81241D01*
X24290D01*
X24277Y81723D01*
X24239Y82155D01*
X24175Y82536D01*
X24086Y82866D01*
X23972Y83146D01*
X23832Y83374D01*
X23667Y83552D01*
X23477Y83679D01*
X23261Y83755D01*
X23019Y83780D01*
X28100D01*
X27858Y83755D01*
D02*
G37*
G36*
X-72760Y67470D02*
X-72785Y67711D01*
X-72861Y67927D01*
X-72988Y68118D01*
X-73166Y68283D01*
X-73395Y68422D01*
X-73674Y68537D01*
X-74004Y68626D01*
X-74385Y68689D01*
X-74817Y68727D01*
X-75300Y68740D01*
Y71280D01*
X-74817Y71293D01*
X-74385Y71331D01*
X-74004Y71394D01*
X-73674Y71483D01*
X-73395Y71597D01*
X-73166Y71737D01*
X-72988Y71902D01*
X-72861Y72093D01*
X-72785Y72309D01*
X-72760Y72550D01*
Y67470D01*
D02*
G37*
G36*
X-9260Y65140D02*
X-9332Y65793D01*
X-9550Y66378D01*
X-9912Y66894D01*
X-10420Y67341D01*
X-11072Y67720D01*
X-11870Y68029D01*
X-12812Y68270D01*
X-13900Y68442D01*
X-15132Y68546D01*
X-16510Y68580D01*
Y76200D01*
X-15132Y76208D01*
X-10420Y76499D01*
X-9912Y76606D01*
X-9550Y76731D01*
X-9332Y76872D01*
X-9260Y77030D01*
Y65140D01*
D02*
G37*
G36*
X126630Y62990D02*
X126554Y63329D01*
X126326Y63631D01*
X125945Y63898D01*
X125411Y64129D01*
X124725Y64325D01*
X123887Y64485D01*
X122897Y64610D01*
X120458Y64752D01*
X119010Y64770D01*
Y72390D01*
X120458Y72428D01*
X121754Y72542D01*
X122897Y72733D01*
X123887Y73000D01*
X124725Y73342D01*
X125411Y73762D01*
X125945Y74257D01*
X126326Y74828D01*
X126554Y75476D01*
X126630Y76200D01*
Y62990D01*
D02*
G37*
G36*
X-124607Y53912D02*
X-124569Y53480D01*
X-124505Y53099D01*
X-124416Y52769D01*
X-124302Y52490D01*
X-124162Y52261D01*
X-123997Y52083D01*
X-123807Y51956D01*
X-123591Y51880D01*
X-123350Y51855D01*
X-128429D01*
X-128188Y51880D01*
X-127972Y51956D01*
X-127782Y52083D01*
X-127617Y52261D01*
X-127477Y52490D01*
X-127363Y52769D01*
X-127274Y53099D01*
X-127210Y53480D01*
X-127172Y53912D01*
X-127160Y54395D01*
X-124620D01*
X-124607Y53912D01*
D02*
G37*
G36*
X151548Y47300D02*
X151624Y47084D01*
X151751Y46894D01*
X151929Y46729D01*
X152157Y46589D01*
X152437Y46474D01*
X152767Y46386D01*
X153148Y46322D01*
X153580Y46284D01*
X154062Y46271D01*
Y43731D01*
X153580Y43719D01*
X153148Y43681D01*
X152767Y43617D01*
X152437Y43528D01*
X152157Y43414D01*
X151929Y43274D01*
X151751Y43109D01*
X151624Y42919D01*
X151548Y42703D01*
X151522Y42461D01*
Y47541D01*
X151548Y47300D01*
D02*
G37*
G36*
X-151522Y42459D02*
X-151548Y42700D01*
X-151624Y42916D01*
X-151751Y43106D01*
X-151929Y43271D01*
X-152157Y43411D01*
X-152437Y43526D01*
X-152767Y43614D01*
X-153148Y43678D01*
X-153580Y43716D01*
X-154062Y43729D01*
Y46269D01*
X-153580Y46281D01*
X-153148Y46319D01*
X-152767Y46383D01*
X-152437Y46472D01*
X-152157Y46586D01*
X-151929Y46726D01*
X-151751Y46891D01*
X-151624Y47081D01*
X-151548Y47297D01*
X-151522Y47539D01*
Y42459D01*
D02*
G37*
G36*
X192857Y38001D02*
X191759Y39090D01*
X188757Y41669D01*
X187855Y42299D01*
X187001Y42814D01*
X186197Y43216D01*
X185442Y43502D01*
X184736Y43674D01*
X184080Y43731D01*
Y46271D01*
X184736Y46329D01*
X185442Y46501D01*
X186197Y46787D01*
X187001Y47188D01*
X187855Y47704D01*
X188757Y48334D01*
X189708Y49079D01*
X191759Y50913D01*
X192857Y52001D01*
Y38001D01*
D02*
G37*
G36*
X-191759Y50910D02*
X-188757Y48331D01*
X-187855Y47701D01*
X-187001Y47186D01*
X-186197Y46784D01*
X-185442Y46498D01*
X-184736Y46326D01*
X-184080Y46269D01*
Y43729D01*
X-184736Y43671D01*
X-185442Y43499D01*
X-186197Y43213D01*
X-187001Y42812D01*
X-187855Y42296D01*
X-188757Y41666D01*
X-189708Y40921D01*
X-191759Y39088D01*
X-192857Y37999D01*
Y51999D01*
X-191759Y50910D01*
D02*
G37*
G36*
X-87020Y36452D02*
X-87063Y36546D01*
X-87192Y36630D01*
X-87407Y36704D01*
X-87708Y36769D01*
X-88096Y36823D01*
X-89129Y36902D01*
X-91324Y36946D01*
Y44566D01*
X-90506Y44571D01*
X-87708Y44744D01*
X-87407Y44809D01*
X-87192Y44883D01*
X-87063Y44967D01*
X-87020Y45061D01*
Y36452D01*
D02*
G37*
G36*
X123796Y38120D02*
X123580Y38044D01*
X123390Y37917D01*
X123224Y37739D01*
X123085Y37510D01*
X122971Y37231D01*
X122882Y36901D01*
X122818Y36520D01*
X122780Y36088D01*
X122767Y35605D01*
X120227D01*
X120258Y38145D01*
X124037D01*
X123796Y38120D01*
D02*
G37*
G36*
X-123591D02*
X-123807Y38044D01*
X-123997Y37917D01*
X-124162Y37739D01*
X-124302Y37510D01*
X-124416Y37231D01*
X-124505Y36901D01*
X-124569Y36520D01*
X-124607Y36088D01*
X-124620Y35605D01*
X-127160D01*
X-127172Y36088D01*
X-127210Y36520D01*
X-127274Y36901D01*
X-127363Y37231D01*
X-127477Y37510D01*
X-127617Y37739D01*
X-127782Y37917D01*
X-127972Y38044D01*
X-128188Y38120D01*
X-128429Y38145D01*
X-123350D01*
X-123591Y38120D01*
D02*
G37*
G36*
X87070Y43967D02*
X87223Y43536D01*
X87477Y43155D01*
X87832Y42824D01*
X88289Y42545D01*
X88848Y42316D01*
X89509Y42139D01*
X90271Y42012D01*
X91134Y41935D01*
X92100Y41910D01*
Y36830D01*
X91134Y36805D01*
X90271Y36728D01*
X89509Y36601D01*
X88848Y36424D01*
X88289Y36195D01*
X87832Y35916D01*
X87477Y35585D01*
X87223Y35204D01*
X87070Y34773D01*
X87020Y34290D01*
Y44450D01*
X87070Y43967D01*
D02*
G37*
G36*
X-52930D02*
X-52777Y43536D01*
X-52523Y43155D01*
X-52168Y42824D01*
X-51711Y42545D01*
X-51152Y42316D01*
X-50491Y42139D01*
X-49729Y42012D01*
X-48866Y41935D01*
X-47901Y41910D01*
Y36830D01*
X-48866Y36805D01*
X-49729Y36728D01*
X-50491Y36601D01*
X-51152Y36424D01*
X-51711Y36195D01*
X-52168Y35916D01*
X-52195Y35890D01*
X-52083Y35680D01*
X-51687Y35056D01*
X-51220Y34411D01*
X-50682Y33745D01*
X-49388Y32350D01*
X-53281Y29058D01*
X-53988Y29741D01*
X-55341Y30890D01*
X-55986Y31357D01*
X-56610Y31752D01*
X-57213Y32076D01*
X-57795Y32327D01*
X-58355Y32507D01*
X-58895Y32615D01*
X-59414Y32650D01*
X-52980Y38484D01*
Y44450D01*
X-52930Y43967D01*
D02*
G37*
G36*
X67050Y27718D02*
X59430D01*
X59419Y28655D01*
X59250Y30875D01*
X59149Y31417D01*
X59026Y31861D01*
X58880Y32206D01*
X58712Y32453D01*
X58521Y32601D01*
X58308Y32650D01*
X67020D01*
X67050Y27718D01*
D02*
G37*
G36*
X40653Y24042D02*
X40691Y23610D01*
X40754Y23229D01*
X40843Y22899D01*
X40957Y22620D01*
X41097Y22391D01*
X41262Y22213D01*
X41453Y22086D01*
X41669Y22010D01*
X41910Y21985D01*
X36830Y21739D01*
X37071Y21862D01*
X37287Y22019D01*
X37478Y22211D01*
X37643Y22437D01*
X37782Y22699D01*
X37897Y22994D01*
X37986Y23325D01*
X38049Y23690D01*
X38087Y24090D01*
X38100Y24525D01*
X40640D01*
X40653Y24042D01*
D02*
G37*
G36*
X-99507D02*
X-99469Y23610D01*
X-99405Y23229D01*
X-99316Y22899D01*
X-99202Y22620D01*
X-99062Y22391D01*
X-98897Y22213D01*
X-98707Y22086D01*
X-98491Y22010D01*
X-98249Y21985D01*
X-103329Y21673D01*
X-103088Y21796D01*
X-102872Y21956D01*
X-102682Y22151D01*
X-102517Y22382D01*
X-102377Y22649D01*
X-102263Y22952D01*
X-102174Y23291D01*
X-102110Y23667D01*
X-102072Y24078D01*
X-102059Y24525D01*
X-99519D01*
X-99507Y24042D01*
D02*
G37*
G36*
X92334Y24642D02*
X92448Y23166D01*
X92516Y22805D01*
X92600Y22510D01*
X92699Y22280D01*
X92813Y22116D01*
X92942Y22018D01*
X93087Y21985D01*
X87398Y20517D01*
X87246Y25231D01*
X92326Y25265D01*
X92334Y24642D01*
D02*
G37*
G36*
X-47648Y26100D02*
X-47572Y25236D01*
X-47445Y24474D01*
X-47267Y23814D01*
X-47039Y23255D01*
X-46759Y22798D01*
X-46429Y22442D01*
X-46048Y22188D01*
X-45616Y22036D01*
X-45134Y21985D01*
X-52895Y19809D01*
X-52868Y19925D01*
X-52844Y20136D01*
X-52805Y20841D01*
X-52754Y25231D01*
X-47674Y27065D01*
X-47648Y26100D01*
D02*
G37*
G36*
X46299Y16090D02*
X46083Y16014D01*
X45893Y15887D01*
X45728Y15709D01*
X45588Y15480D01*
X45474Y15201D01*
X45385Y14871D01*
X45321Y14490D01*
X45283Y14058D01*
X45271Y13575D01*
X42731D01*
X42718Y14058D01*
X42680Y14490D01*
X42616Y14871D01*
X42527Y15201D01*
X42413Y15480D01*
X42273Y15709D01*
X42108Y15887D01*
X41918Y16014D01*
X41702Y16090D01*
X41461Y16115D01*
X46541D01*
X46299Y16090D01*
D02*
G37*
G36*
X-93701D02*
X-93917Y16014D01*
X-94107Y15887D01*
X-94272Y15709D01*
X-94412Y15480D01*
X-94526Y15201D01*
X-94615Y14871D01*
X-94679Y14490D01*
X-94717Y14058D01*
X-94729Y13575D01*
X-97269D01*
X-97282Y14058D01*
X-97320Y14490D01*
X-97384Y14871D01*
X-97473Y15201D01*
X-97587Y15480D01*
X-97727Y15709D01*
X-97892Y15887D01*
X-98082Y16014D01*
X-98298Y16090D01*
X-98539Y16115D01*
X-93460D01*
X-93701Y16090D01*
D02*
G37*
G36*
X45283Y11342D02*
X45321Y10910D01*
X45385Y10529D01*
X45474Y10199D01*
X45588Y9920D01*
X45728Y9691D01*
X45893Y9513D01*
X46083Y9386D01*
X46299Y9310D01*
X46541Y9285D01*
X41461D01*
X41702Y9310D01*
X41918Y9386D01*
X42108Y9513D01*
X42273Y9691D01*
X42413Y9920D01*
X42527Y10199D01*
X42616Y10529D01*
X42680Y10910D01*
X42718Y11342D01*
X42731Y11825D01*
X45271D01*
X45283Y11342D01*
D02*
G37*
G36*
X-94717D02*
X-94679Y10910D01*
X-94615Y10529D01*
X-94526Y10199D01*
X-94412Y9920D01*
X-94272Y9691D01*
X-94107Y9513D01*
X-93917Y9386D01*
X-93701Y9310D01*
X-93460Y9285D01*
X-98539D01*
X-98298Y9310D01*
X-98082Y9386D01*
X-97892Y9513D01*
X-97727Y9691D01*
X-97587Y9920D01*
X-97473Y10199D01*
X-97384Y10529D01*
X-97320Y10910D01*
X-97282Y11342D01*
X-97269Y11825D01*
X-94729D01*
X-94717Y11342D01*
D02*
G37*
G36*
X106608Y9103D02*
X106332Y8808D01*
X106079Y8501D01*
X105849Y8181D01*
X105642Y7849D01*
X105459Y7504D01*
X105299Y7146D01*
X105163Y6776D01*
X105050Y6394D01*
X104960Y5998D01*
X104894Y5591D01*
X101402Y9285D01*
X101759Y9301D01*
X102113Y9349D01*
X102463Y9430D01*
X102810Y9543D01*
X103153Y9688D01*
X103492Y9866D01*
X103827Y10076D01*
X104159Y10318D01*
X104488Y10592D01*
X104812Y10899D01*
X106608Y9103D01*
D02*
G37*
G36*
X-36138Y8650D02*
X-35795Y8434D01*
X-35445Y8243D01*
X-35087Y8078D01*
X-34721Y7938D01*
X-34347Y7823D01*
X-33966Y7734D01*
X-33578Y7671D01*
X-33181Y7633D01*
X-32777Y7620D01*
Y5080D01*
X-33181Y5067D01*
X-33578Y5029D01*
X-33966Y4966D01*
X-34347Y4877D01*
X-34721Y4762D01*
X-35087Y4622D01*
X-35445Y4457D01*
X-35795Y4266D01*
X-36138Y4050D01*
X-36473Y3808D01*
Y8892D01*
X-36138Y8650D01*
D02*
G37*
G36*
X38598Y3415D02*
X38241Y3399D01*
X37887Y3351D01*
X37537Y3270D01*
X37190Y3157D01*
X36847Y3012D01*
X36508Y2834D01*
X36173Y2624D01*
X35841Y2382D01*
X35512Y2108D01*
X35188Y1801D01*
X33392Y3597D01*
X33668Y3892D01*
X33922Y4199D01*
X34151Y4519D01*
X34358Y4851D01*
X34541Y5196D01*
X34701Y5554D01*
X34837Y5924D01*
X34950Y6306D01*
X35040Y6702D01*
X35106Y7110D01*
X38598Y3415D01*
D02*
G37*
G36*
X-101402D02*
X-101759Y3399D01*
X-102113Y3351D01*
X-102463Y3270D01*
X-102810Y3157D01*
X-103153Y3012D01*
X-103492Y2834D01*
X-103827Y2624D01*
X-104159Y2382D01*
X-104488Y2108D01*
X-104812Y1801D01*
X-106608Y3597D01*
X-106332Y3892D01*
X-106079Y4199D01*
X-105849Y4519D01*
X-105642Y4851D01*
X-105459Y5196D01*
X-105299Y5554D01*
X-105163Y5924D01*
X-105050Y6306D01*
X-104960Y6702D01*
X-104894Y7110D01*
X-101402Y3415D01*
D02*
G37*
G36*
X98298Y3390D02*
X98082Y3314D01*
X97892Y3187D01*
X97727Y3009D01*
X97587Y2780D01*
X97473Y2501D01*
X97384Y2171D01*
X97320Y1790D01*
X97282Y1358D01*
X97269Y875D01*
X94729D01*
X94717Y1358D01*
X94679Y1790D01*
X94615Y2171D01*
X94526Y2501D01*
X94412Y2780D01*
X94272Y3009D01*
X94107Y3187D01*
X93917Y3314D01*
X93701Y3390D01*
X93460Y3415D01*
X98539D01*
X98298Y3390D01*
D02*
G37*
G36*
X-41702D02*
X-41918Y3314D01*
X-42108Y3187D01*
X-42273Y3009D01*
X-42413Y2780D01*
X-42527Y2501D01*
X-42616Y2171D01*
X-42680Y1790D01*
X-42718Y1358D01*
X-42731Y875D01*
X-45271D01*
X-45283Y1358D01*
X-45321Y1790D01*
X-45385Y2171D01*
X-45474Y2501D01*
X-45588Y2780D01*
X-45728Y3009D01*
X-45893Y3187D01*
X-46083Y3314D01*
X-46299Y3390D01*
X-46541Y3415D01*
X-41461D01*
X-41702Y3390D01*
D02*
G37*
G36*
X97282Y-1358D02*
X97320Y-1790D01*
X97384Y-2171D01*
X97473Y-2501D01*
X97587Y-2780D01*
X97727Y-3009D01*
X97892Y-3187D01*
X98082Y-3314D01*
X98298Y-3390D01*
X98539Y-3415D01*
X93460D01*
X93701Y-3390D01*
X93917Y-3314D01*
X94107Y-3187D01*
X94272Y-3009D01*
X94412Y-2780D01*
X94526Y-2501D01*
X94615Y-2171D01*
X94679Y-1790D01*
X94717Y-1358D01*
X94729Y-875D01*
X97269D01*
X97282Y-1358D01*
D02*
G37*
G36*
X-42718D02*
X-42680Y-1790D01*
X-42616Y-2171D01*
X-42527Y-2501D01*
X-42413Y-2780D01*
X-42273Y-3009D01*
X-42108Y-3187D01*
X-41918Y-3314D01*
X-41702Y-3390D01*
X-41461Y-3415D01*
X-46541D01*
X-46299Y-3390D01*
X-46083Y-3314D01*
X-45893Y-3187D01*
X-45728Y-3009D01*
X-45588Y-2780D01*
X-45474Y-2501D01*
X-45385Y-2171D01*
X-45321Y-1790D01*
X-45283Y-1358D01*
X-45271Y-875D01*
X-42731D01*
X-42718Y-1358D01*
D02*
G37*
G36*
X54609Y-3597D02*
X54333Y-3892D01*
X54080Y-4199D01*
X53850Y-4519D01*
X53643Y-4851D01*
X53460Y-5196D01*
X53300Y-5554D01*
X53164Y-5924D01*
X53051Y-6306D01*
X52961Y-6702D01*
X52895Y-7110D01*
X49403Y-3415D01*
X49760Y-3399D01*
X50114Y-3351D01*
X50464Y-3270D01*
X50811Y-3157D01*
X51154Y-3012D01*
X51493Y-2834D01*
X51828Y-2624D01*
X52160Y-2382D01*
X52489Y-2108D01*
X52813Y-1801D01*
X54609Y-3597D01*
D02*
G37*
G36*
X-85391D02*
X-85667Y-3892D01*
X-85920Y-4199D01*
X-86150Y-4519D01*
X-86357Y-4851D01*
X-86540Y-5196D01*
X-86700Y-5554D01*
X-86836Y-5924D01*
X-86949Y-6306D01*
X-87039Y-6702D01*
X-87105Y-7110D01*
X-90597Y-3415D01*
X-90240Y-3399D01*
X-89886Y-3351D01*
X-89536Y-3270D01*
X-89189Y-3157D01*
X-88846Y-3012D01*
X-88507Y-2834D01*
X-88172Y-2624D01*
X-87840Y-2382D01*
X-87511Y-2108D01*
X-87187Y-1801D01*
X-85391Y-3597D01*
D02*
G37*
G36*
X104960Y-5998D02*
X105050Y-6394D01*
X105163Y-6776D01*
X105299Y-7146D01*
X105459Y-7504D01*
X105642Y-7849D01*
X105849Y-8181D01*
X106079Y-8501D01*
X106332Y-8808D01*
X106608Y-9103D01*
X104812Y-10899D01*
X104488Y-10592D01*
X104159Y-10318D01*
X103827Y-10076D01*
X103492Y-9866D01*
X103153Y-9688D01*
X102810Y-9543D01*
X102463Y-9430D01*
X102113Y-9349D01*
X101759Y-9301D01*
X101402Y-9285D01*
X104894Y-5591D01*
X104960Y-5998D01*
D02*
G37*
G36*
X90597Y-9285D02*
X90240Y-9301D01*
X89886Y-9349D01*
X89536Y-9430D01*
X89189Y-9543D01*
X88846Y-9688D01*
X88507Y-9866D01*
X88172Y-10076D01*
X87840Y-10318D01*
X87511Y-10592D01*
X87187Y-10899D01*
X85391Y-9103D01*
X85667Y-8808D01*
X85920Y-8501D01*
X86150Y-8181D01*
X86357Y-7849D01*
X86540Y-7504D01*
X86700Y-7146D01*
X86836Y-6776D01*
X86949Y-6394D01*
X87039Y-5998D01*
X87105Y-5591D01*
X90597Y-9285D01*
D02*
G37*
G36*
X-49403D02*
X-49760Y-9301D01*
X-50114Y-9349D01*
X-50464Y-9430D01*
X-50811Y-9543D01*
X-51154Y-9688D01*
X-51493Y-9866D01*
X-51828Y-10076D01*
X-52160Y-10318D01*
X-52489Y-10592D01*
X-52813Y-10899D01*
X-54609Y-9103D01*
X-54333Y-8808D01*
X-54080Y-8501D01*
X-53850Y-8181D01*
X-53643Y-7849D01*
X-53460Y-7504D01*
X-53300Y-7146D01*
X-53164Y-6776D01*
X-53051Y-6394D01*
X-52961Y-5998D01*
X-52895Y-5591D01*
X-49403Y-9285D01*
D02*
G37*
G36*
X104960Y-18698D02*
X105050Y-19094D01*
X105163Y-19476D01*
X105299Y-19846D01*
X105459Y-20204D01*
X105642Y-20549D01*
X105849Y-20881D01*
X106079Y-21201D01*
X106332Y-21508D01*
X106608Y-21803D01*
X104812Y-23599D01*
X104488Y-23292D01*
X104159Y-23018D01*
X103827Y-22776D01*
X103492Y-22566D01*
X103153Y-22388D01*
X102810Y-22243D01*
X102463Y-22130D01*
X102113Y-22049D01*
X101759Y-22001D01*
X101402Y-21985D01*
X104894Y-18290D01*
X104960Y-18698D01*
D02*
G37*
G36*
X-35040D02*
X-34950Y-19094D01*
X-34837Y-19476D01*
X-34701Y-19846D01*
X-34541Y-20204D01*
X-34358Y-20549D01*
X-34151Y-20881D01*
X-33922Y-21201D01*
X-33668Y-21508D01*
X-33392Y-21803D01*
X-35188Y-23599D01*
X-35512Y-23292D01*
X-35841Y-23018D01*
X-36173Y-22776D01*
X-36508Y-22566D01*
X-36847Y-22388D01*
X-37190Y-22243D01*
X-37537Y-22130D01*
X-37887Y-22049D01*
X-38241Y-22001D01*
X-38598Y-21985D01*
X-35106Y-18290D01*
X-35040Y-18698D01*
D02*
G37*
G36*
X52845Y-19982D02*
X52800Y-20243D01*
X52760Y-20593D01*
X52673Y-22176D01*
X52630Y-25530D01*
X47550Y-27065D01*
X47525Y-26100D01*
X47449Y-25236D01*
X47322Y-24474D01*
X47144Y-23814D01*
X46915Y-23255D01*
X46636Y-22798D01*
X46305Y-22442D01*
X45925Y-22188D01*
X45493Y-22036D01*
X45010Y-21985D01*
X52895Y-19809D01*
X52845Y-19982D01*
D02*
G37*
G36*
X-87132Y-19925D02*
X-87156Y-20136D01*
X-87196Y-20841D01*
X-87246Y-25231D01*
X-92326Y-27065D01*
X-92352Y-26100D01*
X-92428Y-25236D01*
X-92555Y-24474D01*
X-92733Y-23814D01*
X-92961Y-23255D01*
X-93241Y-22798D01*
X-93571Y-22442D01*
X-93952Y-22188D01*
X-94384Y-22036D01*
X-94866Y-21985D01*
X-87105Y-19809D01*
X-87132Y-19925D01*
D02*
G37*
G36*
X80444Y-27620D02*
X80636Y-29608D01*
X80804Y-30415D01*
X81020Y-31098D01*
X81284Y-31657D01*
X81596Y-32092D01*
X81956Y-32402D01*
X82364Y-32588D01*
X82820Y-32650D01*
X72830D01*
X72800Y-26440D01*
X80420D01*
X80444Y-27620D01*
D02*
G37*
G36*
X127172Y-36088D02*
X127210Y-36520D01*
X127274Y-36901D01*
X127363Y-37231D01*
X127477Y-37510D01*
X127617Y-37739D01*
X127782Y-37917D01*
X127972Y-38044D01*
X128188Y-38120D01*
X128429Y-38145D01*
X123350D01*
X123591Y-38120D01*
X123807Y-38044D01*
X123997Y-37917D01*
X124162Y-37739D01*
X124302Y-37510D01*
X124416Y-37231D01*
X124505Y-36901D01*
X124569Y-36520D01*
X124607Y-36088D01*
X124620Y-35605D01*
X127160D01*
X127172Y-36088D01*
D02*
G37*
G36*
X-124607D02*
X-124569Y-36520D01*
X-124505Y-36901D01*
X-124416Y-37231D01*
X-124302Y-37510D01*
X-124162Y-37739D01*
X-123997Y-37917D01*
X-123807Y-38044D01*
X-123591Y-38120D01*
X-123350Y-38145D01*
X-128429D01*
X-128188Y-38120D01*
X-127972Y-38044D01*
X-127782Y-37917D01*
X-127617Y-37739D01*
X-127477Y-37510D01*
X-127363Y-37231D01*
X-127274Y-36901D01*
X-127210Y-36520D01*
X-127172Y-36088D01*
X-127160Y-35605D01*
X-124620D01*
X-124607Y-36088D01*
D02*
G37*
G36*
X53838Y-29741D02*
X55186Y-30890D01*
X55828Y-31357D01*
X56447Y-31752D01*
X57044Y-32076D01*
X57619Y-32327D01*
X58172Y-32507D01*
X58702Y-32615D01*
X59211Y-32650D01*
X52831Y-38431D01*
X52795Y-37922D01*
X52687Y-37392D01*
X52507Y-36839D01*
X52256Y-36264D01*
X51933Y-35667D01*
X51537Y-35048D01*
X51070Y-34406D01*
X50532Y-33743D01*
X49238Y-32350D01*
X53130Y-29058D01*
X53838Y-29741D01*
D02*
G37*
G36*
X-86012D02*
X-84659Y-30890D01*
X-84014Y-31357D01*
X-83390Y-31752D01*
X-82787Y-32076D01*
X-82205Y-32327D01*
X-81644Y-32507D01*
X-81105Y-32615D01*
X-80586Y-32650D01*
X-87020Y-38484D01*
X-87056Y-37965D01*
X-87163Y-37425D01*
X-87343Y-36865D01*
X-87594Y-36283D01*
X-87918Y-35680D01*
X-88313Y-35056D01*
X-88780Y-34411D01*
X-89319Y-33745D01*
X-90612Y-32350D01*
X-86720Y-29058D01*
X-86012Y-29741D01*
D02*
G37*
G36*
X-52904Y-33203D02*
X-52676Y-33698D01*
X-52295Y-34134D01*
X-51761Y-34513D01*
X-51076Y-34833D01*
X-50237Y-35094D01*
X-49247Y-35298D01*
X-48104Y-35444D01*
X-46808Y-35531D01*
X-45360Y-35560D01*
Y-43180D01*
X-46808Y-43209D01*
X-49247Y-43442D01*
X-50237Y-43646D01*
X-51076Y-43907D01*
X-51761Y-44227D01*
X-52295Y-44606D01*
X-52676Y-45042D01*
X-52904Y-45537D01*
X-52980Y-46090D01*
Y-32650D01*
X-52904Y-33203D01*
D02*
G37*
G36*
X151548Y-42700D02*
X151624Y-42916D01*
X151751Y-43106D01*
X151929Y-43271D01*
X152157Y-43411D01*
X152437Y-43526D01*
X152767Y-43614D01*
X153148Y-43678D01*
X153580Y-43716D01*
X154062Y-43729D01*
Y-46269D01*
X153580Y-46281D01*
X153148Y-46319D01*
X152767Y-46383D01*
X152437Y-46472D01*
X152157Y-46586D01*
X151929Y-46726D01*
X151751Y-46891D01*
X151624Y-47081D01*
X151548Y-47297D01*
X151522Y-47539D01*
Y-42459D01*
X151548Y-42700D01*
D02*
G37*
G36*
X-151522Y-47541D02*
X-151548Y-47300D01*
X-151624Y-47084D01*
X-151751Y-46894D01*
X-151929Y-46729D01*
X-152157Y-46589D01*
X-152437Y-46474D01*
X-152767Y-46386D01*
X-153148Y-46322D01*
X-153580Y-46284D01*
X-154062Y-46271D01*
Y-43731D01*
X-153580Y-43719D01*
X-153148Y-43681D01*
X-152767Y-43617D01*
X-152437Y-43528D01*
X-152157Y-43414D01*
X-151929Y-43274D01*
X-151751Y-43109D01*
X-151624Y-42919D01*
X-151548Y-42703D01*
X-151522Y-42461D01*
Y-47541D01*
D02*
G37*
G36*
X64367Y-46140D02*
X63936Y-46293D01*
X63555Y-46547D01*
X63224Y-46902D01*
X62945Y-47360D01*
X62716Y-47918D01*
X62539Y-48579D01*
X62412Y-49341D01*
X62335Y-50204D01*
X62310Y-51170D01*
X57230D01*
X57205Y-50204D01*
X57128Y-49341D01*
X57001Y-48579D01*
X56824Y-47918D01*
X56595Y-47360D01*
X56316Y-46902D01*
X55985Y-46547D01*
X55604Y-46293D01*
X55173Y-46140D01*
X54690Y-46090D01*
X64850D01*
X64367Y-46140D01*
D02*
G37*
G36*
X-75403D02*
X-75834Y-46293D01*
X-76215Y-46547D01*
X-76546Y-46902D01*
X-76825Y-47360D01*
X-77054Y-47918D01*
X-77231Y-48579D01*
X-77358Y-49341D01*
X-77435Y-50204D01*
X-77460Y-51170D01*
X-82540D01*
X-82565Y-50204D01*
X-82642Y-49341D01*
X-82769Y-48579D01*
X-82946Y-47918D01*
X-83175Y-47360D01*
X-83454Y-46902D01*
X-83785Y-46547D01*
X-84166Y-46293D01*
X-84597Y-46140D01*
X-85080Y-46090D01*
X-74920D01*
X-75403Y-46140D01*
D02*
G37*
G36*
X192857Y-51999D02*
X191759Y-50910D01*
X188757Y-48331D01*
X187855Y-47701D01*
X187001Y-47186D01*
X186197Y-46784D01*
X185442Y-46498D01*
X184736Y-46326D01*
X184080Y-46269D01*
Y-43729D01*
X184736Y-43671D01*
X185442Y-43499D01*
X186197Y-43213D01*
X187001Y-42812D01*
X187855Y-42296D01*
X188757Y-41666D01*
X189708Y-40921D01*
X191759Y-39088D01*
X192857Y-37999D01*
Y-51999D01*
D02*
G37*
G36*
X-191759Y-39090D02*
X-188757Y-41669D01*
X-187855Y-42299D01*
X-187001Y-42814D01*
X-186197Y-43216D01*
X-185442Y-43502D01*
X-184736Y-43674D01*
X-184080Y-43731D01*
Y-46271D01*
X-184736Y-46329D01*
X-185442Y-46501D01*
X-186197Y-46787D01*
X-187001Y-47188D01*
X-187855Y-47704D01*
X-188757Y-48334D01*
X-189708Y-49079D01*
X-191759Y-50913D01*
X-192857Y-52001D01*
Y-38001D01*
X-191759Y-39090D01*
D02*
G37*
G36*
X86773Y-46166D02*
X86686Y-46394D01*
X86610Y-46775D01*
X86543Y-47309D01*
X86441Y-48833D01*
X86360Y-53710D01*
X78740D01*
X78702Y-52262D01*
X78588Y-50966D01*
X78397Y-49823D01*
X78130Y-48833D01*
X77787Y-47995D01*
X77368Y-47309D01*
X76873Y-46775D01*
X76302Y-46394D01*
X75654Y-46166D01*
X74930Y-46090D01*
X86869D01*
X86773Y-46166D01*
D02*
G37*
G36*
X75325Y-67711D02*
X75401Y-67927D01*
X75528Y-68118D01*
X75706Y-68283D01*
X75935Y-68422D01*
X76214Y-68537D01*
X76544Y-68626D01*
X76925Y-68689D01*
X77357Y-68727D01*
X77840Y-68740D01*
Y-71280D01*
X77357Y-71293D01*
X76925Y-71331D01*
X76544Y-71394D01*
X76214Y-71483D01*
X75935Y-71597D01*
X75706Y-71737D01*
X75528Y-71902D01*
X75401Y-72093D01*
X75325Y-72309D01*
X75300Y-72550D01*
Y-67470D01*
X75325Y-67711D01*
D02*
G37*
G36*
X111613Y-81258D02*
X111651Y-81690D01*
X111715Y-82071D01*
X111804Y-82401D01*
X111918Y-82680D01*
X112058Y-82909D01*
X112223Y-83087D01*
X112413Y-83214D01*
X112629Y-83290D01*
X112871Y-83315D01*
X107790D01*
X108032Y-83290D01*
X108248Y-83214D01*
X108438Y-83087D01*
X108603Y-82909D01*
X108743Y-82680D01*
X108857Y-82401D01*
X108946Y-82071D01*
X109010Y-81690D01*
X109048Y-81258D01*
X109060Y-80775D01*
X111601D01*
X111613Y-81258D01*
D02*
G37*
G36*
X26842D02*
X26880Y-81690D01*
X26944Y-82071D01*
X27033Y-82401D01*
X27147Y-82680D01*
X27287Y-82909D01*
X27452Y-83087D01*
X27642Y-83214D01*
X27858Y-83290D01*
X28100Y-83315D01*
X23019D01*
X23261Y-83290D01*
X23477Y-83214D01*
X23667Y-83087D01*
X23832Y-82909D01*
X23972Y-82680D01*
X24086Y-82401D01*
X24175Y-82071D01*
X24239Y-81690D01*
X24277Y-81258D01*
X24290Y-80775D01*
X26830D01*
X26842Y-81258D01*
D02*
G37*
G36*
X-23007Y-81563D02*
X-22969Y-81995D01*
X-22905Y-82376D01*
X-22816Y-82706D01*
X-22702Y-82985D01*
X-22562Y-83214D01*
X-22397Y-83392D01*
X-22207Y-83519D01*
X-21991Y-83595D01*
X-21749Y-83621D01*
X-26830D01*
X-26588Y-83595D01*
X-26372Y-83519D01*
X-26182Y-83392D01*
X-26017Y-83214D01*
X-25877Y-82985D01*
X-25763Y-82706D01*
X-25674Y-82376D01*
X-25610Y-81995D01*
X-25572Y-81563D01*
X-25559Y-81081D01*
X-23019D01*
X-23007Y-81563D01*
D02*
G37*
G36*
X-108718D02*
X-108680Y-81995D01*
X-108616Y-82376D01*
X-108527Y-82706D01*
X-108413Y-82985D01*
X-108273Y-83214D01*
X-108108Y-83392D01*
X-107918Y-83519D01*
X-107702Y-83595D01*
X-107460Y-83621D01*
X-112541D01*
X-112299Y-83595D01*
X-112083Y-83519D01*
X-111893Y-83392D01*
X-111728Y-83214D01*
X-111588Y-82985D01*
X-111474Y-82706D01*
X-111385Y-82376D01*
X-111321Y-81995D01*
X-111283Y-81563D01*
X-111271Y-81081D01*
X-108730D01*
X-108718Y-81563D01*
D02*
G37*
G36*
X84698Y-92550D02*
X84672Y-92309D01*
X84596Y-92093D01*
X84469Y-91902D01*
X84291Y-91737D01*
X84063Y-91597D01*
X83783Y-91483D01*
X83453Y-91394D01*
X83072Y-91331D01*
X82640Y-91293D01*
X82158Y-91280D01*
Y-88740D01*
X82640Y-88727D01*
X83072Y-88689D01*
X83453Y-88626D01*
X83783Y-88537D01*
X84063Y-88422D01*
X84291Y-88283D01*
X84469Y-88118D01*
X84596Y-87927D01*
X84672Y-87711D01*
X84698Y-87470D01*
Y-92550D01*
D02*
G37*
G36*
X75325Y-87711D02*
X75401Y-87927D01*
X75528Y-88118D01*
X75706Y-88283D01*
X75935Y-88422D01*
X76214Y-88537D01*
X76544Y-88626D01*
X76925Y-88689D01*
X77357Y-88727D01*
X77840Y-88740D01*
Y-91280D01*
X77357Y-91293D01*
X76925Y-91331D01*
X76544Y-91394D01*
X76214Y-91483D01*
X75935Y-91597D01*
X75706Y-91737D01*
X75528Y-91902D01*
X75401Y-92093D01*
X75325Y-92309D01*
X75300Y-92550D01*
Y-87470D01*
X75325Y-87711D01*
D02*
G37*
G36*
X-49922Y-92550D02*
X-49948Y-92309D01*
X-50024Y-92093D01*
X-50151Y-91902D01*
X-50329Y-91737D01*
X-50557Y-91597D01*
X-50837Y-91483D01*
X-51167Y-91394D01*
X-51548Y-91331D01*
X-51980Y-91293D01*
X-52462Y-91280D01*
Y-88740D01*
X-51980Y-88727D01*
X-51548Y-88689D01*
X-51167Y-88626D01*
X-50837Y-88537D01*
X-50557Y-88422D01*
X-50329Y-88283D01*
X-50151Y-88118D01*
X-50024Y-87927D01*
X-49948Y-87711D01*
X-49922Y-87470D01*
Y-92550D01*
D02*
G37*
G36*
X-59295Y-87711D02*
X-59219Y-87927D01*
X-59092Y-88118D01*
X-58914Y-88283D01*
X-58685Y-88422D01*
X-58406Y-88537D01*
X-58076Y-88626D01*
X-57695Y-88689D01*
X-57263Y-88727D01*
X-56780Y-88740D01*
Y-91280D01*
X-57263Y-91293D01*
X-57695Y-91331D01*
X-58076Y-91394D01*
X-58406Y-91483D01*
X-58685Y-91597D01*
X-58914Y-91737D01*
X-59092Y-91902D01*
X-59219Y-92093D01*
X-59295Y-92309D01*
X-59320Y-92550D01*
Y-87470D01*
X-59295Y-87711D01*
D02*
G37*
G36*
X125360Y-92710D02*
X125335Y-92469D01*
X125259Y-92253D01*
X125132Y-92062D01*
X124954Y-91897D01*
X124725Y-91757D01*
X124446Y-91643D01*
X124116Y-91554D01*
X123735Y-91491D01*
X123303Y-91453D01*
X122820Y-91440D01*
Y-88900D01*
X123303Y-88887D01*
X123735Y-88849D01*
X124116Y-88786D01*
X124446Y-88697D01*
X124725Y-88582D01*
X124954Y-88443D01*
X125132Y-88278D01*
X125259Y-88087D01*
X125335Y-87871D01*
X125360Y-87630D01*
Y-92710D01*
D02*
G37*
G36*
X115988Y-87871D02*
X116064Y-88087D01*
X116191Y-88278D01*
X116369Y-88443D01*
X116597Y-88582D01*
X116877Y-88697D01*
X117207Y-88786D01*
X117588Y-88849D01*
X118020Y-88887D01*
X118502Y-88900D01*
Y-91440D01*
X118020Y-91453D01*
X117588Y-91491D01*
X117207Y-91554D01*
X116877Y-91643D01*
X116597Y-91757D01*
X116369Y-91897D01*
X116191Y-92062D01*
X116064Y-92253D01*
X115988Y-92469D01*
X115962Y-92710D01*
Y-87630D01*
X115988Y-87871D01*
D02*
G37*
G36*
X61860Y-92710D02*
X61835Y-92469D01*
X61759Y-92253D01*
X61632Y-92062D01*
X61454Y-91897D01*
X61225Y-91757D01*
X60946Y-91643D01*
X60616Y-91554D01*
X60235Y-91491D01*
X59803Y-91453D01*
X59320Y-91440D01*
Y-88900D01*
X59803Y-88887D01*
X60235Y-88849D01*
X60616Y-88786D01*
X60946Y-88697D01*
X61225Y-88582D01*
X61454Y-88443D01*
X61632Y-88278D01*
X61759Y-88087D01*
X61835Y-87871D01*
X61860Y-87630D01*
Y-92710D01*
D02*
G37*
G36*
X51218Y-87871D02*
X51294Y-88087D01*
X51421Y-88278D01*
X51599Y-88443D01*
X51827Y-88582D01*
X52107Y-88697D01*
X52437Y-88786D01*
X52818Y-88849D01*
X53250Y-88887D01*
X53732Y-88900D01*
Y-91440D01*
X53250Y-91453D01*
X52818Y-91491D01*
X52437Y-91554D01*
X52107Y-91643D01*
X51827Y-91757D01*
X51599Y-91897D01*
X51421Y-92062D01*
X51294Y-92253D01*
X51218Y-92469D01*
X51192Y-92710D01*
Y-87630D01*
X51218Y-87871D01*
D02*
G37*
G36*
X-9260Y-93015D02*
X-9285Y-92774D01*
X-9361Y-92558D01*
X-9488Y-92367D01*
X-9666Y-92202D01*
X-9895Y-92063D01*
X-10174Y-91948D01*
X-10504Y-91859D01*
X-10885Y-91796D01*
X-11317Y-91758D01*
X-11800Y-91745D01*
Y-89205D01*
X-11317Y-89192D01*
X-10885Y-89154D01*
X-10504Y-89091D01*
X-10174Y-89002D01*
X-9895Y-88888D01*
X-9666Y-88748D01*
X-9488Y-88583D01*
X-9361Y-88392D01*
X-9285Y-88176D01*
X-9260Y-87935D01*
Y-93015D01*
D02*
G37*
G36*
X-18632Y-88176D02*
X-18556Y-88392D01*
X-18429Y-88583D01*
X-18251Y-88748D01*
X-18023Y-88888D01*
X-17743Y-89002D01*
X-17413Y-89091D01*
X-17032Y-89154D01*
X-16600Y-89192D01*
X-16118Y-89205D01*
Y-91745D01*
X-16600Y-91758D01*
X-17032Y-91796D01*
X-17413Y-91859D01*
X-17743Y-91948D01*
X-18023Y-92063D01*
X-18251Y-92202D01*
X-18429Y-92367D01*
X-18556Y-92558D01*
X-18632Y-92774D01*
X-18658Y-93015D01*
Y-87935D01*
X-18632Y-88176D01*
D02*
G37*
G36*
X-72760Y-93015D02*
X-72785Y-92774D01*
X-72861Y-92558D01*
X-72988Y-92367D01*
X-73166Y-92202D01*
X-73395Y-92063D01*
X-73674Y-91948D01*
X-74004Y-91859D01*
X-74385Y-91796D01*
X-74817Y-91758D01*
X-75300Y-91745D01*
Y-89205D01*
X-74817Y-89192D01*
X-74385Y-89154D01*
X-74004Y-89091D01*
X-73674Y-89002D01*
X-73395Y-88888D01*
X-73166Y-88748D01*
X-72988Y-88583D01*
X-72861Y-88392D01*
X-72785Y-88176D01*
X-72760Y-87935D01*
Y-93015D01*
D02*
G37*
G36*
X-84342Y-88176D02*
X-84266Y-88392D01*
X-84139Y-88583D01*
X-83961Y-88748D01*
X-83733Y-88888D01*
X-83453Y-89002D01*
X-83123Y-89091D01*
X-82742Y-89154D01*
X-82310Y-89192D01*
X-81828Y-89205D01*
Y-91745D01*
X-82310Y-91758D01*
X-82742Y-91796D01*
X-83123Y-91859D01*
X-83453Y-91948D01*
X-83733Y-92063D01*
X-83961Y-92202D01*
X-84139Y-92367D01*
X-84266Y-92558D01*
X-84342Y-92774D01*
X-84368Y-93015D01*
Y-87935D01*
X-84342Y-88176D01*
D02*
G37*
G36*
X4252Y-103893D02*
X4470Y-104478D01*
X4832Y-104994D01*
X5340Y-105441D01*
X5992Y-105820D01*
X6790Y-106130D01*
X7732Y-106370D01*
X8820Y-106542D01*
X10052Y-106646D01*
X11430Y-106680D01*
Y-114300D01*
X10052Y-114329D01*
X7732Y-114560D01*
X6790Y-114762D01*
X5992Y-115022D01*
X5340Y-115340D01*
X4832Y-115716D01*
X4470Y-116149D01*
X4252Y-116641D01*
X4180Y-117190D01*
Y-103240D01*
X4252Y-103893D01*
D02*
G37*
G36*
X138872Y-103951D02*
X139090Y-104523D01*
X139452Y-105029D01*
X139960Y-105467D01*
X140612Y-105838D01*
X141410Y-106141D01*
X142352Y-106377D01*
X143440Y-106545D01*
X144672Y-106646D01*
X146050Y-106680D01*
Y-114300D01*
X144672Y-114331D01*
X142352Y-114574D01*
X141410Y-114788D01*
X140612Y-115062D01*
X139960Y-115398D01*
X139452Y-115794D01*
X139090Y-116252D01*
X138872Y-116770D01*
X138800Y-117350D01*
Y-103310D01*
X138872Y-103951D01*
D02*
G37*
D13*
X-110000Y-90475D02*
Y-1591D01*
X-102059Y6350D01*
X-96001D01*
X-95999Y6352D02*
Y19048D01*
X-96001Y19050D01*
X-99247D01*
X-100789Y20593D01*
Y32262D01*
X-104140Y35612D01*
Y57150D01*
X-91280Y70010D01*
X-66040D01*
X-75584Y59690D02*
X-75044Y59150D01*
X-54088D01*
X-24290Y88948D01*
Y90170D01*
X-2700D01*
X-2540Y90010D01*
X25559Y90635D02*
Y34450D01*
X-2540Y6350D01*
X-43999D01*
X-44001Y6348D01*
Y-6348D01*
X-43999Y-6350D01*
X-50061D01*
X-56811Y-13100D01*
Y-21846D01*
X-49627Y-29030D01*
X-42782D01*
X-36830Y-34981D01*
Y-42526D01*
X-58534Y-64230D01*
X-60560D01*
X-66040Y-69710D01*
Y-70010D01*
Y-90010D02*
X-44756D01*
X-44290Y-90475D01*
X-24290D02*
Y-32701D01*
X-37941Y-19050D01*
X-43999D01*
X-99060Y37717D02*
Y48260D01*
X-87630Y59690D01*
X-75584D01*
X-44290Y90170D02*
X-65880D01*
X-66040Y90010D01*
X-66510Y90480D01*
X-90489D01*
X-110490D02*
Y89257D01*
X-125890Y73858D01*
Y45000D01*
Y-45000D01*
X-90000Y-90475D02*
X-66505D01*
X-66040Y-90010D01*
X-24290Y-90475D02*
X-2845D01*
X-2540Y-90170D01*
X25559D02*
Y-6031D01*
X37941Y6350D01*
X43999D01*
X44001Y6352D01*
Y19048D01*
X43999Y19050D01*
X40913D01*
X39370Y20593D01*
Y55880D01*
X48540Y65050D01*
X64730D01*
X69850Y70170D01*
X61522Y59310D02*
X78178D01*
X79066Y60198D01*
X82850D01*
X111601Y88948D01*
Y90170D01*
X133190D01*
X133350Y90010D01*
X121497Y40608D02*
X125890Y45000D01*
X145891D02*
X145892Y45001D01*
X199999D01*
X125890Y-30180D02*
Y-45000D01*
X145891D02*
X145892Y-44999D01*
X199999D01*
X125890Y-30180D02*
X102059Y-6350D01*
X96001D01*
X95999Y-6348D01*
Y6348D01*
X96001Y6350D01*
X102059D01*
X121497Y25788D01*
Y40608D01*
X96001Y-6350D02*
X89939D01*
X83189Y-13100D01*
Y-22244D01*
X85330Y-24384D01*
Y-25640D01*
X104993Y-45303D01*
Y-60107D01*
X95090Y-70010D01*
X68580D01*
Y-90010D02*
X90169D01*
X90330Y-90170D01*
X110330D02*
Y-27321D01*
X102059Y-19050D01*
X96001D01*
X60960Y19222D02*
Y4550D01*
X50061Y-6350D01*
X43999D01*
X60960Y19222D02*
X44450Y35732D01*
Y50800D01*
X53620Y59970D01*
X60862D01*
X61522Y59310D01*
X91600Y90170D02*
X69850D01*
X69385Y90635D01*
X45560D01*
X-99060Y37717D02*
X-83189Y21846D01*
Y16254D01*
X-84230Y15214D01*
Y13110D01*
X-83189Y12069D01*
Y400D01*
X-89939Y-6350D01*
X-96001D01*
X-145892Y44999D02*
X-145891Y45000D01*
X-145892Y44999D02*
X-199999D01*
Y-45001D02*
X-145892D01*
X-145891Y-45000D01*
X45560Y-90170D02*
X68420D01*
X68580Y-90010D01*
X110330Y-90170D02*
X131920D01*
X132080Y-90330D01*
D22*
X38100Y158750D02*
D03*
X12700D02*
D03*
X-12700D02*
D03*
D29*
X-110000Y-90475D02*
D03*
X-90000D02*
D03*
X-125890Y-45000D02*
D03*
X-145890D02*
D03*
X-44290Y-90475D02*
D03*
X-24290D02*
D03*
X25560Y-90170D02*
D03*
X45560D02*
D03*
X90330D02*
D03*
X110330D02*
D03*
X125890Y-45000D02*
D03*
X145890D02*
D03*
Y45000D02*
D03*
X125890D02*
D03*
X111600Y90170D02*
D03*
X91600D02*
D03*
X45560Y90635D02*
D03*
X25560D02*
D03*
X-24290Y90170D02*
D03*
X-44290D02*
D03*
X-90490Y90480D02*
D03*
X-110490D02*
D03*
X-145890Y45000D02*
D03*
X-125890D02*
D03*
D30*
X-66040Y-90010D02*
D03*
Y-70010D02*
D03*
X-2540Y-110170D02*
D03*
Y-90170D02*
D03*
X68580Y-90010D02*
D03*
Y-70010D02*
D03*
X132080Y-110330D02*
D03*
Y-90330D02*
D03*
X133350Y70010D02*
D03*
Y90010D02*
D03*
X69850Y90170D02*
D03*
Y70170D02*
D03*
X-2540Y90010D02*
D03*
Y70010D02*
D03*
X-66040Y90010D02*
D03*
Y70010D02*
D03*
D31*
X-80000Y-39370D02*
D03*
X-60000D02*
D03*
Y39370D02*
D03*
X-80000D02*
D03*
X59850Y-39370D02*
D03*
X79850D02*
D03*
X80000Y39370D02*
D03*
X60000D02*
D03*
D32*
X76850Y148590D02*
D03*
Y168910D02*
D03*
X62850D02*
D03*
Y148590D02*
D03*
X-62850Y168910D02*
D03*
X-76850D02*
D03*
Y148590D02*
D03*
X-62850D02*
D03*
D33*
X-44001Y-19050D02*
D03*
Y-6350D02*
D03*
Y6350D02*
D03*
Y19050D02*
D03*
X-95999D02*
D03*
Y6350D02*
D03*
Y-6350D02*
D03*
Y-19050D02*
D03*
X44001D02*
D03*
Y-6350D02*
D03*
Y6350D02*
D03*
Y19050D02*
D03*
X95999Y-6350D02*
D03*
Y-19050D02*
D03*
Y6350D02*
D03*
Y19050D02*
D03*
D34*
X-80000Y-53330D02*
Y-39370D01*
X-80300D01*
X-84510Y-35160D01*
Y-34860D01*
X-89786Y-29584D01*
Y-19420D01*
X-90156Y-19050D01*
X-96001D01*
X-49844Y19050D02*
X-43999D01*
X-49844D02*
X-50214Y19420D01*
Y29584D01*
X-55490Y34860D01*
Y35160D01*
X-59700Y39370D01*
X-60000D01*
X-12196D01*
X12700Y64266D01*
Y97940D01*
X62850Y148090D01*
Y148590D01*
Y168910D01*
X50737D01*
X40577Y158750D01*
X38100D01*
X-38100D02*
Y175260D01*
X-48260Y168910D02*
X-38100Y158750D01*
X-48260Y168910D02*
X-62850D01*
Y148590D01*
X-63306Y148134D01*
Y133544D01*
X-63500Y133350D01*
X43999Y-19050D02*
X49721D01*
X50090Y-19420D01*
Y-29610D01*
X55340Y-34860D01*
Y-35160D01*
X59550Y-39370D01*
X59850D01*
X59770Y-39450D01*
Y-54530D01*
X59690Y-54610D01*
X90156Y19050D02*
X96001D01*
X90156D02*
X89786Y19420D01*
Y25265D01*
X84510Y30541D01*
Y35160D01*
X80300Y39370D01*
X80000D02*
X94975D01*
X96245Y40640D01*
X96520D01*
D35*
X-60000Y-39370D02*
X-44450D01*
X-2540Y-110170D02*
X-2220Y-110490D01*
X11430D01*
X82550Y-54610D02*
Y-42070D01*
X79850Y-39370D01*
X79550D01*
X76610Y-36430D01*
Y-26440D01*
X74930Y-24760D01*
Y16028D01*
X63240Y27718D01*
Y36430D01*
X60300Y39370D01*
X60000D01*
X118110Y68580D02*
X131920D01*
X133350Y70010D01*
X118110Y148590D02*
X146050Y176530D01*
X118110Y148590D02*
X76850D01*
Y168910D01*
X76660Y169100D01*
Y172580D01*
X69480Y179760D01*
X33710D01*
X12700Y158750D01*
X-12700D01*
Y178416D01*
X-17164Y182880D01*
X-32429D01*
X-34207Y184658D01*
X-41993D01*
X-43771Y182880D01*
X-72386D01*
X-76850Y178416D01*
Y168910D01*
X-110762D01*
X-118382Y176530D01*
X-120650D01*
X-146050D01*
X-171450D01*
X-76850Y148590D02*
Y168910D01*
X-12700Y119380D02*
Y158750D01*
X-16510Y72390D02*
X-4920D01*
X-2540Y70010D01*
X-80000Y39370D02*
X-81386Y40756D01*
X-91324D01*
X132080Y-110330D02*
X132240Y-110490D01*
X146050D01*
D36*
X-174500Y-70500D02*
D03*
Y-19500D02*
D03*
Y19500D02*
D03*
Y70500D02*
D03*
X-225500D02*
D03*
Y19500D02*
D03*
Y-19500D02*
D03*
Y-70500D02*
D03*
X174500D02*
D03*
X225500D02*
D03*
Y-19500D02*
D03*
Y19500D02*
D03*
Y70500D02*
D03*
X174500D02*
D03*
Y19500D02*
D03*
Y-19500D02*
D03*
D37*
X-146050Y-175260D02*
D03*
X-120650D02*
D03*
X146050D02*
D03*
X171450D02*
D03*
Y176530D02*
D03*
X146050D02*
D03*
X-120650D02*
D03*
X-146050D02*
D03*
D38*
X-171450Y-175260D02*
D03*
X120650D02*
D03*
Y176530D02*
D03*
X-171450D02*
D03*
D39*
X-38100Y158750D02*
D03*
D40*
X-199999Y-45001D02*
D03*
Y44999D02*
D03*
X199999Y-44999D02*
D03*
Y45001D02*
D03*
D41*
X-203200Y-152400D02*
D03*
Y152400D02*
D03*
X203200Y-152400D02*
D03*
Y152400D02*
D03*
D42*
X-80000Y-53330D02*
D03*
X-44450Y-39370D02*
D03*
X11430Y-110490D02*
D03*
X59690Y-54610D02*
D03*
X82550D02*
D03*
X146050Y-110490D02*
D03*
X96520Y40640D02*
D03*
X118110Y68580D02*
D03*
X-12700Y119380D02*
D03*
X-16510Y72390D02*
D03*
X-63500Y133350D02*
D03*
X-38100Y175260D02*
D03*
X-91324Y40756D02*
D03*
M02*
