G04*
G04 #@! TF.GenerationSoftware,Altium Limited,Altium Designer,25.7.1 (20)*
G04*
G04 Layer_Color=8388736*
%FSLAX44Y44*%
%MOMM*%
G71*
G04*
G04 #@! TF.SameCoordinates,78D6477F-6DFE-48DE-8AD8-3E08B5764921*
G04*
G04*
G04 #@! TF.FilePolarity,Negative*
G04*
G01*
G75*
%ADD16R,1.2341X1.4786*%
%ADD17R,1.4516X1.5116*%
%ADD18R,1.5116X1.4516*%
%ADD19R,1.0032X1.1032*%
%ADD20O,1.9016X0.6896*%
%ADD21C,2.3016*%
%ADD22C,1.7000*%
%ADD23R,1.6748X1.7000*%
%ADD24C,1.9032*%
%ADD25R,1.9032X1.9032*%
%ADD26C,2.1016*%
%ADD27C,2.7032*%
%ADD28C,0.8128*%
D16*
X-110000Y-90475D02*
D03*
X-90000D02*
D03*
X-125890Y-45000D02*
D03*
X-145890D02*
D03*
X-44290Y-90475D02*
D03*
X-24290D02*
D03*
X25560Y-90170D02*
D03*
X45560D02*
D03*
X90330D02*
D03*
X110330D02*
D03*
X125890Y-45000D02*
D03*
X145890D02*
D03*
Y45000D02*
D03*
X125890D02*
D03*
X111600Y90170D02*
D03*
X91600D02*
D03*
X45560Y90635D02*
D03*
X25560D02*
D03*
X-24290Y90170D02*
D03*
X-44290D02*
D03*
X-90490Y90480D02*
D03*
X-110490D02*
D03*
X-145890Y45000D02*
D03*
X-125890D02*
D03*
D17*
X-66040Y-90010D02*
D03*
Y-70010D02*
D03*
X-2540Y-110170D02*
D03*
Y-90170D02*
D03*
X68580Y-90010D02*
D03*
Y-70010D02*
D03*
X132080Y-110330D02*
D03*
Y-90330D02*
D03*
X133350Y70010D02*
D03*
Y90010D02*
D03*
X69850Y90170D02*
D03*
Y70170D02*
D03*
X-2540Y90010D02*
D03*
Y70010D02*
D03*
X-66040Y90010D02*
D03*
Y70010D02*
D03*
D18*
X-80000Y-39370D02*
D03*
X-60000D02*
D03*
Y39370D02*
D03*
X-80000D02*
D03*
X59850Y-39370D02*
D03*
X79850D02*
D03*
X80000Y39370D02*
D03*
X60000D02*
D03*
D19*
X76850Y148590D02*
D03*
Y168910D02*
D03*
X62850D02*
D03*
Y148590D02*
D03*
X-62850Y168910D02*
D03*
X-76850D02*
D03*
Y148590D02*
D03*
X-62850D02*
D03*
D20*
X-44001Y-19050D02*
D03*
Y-6350D02*
D03*
Y6350D02*
D03*
Y19050D02*
D03*
X-95999D02*
D03*
Y6350D02*
D03*
Y-6350D02*
D03*
Y-19050D02*
D03*
X44001D02*
D03*
Y-6350D02*
D03*
Y6350D02*
D03*
Y19050D02*
D03*
X95999Y-6350D02*
D03*
Y-19050D02*
D03*
Y6350D02*
D03*
Y19050D02*
D03*
D21*
X-174500Y-70500D02*
D03*
Y-19500D02*
D03*
Y19500D02*
D03*
Y70500D02*
D03*
X-225500D02*
D03*
Y19500D02*
D03*
Y-19500D02*
D03*
Y-70500D02*
D03*
X174500D02*
D03*
X225500D02*
D03*
Y-19500D02*
D03*
Y19500D02*
D03*
Y70500D02*
D03*
X174500D02*
D03*
Y19500D02*
D03*
Y-19500D02*
D03*
D22*
X-146050Y-175260D02*
D03*
X-120650D02*
D03*
X146050D02*
D03*
X171450D02*
D03*
Y176530D02*
D03*
X146050D02*
D03*
X-120650D02*
D03*
X-146050D02*
D03*
D23*
X-171450Y-175260D02*
D03*
X120650D02*
D03*
Y176530D02*
D03*
X-171450D02*
D03*
D24*
X38100Y158750D02*
D03*
X12700D02*
D03*
X-12700D02*
D03*
D25*
X-38100Y158750D02*
D03*
D26*
X-199999Y-45001D02*
D03*
Y44999D02*
D03*
X199999Y-44999D02*
D03*
Y45001D02*
D03*
D27*
X-203200Y-152400D02*
D03*
Y152400D02*
D03*
X203200Y-152400D02*
D03*
Y152400D02*
D03*
D28*
X-80000Y-53330D02*
D03*
X-44450Y-39370D02*
D03*
X11430Y-110490D02*
D03*
X59690Y-54610D02*
D03*
X82550D02*
D03*
X146050Y-110490D02*
D03*
X96520Y40640D02*
D03*
X118110Y68580D02*
D03*
X-12700Y119380D02*
D03*
X-16510Y72390D02*
D03*
X-63500Y133350D02*
D03*
X-38100Y175260D02*
D03*
X-91324Y40756D02*
D03*
M02*
