M48
;Layer_Color=9474304
;FILE_FORMAT=4:4
METRIC,TZ
;TYPE=PLATED
T01F00S00C0.3048
T02F00S00C1.1000
T03F00S00C1.3000
T04F00S00C1.6000
T05F00S00C2.5000
%
T01
X59690Y-54610
X82550
X96520Y40640
X146050Y-110490
X11430
X-44450Y-39370
X-80000Y-53330
X-91324Y40756
X-16510Y72390
X-12700Y119380
X-63500Y133350
X-38100Y175260
X118110Y68580
T02
X120650Y-175260
X146050
X171450
X-120650
X-146050
X-171450
Y176530
X-146050
X-120650
X-38100Y158750
X-12700
X12700
X38100
X120650Y176530
X146050
X171450
T03
X199999Y-44999
Y45001
X-199999Y44999
Y-45001
T04
X174499Y-70499
X225499
Y-19499
Y19502
X174499
Y-19499
X-174499Y-19502
Y19499
X-225499
Y-19502
Y-70501
X-174499
Y70499
X-225499
X174499Y70501
X225499
T05
X203200Y-152400
X-203200
Y152400
X203200
M30
