;TYPE=PLATED
;Layer: PTH_Through
;EasyEDA Pro Client v3.2.186, 2026-09-24 20:26:46
;Gerber Generator version 0.3
M48
METRIC,LZ,0000.00000
;Hole size 1 = 0.30500 METRIC
T01C0.30500
;Hole size 2 = 1.10002 METRIC
T02C1.10002
;Hole size 3 = 1.30002 METRIC
T03C1.30002
;Hole size 4 = 1.60000 METRIC
T04C1.60000
;Hole size 5 = 2.50000 METRIC
T05C2.50000
%
G05
G90
T01
X0.0Y7.02194
X-10.287Y7.0
X-10.287Y-9.652
X2.667Y13.97
X0.762Y4.953
X-2.286Y-3.683
X-2.032Y13.716
X-4.572Y14.732
X-8.001Y-5.207
X2.413Y3.683
X-8.017Y11.414
X3.429Y2.667
X-12.954Y2.54
X-8.382Y-14.081
X-3.429Y-14.097
X2.032Y-14.081
X12.192Y-9.382
X1.905Y-3.683
X-2.159Y3.556
T02
X-12.319Y16.764
X-14.859Y16.764
X-17.399Y16.764
X17.399Y16.637
X14.859Y16.637
X12.319Y16.637
X-12.319Y-17.272
X-14.859Y-17.272
X-17.399Y-17.272
X17.399Y-17.272
X14.859Y-17.272
X12.319Y-17.272
X-3.80991Y16.71446
X-1.26991Y16.71446
X1.27009Y16.71446
X3.81009Y16.71446
T03
X-19.99987Y6.99958
X-19.99987Y-7.00013
X19.99987Y7.00013
X19.99987Y-6.99987
T04
X-22.54986Y9.54957
X-22.54986Y4.4496
X-17.44989Y4.4496
X-17.44989Y9.54957
X-22.54986Y-4.45015
X-22.54986Y-9.55011
X-17.44989Y-9.55011
X-17.44989Y-4.45015
X22.54986Y4.45015
X22.54986Y9.55011
X17.44989Y9.55011
X17.44989Y4.45015
X22.54986Y-9.54986
X22.54986Y-4.44989
X17.44989Y-4.44989
X17.44989Y-9.54986
T05
X-20.32Y15.24
X-20.32003Y-15.23985
X20.32Y15.24
X20.32Y-15.24
M30