G04 Layer: TopPasteMaskLayer*
G04 EasyEDA Pro v3.2.186, 2026-09-24 20:26:46*
G04 Gerber Generator version 0.3*
G04 Scale: 100 percent, Rotated: No, Reflected: No*
G04 Dimensions in millimeters*
G04 Leading zeros omitted, absolute positions, 4 integers and 5 decimals*
G04 Generated by one-click*
G04 Object Configs: Pad,Via,Track,Text,Image,Dimension,BoardOutline,BoardCutout,CopperFilled,SolidRegion,FPCStiffener,Line,PlaneZone,ComponentProperty,ComponentSilkscreen,TearDrop*
G04 Layer Configs: 1,2,3,4,5,6,7,8,9,10,11,13,14,56*
G04 Copper Areas: 0*
%FSLAX45Y45*%
%MOMM*%
%ADD10R,0.8X0.9*%
%ADD11O,1.8X0.58801*%
%ADD12C,0.0932*%
G75*


G04 PolygonModel Start*
G36*
G01X-1541602Y636000D02*
G01X-1541602Y763998D01*
G01X-1536601Y768999D01*
G01X-1421600Y768999D01*
G01X-1416601Y763998D01*
G01X-1416098Y722995D01*
G01X-1461099Y722995D01*
G01X-1461099Y677996D01*
G01X-1417099Y677996D01*
G01X-1416601Y636000D01*
G01X-1421600Y630998D01*
G01X-1536601Y630998D01*
G01X-1541602Y636000D01*
G37*
G36*
G01X-1326601Y636000D02*
G01X-1326599Y677996D01*
G01X-1282101Y677996D01*
G01X-1282101Y722995D01*
G01X-1326098Y722995D01*
G01X-1326601Y763998D01*
G01X-1321600Y768999D01*
G01X-1206602Y768999D01*
G01X-1201600Y763998D01*
G01X-1201600Y636000D01*
G01X-1206602Y630998D01*
G01X-1321600Y630998D01*
G01X-1326601Y636000D01*
G37*
G36*
G01X-881202Y636000D02*
G01X-881202Y763998D01*
G01X-876201Y768999D01*
G01X-761200Y768999D01*
G01X-756201Y763998D01*
G01X-755698Y722995D01*
G01X-800699Y722995D01*
G01X-800699Y677996D01*
G01X-756699Y677996D01*
G01X-756201Y636000D01*
G01X-761200Y630998D01*
G01X-876201Y630998D01*
G01X-881202Y636000D01*
G37*
G36*
G01X-666201Y636000D02*
G01X-666199Y677996D01*
G01X-621701Y677996D01*
G01X-621701Y722995D01*
G01X-665698Y722995D01*
G01X-666201Y763998D01*
G01X-661200Y768999D01*
G01X-546202Y768999D01*
G01X-541200Y763998D01*
G01X-541200Y636000D01*
G01X-546202Y630998D01*
G01X-661200Y630998D01*
G01X-666201Y636000D01*
G37*
G36*
G01X-424002Y636000D02*
G01X-424002Y763998D01*
G01X-419001Y768999D01*
G01X-304000Y768999D01*
G01X-299001Y763998D01*
G01X-298498Y722995D01*
G01X-343499Y722995D01*
G01X-343499Y677996D01*
G01X-299499Y677996D01*
G01X-299001Y636000D01*
G01X-304000Y630998D01*
G01X-419001Y630998D01*
G01X-424002Y636000D01*
G37*
G36*
G01X-209001Y636000D02*
G01X-208999Y677996D01*
G01X-164501Y677996D01*
G01X-164501Y722995D01*
G01X-208498Y722995D01*
G01X-209001Y763998D01*
G01X-204000Y768999D01*
G01X-89002Y768999D01*
G01X-84000Y763998D01*
G01X-84000Y636000D01*
G01X-89002Y630998D01*
G01X-204000Y630998D01*
G01X-209001Y636000D01*
G37*
G36*
G01X83998Y636000D02*
G01X83998Y763998D01*
G01X88999Y768999D01*
G01X204000Y768999D01*
G01X208999Y763998D01*
G01X209502Y722995D01*
G01X164501Y722995D01*
G01X164501Y677996D01*
G01X208501Y677996D01*
G01X208999Y636000D01*
G01X204000Y630998D01*
G01X88999Y630998D01*
G01X83998Y636000D01*
G37*
G36*
G01X298999Y636000D02*
G01X299001Y677996D01*
G01X343499Y677996D01*
G01X343499Y722995D01*
G01X299502Y722995D01*
G01X298999Y763998D01*
G01X304000Y768999D01*
G01X418998Y768999D01*
G01X424000Y763998D01*
G01X424000Y636000D01*
G01X418998Y630998D01*
G01X304000Y630998D01*
G01X298999Y636000D01*
G37*
G36*
G01X-964700Y185598D02*
G01X-1092698Y185598D01*
G01X-1097699Y190599D01*
G01X-1097699Y305600D01*
G01X-1092698Y310599D01*
G01X-1051695Y311102D01*
G01X-1051695Y266101D01*
G01X-1006696Y266101D01*
G01X-1006696Y310101D01*
G01X-964700Y310599D01*
G01X-959698Y305600D01*
G01X-959698Y190599D01*
G01X-964700Y185598D01*
G37*
G36*
G01X-964700Y400599D02*
G01X-1006696Y400601D01*
G01X-1006696Y445099D01*
G01X-1051695Y445099D01*
G01X-1051695Y401102D01*
G01X-1092698Y400599D01*
G01X-1097699Y405600D01*
G01X-1097699Y520598D01*
G01X-1092698Y525600D01*
G01X-964700Y525600D01*
G01X-959698Y520598D01*
G01X-959698Y405600D01*
G01X-964700Y400599D01*
G37*
G36*
G01X-64000Y1370002D02*
G01X63998Y1370002D01*
G01X68999Y1365001D01*
G01X68999Y1250000D01*
G01X63998Y1245001D01*
G01X22995Y1244498D01*
G01X22995Y1289499D01*
G01X-22004Y1289499D01*
G01X-22004Y1245499D01*
G01X-64000Y1245001D01*
G01X-69002Y1250000D01*
G01X-69002Y1365001D01*
G01X-64000Y1370002D01*
G37*
G36*
G01X-64000Y1155001D02*
G01X-22004Y1154999D01*
G01X-22004Y1110500D01*
G01X22995Y1110500D01*
G01X22995Y1154498D01*
G01X63998Y1155001D01*
G01X68999Y1150000D01*
G01X68999Y1035001D01*
G01X63998Y1030000D01*
G01X-64000Y1030000D01*
G01X-69002Y1035001D01*
G01X-69002Y1150000D01*
G01X-64000Y1155001D01*
G37*
G36*
G01X-873302Y-1029200D02*
G01X-873302Y-901202D01*
G01X-868301Y-896201D01*
G01X-753300Y-896201D01*
G01X-748301Y-901202D01*
G01X-747798Y-942205D01*
G01X-792800Y-942205D01*
G01X-792800Y-987204D01*
G01X-748799Y-987204D01*
G01X-748301Y-1029200D01*
G01X-753300Y-1034202D01*
G01X-868301Y-1034202D01*
G01X-873302Y-1029200D01*
G37*
G36*
G01X-658301Y-1029200D02*
G01X-658299Y-987204D01*
G01X-613801Y-987204D01*
G01X-613801Y-942205D01*
G01X-657799Y-942205D01*
G01X-658301Y-901202D01*
G01X-653300Y-896201D01*
G01X-538302Y-896201D01*
G01X-533300Y-901202D01*
G01X-533300Y-1029200D01*
G01X-538302Y-1034202D01*
G01X-653300Y-1034202D01*
G01X-658301Y-1029200D01*
G37*
G36*
G01X-964700Y-1478102D02*
G01X-1092698Y-1478102D01*
G01X-1097699Y-1473101D01*
G01X-1097699Y-1358100D01*
G01X-1092698Y-1353101D01*
G01X-1051695Y-1352598D01*
G01X-1051695Y-1397599D01*
G01X-1006696Y-1397599D01*
G01X-1006696Y-1353599D01*
G01X-964700Y-1353101D01*
G01X-959698Y-1358100D01*
G01X-959698Y-1473101D01*
G01X-964700Y-1478102D01*
G37*
G36*
G01X-964700Y-1263101D02*
G01X-1006696Y-1263099D01*
G01X-1006696Y-1218601D01*
G01X-1051695Y-1218601D01*
G01X-1051695Y-1262598D01*
G01X-1092698Y-1263101D01*
G01X-1097699Y-1258100D01*
G01X-1097699Y-1143102D01*
G01X-1092698Y-1138100D01*
G01X-964700Y-1138100D01*
G01X-959698Y-1143102D01*
G01X-959698Y-1258100D01*
G01X-964700Y-1263101D01*
G37*
G36*
G01X-450350Y-1478102D02*
G01X-578348Y-1478102D01*
G01X-583349Y-1473101D01*
G01X-583349Y-1358100D01*
G01X-578348Y-1353101D01*
G01X-537345Y-1352598D01*
G01X-537345Y-1397599D01*
G01X-492346Y-1397599D01*
G01X-492346Y-1353599D01*
G01X-450350Y-1353101D01*
G01X-445348Y-1358100D01*
G01X-445348Y-1473101D01*
G01X-450350Y-1478102D01*
G37*
G36*
G01X-450350Y-1263101D02*
G01X-492346Y-1263099D01*
G01X-492346Y-1218601D01*
G01X-537345Y-1218601D01*
G01X-537345Y-1262598D01*
G01X-578348Y-1263101D01*
G01X-583349Y-1258100D01*
G01X-583349Y-1143102D01*
G01X-578348Y-1138100D01*
G01X-450350Y-1138100D01*
G01X-445348Y-1143102D01*
G01X-445348Y-1258100D01*
G01X-450350Y-1263101D01*
G37*
G36*
G01X-71298Y-636000D02*
G01X-71298Y-763998D01*
G01X-76299Y-768999D01*
G01X-191300Y-768999D01*
G01X-196299Y-763998D01*
G01X-196802Y-722995D01*
G01X-151801Y-722995D01*
G01X-151801Y-677996D01*
G01X-195801Y-677996D01*
G01X-196299Y-636000D01*
G01X-191300Y-630998D01*
G01X-76299Y-630998D01*
G01X-71298Y-636000D01*
G37*
G36*
G01X-286299Y-636000D02*
G01X-286301Y-677996D01*
G01X-330799Y-677996D01*
G01X-330799Y-722995D01*
G01X-286802Y-722995D01*
G01X-286299Y-763998D01*
G01X-291300Y-768999D01*
G01X-406298Y-768999D01*
G01X-411300Y-763998D01*
G01X-411300Y-636000D01*
G01X-406298Y-630998D01*
G01X-291300Y-630998D01*
G01X-286299Y-636000D01*
G37*
G36*
G01X83998Y-764001D02*
G01X83998Y-636002D01*
G01X88999Y-631001D01*
G01X204000Y-631001D01*
G01X208999Y-636002D01*
G01X209502Y-677006D01*
G01X164501Y-677006D01*
G01X164501Y-722004D01*
G01X208501Y-722004D01*
G01X208999Y-764001D01*
G01X204000Y-769002D01*
G01X88999Y-769002D01*
G01X83998Y-764001D01*
G37*
G36*
G01X298999Y-764001D02*
G01X299001Y-722004D01*
G01X343499Y-722004D01*
G01X343499Y-677006D01*
G01X299502Y-677006D01*
G01X298999Y-636002D01*
G01X304000Y-631001D01*
G01X418998Y-631001D01*
G01X424000Y-636002D01*
G01X424000Y-764001D01*
G01X418998Y-769002D01*
G01X304000Y-769002D01*
G01X298999Y-764001D01*
G37*
G36*
G01X-1541602Y-1029200D02*
G01X-1541602Y-901202D01*
G01X-1536601Y-896201D01*
G01X-1421600Y-896201D01*
G01X-1416601Y-901202D01*
G01X-1416098Y-942205D01*
G01X-1461099Y-942205D01*
G01X-1461099Y-987204D01*
G01X-1417099Y-987204D01*
G01X-1416601Y-1029200D01*
G01X-1421600Y-1034202D01*
G01X-1536601Y-1034202D01*
G01X-1541602Y-1029200D01*
G37*
G36*
G01X-1326601Y-1029200D02*
G01X-1326599Y-987204D01*
G01X-1282101Y-987204D01*
G01X-1282101Y-942205D01*
G01X-1326098Y-942205D01*
G01X-1326601Y-901202D01*
G01X-1321600Y-896201D01*
G01X-1206602Y-896201D01*
G01X-1201600Y-901202D01*
G01X-1201600Y-1029200D01*
G01X-1206602Y-1034202D01*
G01X-1321600Y-1034202D01*
G01X-1326601Y-1029200D01*
G37*
G36*
G01X642798Y-127500D02*
G01X642798Y498D01*
G01X647799Y5499D01*
G01X762800Y5499D01*
G01X767799Y498D01*
G01X768302Y-40505D01*
G01X723301Y-40505D01*
G01X723301Y-85504D01*
G01X767301Y-85504D01*
G01X767799Y-127500D01*
G01X762800Y-132502D01*
G01X647799Y-132502D01*
G01X642798Y-127500D01*
G37*
G36*
G01X857799Y-127500D02*
G01X857801Y-85504D01*
G01X902299Y-85504D01*
G01X902299Y-40505D01*
G01X858302Y-40505D01*
G01X857799Y498D01*
G01X862800Y5499D01*
G01X977798Y5499D01*
G01X982800Y498D01*
G01X982800Y-127500D01*
G01X977798Y-132502D01*
G01X862800Y-132502D01*
G01X857799Y-127500D01*
G37*
G36*
G01X1092700Y-1008202D02*
G01X964702Y-1008202D01*
G01X959701Y-1003201D01*
G01X959701Y-888200D01*
G01X964702Y-883201D01*
G01X1005705Y-882698D01*
G01X1005705Y-927699D01*
G01X1050704Y-927699D01*
G01X1050704Y-883699D01*
G01X1092700Y-883201D01*
G01X1097702Y-888200D01*
G01X1097702Y-1003201D01*
G01X1092700Y-1008202D01*
G37*
G36*
G01X1092700Y-793201D02*
G01X1050704Y-793199D01*
G01X1050704Y-748701D01*
G01X1005705Y-748701D01*
G01X1005705Y-792698D01*
G01X964702Y-793201D01*
G01X959701Y-788200D01*
G01X959701Y-673202D01*
G01X964702Y-668200D01*
G01X1092700Y-668200D01*
G01X1097702Y-673202D01*
G01X1097702Y-788200D01*
G01X1092700Y-793201D01*
G37*
G36*
G01X1201598Y636000D02*
G01X1201598Y763998D01*
G01X1206599Y768999D01*
G01X1321600Y768999D01*
G01X1326599Y763998D01*
G01X1327102Y722995D01*
G01X1282101Y722995D01*
G01X1282101Y677996D01*
G01X1326101Y677996D01*
G01X1326599Y636000D01*
G01X1321600Y630998D01*
G01X1206599Y630998D01*
G01X1201598Y636000D01*
G37*
G36*
G01X1416599Y636000D02*
G01X1416601Y677996D01*
G01X1461099Y677996D01*
G01X1461099Y722995D01*
G01X1417102Y722995D01*
G01X1416599Y763998D01*
G01X1421600Y768999D01*
G01X1536598Y768999D01*
G01X1541600Y763998D01*
G01X1541600Y636000D01*
G01X1536598Y630998D01*
G01X1421600Y630998D01*
G01X1416599Y636000D01*
G37*
G36*
G01X1201598Y-764001D02*
G01X1201598Y-636002D01*
G01X1206599Y-631001D01*
G01X1321600Y-631001D01*
G01X1326599Y-636002D01*
G01X1327102Y-677006D01*
G01X1282101Y-677006D01*
G01X1282101Y-722004D01*
G01X1326101Y-722004D01*
G01X1326599Y-764001D01*
G01X1321600Y-769002D01*
G01X1206599Y-769002D01*
G01X1201598Y-764001D01*
G37*
G36*
G01X1416599Y-764001D02*
G01X1416601Y-722004D01*
G01X1461099Y-722004D01*
G01X1461099Y-677006D01*
G01X1417102Y-677006D01*
G01X1416599Y-636002D01*
G01X1421600Y-631001D01*
G01X1536598Y-631001D01*
G01X1541600Y-636002D01*
G01X1541600Y-764001D01*
G01X1536598Y-769002D01*
G01X1421600Y-769002D01*
G01X1416599Y-764001D01*
G37*
G36*
G01X-964700Y871398D02*
G01X-1092698Y871398D01*
G01X-1097699Y876399D01*
G01X-1097699Y991400D01*
G01X-1092698Y996399D01*
G01X-1051695Y996902D01*
G01X-1051695Y951901D01*
G01X-1006696Y951901D01*
G01X-1006696Y995901D01*
G01X-964700Y996399D01*
G01X-959698Y991400D01*
G01X-959698Y876399D01*
G01X-964700Y871398D01*
G37*
G36*
G01X-964700Y1086399D02*
G01X-1006696Y1086401D01*
G01X-1006696Y1130899D01*
G01X-1051695Y1130899D01*
G01X-1051695Y1086902D01*
G01X-1092698Y1086399D01*
G01X-1097699Y1091400D01*
G01X-1097699Y1206398D01*
G01X-1092698Y1211400D01*
G01X-964700Y1211400D01*
G01X-959698Y1206398D01*
G01X-959698Y1091400D01*
G01X-964700Y1086399D01*
G37*
G36*
G01X-964700Y-792302D02*
G01X-1092698Y-792302D01*
G01X-1097699Y-787301D01*
G01X-1097699Y-672300D01*
G01X-1092698Y-667301D01*
G01X-1051695Y-666798D01*
G01X-1051695Y-711799D01*
G01X-1006696Y-711799D01*
G01X-1006696Y-667799D01*
G01X-964700Y-667301D01*
G01X-959698Y-672300D01*
G01X-959698Y-787301D01*
G01X-964700Y-792302D01*
G37*
G36*
G01X-964700Y-577301D02*
G01X-1006696Y-577299D01*
G01X-1006696Y-532801D01*
G01X-1051695Y-532801D01*
G01X-1051695Y-576798D01*
G01X-1092698Y-577301D01*
G01X-1097699Y-572300D01*
G01X-1097699Y-457302D01*
G01X-1092698Y-452300D01*
G01X-964700Y-452300D01*
G01X-959698Y-457302D01*
G01X-959698Y-572300D01*
G01X-964700Y-577301D01*
G37*
G36*
G01X64000Y-1478102D02*
G01X-63998Y-1478102D01*
G01X-68999Y-1473101D01*
G01X-68999Y-1358100D01*
G01X-63998Y-1353101D01*
G01X-22995Y-1352598D01*
G01X-22995Y-1397599D01*
G01X22004Y-1397599D01*
G01X22004Y-1353599D01*
G01X64000Y-1353101D01*
G01X69002Y-1358100D01*
G01X69002Y-1473101D01*
G01X64000Y-1478102D01*
G37*
G36*
G01X64000Y-1263101D02*
G01X22004Y-1263099D01*
G01X22004Y-1218601D01*
G01X-22995Y-1218601D01*
G01X-22995Y-1262598D01*
G01X-63998Y-1263101D01*
G01X-68999Y-1258100D01*
G01X-68999Y-1143102D01*
G01X-63998Y-1138100D01*
G01X64000Y-1138100D01*
G01X69002Y-1143102D01*
G01X69002Y-1258100D01*
G01X64000Y-1263101D01*
G37*

G04 Pad Start*
G54D10*
G01X-666598Y1671400D03*
G01X-806602Y1671400D03*
G01X-666598Y1460500D03*
G01X-806602Y1460500D03*
G01X666631Y1671435D03*
G01X806636Y1671435D03*
G01X666631Y1461500D03*
G01X806636Y1461500D03*
G01X-70002Y368300D03*
G01X70002Y368300D03*
G01X-70002Y-368300D03*
G01X70002Y-368300D03*
G54D11*
G01X259994Y-190500D03*
G01X259994Y-63500D03*
G01X259994Y63500D03*
G01X259994Y190500D03*
G01X-259994Y-190500D03*
G01X-259994Y-63500D03*
G01X-259994Y63500D03*
G01X-259994Y190500D03*
G04 Pad End*

M02*

