G04 Layer: DrillDrawingLayer*
G04 EasyEDA Pro v3.2.186, 2026-09-24 20:26:46*
G04 Gerber Generator version 0.3*
G04 Scale: 100 percent, Rotated: No, Reflected: No*
G04 Dimensions in millimeters*
G04 Leading zeros omitted, absolute positions, 4 integers and 5 decimals*
G04 Generated by one-click*
G04 Object Configs: Pad,Via,Track,Text,Image,Dimension,BoardOutline,BoardCutout,CopperFilled,SolidRegion,FPCStiffener,Line,PlaneZone,ComponentProperty,ComponentSilkscreen,TearDrop*
G04 Layer Configs: 1,2,3,4,5,6,7,8,9,10,11,13,14,56*
G04 Copper Areas: 0*
%FSLAX45Y45*%
%MOMM*%
%AMIconRect*4,1,4,0.28,-0.28,-0.28,-0.28,-0.28,0.28,0.28,0.28,0.28,-0.28,0*4,0,4,0.233333,-0.233333,0.233333,0.233333,-0.233333,0.233333,-0.233333,-0.233333,0.233333,-0.233333,0*%
%AMIconTriangle*4,1,3,-0.339593,0.240473,0.339593,0.240473,0,-0.37884,-0.339593,0.240473,0*4,0,3,-0.265673,0.19404,0,-0.27342,0.266233,0.19404,-0.265673,0.19404,0*%
%AMIconStar6*4,1,12,0.12068,0.20888,0.298527,0.172713,0.241313,0,0.298527,-0.17206,0.12068,-0.208227,0,-0.344073,-0.120073,-0.208227,-0.298573,-0.17206,-0.240707,0,-0.298573,0.17206,-0.120073,0.20888,0,0.344073,0.12068,0.20888,0*4,0,12,-0.000467,0.273467,-0.090067,0.171733,-0.237533,0.136733,-0.193667,-0.007467,-0.237533,-0.1372,-0.090067,-0.171733,-0.000467,-0.273933,0.090067,-0.171733,0.237533,-0.1372,0.194133,0.007,0.237533,0.1372,0.090067,0.171267,-0.000467,0.273467,0*%
%AMIconStar4*4,1,8,-0.311733,0.311733,0,0.202533,0.311733,0.311733,0.202533,0,0.311733,-0.311733,0,-0.202533,-0.304407,-0.311733,-0.202533,0,-0.311733,0.311733,0*4,0,8,0.233333,-0.233333,0.1512,0,0.233333,0.233333,0,0.1512,-0.233333,0.233333,-0.1512,0,-0.233333,-0.233333,0,-0.1512,0.233333,-0.233333,0*%
%ADD10IconRect*%
%ADD11C,0.616X0.522667*%
%ADD12IconTriangle*%
%ADD13IconStar6*%
%ADD14IconStar4*%
%ADD15C,0.2032*%
%ADD16C,0.254*%
G75*


G04 Drill Drawing Start*
G54D10*
G01X-1999987Y-700013D03*
G01X-1999987Y699958D03*
G01X1999987Y-699987D03*
G01X1999987Y700013D03*
G54D11*
G01X-2032003Y-1523985D03*
G01X-2032000Y1524000D03*
G01X2032000Y-1524000D03*
G01X2032000Y1524000D03*
G54D12*
G01X-1739900Y-1727200D03*
G01X-1739900Y1676400D03*
G01X-1485900Y-1727200D03*
G01X-1485900Y1676400D03*
G01X-1231900Y-1727200D03*
G01X-1231900Y1676400D03*
G01X-380991Y1671446D03*
G01X-126991Y1671446D03*
G01X127009Y1671446D03*
G01X381009Y1671446D03*
G01X1231900Y-1727200D03*
G01X1231900Y1663700D03*
G01X1485900Y-1727200D03*
G01X1485900Y1663700D03*
G01X1739900Y-1727200D03*
G01X1739900Y1663700D03*
G54D13*
G01X-2254986Y-955011D03*
G01X-2254986Y-445015D03*
G01X-2254986Y444960D03*
G01X-2254986Y954957D03*
G01X-1744989Y-955011D03*
G01X-1744989Y-445015D03*
G01X-1744989Y444960D03*
G01X-1744989Y954957D03*
G01X1744989Y-954986D03*
G01X1744989Y-444989D03*
G01X1744989Y445015D03*
G01X1744989Y955011D03*
G01X2254986Y-954986D03*
G01X2254986Y-444989D03*
G01X2254986Y445015D03*
G01X2254986Y955011D03*
G54D14*
G01X-1295400Y254000D03*
G01X-1028700Y-965200D03*
G01X-1028700Y700000D03*
G01X-838200Y-1408100D03*
G01X-801700Y1141400D03*
G01X-800100Y-520700D03*
G01X-457200Y1473200D03*
G01X-342900Y-1409700D03*
G01X-228600Y-368300D03*
G01X-215900Y355600D03*
G01X-203200Y1371600D03*
G01X0Y702194D03*
G01X76200Y495300D03*
G01X190500Y-368300D03*
G01X203200Y-1408100D03*
G01X241300Y368300D03*
G01X266700Y1397000D03*
G01X342900Y266700D03*
G01X1219200Y-938200D03*
G04 Drill Drawing End*

G04 Text Start*
G54D15*
G01X4713446Y1683294D02*
G01X4713446Y1563152D01*
G01X4713446Y1683294D02*
G01X4759166Y1563152D01*
G01X4804886Y1683294D02*
G01X4759166Y1563152D01*
G01X4804886Y1683294D02*
G01X4804886Y1563152D01*
G01X4921218Y1643162D02*
G01X4921218Y1563152D01*
G01X4921218Y1626144D02*
G01X4909788Y1637574D01*
G01X4898358Y1643162D01*
G01X4881340Y1643162D01*
G01X4869910Y1637574D01*
G01X4858480Y1626144D01*
G01X4852638Y1608872D01*
G01X4852638Y1597442D01*
G01X4858480Y1580424D01*
G01X4869910Y1568994D01*
G01X4881340Y1563152D01*
G01X4898358Y1563152D01*
G01X4909788Y1568994D01*
G01X4921218Y1580424D01*
G01X4968970Y1643162D02*
G01X4968970Y1563152D01*
G01X4968970Y1608872D02*
G01X4974812Y1626144D01*
G01X4986242Y1637574D01*
G01X4997672Y1643162D01*
G01X5014690Y1643162D01*
G01X5062442Y1683294D02*
G01X5062442Y1563152D01*
G01X5119592Y1643162D02*
G01X5062442Y1586012D01*
G01X5085302Y1608872D02*
G01X5125434Y1563152D01*
G01X6250726Y1654592D02*
G01X6244884Y1666022D01*
G01X6233454Y1677452D01*
G01X6222024Y1683294D01*
G01X6199164Y1683294D01*
G01X6187734Y1677452D01*
G01X6176304Y1666022D01*
G01X6170716Y1654592D01*
G01X6164874Y1637574D01*
G01X6164874Y1608872D01*
G01X6170716Y1591854D01*
G01X6176304Y1580424D01*
G01X6187734Y1568994D01*
G01X6199164Y1563152D01*
G01X6222024Y1563152D01*
G01X6233454Y1568994D01*
G01X6244884Y1580424D01*
G01X6250726Y1591854D01*
G01X6327180Y1643162D02*
G01X6315750Y1637574D01*
G01X6304320Y1626144D01*
G01X6298478Y1608872D01*
G01X6298478Y1597442D01*
G01X6304320Y1580424D01*
G01X6315750Y1568994D01*
G01X6327180Y1563152D01*
G01X6344198Y1563152D01*
G01X6355628Y1568994D01*
G01X6367058Y1580424D01*
G01X6372900Y1597442D01*
G01X6372900Y1608872D01*
G01X6367058Y1626144D01*
G01X6355628Y1637574D01*
G01X6344198Y1643162D01*
G01X6327180Y1643162D01*
G01X6420652Y1643162D02*
G01X6420652Y1586012D01*
G01X6426494Y1568994D01*
G01X6437924Y1563152D01*
G01X6454942Y1563152D01*
G01X6466372Y1568994D01*
G01X6483644Y1586012D01*
G01X6483644Y1643162D02*
G01X6483644Y1563152D01*
G01X6531396Y1643162D02*
G01X6531396Y1563152D01*
G01X6531396Y1620302D02*
G01X6548668Y1637574D01*
G01X6560098Y1643162D01*
G01X6577116Y1643162D01*
G01X6588546Y1637574D01*
G01X6594388Y1620302D01*
G01X6594388Y1563152D01*
G01X6659412Y1683294D02*
G01X6659412Y1586012D01*
G01X6665000Y1568994D01*
G01X6676430Y1563152D01*
G01X6687860Y1563152D01*
G01X6642140Y1643162D02*
G01X6682272Y1643162D01*
G01X7659047Y1666022D02*
G01X7647617Y1677452D01*
G01X7630599Y1683294D01*
G01X7607739Y1683294D01*
G01X7590467Y1677452D01*
G01X7579037Y1666022D01*
G01X7579037Y1654592D01*
G01X7584879Y1643162D01*
G01X7590467Y1637574D01*
G01X7601897Y1631732D01*
G01X7636187Y1620302D01*
G01X7647617Y1614714D01*
G01X7653459Y1608872D01*
G01X7659047Y1597442D01*
G01X7659047Y1580424D01*
G01X7647617Y1568994D01*
G01X7630599Y1563152D01*
G01X7607739Y1563152D01*
G01X7590467Y1568994D01*
G01X7579037Y1580424D01*
G01X7706799Y1683294D02*
G01X7712641Y1677452D01*
G01X7718229Y1683294D01*
G01X7712641Y1688882D01*
G01X7706799Y1683294D01*
G01X7712641Y1643162D02*
G01X7712641Y1563152D01*
G01X7828973Y1643162D02*
G01X7765981Y1563152D01*
G01X7765981Y1643162D02*
G01X7828973Y1643162D01*
G01X7765981Y1563152D02*
G01X7828973Y1563152D01*
G01X7876725Y1608872D02*
G01X7945305Y1608872D01*
G01X7945305Y1620302D01*
G01X7939717Y1631732D01*
G01X7933875Y1637574D01*
G01X7922445Y1643162D01*
G01X7905427Y1643162D01*
G01X7893997Y1637574D01*
G01X7882567Y1626144D01*
G01X7876725Y1608872D01*
G01X7876725Y1597442D01*
G01X7882567Y1580424D01*
G01X7893997Y1568994D01*
G01X7905427Y1563152D01*
G01X7922445Y1563152D01*
G01X7933875Y1568994D01*
G01X7945305Y1580424D01*
G01X11473003Y1683294D02*
G01X11473003Y1563152D01*
G01X11473003Y1683294D02*
G01X11524565Y1683294D01*
G01X11541583Y1677452D01*
G01X11547425Y1671864D01*
G01X11553013Y1660434D01*
G01X11553013Y1643162D01*
G01X11547425Y1631732D01*
G01X11541583Y1626144D01*
G01X11524565Y1620302D01*
G01X11473003Y1620302D01*
G01X11600765Y1683294D02*
G01X11600765Y1563152D01*
G01X11717097Y1643162D02*
G01X11717097Y1563152D01*
G01X11717097Y1626144D02*
G01X11705667Y1637574D01*
G01X11694237Y1643162D01*
G01X11677219Y1643162D01*
G01X11665789Y1637574D01*
G01X11654359Y1626144D01*
G01X11648517Y1608872D01*
G01X11648517Y1597442D01*
G01X11654359Y1580424D01*
G01X11665789Y1568994D01*
G01X11677219Y1563152D01*
G01X11694237Y1563152D01*
G01X11705667Y1568994D01*
G01X11717097Y1580424D01*
G01X11782121Y1683294D02*
G01X11782121Y1586012D01*
G01X11787709Y1568994D01*
G01X11799139Y1563152D01*
G01X11810569Y1563152D01*
G01X11764849Y1643162D02*
G01X11804981Y1643162D01*
G01X11858321Y1608872D02*
G01X11926901Y1608872D01*
G01X11926901Y1620302D01*
G01X11921313Y1631732D01*
G01X11915471Y1637574D01*
G01X11904041Y1643162D01*
G01X11887023Y1643162D01*
G01X11875593Y1637574D01*
G01X11864163Y1626144D01*
G01X11858321Y1608872D01*
G01X11858321Y1597442D01*
G01X11864163Y1580424D01*
G01X11875593Y1568994D01*
G01X11887023Y1563152D01*
G01X11904041Y1563152D01*
G01X11915471Y1568994D01*
G01X11926901Y1580424D01*
G01X12043233Y1683294D02*
G01X12043233Y1563152D01*
G01X12043233Y1626144D02*
G01X12031803Y1637574D01*
G01X12020373Y1643162D01*
G01X12003355Y1643162D01*
G01X11991925Y1637574D01*
G01X11980495Y1626144D01*
G01X11974653Y1608872D01*
G01X11974653Y1597442D01*
G01X11980495Y1580424D01*
G01X11991925Y1568994D01*
G01X12003355Y1563152D01*
G01X12020373Y1563152D01*
G01X12031803Y1568994D01*
G01X12043233Y1580424D01*
G01X13014420Y1666022D02*
G01X13002990Y1677452D01*
G01X12985972Y1683294D01*
G01X12963112Y1683294D01*
G01X12945840Y1677452D01*
G01X12934410Y1666022D01*
G01X12934410Y1654592D01*
G01X12940252Y1643162D01*
G01X12945840Y1637574D01*
G01X12957270Y1631732D01*
G01X12991560Y1620302D01*
G01X13002990Y1614714D01*
G01X13008832Y1608872D01*
G01X13014420Y1597442D01*
G01X13014420Y1580424D01*
G01X13002990Y1568994D01*
G01X12985972Y1563152D01*
G01X12963112Y1563152D01*
G01X12945840Y1568994D01*
G01X12934410Y1580424D01*
G01X13062172Y1683294D02*
G01X13062172Y1563152D01*
G01X13062172Y1620302D02*
G01X13079444Y1637574D01*
G01X13090874Y1643162D01*
G01X13107892Y1643162D01*
G01X13119322Y1637574D01*
G01X13125164Y1620302D01*
G01X13125164Y1563152D01*
G01X13241496Y1643162D02*
G01X13241496Y1563152D01*
G01X13241496Y1626144D02*
G01X13230066Y1637574D01*
G01X13218636Y1643162D01*
G01X13201618Y1643162D01*
G01X13190188Y1637574D01*
G01X13178758Y1626144D01*
G01X13172916Y1608872D01*
G01X13172916Y1597442D01*
G01X13178758Y1580424D01*
G01X13190188Y1568994D01*
G01X13201618Y1563152D01*
G01X13218636Y1563152D01*
G01X13230066Y1568994D01*
G01X13241496Y1580424D01*
G01X13289248Y1643162D02*
G01X13289248Y1523274D01*
G01X13289248Y1626144D02*
G01X13300678Y1637574D01*
G01X13312108Y1643162D01*
G01X13329380Y1643162D01*
G01X13340810Y1637574D01*
G01X13352240Y1626144D01*
G01X13357828Y1608872D01*
G01X13357828Y1597442D01*
G01X13352240Y1580424D01*
G01X13340810Y1568994D01*
G01X13329380Y1563152D01*
G01X13312108Y1563152D01*
G01X13300678Y1568994D01*
G01X13289248Y1580424D01*
G01X13405580Y1608872D02*
G01X13474160Y1608872D01*
G01X13474160Y1620302D01*
G01X13468572Y1631732D01*
G01X13462730Y1637574D01*
G01X13451300Y1643162D01*
G01X13434282Y1643162D01*
G01X13422852Y1637574D01*
G01X13411422Y1626144D01*
G01X13405580Y1608872D01*
G01X13405580Y1597442D01*
G01X13411422Y1580424D01*
G01X13422852Y1568994D01*
G01X13434282Y1563152D01*
G01X13451300Y1563152D01*
G01X13462730Y1568994D01*
G01X13474160Y1580424D01*
G01X14365591Y1683294D02*
G01X14411311Y1563152D01*
G01X14457031Y1683294D02*
G01X14411311Y1563152D01*
G01X14504783Y1683294D02*
G01X14510625Y1677452D01*
G01X14516213Y1683294D01*
G01X14510625Y1688882D01*
G01X14504783Y1683294D01*
G01X14510625Y1643162D02*
G01X14510625Y1563152D01*
G01X14632545Y1643162D02*
G01X14632545Y1563152D01*
G01X14632545Y1626144D02*
G01X14621115Y1637574D01*
G01X14609685Y1643162D01*
G01X14592667Y1643162D01*
G01X14581237Y1637574D01*
G01X14569807Y1626144D01*
G01X14563965Y1608872D01*
G01X14563965Y1597442D01*
G01X14569807Y1580424D01*
G01X14581237Y1568994D01*
G01X14592667Y1563152D01*
G01X14609685Y1563152D01*
G01X14621115Y1568994D01*
G01X14632545Y1580424D01*
G01X14783167Y1706154D02*
G01X14680297Y1523274D01*
G01X14830919Y1683294D02*
G01X14830919Y1563152D01*
G01X14830919Y1683294D02*
G01X14882481Y1683294D01*
G01X14899499Y1677452D01*
G01X14905341Y1671864D01*
G01X14910929Y1660434D01*
G01X14910929Y1643162D01*
G01X14905341Y1631732D01*
G01X14899499Y1626144D01*
G01X14882481Y1620302D01*
G01X14830919Y1620302D01*
G01X15027261Y1643162D02*
G01X15027261Y1563152D01*
G01X15027261Y1626144D02*
G01X15015831Y1637574D01*
G01X15004401Y1643162D01*
G01X14987383Y1643162D01*
G01X14975953Y1637574D01*
G01X14964523Y1626144D01*
G01X14958681Y1608872D01*
G01X14958681Y1597442D01*
G01X14964523Y1580424D01*
G01X14975953Y1568994D01*
G01X14987383Y1563152D01*
G01X15004401Y1563152D01*
G01X15015831Y1568994D01*
G01X15027261Y1580424D01*
G01X15143593Y1683294D02*
G01X15143593Y1563152D01*
G01X15143593Y1626144D02*
G01X15132163Y1637574D01*
G01X15120733Y1643162D01*
G01X15103715Y1643162D01*
G01X15092285Y1637574D01*
G01X15080855Y1626144D01*
G01X15075013Y1608872D01*
G01X15075013Y1597442D01*
G01X15080855Y1580424D01*
G01X15092285Y1568994D01*
G01X15103715Y1563152D01*
G01X15120733Y1563152D01*
G01X15132163Y1568994D01*
G01X15143593Y1580424D01*
G01X16034770Y1683294D02*
G01X16034770Y1563152D01*
G01X16034770Y1683294D02*
G01X16086332Y1683294D01*
G01X16103350Y1677452D01*
G01X16109192Y1671864D01*
G01X16114780Y1660434D01*
G01X16114780Y1643162D01*
G01X16109192Y1631732D01*
G01X16103350Y1626144D01*
G01X16086332Y1620302D01*
G01X16034770Y1620302D01*
G01X16231112Y1643162D02*
G01X16231112Y1563152D01*
G01X16231112Y1626144D02*
G01X16219682Y1637574D01*
G01X16208252Y1643162D01*
G01X16191234Y1643162D01*
G01X16179804Y1637574D01*
G01X16168374Y1626144D01*
G01X16162532Y1608872D01*
G01X16162532Y1597442D01*
G01X16168374Y1580424D01*
G01X16179804Y1568994D01*
G01X16191234Y1563152D01*
G01X16208252Y1563152D01*
G01X16219682Y1568994D01*
G01X16231112Y1580424D01*
G01X16347444Y1683294D02*
G01X16347444Y1563152D01*
G01X16347444Y1626144D02*
G01X16336014Y1637574D01*
G01X16324584Y1643162D01*
G01X16307566Y1643162D01*
G01X16296136Y1637574D01*
G01X16284706Y1626144D01*
G01X16278864Y1608872D01*
G01X16278864Y1597442D01*
G01X16284706Y1580424D01*
G01X16296136Y1568994D01*
G01X16307566Y1563152D01*
G01X16324584Y1563152D01*
G01X16336014Y1568994D01*
G01X16347444Y1580424D01*
G01X16603222Y1666022D02*
G01X16591792Y1677452D01*
G01X16574774Y1683294D01*
G01X16551914Y1683294D01*
G01X16534642Y1677452D01*
G01X16523212Y1666022D01*
G01X16523212Y1654592D01*
G01X16529054Y1643162D01*
G01X16534642Y1637574D01*
G01X16546072Y1631732D01*
G01X16580362Y1620302D01*
G01X16591792Y1614714D01*
G01X16597634Y1608872D01*
G01X16603222Y1597442D01*
G01X16603222Y1580424D01*
G01X16591792Y1568994D01*
G01X16574774Y1563152D01*
G01X16551914Y1563152D01*
G01X16534642Y1568994D01*
G01X16523212Y1580424D01*
G01X16650974Y1683294D02*
G01X16650974Y1563152D01*
G01X16650974Y1620302D02*
G01X16668246Y1637574D01*
G01X16679676Y1643162D01*
G01X16696694Y1643162D01*
G01X16708124Y1637574D01*
G01X16713966Y1620302D01*
G01X16713966Y1563152D01*
G01X16830298Y1643162D02*
G01X16830298Y1563152D01*
G01X16830298Y1626144D02*
G01X16818868Y1637574D01*
G01X16807438Y1643162D01*
G01X16790420Y1643162D01*
G01X16778990Y1637574D01*
G01X16767560Y1626144D01*
G01X16761718Y1608872D01*
G01X16761718Y1597442D01*
G01X16767560Y1580424D01*
G01X16778990Y1568994D01*
G01X16790420Y1563152D01*
G01X16807438Y1563152D01*
G01X16818868Y1568994D01*
G01X16830298Y1580424D01*
G01X16878050Y1643162D02*
G01X16878050Y1523274D01*
G01X16878050Y1626144D02*
G01X16889480Y1637574D01*
G01X16900910Y1643162D01*
G01X16918182Y1643162D01*
G01X16929612Y1637574D01*
G01X16941042Y1626144D01*
G01X16946630Y1608872D01*
G01X16946630Y1597442D01*
G01X16941042Y1580424D01*
G01X16929612Y1568994D01*
G01X16918182Y1563152D01*
G01X16900910Y1563152D01*
G01X16889480Y1568994D01*
G01X16878050Y1580424D01*
G01X16994382Y1608872D02*
G01X17062962Y1608872D01*
G01X17062962Y1620302D01*
G01X17057374Y1631732D01*
G01X17051532Y1637574D01*
G01X17040102Y1643162D01*
G01X17023084Y1643162D01*
G01X17011654Y1637574D01*
G01X17000224Y1626144D01*
G01X16994382Y1608872D01*
G01X16994382Y1597442D01*
G01X17000224Y1580424D01*
G01X17011654Y1568994D01*
G01X17023084Y1563152D01*
G01X17040102Y1563152D01*
G01X17051532Y1568994D01*
G01X17062962Y1580424D01*
G01X17954139Y1683294D02*
G01X17954139Y1563152D01*
G01X17954139Y1563152D02*
G01X18022719Y1563152D01*
G01X18139051Y1643162D02*
G01X18139051Y1563152D01*
G01X18139051Y1626144D02*
G01X18127621Y1637574D01*
G01X18116191Y1643162D01*
G01X18099173Y1643162D01*
G01X18087743Y1637574D01*
G01X18076313Y1626144D01*
G01X18070471Y1608872D01*
G01X18070471Y1597442D01*
G01X18076313Y1580424D01*
G01X18087743Y1568994D01*
G01X18099173Y1563152D01*
G01X18116191Y1563152D01*
G01X18127621Y1568994D01*
G01X18139051Y1580424D01*
G01X18192645Y1643162D02*
G01X18226935Y1563152D01*
G01X18261225Y1643162D02*
G01X18226935Y1563152D01*
G01X18215505Y1540292D01*
G01X18204075Y1528862D01*
G01X18192645Y1523274D01*
G01X18186803Y1523274D01*
G01X18308977Y1608872D02*
G01X18377557Y1608872D01*
G01X18377557Y1620302D01*
G01X18371969Y1631732D01*
G01X18366127Y1637574D01*
G01X18354697Y1643162D01*
G01X18337679Y1643162D01*
G01X18326249Y1637574D01*
G01X18314819Y1626144D01*
G01X18308977Y1608872D01*
G01X18308977Y1597442D01*
G01X18314819Y1580424D01*
G01X18326249Y1568994D01*
G01X18337679Y1563152D01*
G01X18354697Y1563152D01*
G01X18366127Y1568994D01*
G01X18377557Y1580424D01*
G01X18425309Y1643162D02*
G01X18425309Y1563152D01*
G01X18425309Y1608872D02*
G01X18431151Y1626144D01*
G01X18442581Y1637574D01*
G01X18454011Y1643162D01*
G01X18471029Y1643162D01*
G01X18646797Y1683294D02*
G01X18646797Y1563152D01*
G01X18646797Y1683294D02*
G01X18698359Y1683294D01*
G01X18715377Y1677452D01*
G01X18721219Y1671864D01*
G01X18726807Y1660434D01*
G01X18726807Y1643162D01*
G01X18721219Y1631732D01*
G01X18715377Y1626144D01*
G01X18698359Y1620302D01*
G01X18646797Y1620302D01*
G01X18843139Y1643162D02*
G01X18843139Y1563152D01*
G01X18843139Y1626144D02*
G01X18831709Y1637574D01*
G01X18820279Y1643162D01*
G01X18803261Y1643162D01*
G01X18791831Y1637574D01*
G01X18780401Y1626144D01*
G01X18774559Y1608872D01*
G01X18774559Y1597442D01*
G01X18780401Y1580424D01*
G01X18791831Y1568994D01*
G01X18803261Y1563152D01*
G01X18820279Y1563152D01*
G01X18831709Y1568994D01*
G01X18843139Y1580424D01*
G01X18890891Y1683294D02*
G01X18896733Y1677452D01*
G01X18902321Y1683294D01*
G01X18896733Y1688882D01*
G01X18890891Y1683294D01*
G01X18896733Y1643162D02*
G01X18896733Y1563152D01*
G01X18950073Y1643162D02*
G01X18950073Y1563152D01*
G01X18950073Y1608872D02*
G01X18955915Y1626144D01*
G01X18967345Y1637574D01*
G01X18978775Y1643162D01*
G01X18995793Y1643162D01*
G01X6222024Y1102723D02*
G01X6164874Y1022713D01*
G01X6250726Y1022713D01*
G01X6222024Y1102723D02*
G01X6222024Y982581D01*
G01X7647617Y1102723D02*
G01X7590467Y1102723D01*
G01X7584879Y1051161D01*
G01X7590467Y1057003D01*
G01X7607739Y1062591D01*
G01X7624757Y1062591D01*
G01X7642029Y1057003D01*
G01X7653459Y1045573D01*
G01X7659047Y1028301D01*
G01X7659047Y1016871D01*
G01X7653459Y999853D01*
G01X7642029Y988423D01*
G01X7624757Y982581D01*
G01X7607739Y982581D01*
G01X7590467Y988423D01*
G01X7584879Y994011D01*
G01X7579037Y1005441D01*
G01X7706799Y1079863D02*
G01X7718229Y1085451D01*
G01X7735501Y1102723D01*
G01X7735501Y982581D01*
G01X7789095Y1011283D02*
G01X7783253Y1005441D01*
G01X7789095Y999853D01*
G01X7794683Y1005441D01*
G01X7789095Y1011283D01*
G01X7848277Y1074021D02*
G01X7848277Y1079863D01*
G01X7853865Y1091293D01*
G01X7859707Y1096881D01*
G01X7871137Y1102723D01*
G01X7893997Y1102723D01*
G01X7905427Y1096881D01*
G01X7911015Y1091293D01*
G01X7916857Y1079863D01*
G01X7916857Y1068433D01*
G01X7911015Y1057003D01*
G01X7899585Y1039731D01*
G01X7842435Y982581D01*
G01X7922445Y982581D01*
G01X7970197Y1062591D02*
G01X8033189Y982581D01*
G01X8033189Y1062591D02*
G01X7970197Y982581D01*
G01X8149521Y1102723D02*
G01X8092371Y1102723D01*
G01X8086783Y1051161D01*
G01X8092371Y1057003D01*
G01X8109643Y1062591D01*
G01X8126661Y1062591D01*
G01X8143933Y1057003D01*
G01X8155363Y1045573D01*
G01X8160951Y1028301D01*
G01X8160951Y1016871D01*
G01X8155363Y999853D01*
G01X8143933Y988423D01*
G01X8126661Y982581D01*
G01X8109643Y982581D01*
G01X8092371Y988423D01*
G01X8086783Y994011D01*
G01X8080941Y1005441D01*
G01X8208703Y1079863D02*
G01X8220133Y1085451D01*
G01X8237405Y1102723D01*
G01X8237405Y982581D01*
G01X8290999Y1011283D02*
G01X8285157Y1005441D01*
G01X8290999Y999853D01*
G01X8296587Y1005441D01*
G01X8290999Y1011283D01*
G01X8350181Y1074021D02*
G01X8350181Y1079863D01*
G01X8355769Y1091293D01*
G01X8361611Y1096881D01*
G01X8373041Y1102723D01*
G01X8395901Y1102723D01*
G01X8407331Y1096881D01*
G01X8412919Y1091293D01*
G01X8418761Y1079863D01*
G01X8418761Y1068433D01*
G01X8412919Y1057003D01*
G01X8401489Y1039731D01*
G01X8344339Y982581D01*
G01X8424349Y982581D01*
G01X8472101Y1062591D02*
G01X8472101Y982581D01*
G01X8472101Y1039731D02*
G01X8489373Y1057003D01*
G01X8500803Y1062591D01*
G01X8517821Y1062591D01*
G01X8529251Y1057003D01*
G01X8535093Y1039731D01*
G01X8535093Y982581D01*
G01X8535093Y1039731D02*
G01X8552111Y1057003D01*
G01X8563541Y1062591D01*
G01X8580813Y1062591D01*
G01X8592243Y1057003D01*
G01X8597831Y1039731D01*
G01X8597831Y982581D01*
G01X8645583Y1102723D02*
G01X8651425Y1096881D01*
G01X8657013Y1102723D01*
G01X8651425Y1108311D01*
G01X8645583Y1102723D01*
G01X8651425Y1062591D02*
G01X8651425Y982581D01*
G01X8704765Y1102723D02*
G01X8704765Y982581D01*
G01X8792649Y1125583D02*
G01X8781219Y1114153D01*
G01X8769789Y1096881D01*
G01X8758359Y1074021D01*
G01X8752517Y1045573D01*
G01X8752517Y1022713D01*
G01X8758359Y994011D01*
G01X8769789Y971151D01*
G01X8781219Y954133D01*
G01X8792649Y942703D01*
G01X8840401Y1079863D02*
G01X8851831Y1085451D01*
G01X8869103Y1102723D01*
G01X8869103Y982581D01*
G01X8922697Y1011283D02*
G01X8916855Y1005441D01*
G01X8922697Y999853D01*
G01X8928285Y1005441D01*
G01X8922697Y1011283D01*
G01X8987467Y1102723D02*
G01X9050459Y1102723D01*
G01X9016169Y1057003D01*
G01X9033187Y1057003D01*
G01X9044617Y1051161D01*
G01X9050459Y1045573D01*
G01X9056047Y1028301D01*
G01X9056047Y1016871D01*
G01X9050459Y999853D01*
G01X9039029Y988423D01*
G01X9021757Y982581D01*
G01X9004739Y982581D01*
G01X8987467Y988423D01*
G01X8981879Y994011D01*
G01X8976037Y1005441D01*
G01X9138089Y1102723D02*
G01X9121071Y1096881D01*
G01X9109641Y1079863D01*
G01X9103799Y1051161D01*
G01X9103799Y1034143D01*
G01X9109641Y1005441D01*
G01X9121071Y988423D01*
G01X9138089Y982581D01*
G01X9149519Y982581D01*
G01X9166791Y988423D01*
G01X9178221Y1005441D01*
G01X9183809Y1034143D01*
G01X9183809Y1051161D01*
G01X9178221Y1079863D01*
G01X9166791Y1096881D01*
G01X9149519Y1102723D01*
G01X9138089Y1102723D01*
G01X9265851Y1102723D02*
G01X9248833Y1096881D01*
G01X9237403Y1079863D01*
G01X9231561Y1051161D01*
G01X9231561Y1034143D01*
G01X9237403Y1005441D01*
G01X9248833Y988423D01*
G01X9265851Y982581D01*
G01X9277281Y982581D01*
G01X9294553Y988423D01*
G01X9305983Y1005441D01*
G01X9311571Y1034143D01*
G01X9311571Y1051161D01*
G01X9305983Y1079863D01*
G01X9294553Y1096881D01*
G01X9277281Y1102723D01*
G01X9265851Y1102723D01*
G01X9359323Y1062591D02*
G01X9422315Y982581D01*
G01X9422315Y1062591D02*
G01X9359323Y982581D01*
G01X9470067Y1079863D02*
G01X9481497Y1085451D01*
G01X9498769Y1102723D01*
G01X9498769Y982581D01*
G01X9552363Y1011283D02*
G01X9546521Y1005441D01*
G01X9552363Y999853D01*
G01X9557951Y1005441D01*
G01X9552363Y1011283D01*
G01X9617133Y1102723D02*
G01X9680125Y1102723D01*
G01X9645835Y1057003D01*
G01X9662853Y1057003D01*
G01X9674283Y1051161D01*
G01X9680125Y1045573D01*
G01X9685713Y1028301D01*
G01X9685713Y1016871D01*
G01X9680125Y999853D01*
G01X9668695Y988423D01*
G01X9651423Y982581D01*
G01X9634405Y982581D01*
G01X9617133Y988423D01*
G01X9611545Y994011D01*
G01X9605703Y1005441D01*
G01X9767755Y1102723D02*
G01X9750737Y1096881D01*
G01X9739307Y1079863D01*
G01X9733465Y1051161D01*
G01X9733465Y1034143D01*
G01X9739307Y1005441D01*
G01X9750737Y988423D01*
G01X9767755Y982581D01*
G01X9779185Y982581D01*
G01X9796457Y988423D01*
G01X9807887Y1005441D01*
G01X9813475Y1034143D01*
G01X9813475Y1051161D01*
G01X9807887Y1079863D01*
G01X9796457Y1096881D01*
G01X9779185Y1102723D01*
G01X9767755Y1102723D01*
G01X9895517Y1102723D02*
G01X9878499Y1096881D01*
G01X9867069Y1079863D01*
G01X9861227Y1051161D01*
G01X9861227Y1034143D01*
G01X9867069Y1005441D01*
G01X9878499Y988423D01*
G01X9895517Y982581D01*
G01X9906947Y982581D01*
G01X9924219Y988423D01*
G01X9935649Y1005441D01*
G01X9941237Y1034143D01*
G01X9941237Y1051161D01*
G01X9935649Y1079863D01*
G01X9924219Y1096881D01*
G01X9906947Y1102723D01*
G01X9895517Y1102723D01*
G01X9988989Y1062591D02*
G01X9988989Y982581D01*
G01X9988989Y1039731D02*
G01X10006261Y1057003D01*
G01X10017691Y1062591D01*
G01X10034709Y1062591D01*
G01X10046139Y1057003D01*
G01X10051981Y1039731D01*
G01X10051981Y982581D01*
G01X10051981Y1039731D02*
G01X10068999Y1057003D01*
G01X10080429Y1062591D01*
G01X10097701Y1062591D01*
G01X10109131Y1057003D01*
G01X10114719Y1039731D01*
G01X10114719Y982581D01*
G01X10162471Y1062591D02*
G01X10162471Y982581D01*
G01X10162471Y1039731D02*
G01X10179743Y1057003D01*
G01X10191173Y1062591D01*
G01X10208191Y1062591D01*
G01X10219621Y1057003D01*
G01X10225463Y1039731D01*
G01X10225463Y982581D01*
G01X10225463Y1039731D02*
G01X10242481Y1057003D01*
G01X10253911Y1062591D01*
G01X10271183Y1062591D01*
G01X10282613Y1057003D01*
G01X10288201Y1039731D01*
G01X10288201Y982581D01*
G01X10335953Y1125583D02*
G01X10347383Y1114153D01*
G01X10358813Y1096881D01*
G01X10370243Y1074021D01*
G01X10376085Y1045573D01*
G01X10376085Y1022713D01*
G01X10370243Y994011D01*
G01X10358813Y971151D01*
G01X10347383Y954133D01*
G01X10335953Y942703D01*
G01X11473003Y1102723D02*
G01X11473003Y982581D01*
G01X11473003Y1102723D02*
G01X11524565Y1102723D01*
G01X11541583Y1096881D01*
G01X11547425Y1091293D01*
G01X11553013Y1079863D01*
G01X11553013Y1062591D01*
G01X11547425Y1051161D01*
G01X11541583Y1045573D01*
G01X11524565Y1039731D01*
G01X11473003Y1039731D01*
G01X11640897Y1102723D02*
G01X11640897Y982581D01*
G01X11600765Y1102723D02*
G01X11680775Y1102723D01*
G01X11728527Y1102723D02*
G01X11728527Y982581D01*
G01X11808537Y1102723D02*
G01X11808537Y982581D01*
G01X11728527Y1045573D02*
G01X11808537Y1045573D01*
G01X12934410Y1102723D02*
G01X12934410Y982581D01*
G01X12934410Y1102723D02*
G01X12985972Y1102723D01*
G01X13002990Y1096881D01*
G01X13008832Y1091293D01*
G01X13014420Y1079863D01*
G01X13014420Y1068433D01*
G01X13008832Y1057003D01*
G01X13002990Y1051161D01*
G01X12985972Y1045573D01*
G01X12934410Y1045573D01*
G01X12974542Y1045573D02*
G01X13014420Y982581D01*
G01X13090874Y1062591D02*
G01X13079444Y1057003D01*
G01X13068014Y1045573D01*
G01X13062172Y1028301D01*
G01X13062172Y1016871D01*
G01X13068014Y999853D01*
G01X13079444Y988423D01*
G01X13090874Y982581D01*
G01X13107892Y982581D01*
G01X13119322Y988423D01*
G01X13130752Y999853D01*
G01X13136594Y1016871D01*
G01X13136594Y1028301D01*
G01X13130752Y1045573D01*
G01X13119322Y1057003D01*
G01X13107892Y1062591D01*
G01X13090874Y1062591D01*
G01X13184346Y1062591D02*
G01X13184346Y1005441D01*
G01X13190188Y988423D01*
G01X13201618Y982581D01*
G01X13218636Y982581D01*
G01X13230066Y988423D01*
G01X13247338Y1005441D01*
G01X13247338Y1062591D02*
G01X13247338Y982581D01*
G01X13295090Y1062591D02*
G01X13295090Y982581D01*
G01X13295090Y1039731D02*
G01X13312362Y1057003D01*
G01X13323792Y1062591D01*
G01X13340810Y1062591D01*
G01X13352240Y1057003D01*
G01X13358082Y1039731D01*
G01X13358082Y982581D01*
G01X13474414Y1102723D02*
G01X13474414Y982581D01*
G01X13474414Y1045573D02*
G01X13462984Y1057003D01*
G01X13451554Y1062591D01*
G01X13434536Y1062591D01*
G01X13423106Y1057003D01*
G01X13411676Y1045573D01*
G01X13405834Y1028301D01*
G01X13405834Y1016871D01*
G01X13411676Y999853D01*
G01X13423106Y988423D01*
G01X13434536Y982581D01*
G01X13451554Y982581D01*
G01X13462984Y988423D01*
G01X13474414Y999853D01*
G01X14365591Y1102723D02*
G01X14365591Y982581D01*
G01X14365591Y1102723D02*
G01X14417153Y1102723D01*
G01X14434171Y1096881D01*
G01X14440013Y1091293D01*
G01X14445601Y1079863D01*
G01X14445601Y1062591D01*
G01X14440013Y1051161D01*
G01X14434171Y1045573D01*
G01X14417153Y1039731D01*
G01X14365591Y1039731D01*
G01X14561933Y1062591D02*
G01X14561933Y982581D01*
G01X14561933Y1045573D02*
G01X14550503Y1057003D01*
G01X14539073Y1062591D01*
G01X14522055Y1062591D01*
G01X14510625Y1057003D01*
G01X14499195Y1045573D01*
G01X14493353Y1028301D01*
G01X14493353Y1016871D01*
G01X14499195Y999853D01*
G01X14510625Y988423D01*
G01X14522055Y982581D01*
G01X14539073Y982581D01*
G01X14550503Y988423D01*
G01X14561933Y999853D01*
G01X14678265Y1102723D02*
G01X14678265Y982581D01*
G01X14678265Y1045573D02*
G01X14666835Y1057003D01*
G01X14655405Y1062591D01*
G01X14638387Y1062591D01*
G01X14626957Y1057003D01*
G01X14615527Y1045573D01*
G01X14609685Y1028301D01*
G01X14609685Y1016871D01*
G01X14615527Y999853D01*
G01X14626957Y988423D01*
G01X14638387Y982581D01*
G01X14655405Y982581D01*
G01X14666835Y988423D01*
G01X14678265Y999853D01*
G01X16034770Y1102723D02*
G01X16034770Y982581D01*
G01X16034770Y1102723D02*
G01X16086332Y1102723D01*
G01X16103350Y1096881D01*
G01X16109192Y1091293D01*
G01X16114780Y1079863D01*
G01X16114780Y1068433D01*
G01X16109192Y1057003D01*
G01X16103350Y1051161D01*
G01X16086332Y1045573D01*
G01X16034770Y1045573D01*
G01X16074902Y1045573D02*
G01X16114780Y982581D01*
G01X16191234Y1062591D02*
G01X16179804Y1057003D01*
G01X16168374Y1045573D01*
G01X16162532Y1028301D01*
G01X16162532Y1016871D01*
G01X16168374Y999853D01*
G01X16179804Y988423D01*
G01X16191234Y982581D01*
G01X16208252Y982581D01*
G01X16219682Y988423D01*
G01X16231112Y999853D01*
G01X16236954Y1016871D01*
G01X16236954Y1028301D01*
G01X16231112Y1045573D01*
G01X16219682Y1057003D01*
G01X16208252Y1062591D01*
G01X16191234Y1062591D01*
G01X16284706Y1062591D02*
G01X16284706Y1005441D01*
G01X16290548Y988423D01*
G01X16301978Y982581D01*
G01X16318996Y982581D01*
G01X16330426Y988423D01*
G01X16347698Y1005441D01*
G01X16347698Y1062591D02*
G01X16347698Y982581D01*
G01X16395450Y1062591D02*
G01X16395450Y982581D01*
G01X16395450Y1039731D02*
G01X16412722Y1057003D01*
G01X16424152Y1062591D01*
G01X16441170Y1062591D01*
G01X16452600Y1057003D01*
G01X16458442Y1039731D01*
G01X16458442Y982581D01*
G01X16574774Y1102723D02*
G01X16574774Y982581D01*
G01X16574774Y1045573D02*
G01X16563344Y1057003D01*
G01X16551914Y1062591D01*
G01X16534896Y1062591D01*
G01X16523466Y1057003D01*
G01X16512036Y1045573D01*
G01X16506194Y1028301D01*
G01X16506194Y1016871D01*
G01X16512036Y999853D01*
G01X16523466Y988423D01*
G01X16534896Y982581D01*
G01X16551914Y982581D01*
G01X16563344Y988423D01*
G01X16574774Y999853D01*
G01X17994271Y1102723D02*
G01X17994271Y982581D01*
G01X17954139Y1102723D02*
G01X18034149Y1102723D01*
G01X18110603Y1062591D02*
G01X18099173Y1057003D01*
G01X18087743Y1045573D01*
G01X18081901Y1028301D01*
G01X18081901Y1016871D01*
G01X18087743Y999853D01*
G01X18099173Y988423D01*
G01X18110603Y982581D01*
G01X18127621Y982581D01*
G01X18139051Y988423D01*
G01X18150481Y999853D01*
G01X18156323Y1016871D01*
G01X18156323Y1028301D01*
G01X18150481Y1045573D01*
G01X18139051Y1057003D01*
G01X18127621Y1062591D01*
G01X18110603Y1062591D01*
G01X18204075Y1062591D02*
G01X18204075Y942703D01*
G01X18204075Y1045573D02*
G01X18215505Y1057003D01*
G01X18226935Y1062591D01*
G01X18244207Y1062591D01*
G01X18255637Y1057003D01*
G01X18267067Y1045573D01*
G01X18272655Y1028301D01*
G01X18272655Y1016871D01*
G01X18267067Y999853D01*
G01X18255637Y988423D01*
G01X18244207Y982581D01*
G01X18226935Y982581D01*
G01X18215505Y988423D01*
G01X18204075Y999853D01*
G01X18448423Y1102723D02*
G01X18448423Y982581D01*
G01X18448423Y982581D02*
G01X18517003Y982581D01*
G01X18633335Y1062591D02*
G01X18633335Y982581D01*
G01X18633335Y1045573D02*
G01X18621905Y1057003D01*
G01X18610475Y1062591D01*
G01X18593457Y1062591D01*
G01X18582027Y1057003D01*
G01X18570597Y1045573D01*
G01X18564755Y1028301D01*
G01X18564755Y1016871D01*
G01X18570597Y999853D01*
G01X18582027Y988423D01*
G01X18593457Y982581D01*
G01X18610475Y982581D01*
G01X18621905Y988423D01*
G01X18633335Y999853D01*
G01X18686929Y1062591D02*
G01X18721219Y982581D01*
G01X18755509Y1062591D02*
G01X18721219Y982581D01*
G01X18709789Y959721D01*
G01X18698359Y948291D01*
G01X18686929Y942703D01*
G01X18681087Y942703D01*
G01X18803261Y1028301D02*
G01X18871841Y1028301D01*
G01X18871841Y1039731D01*
G01X18866253Y1051161D01*
G01X18860411Y1057003D01*
G01X18848981Y1062591D01*
G01X18831963Y1062591D01*
G01X18820533Y1057003D01*
G01X18809103Y1045573D01*
G01X18803261Y1028301D01*
G01X18803261Y1016871D01*
G01X18809103Y999853D01*
G01X18820533Y988423D01*
G01X18831963Y982581D01*
G01X18848981Y982581D01*
G01X18860411Y988423D01*
G01X18871841Y999853D01*
G01X18919593Y1062591D02*
G01X18919593Y982581D01*
G01X18919593Y1028301D02*
G01X18925435Y1045573D01*
G01X18936865Y1057003D01*
G01X18948295Y1062591D01*
G01X18965313Y1062591D01*
G01X19013065Y1034143D02*
G01X19115935Y1034143D01*
G01X19163687Y1102723D02*
G01X19163687Y982581D01*
G01X19163687Y1102723D02*
G01X19215249Y1102723D01*
G01X19232267Y1096881D01*
G01X19238109Y1091293D01*
G01X19243697Y1079863D01*
G01X19243697Y1068433D01*
G01X19238109Y1057003D01*
G01X19232267Y1051161D01*
G01X19215249Y1045573D01*
G01X19163687Y1045573D02*
G01X19215249Y1045573D01*
G01X19232267Y1039731D01*
G01X19238109Y1034143D01*
G01X19243697Y1022713D01*
G01X19243697Y1005441D01*
G01X19238109Y994011D01*
G01X19232267Y988423D01*
G01X19215249Y982581D01*
G01X19163687Y982581D01*
G01X19320151Y1062591D02*
G01X19308721Y1057003D01*
G01X19297291Y1045573D01*
G01X19291449Y1028301D01*
G01X19291449Y1016871D01*
G01X19297291Y999853D01*
G01X19308721Y988423D01*
G01X19320151Y982581D01*
G01X19337169Y982581D01*
G01X19348599Y988423D01*
G01X19360029Y999853D01*
G01X19365871Y1016871D01*
G01X19365871Y1028301D01*
G01X19360029Y1045573D01*
G01X19348599Y1057003D01*
G01X19337169Y1062591D01*
G01X19320151Y1062591D01*
G01X19430895Y1102723D02*
G01X19430895Y1005441D01*
G01X19436483Y988423D01*
G01X19447913Y982581D01*
G01X19459343Y982581D01*
G01X19413623Y1062591D02*
G01X19453755Y1062591D01*
G01X19524367Y1102723D02*
G01X19524367Y1005441D01*
G01X19529955Y988423D01*
G01X19541385Y982581D01*
G01X19552815Y982581D01*
G01X19507095Y1062591D02*
G01X19547227Y1062591D01*
G01X19629269Y1062591D02*
G01X19617839Y1057003D01*
G01X19606409Y1045573D01*
G01X19600567Y1028301D01*
G01X19600567Y1016871D01*
G01X19606409Y999853D01*
G01X19617839Y988423D01*
G01X19629269Y982581D01*
G01X19646287Y982581D01*
G01X19657717Y988423D01*
G01X19669147Y999853D01*
G01X19674989Y1016871D01*
G01X19674989Y1028301D01*
G01X19669147Y1045573D01*
G01X19657717Y1057003D01*
G01X19646287Y1062591D01*
G01X19629269Y1062591D01*
G01X19722741Y1062591D02*
G01X19722741Y982581D01*
G01X19722741Y1039731D02*
G01X19740013Y1057003D01*
G01X19751443Y1062591D01*
G01X19768461Y1062591D01*
G01X19779891Y1057003D01*
G01X19785733Y1039731D01*
G01X19785733Y982581D01*
G01X19785733Y1039731D02*
G01X19802751Y1057003D01*
G01X19814181Y1062591D01*
G01X19831453Y1062591D01*
G01X19842883Y1057003D01*
G01X19848471Y1039731D01*
G01X19848471Y982581D01*
G01X20024239Y1102723D02*
G01X20024239Y982581D01*
G01X20024239Y982581D02*
G01X20092819Y982581D01*
G01X20209151Y1062591D02*
G01X20209151Y982581D01*
G01X20209151Y1045573D02*
G01X20197721Y1057003D01*
G01X20186291Y1062591D01*
G01X20169273Y1062591D01*
G01X20157843Y1057003D01*
G01X20146413Y1045573D01*
G01X20140571Y1028301D01*
G01X20140571Y1016871D01*
G01X20146413Y999853D01*
G01X20157843Y988423D01*
G01X20169273Y982581D01*
G01X20186291Y982581D01*
G01X20197721Y988423D01*
G01X20209151Y999853D01*
G01X20262745Y1062591D02*
G01X20297035Y982581D01*
G01X20331325Y1062591D02*
G01X20297035Y982581D01*
G01X20285605Y959721D01*
G01X20274175Y948291D01*
G01X20262745Y942703D01*
G01X20256903Y942703D01*
G01X20379077Y1028301D02*
G01X20447657Y1028301D01*
G01X20447657Y1039731D01*
G01X20442069Y1051161D01*
G01X20436227Y1057003D01*
G01X20424797Y1062591D01*
G01X20407779Y1062591D01*
G01X20396349Y1057003D01*
G01X20384919Y1045573D01*
G01X20379077Y1028301D01*
G01X20379077Y1016871D01*
G01X20384919Y999853D01*
G01X20396349Y988423D01*
G01X20407779Y982581D01*
G01X20424797Y982581D01*
G01X20436227Y988423D01*
G01X20447657Y999853D01*
G01X20495409Y1062591D02*
G01X20495409Y982581D01*
G01X20495409Y1028301D02*
G01X20501251Y1045573D01*
G01X20512681Y1057003D01*
G01X20524111Y1062591D01*
G01X20541129Y1062591D01*
G01X6222024Y522151D02*
G01X6164874Y442141D01*
G01X6250726Y442141D01*
G01X6222024Y522151D02*
G01X6222024Y402009D01*
G01X7653459Y482019D02*
G01X7647617Y465001D01*
G01X7636187Y453571D01*
G01X7619169Y447729D01*
G01X7613327Y447729D01*
G01X7596309Y453571D01*
G01X7584879Y465001D01*
G01X7579037Y482019D01*
G01X7579037Y487861D01*
G01X7584879Y504879D01*
G01X7596309Y516309D01*
G01X7613327Y522151D01*
G01X7619169Y522151D01*
G01X7636187Y516309D01*
G01X7647617Y504879D01*
G01X7653459Y482019D01*
G01X7653459Y453571D01*
G01X7647617Y424869D01*
G01X7636187Y407851D01*
G01X7619169Y402009D01*
G01X7607739Y402009D01*
G01X7590467Y407851D01*
G01X7584879Y419281D01*
G01X7729913Y522151D02*
G01X7712641Y516309D01*
G01X7707053Y504879D01*
G01X7707053Y493449D01*
G01X7712641Y482019D01*
G01X7724071Y476431D01*
G01X7746931Y470589D01*
G01X7764203Y465001D01*
G01X7775633Y453571D01*
G01X7781221Y442141D01*
G01X7781221Y424869D01*
G01X7775633Y413439D01*
G01X7769791Y407851D01*
G01X7752773Y402009D01*
G01X7729913Y402009D01*
G01X7712641Y407851D01*
G01X7707053Y413439D01*
G01X7701211Y424869D01*
G01X7701211Y442141D01*
G01X7707053Y453571D01*
G01X7718483Y465001D01*
G01X7735501Y470589D01*
G01X7758361Y476431D01*
G01X7769791Y482019D01*
G01X7775633Y493449D01*
G01X7775633Y504879D01*
G01X7769791Y516309D01*
G01X7752773Y522151D01*
G01X7729913Y522151D01*
G01X7834815Y430711D02*
G01X7828973Y424869D01*
G01X7834815Y419281D01*
G01X7840403Y424869D01*
G01X7834815Y430711D01*
G01X7945305Y522151D02*
G01X7888155Y442141D01*
G01X7974007Y442141D01*
G01X7945305Y522151D02*
G01X7945305Y402009D01*
G01X8021759Y482019D02*
G01X8084751Y402009D01*
G01X8084751Y482019D02*
G01X8021759Y402009D01*
G01X8206925Y482019D02*
G01X8201083Y465001D01*
G01X8189653Y453571D01*
G01X8172635Y447729D01*
G01X8166793Y447729D01*
G01X8149775Y453571D01*
G01X8138345Y465001D01*
G01X8132503Y482019D01*
G01X8132503Y487861D01*
G01X8138345Y504879D01*
G01X8149775Y516309D01*
G01X8166793Y522151D01*
G01X8172635Y522151D01*
G01X8189653Y516309D01*
G01X8201083Y504879D01*
G01X8206925Y482019D01*
G01X8206925Y453571D01*
G01X8201083Y424869D01*
G01X8189653Y407851D01*
G01X8172635Y402009D01*
G01X8161205Y402009D01*
G01X8143933Y407851D01*
G01X8138345Y419281D01*
G01X8283379Y522151D02*
G01X8266107Y516309D01*
G01X8260519Y504879D01*
G01X8260519Y493449D01*
G01X8266107Y482019D01*
G01X8277537Y476431D01*
G01X8300397Y470589D01*
G01X8317669Y465001D01*
G01X8329099Y453571D01*
G01X8334687Y442141D01*
G01X8334687Y424869D01*
G01X8329099Y413439D01*
G01X8323257Y407851D01*
G01X8306239Y402009D01*
G01X8283379Y402009D01*
G01X8266107Y407851D01*
G01X8260519Y413439D01*
G01X8254677Y424869D01*
G01X8254677Y442141D01*
G01X8260519Y453571D01*
G01X8271949Y465001D01*
G01X8288967Y470589D01*
G01X8311827Y476431D01*
G01X8323257Y482019D01*
G01X8329099Y493449D01*
G01X8329099Y504879D01*
G01X8323257Y516309D01*
G01X8306239Y522151D01*
G01X8283379Y522151D01*
G01X8388281Y430711D02*
G01X8382439Y424869D01*
G01X8388281Y419281D01*
G01X8393869Y424869D01*
G01X8388281Y430711D01*
G01X8498771Y522151D02*
G01X8441621Y442141D01*
G01X8527473Y442141D01*
G01X8498771Y522151D02*
G01X8498771Y402009D01*
G01X8575225Y482019D02*
G01X8575225Y402009D01*
G01X8575225Y459159D02*
G01X8592497Y476431D01*
G01X8603927Y482019D01*
G01X8620945Y482019D01*
G01X8632375Y476431D01*
G01X8638217Y459159D01*
G01X8638217Y402009D01*
G01X8638217Y459159D02*
G01X8655235Y476431D01*
G01X8666665Y482019D01*
G01X8683937Y482019D01*
G01X8695367Y476431D01*
G01X8700955Y459159D01*
G01X8700955Y402009D01*
G01X8748707Y522151D02*
G01X8754549Y516309D01*
G01X8760137Y522151D01*
G01X8754549Y527739D01*
G01X8748707Y522151D01*
G01X8754549Y482019D02*
G01X8754549Y402009D01*
G01X8807889Y522151D02*
G01X8807889Y402009D01*
G01X8895773Y545011D02*
G01X8884343Y533581D01*
G01X8872913Y516309D01*
G01X8861483Y493449D01*
G01X8855641Y465001D01*
G01X8855641Y442141D01*
G01X8861483Y413439D01*
G01X8872913Y390579D01*
G01X8884343Y373561D01*
G01X8895773Y362131D01*
G01X8949367Y493449D02*
G01X8949367Y499291D01*
G01X8954955Y510721D01*
G01X8960797Y516309D01*
G01X8972227Y522151D01*
G01X8995087Y522151D01*
G01X9006517Y516309D01*
G01X9012105Y510721D01*
G01X9017947Y499291D01*
G01X9017947Y487861D01*
G01X9012105Y476431D01*
G01X9000675Y459159D01*
G01X8943525Y402009D01*
G01X9023535Y402009D01*
G01X9077129Y430711D02*
G01X9071287Y424869D01*
G01X9077129Y419281D01*
G01X9082717Y424869D01*
G01X9077129Y430711D01*
G01X9199049Y522151D02*
G01X9141899Y522151D01*
G01X9136311Y470589D01*
G01X9141899Y476431D01*
G01X9159171Y482019D01*
G01X9176189Y482019D01*
G01X9193461Y476431D01*
G01X9204891Y465001D01*
G01X9210479Y447729D01*
G01X9210479Y436299D01*
G01X9204891Y419281D01*
G01X9193461Y407851D01*
G01X9176189Y402009D01*
G01X9159171Y402009D01*
G01X9141899Y407851D01*
G01X9136311Y413439D01*
G01X9130469Y424869D01*
G01X9292521Y522151D02*
G01X9275503Y516309D01*
G01X9264073Y499291D01*
G01X9258231Y470589D01*
G01X9258231Y453571D01*
G01X9264073Y424869D01*
G01X9275503Y407851D01*
G01X9292521Y402009D01*
G01X9303951Y402009D01*
G01X9321223Y407851D01*
G01X9332653Y424869D01*
G01X9338241Y453571D01*
G01X9338241Y470589D01*
G01X9332653Y499291D01*
G01X9321223Y516309D01*
G01X9303951Y522151D01*
G01X9292521Y522151D01*
G01X9420283Y522151D02*
G01X9403265Y516309D01*
G01X9391835Y499291D01*
G01X9385993Y470589D01*
G01X9385993Y453571D01*
G01X9391835Y424869D01*
G01X9403265Y407851D01*
G01X9420283Y402009D01*
G01X9431713Y402009D01*
G01X9448985Y407851D01*
G01X9460415Y424869D01*
G01X9466003Y453571D01*
G01X9466003Y470589D01*
G01X9460415Y499291D01*
G01X9448985Y516309D01*
G01X9431713Y522151D01*
G01X9420283Y522151D01*
G01X9513755Y482019D02*
G01X9576747Y402009D01*
G01X9576747Y482019D02*
G01X9513755Y402009D01*
G01X9630341Y493449D02*
G01X9630341Y499291D01*
G01X9635929Y510721D01*
G01X9641771Y516309D01*
G01X9653201Y522151D01*
G01X9676061Y522151D01*
G01X9687491Y516309D01*
G01X9693079Y510721D01*
G01X9698921Y499291D01*
G01X9698921Y487861D01*
G01X9693079Y476431D01*
G01X9681649Y459159D01*
G01X9624499Y402009D01*
G01X9704509Y402009D01*
G01X9758103Y430711D02*
G01X9752261Y424869D01*
G01X9758103Y419281D01*
G01X9763691Y424869D01*
G01X9758103Y430711D01*
G01X9880023Y522151D02*
G01X9822873Y522151D01*
G01X9817285Y470589D01*
G01X9822873Y476431D01*
G01X9840145Y482019D01*
G01X9857163Y482019D01*
G01X9874435Y476431D01*
G01X9885865Y465001D01*
G01X9891453Y447729D01*
G01X9891453Y436299D01*
G01X9885865Y419281D01*
G01X9874435Y407851D01*
G01X9857163Y402009D01*
G01X9840145Y402009D01*
G01X9822873Y407851D01*
G01X9817285Y413439D01*
G01X9811443Y424869D01*
G01X9973495Y522151D02*
G01X9956477Y516309D01*
G01X9945047Y499291D01*
G01X9939205Y470589D01*
G01X9939205Y453571D01*
G01X9945047Y424869D01*
G01X9956477Y407851D01*
G01X9973495Y402009D01*
G01X9984925Y402009D01*
G01X10002197Y407851D01*
G01X10013627Y424869D01*
G01X10019215Y453571D01*
G01X10019215Y470589D01*
G01X10013627Y499291D01*
G01X10002197Y516309D01*
G01X9984925Y522151D01*
G01X9973495Y522151D01*
G01X10101257Y522151D02*
G01X10084239Y516309D01*
G01X10072809Y499291D01*
G01X10066967Y470589D01*
G01X10066967Y453571D01*
G01X10072809Y424869D01*
G01X10084239Y407851D01*
G01X10101257Y402009D01*
G01X10112687Y402009D01*
G01X10129959Y407851D01*
G01X10141389Y424869D01*
G01X10146977Y453571D01*
G01X10146977Y470589D01*
G01X10141389Y499291D01*
G01X10129959Y516309D01*
G01X10112687Y522151D01*
G01X10101257Y522151D01*
G01X10194729Y482019D02*
G01X10194729Y402009D01*
G01X10194729Y459159D02*
G01X10212001Y476431D01*
G01X10223431Y482019D01*
G01X10240449Y482019D01*
G01X10251879Y476431D01*
G01X10257721Y459159D01*
G01X10257721Y402009D01*
G01X10257721Y459159D02*
G01X10274739Y476431D01*
G01X10286169Y482019D01*
G01X10303441Y482019D01*
G01X10314871Y476431D01*
G01X10320459Y459159D01*
G01X10320459Y402009D01*
G01X10368211Y482019D02*
G01X10368211Y402009D01*
G01X10368211Y459159D02*
G01X10385483Y476431D01*
G01X10396913Y482019D01*
G01X10413931Y482019D01*
G01X10425361Y476431D01*
G01X10431203Y459159D01*
G01X10431203Y402009D01*
G01X10431203Y459159D02*
G01X10448221Y476431D01*
G01X10459651Y482019D01*
G01X10476923Y482019D01*
G01X10488353Y476431D01*
G01X10493941Y459159D01*
G01X10493941Y402009D01*
G01X10541693Y545011D02*
G01X10553123Y533581D01*
G01X10564553Y516309D01*
G01X10575983Y493449D01*
G01X10581825Y465001D01*
G01X10581825Y442141D01*
G01X10575983Y413439D01*
G01X10564553Y390579D01*
G01X10553123Y373561D01*
G01X10541693Y362131D01*
G01X11473003Y522151D02*
G01X11473003Y402009D01*
G01X11473003Y522151D02*
G01X11524565Y522151D01*
G01X11541583Y516309D01*
G01X11547425Y510721D01*
G01X11553013Y499291D01*
G01X11553013Y482019D01*
G01X11547425Y470589D01*
G01X11541583Y465001D01*
G01X11524565Y459159D01*
G01X11473003Y459159D01*
G01X11640897Y522151D02*
G01X11640897Y402009D01*
G01X11600765Y522151D02*
G01X11680775Y522151D01*
G01X11728527Y522151D02*
G01X11728527Y402009D01*
G01X11808537Y522151D02*
G01X11808537Y402009D01*
G01X11728527Y465001D02*
G01X11808537Y465001D01*
G01X12934410Y522151D02*
G01X12934410Y402009D01*
G01X12934410Y522151D02*
G01X12985972Y522151D01*
G01X13002990Y516309D01*
G01X13008832Y510721D01*
G01X13014420Y499291D01*
G01X13014420Y487861D01*
G01X13008832Y476431D01*
G01X13002990Y470589D01*
G01X12985972Y465001D01*
G01X12934410Y465001D01*
G01X12974542Y465001D02*
G01X13014420Y402009D01*
G01X13090874Y482019D02*
G01X13079444Y476431D01*
G01X13068014Y465001D01*
G01X13062172Y447729D01*
G01X13062172Y436299D01*
G01X13068014Y419281D01*
G01X13079444Y407851D01*
G01X13090874Y402009D01*
G01X13107892Y402009D01*
G01X13119322Y407851D01*
G01X13130752Y419281D01*
G01X13136594Y436299D01*
G01X13136594Y447729D01*
G01X13130752Y465001D01*
G01X13119322Y476431D01*
G01X13107892Y482019D01*
G01X13090874Y482019D01*
G01X13184346Y482019D02*
G01X13184346Y424869D01*
G01X13190188Y407851D01*
G01X13201618Y402009D01*
G01X13218636Y402009D01*
G01X13230066Y407851D01*
G01X13247338Y424869D01*
G01X13247338Y482019D02*
G01X13247338Y402009D01*
G01X13295090Y482019D02*
G01X13295090Y402009D01*
G01X13295090Y459159D02*
G01X13312362Y476431D01*
G01X13323792Y482019D01*
G01X13340810Y482019D01*
G01X13352240Y476431D01*
G01X13358082Y459159D01*
G01X13358082Y402009D01*
G01X13474414Y522151D02*
G01X13474414Y402009D01*
G01X13474414Y465001D02*
G01X13462984Y476431D01*
G01X13451554Y482019D01*
G01X13434536Y482019D01*
G01X13423106Y476431D01*
G01X13411676Y465001D01*
G01X13405834Y447729D01*
G01X13405834Y436299D01*
G01X13411676Y419281D01*
G01X13423106Y407851D01*
G01X13434536Y402009D01*
G01X13451554Y402009D01*
G01X13462984Y407851D01*
G01X13474414Y419281D01*
G01X14365591Y522151D02*
G01X14365591Y402009D01*
G01X14365591Y522151D02*
G01X14417153Y522151D01*
G01X14434171Y516309D01*
G01X14440013Y510721D01*
G01X14445601Y499291D01*
G01X14445601Y482019D01*
G01X14440013Y470589D01*
G01X14434171Y465001D01*
G01X14417153Y459159D01*
G01X14365591Y459159D01*
G01X14561933Y482019D02*
G01X14561933Y402009D01*
G01X14561933Y465001D02*
G01X14550503Y476431D01*
G01X14539073Y482019D01*
G01X14522055Y482019D01*
G01X14510625Y476431D01*
G01X14499195Y465001D01*
G01X14493353Y447729D01*
G01X14493353Y436299D01*
G01X14499195Y419281D01*
G01X14510625Y407851D01*
G01X14522055Y402009D01*
G01X14539073Y402009D01*
G01X14550503Y407851D01*
G01X14561933Y419281D01*
G01X14678265Y522151D02*
G01X14678265Y402009D01*
G01X14678265Y465001D02*
G01X14666835Y476431D01*
G01X14655405Y482019D01*
G01X14638387Y482019D01*
G01X14626957Y476431D01*
G01X14615527Y465001D01*
G01X14609685Y447729D01*
G01X14609685Y436299D01*
G01X14615527Y419281D01*
G01X14626957Y407851D01*
G01X14638387Y402009D01*
G01X14655405Y402009D01*
G01X14666835Y407851D01*
G01X14678265Y419281D01*
G01X16034770Y522151D02*
G01X16034770Y402009D01*
G01X16034770Y522151D02*
G01X16086332Y522151D01*
G01X16103350Y516309D01*
G01X16109192Y510721D01*
G01X16114780Y499291D01*
G01X16114780Y487861D01*
G01X16109192Y476431D01*
G01X16103350Y470589D01*
G01X16086332Y465001D01*
G01X16034770Y465001D01*
G01X16074902Y465001D02*
G01X16114780Y402009D01*
G01X16191234Y482019D02*
G01X16179804Y476431D01*
G01X16168374Y465001D01*
G01X16162532Y447729D01*
G01X16162532Y436299D01*
G01X16168374Y419281D01*
G01X16179804Y407851D01*
G01X16191234Y402009D01*
G01X16208252Y402009D01*
G01X16219682Y407851D01*
G01X16231112Y419281D01*
G01X16236954Y436299D01*
G01X16236954Y447729D01*
G01X16231112Y465001D01*
G01X16219682Y476431D01*
G01X16208252Y482019D01*
G01X16191234Y482019D01*
G01X16284706Y482019D02*
G01X16284706Y424869D01*
G01X16290548Y407851D01*
G01X16301978Y402009D01*
G01X16318996Y402009D01*
G01X16330426Y407851D01*
G01X16347698Y424869D01*
G01X16347698Y482019D02*
G01X16347698Y402009D01*
G01X16395450Y482019D02*
G01X16395450Y402009D01*
G01X16395450Y459159D02*
G01X16412722Y476431D01*
G01X16424152Y482019D01*
G01X16441170Y482019D01*
G01X16452600Y476431D01*
G01X16458442Y459159D01*
G01X16458442Y402009D01*
G01X16574774Y522151D02*
G01X16574774Y402009D01*
G01X16574774Y465001D02*
G01X16563344Y476431D01*
G01X16551914Y482019D01*
G01X16534896Y482019D01*
G01X16523466Y476431D01*
G01X16512036Y465001D01*
G01X16506194Y447729D01*
G01X16506194Y436299D01*
G01X16512036Y419281D01*
G01X16523466Y407851D01*
G01X16534896Y402009D01*
G01X16551914Y402009D01*
G01X16563344Y407851D01*
G01X16574774Y419281D01*
G01X17994271Y522151D02*
G01X17994271Y402009D01*
G01X17954139Y522151D02*
G01X18034149Y522151D01*
G01X18110603Y482019D02*
G01X18099173Y476431D01*
G01X18087743Y465001D01*
G01X18081901Y447729D01*
G01X18081901Y436299D01*
G01X18087743Y419281D01*
G01X18099173Y407851D01*
G01X18110603Y402009D01*
G01X18127621Y402009D01*
G01X18139051Y407851D01*
G01X18150481Y419281D01*
G01X18156323Y436299D01*
G01X18156323Y447729D01*
G01X18150481Y465001D01*
G01X18139051Y476431D01*
G01X18127621Y482019D01*
G01X18110603Y482019D01*
G01X18204075Y482019D02*
G01X18204075Y362131D01*
G01X18204075Y465001D02*
G01X18215505Y476431D01*
G01X18226935Y482019D01*
G01X18244207Y482019D01*
G01X18255637Y476431D01*
G01X18267067Y465001D01*
G01X18272655Y447729D01*
G01X18272655Y436299D01*
G01X18267067Y419281D01*
G01X18255637Y407851D01*
G01X18244207Y402009D01*
G01X18226935Y402009D01*
G01X18215505Y407851D01*
G01X18204075Y419281D01*
G01X18448423Y522151D02*
G01X18448423Y402009D01*
G01X18448423Y402009D02*
G01X18517003Y402009D01*
G01X18633335Y482019D02*
G01X18633335Y402009D01*
G01X18633335Y465001D02*
G01X18621905Y476431D01*
G01X18610475Y482019D01*
G01X18593457Y482019D01*
G01X18582027Y476431D01*
G01X18570597Y465001D01*
G01X18564755Y447729D01*
G01X18564755Y436299D01*
G01X18570597Y419281D01*
G01X18582027Y407851D01*
G01X18593457Y402009D01*
G01X18610475Y402009D01*
G01X18621905Y407851D01*
G01X18633335Y419281D01*
G01X18686929Y482019D02*
G01X18721219Y402009D01*
G01X18755509Y482019D02*
G01X18721219Y402009D01*
G01X18709789Y379149D01*
G01X18698359Y367719D01*
G01X18686929Y362131D01*
G01X18681087Y362131D01*
G01X18803261Y447729D02*
G01X18871841Y447729D01*
G01X18871841Y459159D01*
G01X18866253Y470589D01*
G01X18860411Y476431D01*
G01X18848981Y482019D01*
G01X18831963Y482019D01*
G01X18820533Y476431D01*
G01X18809103Y465001D01*
G01X18803261Y447729D01*
G01X18803261Y436299D01*
G01X18809103Y419281D01*
G01X18820533Y407851D01*
G01X18831963Y402009D01*
G01X18848981Y402009D01*
G01X18860411Y407851D01*
G01X18871841Y419281D01*
G01X18919593Y482019D02*
G01X18919593Y402009D01*
G01X18919593Y447729D02*
G01X18925435Y465001D01*
G01X18936865Y476431D01*
G01X18948295Y482019D01*
G01X18965313Y482019D01*
G01X19013065Y453571D02*
G01X19115935Y453571D01*
G01X19163687Y522151D02*
G01X19163687Y402009D01*
G01X19163687Y522151D02*
G01X19215249Y522151D01*
G01X19232267Y516309D01*
G01X19238109Y510721D01*
G01X19243697Y499291D01*
G01X19243697Y487861D01*
G01X19238109Y476431D01*
G01X19232267Y470589D01*
G01X19215249Y465001D01*
G01X19163687Y465001D02*
G01X19215249Y465001D01*
G01X19232267Y459159D01*
G01X19238109Y453571D01*
G01X19243697Y442141D01*
G01X19243697Y424869D01*
G01X19238109Y413439D01*
G01X19232267Y407851D01*
G01X19215249Y402009D01*
G01X19163687Y402009D01*
G01X19320151Y482019D02*
G01X19308721Y476431D01*
G01X19297291Y465001D01*
G01X19291449Y447729D01*
G01X19291449Y436299D01*
G01X19297291Y419281D01*
G01X19308721Y407851D01*
G01X19320151Y402009D01*
G01X19337169Y402009D01*
G01X19348599Y407851D01*
G01X19360029Y419281D01*
G01X19365871Y436299D01*
G01X19365871Y447729D01*
G01X19360029Y465001D01*
G01X19348599Y476431D01*
G01X19337169Y482019D01*
G01X19320151Y482019D01*
G01X19430895Y522151D02*
G01X19430895Y424869D01*
G01X19436483Y407851D01*
G01X19447913Y402009D01*
G01X19459343Y402009D01*
G01X19413623Y482019D02*
G01X19453755Y482019D01*
G01X19524367Y522151D02*
G01X19524367Y424869D01*
G01X19529955Y407851D01*
G01X19541385Y402009D01*
G01X19552815Y402009D01*
G01X19507095Y482019D02*
G01X19547227Y482019D01*
G01X19629269Y482019D02*
G01X19617839Y476431D01*
G01X19606409Y465001D01*
G01X19600567Y447729D01*
G01X19600567Y436299D01*
G01X19606409Y419281D01*
G01X19617839Y407851D01*
G01X19629269Y402009D01*
G01X19646287Y402009D01*
G01X19657717Y407851D01*
G01X19669147Y419281D01*
G01X19674989Y436299D01*
G01X19674989Y447729D01*
G01X19669147Y465001D01*
G01X19657717Y476431D01*
G01X19646287Y482019D01*
G01X19629269Y482019D01*
G01X19722741Y482019D02*
G01X19722741Y402009D01*
G01X19722741Y459159D02*
G01X19740013Y476431D01*
G01X19751443Y482019D01*
G01X19768461Y482019D01*
G01X19779891Y476431D01*
G01X19785733Y459159D01*
G01X19785733Y402009D01*
G01X19785733Y459159D02*
G01X19802751Y476431D01*
G01X19814181Y482019D01*
G01X19831453Y482019D01*
G01X19842883Y476431D01*
G01X19848471Y459159D01*
G01X19848471Y402009D01*
G01X20024239Y522151D02*
G01X20024239Y402009D01*
G01X20024239Y402009D02*
G01X20092819Y402009D01*
G01X20209151Y482019D02*
G01X20209151Y402009D01*
G01X20209151Y465001D02*
G01X20197721Y476431D01*
G01X20186291Y482019D01*
G01X20169273Y482019D01*
G01X20157843Y476431D01*
G01X20146413Y465001D01*
G01X20140571Y447729D01*
G01X20140571Y436299D01*
G01X20146413Y419281D01*
G01X20157843Y407851D01*
G01X20169273Y402009D01*
G01X20186291Y402009D01*
G01X20197721Y407851D01*
G01X20209151Y419281D01*
G01X20262745Y482019D02*
G01X20297035Y402009D01*
G01X20331325Y482019D02*
G01X20297035Y402009D01*
G01X20285605Y379149D01*
G01X20274175Y367719D01*
G01X20262745Y362131D01*
G01X20256903Y362131D01*
G01X20379077Y447729D02*
G01X20447657Y447729D01*
G01X20447657Y459159D01*
G01X20442069Y470589D01*
G01X20436227Y476431D01*
G01X20424797Y482019D01*
G01X20407779Y482019D01*
G01X20396349Y476431D01*
G01X20384919Y465001D01*
G01X20379077Y447729D01*
G01X20379077Y436299D01*
G01X20384919Y419281D01*
G01X20396349Y407851D01*
G01X20407779Y402009D01*
G01X20424797Y402009D01*
G01X20436227Y407851D01*
G01X20447657Y419281D01*
G01X20495409Y482019D02*
G01X20495409Y402009D01*
G01X20495409Y447729D02*
G01X20501251Y465001D01*
G01X20512681Y476431D01*
G01X20524111Y482019D01*
G01X20541129Y482019D01*
G01X6164874Y-81280D02*
G01X6176304Y-75692D01*
G01X6193576Y-58420D01*
G01X6193576Y-178562D01*
G01X6309908Y-75692D02*
G01X6304320Y-64262D01*
G01X6287048Y-58420D01*
G01X6275618Y-58420D01*
G01X6258600Y-64262D01*
G01X6247170Y-81280D01*
G01X6241328Y-109982D01*
G01X6241328Y-138430D01*
G01X6247170Y-161290D01*
G01X6258600Y-172720D01*
G01X6275618Y-178562D01*
G01X6281460Y-178562D01*
G01X6298478Y-172720D01*
G01X6309908Y-161290D01*
G01X6315750Y-144272D01*
G01X6315750Y-138430D01*
G01X6309908Y-121412D01*
G01X6298478Y-109982D01*
G01X6281460Y-104140D01*
G01X6275618Y-104140D01*
G01X6258600Y-109982D01*
G01X6247170Y-121412D01*
G01X6241328Y-138430D01*
G01X7636187Y-58420D02*
G01X7579037Y-138430D01*
G01X7664889Y-138430D01*
G01X7636187Y-58420D02*
G01X7636187Y-178562D01*
G01X7724071Y-58420D02*
G01X7787063Y-58420D01*
G01X7752773Y-104140D01*
G01X7769791Y-104140D01*
G01X7781221Y-109982D01*
G01X7787063Y-115570D01*
G01X7792651Y-132842D01*
G01X7792651Y-144272D01*
G01X7787063Y-161290D01*
G01X7775633Y-172720D01*
G01X7758361Y-178562D01*
G01X7741343Y-178562D01*
G01X7724071Y-172720D01*
G01X7718483Y-167132D01*
G01X7712641Y-155702D01*
G01X7846245Y-149860D02*
G01X7840403Y-155702D01*
G01X7846245Y-161290D01*
G01X7851833Y-155702D01*
G01X7846245Y-149860D01*
G01X7911015Y-58420D02*
G01X7974007Y-58420D01*
G01X7939717Y-104140D01*
G01X7956735Y-104140D01*
G01X7968165Y-109982D01*
G01X7974007Y-115570D01*
G01X7979595Y-132842D01*
G01X7979595Y-144272D01*
G01X7974007Y-161290D01*
G01X7962577Y-172720D01*
G01X7945305Y-178562D01*
G01X7928287Y-178562D01*
G01X7911015Y-172720D01*
G01X7905427Y-167132D01*
G01X7899585Y-155702D01*
G01X8027347Y-98552D02*
G01X8090339Y-178562D01*
G01X8090339Y-98552D02*
G01X8027347Y-178562D01*
G01X8195241Y-58420D02*
G01X8138091Y-138430D01*
G01X8223943Y-138430D01*
G01X8195241Y-58420D02*
G01X8195241Y-178562D01*
G01X8283125Y-58420D02*
G01X8346117Y-58420D01*
G01X8311827Y-104140D01*
G01X8328845Y-104140D01*
G01X8340275Y-109982D01*
G01X8346117Y-115570D01*
G01X8351705Y-132842D01*
G01X8351705Y-144272D01*
G01X8346117Y-161290D01*
G01X8334687Y-172720D01*
G01X8317415Y-178562D01*
G01X8300397Y-178562D01*
G01X8283125Y-172720D01*
G01X8277537Y-167132D01*
G01X8271695Y-155702D01*
G01X8405299Y-149860D02*
G01X8399457Y-155702D01*
G01X8405299Y-161290D01*
G01X8410887Y-155702D01*
G01X8405299Y-149860D01*
G01X8470069Y-58420D02*
G01X8533061Y-58420D01*
G01X8498771Y-104140D01*
G01X8515789Y-104140D01*
G01X8527219Y-109982D01*
G01X8533061Y-115570D01*
G01X8538649Y-132842D01*
G01X8538649Y-144272D01*
G01X8533061Y-161290D01*
G01X8521631Y-172720D01*
G01X8504359Y-178562D01*
G01X8487341Y-178562D01*
G01X8470069Y-172720D01*
G01X8464481Y-167132D01*
G01X8458639Y-155702D01*
G01X8586401Y-98552D02*
G01X8586401Y-178562D01*
G01X8586401Y-121412D02*
G01X8603673Y-104140D01*
G01X8615103Y-98552D01*
G01X8632121Y-98552D01*
G01X8643551Y-104140D01*
G01X8649393Y-121412D01*
G01X8649393Y-178562D01*
G01X8649393Y-121412D02*
G01X8666411Y-104140D01*
G01X8677841Y-98552D01*
G01X8695113Y-98552D01*
G01X8706543Y-104140D01*
G01X8712131Y-121412D01*
G01X8712131Y-178562D01*
G01X8759883Y-58420D02*
G01X8765725Y-64262D01*
G01X8771313Y-58420D01*
G01X8765725Y-52832D01*
G01X8759883Y-58420D01*
G01X8765725Y-98552D02*
G01X8765725Y-178562D01*
G01X8819065Y-58420D02*
G01X8819065Y-178562D01*
G01X8906949Y-35560D02*
G01X8895519Y-46990D01*
G01X8884089Y-64262D01*
G01X8872659Y-87122D01*
G01X8866817Y-115570D01*
G01X8866817Y-138430D01*
G01X8872659Y-167132D01*
G01X8884089Y-189992D01*
G01X8895519Y-207010D01*
G01X8906949Y-218440D01*
G01X8954701Y-81280D02*
G01X8966131Y-75692D01*
G01X8983403Y-58420D01*
G01X8983403Y-178562D01*
G01X9036997Y-149860D02*
G01X9031155Y-155702D01*
G01X9036997Y-161290D01*
G01X9042585Y-155702D01*
G01X9036997Y-149860D01*
G01X9090337Y-81280D02*
G01X9101767Y-75692D01*
G01X9119039Y-58420D01*
G01X9119039Y-178562D01*
G01X9201081Y-58420D02*
G01X9184063Y-64262D01*
G01X9172633Y-81280D01*
G01X9166791Y-109982D01*
G01X9166791Y-127000D01*
G01X9172633Y-155702D01*
G01X9184063Y-172720D01*
G01X9201081Y-178562D01*
G01X9212511Y-178562D01*
G01X9229783Y-172720D01*
G01X9241213Y-155702D01*
G01X9246801Y-127000D01*
G01X9246801Y-109982D01*
G01X9241213Y-81280D01*
G01X9229783Y-64262D01*
G01X9212511Y-58420D01*
G01X9201081Y-58420D01*
G01X9328843Y-58420D02*
G01X9311825Y-64262D01*
G01X9300395Y-81280D01*
G01X9294553Y-109982D01*
G01X9294553Y-127000D01*
G01X9300395Y-155702D01*
G01X9311825Y-172720D01*
G01X9328843Y-178562D01*
G01X9340273Y-178562D01*
G01X9357545Y-172720D01*
G01X9368975Y-155702D01*
G01X9374563Y-127000D01*
G01X9374563Y-109982D01*
G01X9368975Y-81280D01*
G01X9357545Y-64262D01*
G01X9340273Y-58420D01*
G01X9328843Y-58420D01*
G01X9422315Y-98552D02*
G01X9485307Y-178562D01*
G01X9485307Y-98552D02*
G01X9422315Y-178562D01*
G01X9533059Y-81280D02*
G01X9544489Y-75692D01*
G01X9561761Y-58420D01*
G01X9561761Y-178562D01*
G01X9615355Y-149860D02*
G01X9609513Y-155702D01*
G01X9615355Y-161290D01*
G01X9620943Y-155702D01*
G01X9615355Y-149860D01*
G01X9668695Y-81280D02*
G01X9680125Y-75692D01*
G01X9697397Y-58420D01*
G01X9697397Y-178562D01*
G01X9779439Y-58420D02*
G01X9762421Y-64262D01*
G01X9750991Y-81280D01*
G01X9745149Y-109982D01*
G01X9745149Y-127000D01*
G01X9750991Y-155702D01*
G01X9762421Y-172720D01*
G01X9779439Y-178562D01*
G01X9790869Y-178562D01*
G01X9808141Y-172720D01*
G01X9819571Y-155702D01*
G01X9825159Y-127000D01*
G01X9825159Y-109982D01*
G01X9819571Y-81280D01*
G01X9808141Y-64262D01*
G01X9790869Y-58420D01*
G01X9779439Y-58420D01*
G01X9907201Y-58420D02*
G01X9890183Y-64262D01*
G01X9878753Y-81280D01*
G01X9872911Y-109982D01*
G01X9872911Y-127000D01*
G01X9878753Y-155702D01*
G01X9890183Y-172720D01*
G01X9907201Y-178562D01*
G01X9918631Y-178562D01*
G01X9935903Y-172720D01*
G01X9947333Y-155702D01*
G01X9952921Y-127000D01*
G01X9952921Y-109982D01*
G01X9947333Y-81280D01*
G01X9935903Y-64262D01*
G01X9918631Y-58420D01*
G01X9907201Y-58420D01*
G01X10000673Y-98552D02*
G01X10000673Y-178562D01*
G01X10000673Y-121412D02*
G01X10017945Y-104140D01*
G01X10029375Y-98552D01*
G01X10046393Y-98552D01*
G01X10057823Y-104140D01*
G01X10063665Y-121412D01*
G01X10063665Y-178562D01*
G01X10063665Y-121412D02*
G01X10080683Y-104140D01*
G01X10092113Y-98552D01*
G01X10109385Y-98552D01*
G01X10120815Y-104140D01*
G01X10126403Y-121412D01*
G01X10126403Y-178562D01*
G01X10174155Y-98552D02*
G01X10174155Y-178562D01*
G01X10174155Y-121412D02*
G01X10191427Y-104140D01*
G01X10202857Y-98552D01*
G01X10219875Y-98552D01*
G01X10231305Y-104140D01*
G01X10237147Y-121412D01*
G01X10237147Y-178562D01*
G01X10237147Y-121412D02*
G01X10254165Y-104140D01*
G01X10265595Y-98552D01*
G01X10282867Y-98552D01*
G01X10294297Y-104140D01*
G01X10299885Y-121412D01*
G01X10299885Y-178562D01*
G01X10347637Y-35560D02*
G01X10359067Y-46990D01*
G01X10370497Y-64262D01*
G01X10381927Y-87122D01*
G01X10387769Y-115570D01*
G01X10387769Y-138430D01*
G01X10381927Y-167132D01*
G01X10370497Y-189992D01*
G01X10359067Y-207010D01*
G01X10347637Y-218440D01*
G01X11473003Y-58420D02*
G01X11473003Y-178562D01*
G01X11473003Y-58420D02*
G01X11524565Y-58420D01*
G01X11541583Y-64262D01*
G01X11547425Y-69850D01*
G01X11553013Y-81280D01*
G01X11553013Y-98552D01*
G01X11547425Y-109982D01*
G01X11541583Y-115570D01*
G01X11524565Y-121412D01*
G01X11473003Y-121412D01*
G01X11640897Y-58420D02*
G01X11640897Y-178562D01*
G01X11600765Y-58420D02*
G01X11680775Y-58420D01*
G01X11728527Y-58420D02*
G01X11728527Y-178562D01*
G01X11808537Y-58420D02*
G01X11808537Y-178562D01*
G01X11728527Y-115570D02*
G01X11808537Y-115570D01*
G01X12934410Y-58420D02*
G01X12934410Y-178562D01*
G01X12934410Y-58420D02*
G01X12985972Y-58420D01*
G01X13002990Y-64262D01*
G01X13008832Y-69850D01*
G01X13014420Y-81280D01*
G01X13014420Y-92710D01*
G01X13008832Y-104140D01*
G01X13002990Y-109982D01*
G01X12985972Y-115570D01*
G01X12934410Y-115570D01*
G01X12974542Y-115570D02*
G01X13014420Y-178562D01*
G01X13090874Y-98552D02*
G01X13079444Y-104140D01*
G01X13068014Y-115570D01*
G01X13062172Y-132842D01*
G01X13062172Y-144272D01*
G01X13068014Y-161290D01*
G01X13079444Y-172720D01*
G01X13090874Y-178562D01*
G01X13107892Y-178562D01*
G01X13119322Y-172720D01*
G01X13130752Y-161290D01*
G01X13136594Y-144272D01*
G01X13136594Y-132842D01*
G01X13130752Y-115570D01*
G01X13119322Y-104140D01*
G01X13107892Y-98552D01*
G01X13090874Y-98552D01*
G01X13184346Y-98552D02*
G01X13184346Y-155702D01*
G01X13190188Y-172720D01*
G01X13201618Y-178562D01*
G01X13218636Y-178562D01*
G01X13230066Y-172720D01*
G01X13247338Y-155702D01*
G01X13247338Y-98552D02*
G01X13247338Y-178562D01*
G01X13295090Y-98552D02*
G01X13295090Y-178562D01*
G01X13295090Y-121412D02*
G01X13312362Y-104140D01*
G01X13323792Y-98552D01*
G01X13340810Y-98552D01*
G01X13352240Y-104140D01*
G01X13358082Y-121412D01*
G01X13358082Y-178562D01*
G01X13474414Y-58420D02*
G01X13474414Y-178562D01*
G01X13474414Y-115570D02*
G01X13462984Y-104140D01*
G01X13451554Y-98552D01*
G01X13434536Y-98552D01*
G01X13423106Y-104140D01*
G01X13411676Y-115570D01*
G01X13405834Y-132842D01*
G01X13405834Y-144272D01*
G01X13411676Y-161290D01*
G01X13423106Y-172720D01*
G01X13434536Y-178562D01*
G01X13451554Y-178562D01*
G01X13462984Y-172720D01*
G01X13474414Y-161290D01*
G01X14365591Y-58420D02*
G01X14365591Y-178562D01*
G01X14365591Y-58420D02*
G01X14417153Y-58420D01*
G01X14434171Y-64262D01*
G01X14440013Y-69850D01*
G01X14445601Y-81280D01*
G01X14445601Y-98552D01*
G01X14440013Y-109982D01*
G01X14434171Y-115570D01*
G01X14417153Y-121412D01*
G01X14365591Y-121412D01*
G01X14561933Y-98552D02*
G01X14561933Y-178562D01*
G01X14561933Y-115570D02*
G01X14550503Y-104140D01*
G01X14539073Y-98552D01*
G01X14522055Y-98552D01*
G01X14510625Y-104140D01*
G01X14499195Y-115570D01*
G01X14493353Y-132842D01*
G01X14493353Y-144272D01*
G01X14499195Y-161290D01*
G01X14510625Y-172720D01*
G01X14522055Y-178562D01*
G01X14539073Y-178562D01*
G01X14550503Y-172720D01*
G01X14561933Y-161290D01*
G01X14678265Y-58420D02*
G01X14678265Y-178562D01*
G01X14678265Y-115570D02*
G01X14666835Y-104140D01*
G01X14655405Y-98552D01*
G01X14638387Y-98552D01*
G01X14626957Y-104140D01*
G01X14615527Y-115570D01*
G01X14609685Y-132842D01*
G01X14609685Y-144272D01*
G01X14615527Y-161290D01*
G01X14626957Y-172720D01*
G01X14638387Y-178562D01*
G01X14655405Y-178562D01*
G01X14666835Y-172720D01*
G01X14678265Y-161290D01*
G01X16074902Y-35560D02*
G01X16063472Y-46990D01*
G01X16052042Y-64262D01*
G01X16040612Y-87122D01*
G01X16034770Y-115570D01*
G01X16034770Y-138430D01*
G01X16040612Y-167132D01*
G01X16052042Y-189992D01*
G01X16063472Y-207010D01*
G01X16074902Y-218440D01*
G01X16122654Y-58420D02*
G01X16122654Y-178562D01*
G01X16122654Y-58420D02*
G01X16168374Y-178562D01*
G01X16214094Y-58420D02*
G01X16168374Y-178562D01*
G01X16214094Y-58420D02*
G01X16214094Y-178562D01*
G01X16261846Y-58420D02*
G01X16267688Y-64262D01*
G01X16273276Y-58420D01*
G01X16267688Y-52832D01*
G01X16261846Y-58420D01*
G01X16267688Y-98552D02*
G01X16267688Y-178562D01*
G01X16321028Y-98552D02*
G01X16384020Y-178562D01*
G01X16384020Y-98552D02*
G01X16321028Y-178562D01*
G01X16431772Y-132842D02*
G01X16500352Y-132842D01*
G01X16500352Y-121412D01*
G01X16494764Y-109982D01*
G01X16488922Y-104140D01*
G01X16477492Y-98552D01*
G01X16460474Y-98552D01*
G01X16449044Y-104140D01*
G01X16437614Y-115570D01*
G01X16431772Y-132842D01*
G01X16431772Y-144272D01*
G01X16437614Y-161290D01*
G01X16449044Y-172720D01*
G01X16460474Y-178562D01*
G01X16477492Y-178562D01*
G01X16488922Y-172720D01*
G01X16500352Y-161290D01*
G01X16616684Y-58420D02*
G01X16616684Y-178562D01*
G01X16616684Y-115570D02*
G01X16605254Y-104140D01*
G01X16593824Y-98552D01*
G01X16576806Y-98552D01*
G01X16565376Y-104140D01*
G01X16553946Y-115570D01*
G01X16548104Y-132842D01*
G01X16548104Y-144272D01*
G01X16553946Y-161290D01*
G01X16565376Y-172720D01*
G01X16576806Y-178562D01*
G01X16593824Y-178562D01*
G01X16605254Y-172720D01*
G01X16616684Y-161290D01*
G01X16664436Y-35560D02*
G01X16675866Y-46990D01*
G01X16687296Y-64262D01*
G01X16698726Y-87122D01*
G01X16704568Y-115570D01*
G01X16704568Y-138430D01*
G01X16698726Y-167132D01*
G01X16687296Y-189992D01*
G01X16675866Y-207010D01*
G01X16664436Y-218440D01*
G01X17994271Y-58420D02*
G01X17994271Y-178562D01*
G01X17954139Y-58420D02*
G01X18034149Y-58420D01*
G01X18110603Y-98552D02*
G01X18099173Y-104140D01*
G01X18087743Y-115570D01*
G01X18081901Y-132842D01*
G01X18081901Y-144272D01*
G01X18087743Y-161290D01*
G01X18099173Y-172720D01*
G01X18110603Y-178562D01*
G01X18127621Y-178562D01*
G01X18139051Y-172720D01*
G01X18150481Y-161290D01*
G01X18156323Y-144272D01*
G01X18156323Y-132842D01*
G01X18150481Y-115570D01*
G01X18139051Y-104140D01*
G01X18127621Y-98552D01*
G01X18110603Y-98552D01*
G01X18204075Y-98552D02*
G01X18204075Y-218440D01*
G01X18204075Y-115570D02*
G01X18215505Y-104140D01*
G01X18226935Y-98552D01*
G01X18244207Y-98552D01*
G01X18255637Y-104140D01*
G01X18267067Y-115570D01*
G01X18272655Y-132842D01*
G01X18272655Y-144272D01*
G01X18267067Y-161290D01*
G01X18255637Y-172720D01*
G01X18244207Y-178562D01*
G01X18226935Y-178562D01*
G01X18215505Y-172720D01*
G01X18204075Y-161290D01*
G01X18448423Y-58420D02*
G01X18448423Y-178562D01*
G01X18448423Y-178562D02*
G01X18517003Y-178562D01*
G01X18633335Y-98552D02*
G01X18633335Y-178562D01*
G01X18633335Y-115570D02*
G01X18621905Y-104140D01*
G01X18610475Y-98552D01*
G01X18593457Y-98552D01*
G01X18582027Y-104140D01*
G01X18570597Y-115570D01*
G01X18564755Y-132842D01*
G01X18564755Y-144272D01*
G01X18570597Y-161290D01*
G01X18582027Y-172720D01*
G01X18593457Y-178562D01*
G01X18610475Y-178562D01*
G01X18621905Y-172720D01*
G01X18633335Y-161290D01*
G01X18686929Y-98552D02*
G01X18721219Y-178562D01*
G01X18755509Y-98552D02*
G01X18721219Y-178562D01*
G01X18709789Y-201422D01*
G01X18698359Y-212852D01*
G01X18686929Y-218440D01*
G01X18681087Y-218440D01*
G01X18803261Y-132842D02*
G01X18871841Y-132842D01*
G01X18871841Y-121412D01*
G01X18866253Y-109982D01*
G01X18860411Y-104140D01*
G01X18848981Y-98552D01*
G01X18831963Y-98552D01*
G01X18820533Y-104140D01*
G01X18809103Y-115570D01*
G01X18803261Y-132842D01*
G01X18803261Y-144272D01*
G01X18809103Y-161290D01*
G01X18820533Y-172720D01*
G01X18831963Y-178562D01*
G01X18848981Y-178562D01*
G01X18860411Y-172720D01*
G01X18871841Y-161290D01*
G01X18919593Y-98552D02*
G01X18919593Y-178562D01*
G01X18919593Y-132842D02*
G01X18925435Y-115570D01*
G01X18936865Y-104140D01*
G01X18948295Y-98552D01*
G01X18965313Y-98552D01*
G01X19013065Y-127000D02*
G01X19115935Y-127000D01*
G01X19163687Y-58420D02*
G01X19163687Y-178562D01*
G01X19163687Y-58420D02*
G01X19215249Y-58420D01*
G01X19232267Y-64262D01*
G01X19238109Y-69850D01*
G01X19243697Y-81280D01*
G01X19243697Y-92710D01*
G01X19238109Y-104140D01*
G01X19232267Y-109982D01*
G01X19215249Y-115570D01*
G01X19163687Y-115570D02*
G01X19215249Y-115570D01*
G01X19232267Y-121412D01*
G01X19238109Y-127000D01*
G01X19243697Y-138430D01*
G01X19243697Y-155702D01*
G01X19238109Y-167132D01*
G01X19232267Y-172720D01*
G01X19215249Y-178562D01*
G01X19163687Y-178562D01*
G01X19320151Y-98552D02*
G01X19308721Y-104140D01*
G01X19297291Y-115570D01*
G01X19291449Y-132842D01*
G01X19291449Y-144272D01*
G01X19297291Y-161290D01*
G01X19308721Y-172720D01*
G01X19320151Y-178562D01*
G01X19337169Y-178562D01*
G01X19348599Y-172720D01*
G01X19360029Y-161290D01*
G01X19365871Y-144272D01*
G01X19365871Y-132842D01*
G01X19360029Y-115570D01*
G01X19348599Y-104140D01*
G01X19337169Y-98552D01*
G01X19320151Y-98552D01*
G01X19430895Y-58420D02*
G01X19430895Y-155702D01*
G01X19436483Y-172720D01*
G01X19447913Y-178562D01*
G01X19459343Y-178562D01*
G01X19413623Y-98552D02*
G01X19453755Y-98552D01*
G01X19524367Y-58420D02*
G01X19524367Y-155702D01*
G01X19529955Y-172720D01*
G01X19541385Y-178562D01*
G01X19552815Y-178562D01*
G01X19507095Y-98552D02*
G01X19547227Y-98552D01*
G01X19629269Y-98552D02*
G01X19617839Y-104140D01*
G01X19606409Y-115570D01*
G01X19600567Y-132842D01*
G01X19600567Y-144272D01*
G01X19606409Y-161290D01*
G01X19617839Y-172720D01*
G01X19629269Y-178562D01*
G01X19646287Y-178562D01*
G01X19657717Y-172720D01*
G01X19669147Y-161290D01*
G01X19674989Y-144272D01*
G01X19674989Y-132842D01*
G01X19669147Y-115570D01*
G01X19657717Y-104140D01*
G01X19646287Y-98552D01*
G01X19629269Y-98552D01*
G01X19722741Y-98552D02*
G01X19722741Y-178562D01*
G01X19722741Y-121412D02*
G01X19740013Y-104140D01*
G01X19751443Y-98552D01*
G01X19768461Y-98552D01*
G01X19779891Y-104140D01*
G01X19785733Y-121412D01*
G01X19785733Y-178562D01*
G01X19785733Y-121412D02*
G01X19802751Y-104140D01*
G01X19814181Y-98552D01*
G01X19831453Y-98552D01*
G01X19842883Y-104140D01*
G01X19848471Y-121412D01*
G01X19848471Y-178562D01*
G01X20024239Y-58420D02*
G01X20024239Y-178562D01*
G01X20024239Y-178562D02*
G01X20092819Y-178562D01*
G01X20209151Y-98552D02*
G01X20209151Y-178562D01*
G01X20209151Y-115570D02*
G01X20197721Y-104140D01*
G01X20186291Y-98552D01*
G01X20169273Y-98552D01*
G01X20157843Y-104140D01*
G01X20146413Y-115570D01*
G01X20140571Y-132842D01*
G01X20140571Y-144272D01*
G01X20146413Y-161290D01*
G01X20157843Y-172720D01*
G01X20169273Y-178562D01*
G01X20186291Y-178562D01*
G01X20197721Y-172720D01*
G01X20209151Y-161290D01*
G01X20262745Y-98552D02*
G01X20297035Y-178562D01*
G01X20331325Y-98552D02*
G01X20297035Y-178562D01*
G01X20285605Y-201422D01*
G01X20274175Y-212852D01*
G01X20262745Y-218440D01*
G01X20256903Y-218440D01*
G01X20379077Y-132842D02*
G01X20447657Y-132842D01*
G01X20447657Y-121412D01*
G01X20442069Y-109982D01*
G01X20436227Y-104140D01*
G01X20424797Y-98552D01*
G01X20407779Y-98552D01*
G01X20396349Y-104140D01*
G01X20384919Y-115570D01*
G01X20379077Y-132842D01*
G01X20379077Y-144272D01*
G01X20384919Y-161290D01*
G01X20396349Y-172720D01*
G01X20407779Y-178562D01*
G01X20424797Y-178562D01*
G01X20436227Y-172720D01*
G01X20447657Y-161290D01*
G01X20495409Y-98552D02*
G01X20495409Y-178562D01*
G01X20495409Y-132842D02*
G01X20501251Y-115570D01*
G01X20512681Y-104140D01*
G01X20524111Y-98552D01*
G01X20541129Y-98552D01*
G01X6164874Y-661851D02*
G01X6176304Y-656263D01*
G01X6193576Y-638991D01*
G01X6193576Y-759133D01*
G01X6309908Y-656263D02*
G01X6304320Y-644833D01*
G01X6287048Y-638991D01*
G01X6275618Y-638991D01*
G01X6258600Y-644833D01*
G01X6247170Y-661851D01*
G01X6241328Y-690553D01*
G01X6241328Y-719001D01*
G01X6247170Y-741861D01*
G01X6258600Y-753291D01*
G01X6275618Y-759133D01*
G01X6281460Y-759133D01*
G01X6298478Y-753291D01*
G01X6309908Y-741861D01*
G01X6315750Y-724843D01*
G01X6315750Y-719001D01*
G01X6309908Y-701983D01*
G01X6298478Y-690553D01*
G01X6281460Y-684711D01*
G01X6275618Y-684711D01*
G01X6258600Y-690553D01*
G01X6247170Y-701983D01*
G01X6241328Y-719001D01*
G01X7647617Y-656263D02*
G01X7642029Y-644833D01*
G01X7624757Y-638991D01*
G01X7613327Y-638991D01*
G01X7596309Y-644833D01*
G01X7584879Y-661851D01*
G01X7579037Y-690553D01*
G01X7579037Y-719001D01*
G01X7584879Y-741861D01*
G01X7596309Y-753291D01*
G01X7613327Y-759133D01*
G01X7619169Y-759133D01*
G01X7636187Y-753291D01*
G01X7647617Y-741861D01*
G01X7653459Y-724843D01*
G01X7653459Y-719001D01*
G01X7647617Y-701983D01*
G01X7636187Y-690553D01*
G01X7619169Y-684711D01*
G01X7613327Y-684711D01*
G01X7596309Y-690553D01*
G01X7584879Y-701983D01*
G01X7579037Y-719001D01*
G01X7712641Y-638991D02*
G01X7775633Y-638991D01*
G01X7741343Y-684711D01*
G01X7758361Y-684711D01*
G01X7769791Y-690553D01*
G01X7775633Y-696141D01*
G01X7781221Y-713413D01*
G01X7781221Y-724843D01*
G01X7775633Y-741861D01*
G01X7764203Y-753291D01*
G01X7746931Y-759133D01*
G01X7729913Y-759133D01*
G01X7712641Y-753291D01*
G01X7707053Y-747703D01*
G01X7701211Y-736273D01*
G01X7834815Y-730431D02*
G01X7828973Y-736273D01*
G01X7834815Y-741861D01*
G01X7840403Y-736273D01*
G01X7834815Y-730431D01*
G01X7922445Y-638991D02*
G01X7905427Y-644833D01*
G01X7893997Y-661851D01*
G01X7888155Y-690553D01*
G01X7888155Y-707571D01*
G01X7893997Y-736273D01*
G01X7905427Y-753291D01*
G01X7922445Y-759133D01*
G01X7933875Y-759133D01*
G01X7951147Y-753291D01*
G01X7962577Y-736273D01*
G01X7968165Y-707571D01*
G01X7968165Y-690553D01*
G01X7962577Y-661851D01*
G01X7951147Y-644833D01*
G01X7933875Y-638991D01*
G01X7922445Y-638991D01*
G01X8015917Y-679123D02*
G01X8078909Y-759133D01*
G01X8078909Y-679123D02*
G01X8015917Y-759133D01*
G01X8195241Y-656263D02*
G01X8189653Y-644833D01*
G01X8172381Y-638991D01*
G01X8160951Y-638991D01*
G01X8143933Y-644833D01*
G01X8132503Y-661851D01*
G01X8126661Y-690553D01*
G01X8126661Y-719001D01*
G01X8132503Y-741861D01*
G01X8143933Y-753291D01*
G01X8160951Y-759133D01*
G01X8166793Y-759133D01*
G01X8183811Y-753291D01*
G01X8195241Y-741861D01*
G01X8201083Y-724843D01*
G01X8201083Y-719001D01*
G01X8195241Y-701983D01*
G01X8183811Y-690553D01*
G01X8166793Y-684711D01*
G01X8160951Y-684711D01*
G01X8143933Y-690553D01*
G01X8132503Y-701983D01*
G01X8126661Y-719001D01*
G01X8260265Y-638991D02*
G01X8323257Y-638991D01*
G01X8288967Y-684711D01*
G01X8305985Y-684711D01*
G01X8317415Y-690553D01*
G01X8323257Y-696141D01*
G01X8328845Y-713413D01*
G01X8328845Y-724843D01*
G01X8323257Y-741861D01*
G01X8311827Y-753291D01*
G01X8294555Y-759133D01*
G01X8277537Y-759133D01*
G01X8260265Y-753291D01*
G01X8254677Y-747703D01*
G01X8248835Y-736273D01*
G01X8382439Y-730431D02*
G01X8376597Y-736273D01*
G01X8382439Y-741861D01*
G01X8388027Y-736273D01*
G01X8382439Y-730431D01*
G01X8470069Y-638991D02*
G01X8453051Y-644833D01*
G01X8441621Y-661851D01*
G01X8435779Y-690553D01*
G01X8435779Y-707571D01*
G01X8441621Y-736273D01*
G01X8453051Y-753291D01*
G01X8470069Y-759133D01*
G01X8481499Y-759133D01*
G01X8498771Y-753291D01*
G01X8510201Y-736273D01*
G01X8515789Y-707571D01*
G01X8515789Y-690553D01*
G01X8510201Y-661851D01*
G01X8498771Y-644833D01*
G01X8481499Y-638991D01*
G01X8470069Y-638991D01*
G01X8563541Y-679123D02*
G01X8563541Y-759133D01*
G01X8563541Y-701983D02*
G01X8580813Y-684711D01*
G01X8592243Y-679123D01*
G01X8609261Y-679123D01*
G01X8620691Y-684711D01*
G01X8626533Y-701983D01*
G01X8626533Y-759133D01*
G01X8626533Y-701983D02*
G01X8643551Y-684711D01*
G01X8654981Y-679123D01*
G01X8672253Y-679123D01*
G01X8683683Y-684711D01*
G01X8689271Y-701983D01*
G01X8689271Y-759133D01*
G01X8737023Y-638991D02*
G01X8742865Y-644833D01*
G01X8748453Y-638991D01*
G01X8742865Y-633403D01*
G01X8737023Y-638991D01*
G01X8742865Y-679123D02*
G01X8742865Y-759133D01*
G01X8796205Y-638991D02*
G01X8796205Y-759133D01*
G01X8884089Y-616131D02*
G01X8872659Y-627561D01*
G01X8861229Y-644833D01*
G01X8849799Y-667693D01*
G01X8843957Y-696141D01*
G01X8843957Y-719001D01*
G01X8849799Y-747703D01*
G01X8861229Y-770563D01*
G01X8872659Y-787581D01*
G01X8884089Y-799011D01*
G01X8931841Y-661851D02*
G01X8943271Y-656263D01*
G01X8960543Y-638991D01*
G01X8960543Y-759133D01*
G01X9014137Y-730431D02*
G01X9008295Y-736273D01*
G01X9014137Y-741861D01*
G01X9019725Y-736273D01*
G01X9014137Y-730431D01*
G01X9136057Y-656263D02*
G01X9130469Y-644833D01*
G01X9113197Y-638991D01*
G01X9101767Y-638991D01*
G01X9084749Y-644833D01*
G01X9073319Y-661851D01*
G01X9067477Y-690553D01*
G01X9067477Y-719001D01*
G01X9073319Y-741861D01*
G01X9084749Y-753291D01*
G01X9101767Y-759133D01*
G01X9107609Y-759133D01*
G01X9124627Y-753291D01*
G01X9136057Y-741861D01*
G01X9141899Y-724843D01*
G01X9141899Y-719001D01*
G01X9136057Y-701983D01*
G01X9124627Y-690553D01*
G01X9107609Y-684711D01*
G01X9101767Y-684711D01*
G01X9084749Y-690553D01*
G01X9073319Y-701983D01*
G01X9067477Y-719001D01*
G01X9223941Y-638991D02*
G01X9206923Y-644833D01*
G01X9195493Y-661851D01*
G01X9189651Y-690553D01*
G01X9189651Y-707571D01*
G01X9195493Y-736273D01*
G01X9206923Y-753291D01*
G01X9223941Y-759133D01*
G01X9235371Y-759133D01*
G01X9252643Y-753291D01*
G01X9264073Y-736273D01*
G01X9269661Y-707571D01*
G01X9269661Y-690553D01*
G01X9264073Y-661851D01*
G01X9252643Y-644833D01*
G01X9235371Y-638991D01*
G01X9223941Y-638991D01*
G01X9351703Y-638991D02*
G01X9334685Y-644833D01*
G01X9323255Y-661851D01*
G01X9317413Y-690553D01*
G01X9317413Y-707571D01*
G01X9323255Y-736273D01*
G01X9334685Y-753291D01*
G01X9351703Y-759133D01*
G01X9363133Y-759133D01*
G01X9380405Y-753291D01*
G01X9391835Y-736273D01*
G01X9397423Y-707571D01*
G01X9397423Y-690553D01*
G01X9391835Y-661851D01*
G01X9380405Y-644833D01*
G01X9363133Y-638991D01*
G01X9351703Y-638991D01*
G01X9445175Y-679123D02*
G01X9508167Y-759133D01*
G01X9508167Y-679123D02*
G01X9445175Y-759133D01*
G01X9555919Y-661851D02*
G01X9567349Y-656263D01*
G01X9584621Y-638991D01*
G01X9584621Y-759133D01*
G01X9638215Y-730431D02*
G01X9632373Y-736273D01*
G01X9638215Y-741861D01*
G01X9643803Y-736273D01*
G01X9638215Y-730431D01*
G01X9760135Y-656263D02*
G01X9754547Y-644833D01*
G01X9737275Y-638991D01*
G01X9725845Y-638991D01*
G01X9708827Y-644833D01*
G01X9697397Y-661851D01*
G01X9691555Y-690553D01*
G01X9691555Y-719001D01*
G01X9697397Y-741861D01*
G01X9708827Y-753291D01*
G01X9725845Y-759133D01*
G01X9731687Y-759133D01*
G01X9748705Y-753291D01*
G01X9760135Y-741861D01*
G01X9765977Y-724843D01*
G01X9765977Y-719001D01*
G01X9760135Y-701983D01*
G01X9748705Y-690553D01*
G01X9731687Y-684711D01*
G01X9725845Y-684711D01*
G01X9708827Y-690553D01*
G01X9697397Y-701983D01*
G01X9691555Y-719001D01*
G01X9848019Y-638991D02*
G01X9831001Y-644833D01*
G01X9819571Y-661851D01*
G01X9813729Y-690553D01*
G01X9813729Y-707571D01*
G01X9819571Y-736273D01*
G01X9831001Y-753291D01*
G01X9848019Y-759133D01*
G01X9859449Y-759133D01*
G01X9876721Y-753291D01*
G01X9888151Y-736273D01*
G01X9893739Y-707571D01*
G01X9893739Y-690553D01*
G01X9888151Y-661851D01*
G01X9876721Y-644833D01*
G01X9859449Y-638991D01*
G01X9848019Y-638991D01*
G01X9975781Y-638991D02*
G01X9958763Y-644833D01*
G01X9947333Y-661851D01*
G01X9941491Y-690553D01*
G01X9941491Y-707571D01*
G01X9947333Y-736273D01*
G01X9958763Y-753291D01*
G01X9975781Y-759133D01*
G01X9987211Y-759133D01*
G01X10004483Y-753291D01*
G01X10015913Y-736273D01*
G01X10021501Y-707571D01*
G01X10021501Y-690553D01*
G01X10015913Y-661851D01*
G01X10004483Y-644833D01*
G01X9987211Y-638991D01*
G01X9975781Y-638991D01*
G01X10069253Y-679123D02*
G01X10069253Y-759133D01*
G01X10069253Y-701983D02*
G01X10086525Y-684711D01*
G01X10097955Y-679123D01*
G01X10114973Y-679123D01*
G01X10126403Y-684711D01*
G01X10132245Y-701983D01*
G01X10132245Y-759133D01*
G01X10132245Y-701983D02*
G01X10149263Y-684711D01*
G01X10160693Y-679123D01*
G01X10177965Y-679123D01*
G01X10189395Y-684711D01*
G01X10194983Y-701983D01*
G01X10194983Y-759133D01*
G01X10242735Y-679123D02*
G01X10242735Y-759133D01*
G01X10242735Y-701983D02*
G01X10260007Y-684711D01*
G01X10271437Y-679123D01*
G01X10288455Y-679123D01*
G01X10299885Y-684711D01*
G01X10305727Y-701983D01*
G01X10305727Y-759133D01*
G01X10305727Y-701983D02*
G01X10322745Y-684711D01*
G01X10334175Y-679123D01*
G01X10351447Y-679123D01*
G01X10362877Y-684711D01*
G01X10368465Y-701983D01*
G01X10368465Y-759133D01*
G01X10416217Y-616131D02*
G01X10427647Y-627561D01*
G01X10439077Y-644833D01*
G01X10450507Y-667693D01*
G01X10456349Y-696141D01*
G01X10456349Y-719001D01*
G01X10450507Y-747703D01*
G01X10439077Y-770563D01*
G01X10427647Y-787581D01*
G01X10416217Y-799011D01*
G01X11473003Y-638991D02*
G01X11473003Y-759133D01*
G01X11473003Y-638991D02*
G01X11524565Y-638991D01*
G01X11541583Y-644833D01*
G01X11547425Y-650421D01*
G01X11553013Y-661851D01*
G01X11553013Y-679123D01*
G01X11547425Y-690553D01*
G01X11541583Y-696141D01*
G01X11524565Y-701983D01*
G01X11473003Y-701983D01*
G01X11640897Y-638991D02*
G01X11640897Y-759133D01*
G01X11600765Y-638991D02*
G01X11680775Y-638991D01*
G01X11728527Y-638991D02*
G01X11728527Y-759133D01*
G01X11808537Y-638991D02*
G01X11808537Y-759133D01*
G01X11728527Y-696141D02*
G01X11808537Y-696141D01*
G01X12934410Y-638991D02*
G01X12934410Y-759133D01*
G01X12934410Y-638991D02*
G01X12985972Y-638991D01*
G01X13002990Y-644833D01*
G01X13008832Y-650421D01*
G01X13014420Y-661851D01*
G01X13014420Y-673281D01*
G01X13008832Y-684711D01*
G01X13002990Y-690553D01*
G01X12985972Y-696141D01*
G01X12934410Y-696141D01*
G01X12974542Y-696141D02*
G01X13014420Y-759133D01*
G01X13090874Y-679123D02*
G01X13079444Y-684711D01*
G01X13068014Y-696141D01*
G01X13062172Y-713413D01*
G01X13062172Y-724843D01*
G01X13068014Y-741861D01*
G01X13079444Y-753291D01*
G01X13090874Y-759133D01*
G01X13107892Y-759133D01*
G01X13119322Y-753291D01*
G01X13130752Y-741861D01*
G01X13136594Y-724843D01*
G01X13136594Y-713413D01*
G01X13130752Y-696141D01*
G01X13119322Y-684711D01*
G01X13107892Y-679123D01*
G01X13090874Y-679123D01*
G01X13184346Y-679123D02*
G01X13184346Y-736273D01*
G01X13190188Y-753291D01*
G01X13201618Y-759133D01*
G01X13218636Y-759133D01*
G01X13230066Y-753291D01*
G01X13247338Y-736273D01*
G01X13247338Y-679123D02*
G01X13247338Y-759133D01*
G01X13295090Y-679123D02*
G01X13295090Y-759133D01*
G01X13295090Y-701983D02*
G01X13312362Y-684711D01*
G01X13323792Y-679123D01*
G01X13340810Y-679123D01*
G01X13352240Y-684711D01*
G01X13358082Y-701983D01*
G01X13358082Y-759133D01*
G01X13474414Y-638991D02*
G01X13474414Y-759133D01*
G01X13474414Y-696141D02*
G01X13462984Y-684711D01*
G01X13451554Y-679123D01*
G01X13434536Y-679123D01*
G01X13423106Y-684711D01*
G01X13411676Y-696141D01*
G01X13405834Y-713413D01*
G01X13405834Y-724843D01*
G01X13411676Y-741861D01*
G01X13423106Y-753291D01*
G01X13434536Y-759133D01*
G01X13451554Y-759133D01*
G01X13462984Y-753291D01*
G01X13474414Y-741861D01*
G01X14365591Y-638991D02*
G01X14365591Y-759133D01*
G01X14365591Y-638991D02*
G01X14417153Y-638991D01*
G01X14434171Y-644833D01*
G01X14440013Y-650421D01*
G01X14445601Y-661851D01*
G01X14445601Y-679123D01*
G01X14440013Y-690553D01*
G01X14434171Y-696141D01*
G01X14417153Y-701983D01*
G01X14365591Y-701983D01*
G01X14561933Y-679123D02*
G01X14561933Y-759133D01*
G01X14561933Y-696141D02*
G01X14550503Y-684711D01*
G01X14539073Y-679123D01*
G01X14522055Y-679123D01*
G01X14510625Y-684711D01*
G01X14499195Y-696141D01*
G01X14493353Y-713413D01*
G01X14493353Y-724843D01*
G01X14499195Y-741861D01*
G01X14510625Y-753291D01*
G01X14522055Y-759133D01*
G01X14539073Y-759133D01*
G01X14550503Y-753291D01*
G01X14561933Y-741861D01*
G01X14678265Y-638991D02*
G01X14678265Y-759133D01*
G01X14678265Y-696141D02*
G01X14666835Y-684711D01*
G01X14655405Y-679123D01*
G01X14638387Y-679123D01*
G01X14626957Y-684711D01*
G01X14615527Y-696141D01*
G01X14609685Y-713413D01*
G01X14609685Y-724843D01*
G01X14615527Y-741861D01*
G01X14626957Y-753291D01*
G01X14638387Y-759133D01*
G01X14655405Y-759133D01*
G01X14666835Y-753291D01*
G01X14678265Y-741861D01*
G01X16034770Y-638991D02*
G01X16034770Y-759133D01*
G01X16034770Y-638991D02*
G01X16086332Y-638991D01*
G01X16103350Y-644833D01*
G01X16109192Y-650421D01*
G01X16114780Y-661851D01*
G01X16114780Y-673281D01*
G01X16109192Y-684711D01*
G01X16103350Y-690553D01*
G01X16086332Y-696141D01*
G01X16034770Y-696141D01*
G01X16074902Y-696141D02*
G01X16114780Y-759133D01*
G01X16191234Y-679123D02*
G01X16179804Y-684711D01*
G01X16168374Y-696141D01*
G01X16162532Y-713413D01*
G01X16162532Y-724843D01*
G01X16168374Y-741861D01*
G01X16179804Y-753291D01*
G01X16191234Y-759133D01*
G01X16208252Y-759133D01*
G01X16219682Y-753291D01*
G01X16231112Y-741861D01*
G01X16236954Y-724843D01*
G01X16236954Y-713413D01*
G01X16231112Y-696141D01*
G01X16219682Y-684711D01*
G01X16208252Y-679123D01*
G01X16191234Y-679123D01*
G01X16284706Y-679123D02*
G01X16284706Y-736273D01*
G01X16290548Y-753291D01*
G01X16301978Y-759133D01*
G01X16318996Y-759133D01*
G01X16330426Y-753291D01*
G01X16347698Y-736273D01*
G01X16347698Y-679123D02*
G01X16347698Y-759133D01*
G01X16395450Y-679123D02*
G01X16395450Y-759133D01*
G01X16395450Y-701983D02*
G01X16412722Y-684711D01*
G01X16424152Y-679123D01*
G01X16441170Y-679123D01*
G01X16452600Y-684711D01*
G01X16458442Y-701983D01*
G01X16458442Y-759133D01*
G01X16574774Y-638991D02*
G01X16574774Y-759133D01*
G01X16574774Y-696141D02*
G01X16563344Y-684711D01*
G01X16551914Y-679123D01*
G01X16534896Y-679123D01*
G01X16523466Y-684711D01*
G01X16512036Y-696141D01*
G01X16506194Y-713413D01*
G01X16506194Y-724843D01*
G01X16512036Y-741861D01*
G01X16523466Y-753291D01*
G01X16534896Y-759133D01*
G01X16551914Y-759133D01*
G01X16563344Y-753291D01*
G01X16574774Y-741861D01*
G01X17994271Y-638991D02*
G01X17994271Y-759133D01*
G01X17954139Y-638991D02*
G01X18034149Y-638991D01*
G01X18110603Y-679123D02*
G01X18099173Y-684711D01*
G01X18087743Y-696141D01*
G01X18081901Y-713413D01*
G01X18081901Y-724843D01*
G01X18087743Y-741861D01*
G01X18099173Y-753291D01*
G01X18110603Y-759133D01*
G01X18127621Y-759133D01*
G01X18139051Y-753291D01*
G01X18150481Y-741861D01*
G01X18156323Y-724843D01*
G01X18156323Y-713413D01*
G01X18150481Y-696141D01*
G01X18139051Y-684711D01*
G01X18127621Y-679123D01*
G01X18110603Y-679123D01*
G01X18204075Y-679123D02*
G01X18204075Y-799011D01*
G01X18204075Y-696141D02*
G01X18215505Y-684711D01*
G01X18226935Y-679123D01*
G01X18244207Y-679123D01*
G01X18255637Y-684711D01*
G01X18267067Y-696141D01*
G01X18272655Y-713413D01*
G01X18272655Y-724843D01*
G01X18267067Y-741861D01*
G01X18255637Y-753291D01*
G01X18244207Y-759133D01*
G01X18226935Y-759133D01*
G01X18215505Y-753291D01*
G01X18204075Y-741861D01*
G01X18448423Y-638991D02*
G01X18448423Y-759133D01*
G01X18448423Y-759133D02*
G01X18517003Y-759133D01*
G01X18633335Y-679123D02*
G01X18633335Y-759133D01*
G01X18633335Y-696141D02*
G01X18621905Y-684711D01*
G01X18610475Y-679123D01*
G01X18593457Y-679123D01*
G01X18582027Y-684711D01*
G01X18570597Y-696141D01*
G01X18564755Y-713413D01*
G01X18564755Y-724843D01*
G01X18570597Y-741861D01*
G01X18582027Y-753291D01*
G01X18593457Y-759133D01*
G01X18610475Y-759133D01*
G01X18621905Y-753291D01*
G01X18633335Y-741861D01*
G01X18686929Y-679123D02*
G01X18721219Y-759133D01*
G01X18755509Y-679123D02*
G01X18721219Y-759133D01*
G01X18709789Y-781993D01*
G01X18698359Y-793423D01*
G01X18686929Y-799011D01*
G01X18681087Y-799011D01*
G01X18803261Y-713413D02*
G01X18871841Y-713413D01*
G01X18871841Y-701983D01*
G01X18866253Y-690553D01*
G01X18860411Y-684711D01*
G01X18848981Y-679123D01*
G01X18831963Y-679123D01*
G01X18820533Y-684711D01*
G01X18809103Y-696141D01*
G01X18803261Y-713413D01*
G01X18803261Y-724843D01*
G01X18809103Y-741861D01*
G01X18820533Y-753291D01*
G01X18831963Y-759133D01*
G01X18848981Y-759133D01*
G01X18860411Y-753291D01*
G01X18871841Y-741861D01*
G01X18919593Y-679123D02*
G01X18919593Y-759133D01*
G01X18919593Y-713413D02*
G01X18925435Y-696141D01*
G01X18936865Y-684711D01*
G01X18948295Y-679123D01*
G01X18965313Y-679123D01*
G01X19013065Y-707571D02*
G01X19115935Y-707571D01*
G01X19163687Y-638991D02*
G01X19163687Y-759133D01*
G01X19163687Y-638991D02*
G01X19215249Y-638991D01*
G01X19232267Y-644833D01*
G01X19238109Y-650421D01*
G01X19243697Y-661851D01*
G01X19243697Y-673281D01*
G01X19238109Y-684711D01*
G01X19232267Y-690553D01*
G01X19215249Y-696141D01*
G01X19163687Y-696141D02*
G01X19215249Y-696141D01*
G01X19232267Y-701983D01*
G01X19238109Y-707571D01*
G01X19243697Y-719001D01*
G01X19243697Y-736273D01*
G01X19238109Y-747703D01*
G01X19232267Y-753291D01*
G01X19215249Y-759133D01*
G01X19163687Y-759133D01*
G01X19320151Y-679123D02*
G01X19308721Y-684711D01*
G01X19297291Y-696141D01*
G01X19291449Y-713413D01*
G01X19291449Y-724843D01*
G01X19297291Y-741861D01*
G01X19308721Y-753291D01*
G01X19320151Y-759133D01*
G01X19337169Y-759133D01*
G01X19348599Y-753291D01*
G01X19360029Y-741861D01*
G01X19365871Y-724843D01*
G01X19365871Y-713413D01*
G01X19360029Y-696141D01*
G01X19348599Y-684711D01*
G01X19337169Y-679123D01*
G01X19320151Y-679123D01*
G01X19430895Y-638991D02*
G01X19430895Y-736273D01*
G01X19436483Y-753291D01*
G01X19447913Y-759133D01*
G01X19459343Y-759133D01*
G01X19413623Y-679123D02*
G01X19453755Y-679123D01*
G01X19524367Y-638991D02*
G01X19524367Y-736273D01*
G01X19529955Y-753291D01*
G01X19541385Y-759133D01*
G01X19552815Y-759133D01*
G01X19507095Y-679123D02*
G01X19547227Y-679123D01*
G01X19629269Y-679123D02*
G01X19617839Y-684711D01*
G01X19606409Y-696141D01*
G01X19600567Y-713413D01*
G01X19600567Y-724843D01*
G01X19606409Y-741861D01*
G01X19617839Y-753291D01*
G01X19629269Y-759133D01*
G01X19646287Y-759133D01*
G01X19657717Y-753291D01*
G01X19669147Y-741861D01*
G01X19674989Y-724843D01*
G01X19674989Y-713413D01*
G01X19669147Y-696141D01*
G01X19657717Y-684711D01*
G01X19646287Y-679123D01*
G01X19629269Y-679123D01*
G01X19722741Y-679123D02*
G01X19722741Y-759133D01*
G01X19722741Y-701983D02*
G01X19740013Y-684711D01*
G01X19751443Y-679123D01*
G01X19768461Y-679123D01*
G01X19779891Y-684711D01*
G01X19785733Y-701983D01*
G01X19785733Y-759133D01*
G01X19785733Y-701983D02*
G01X19802751Y-684711D01*
G01X19814181Y-679123D01*
G01X19831453Y-679123D01*
G01X19842883Y-684711D01*
G01X19848471Y-701983D01*
G01X19848471Y-759133D01*
G01X20024239Y-638991D02*
G01X20024239Y-759133D01*
G01X20024239Y-759133D02*
G01X20092819Y-759133D01*
G01X20209151Y-679123D02*
G01X20209151Y-759133D01*
G01X20209151Y-696141D02*
G01X20197721Y-684711D01*
G01X20186291Y-679123D01*
G01X20169273Y-679123D01*
G01X20157843Y-684711D01*
G01X20146413Y-696141D01*
G01X20140571Y-713413D01*
G01X20140571Y-724843D01*
G01X20146413Y-741861D01*
G01X20157843Y-753291D01*
G01X20169273Y-759133D01*
G01X20186291Y-759133D01*
G01X20197721Y-753291D01*
G01X20209151Y-741861D01*
G01X20262745Y-679123D02*
G01X20297035Y-759133D01*
G01X20331325Y-679123D02*
G01X20297035Y-759133D01*
G01X20285605Y-781993D01*
G01X20274175Y-793423D01*
G01X20262745Y-799011D01*
G01X20256903Y-799011D01*
G01X20379077Y-713413D02*
G01X20447657Y-713413D01*
G01X20447657Y-701983D01*
G01X20442069Y-690553D01*
G01X20436227Y-684711D01*
G01X20424797Y-679123D01*
G01X20407779Y-679123D01*
G01X20396349Y-684711D01*
G01X20384919Y-696141D01*
G01X20379077Y-713413D01*
G01X20379077Y-724843D01*
G01X20384919Y-741861D01*
G01X20396349Y-753291D01*
G01X20407779Y-759133D01*
G01X20424797Y-759133D01*
G01X20436227Y-753291D01*
G01X20447657Y-741861D01*
G01X20495409Y-679123D02*
G01X20495409Y-759133D01*
G01X20495409Y-713413D02*
G01X20501251Y-696141D01*
G01X20512681Y-684711D01*
G01X20524111Y-679123D01*
G01X20541129Y-679123D01*
G01X6164874Y-1242423D02*
G01X6176304Y-1236835D01*
G01X6193576Y-1219563D01*
G01X6193576Y-1339705D01*
G01X6315750Y-1259695D02*
G01X6309908Y-1276713D01*
G01X6298478Y-1288143D01*
G01X6281460Y-1293985D01*
G01X6275618Y-1293985D01*
G01X6258600Y-1288143D01*
G01X6247170Y-1276713D01*
G01X6241328Y-1259695D01*
G01X6241328Y-1253853D01*
G01X6247170Y-1236835D01*
G01X6258600Y-1225405D01*
G01X6275618Y-1219563D01*
G01X6281460Y-1219563D01*
G01X6298478Y-1225405D01*
G01X6309908Y-1236835D01*
G01X6315750Y-1259695D01*
G01X6315750Y-1288143D01*
G01X6309908Y-1316845D01*
G01X6298478Y-1333863D01*
G01X6281460Y-1339705D01*
G01X6270030Y-1339705D01*
G01X6252758Y-1333863D01*
G01X6247170Y-1322433D01*
G01X7579037Y-1242423D02*
G01X7590467Y-1236835D01*
G01X7607739Y-1219563D01*
G01X7607739Y-1339705D01*
G01X7661333Y-1248265D02*
G01X7661333Y-1242423D01*
G01X7666921Y-1230993D01*
G01X7672763Y-1225405D01*
G01X7684193Y-1219563D01*
G01X7707053Y-1219563D01*
G01X7718483Y-1225405D01*
G01X7724071Y-1230993D01*
G01X7729913Y-1242423D01*
G01X7729913Y-1253853D01*
G01X7724071Y-1265283D01*
G01X7712641Y-1282555D01*
G01X7655491Y-1339705D01*
G01X7735501Y-1339705D01*
G01X7789095Y-1311003D02*
G01X7783253Y-1316845D01*
G01X7789095Y-1322433D01*
G01X7794683Y-1316845D01*
G01X7789095Y-1311003D01*
G01X7876725Y-1219563D02*
G01X7859707Y-1225405D01*
G01X7848277Y-1242423D01*
G01X7842435Y-1271125D01*
G01X7842435Y-1288143D01*
G01X7848277Y-1316845D01*
G01X7859707Y-1333863D01*
G01X7876725Y-1339705D01*
G01X7888155Y-1339705D01*
G01X7905427Y-1333863D01*
G01X7916857Y-1316845D01*
G01X7922445Y-1288143D01*
G01X7922445Y-1271125D01*
G01X7916857Y-1242423D01*
G01X7905427Y-1225405D01*
G01X7888155Y-1219563D01*
G01X7876725Y-1219563D01*
G01X7970197Y-1259695D02*
G01X7970197Y-1339705D01*
G01X7970197Y-1282555D02*
G01X7987469Y-1265283D01*
G01X7998899Y-1259695D01*
G01X8015917Y-1259695D01*
G01X8027347Y-1265283D01*
G01X8033189Y-1282555D01*
G01X8033189Y-1339705D01*
G01X8033189Y-1282555D02*
G01X8050207Y-1265283D01*
G01X8061637Y-1259695D01*
G01X8078909Y-1259695D01*
G01X8090339Y-1265283D01*
G01X8095927Y-1282555D01*
G01X8095927Y-1339705D01*
G01X8143679Y-1219563D02*
G01X8149521Y-1225405D01*
G01X8155109Y-1219563D01*
G01X8149521Y-1213975D01*
G01X8143679Y-1219563D01*
G01X8149521Y-1259695D02*
G01X8149521Y-1339705D01*
G01X8202861Y-1219563D02*
G01X8202861Y-1339705D01*
G01X8290745Y-1196703D02*
G01X8279315Y-1208133D01*
G01X8267885Y-1225405D01*
G01X8256455Y-1248265D01*
G01X8250613Y-1276713D01*
G01X8250613Y-1299573D01*
G01X8256455Y-1328275D01*
G01X8267885Y-1351135D01*
G01X8279315Y-1368153D01*
G01X8290745Y-1379583D01*
G01X8372787Y-1219563D02*
G01X8355769Y-1225405D01*
G01X8344339Y-1242423D01*
G01X8338497Y-1271125D01*
G01X8338497Y-1288143D01*
G01X8344339Y-1316845D01*
G01X8355769Y-1333863D01*
G01X8372787Y-1339705D01*
G01X8384217Y-1339705D01*
G01X8401489Y-1333863D01*
G01X8412919Y-1316845D01*
G01X8418507Y-1288143D01*
G01X8418507Y-1271125D01*
G01X8412919Y-1242423D01*
G01X8401489Y-1225405D01*
G01X8384217Y-1219563D01*
G01X8372787Y-1219563D01*
G01X8472101Y-1311003D02*
G01X8466259Y-1316845D01*
G01X8472101Y-1322433D01*
G01X8477689Y-1316845D01*
G01X8472101Y-1311003D01*
G01X8536871Y-1219563D02*
G01X8599863Y-1219563D01*
G01X8565573Y-1265283D01*
G01X8582591Y-1265283D01*
G01X8594021Y-1271125D01*
G01X8599863Y-1276713D01*
G01X8605451Y-1293985D01*
G01X8605451Y-1305415D01*
G01X8599863Y-1322433D01*
G01X8588433Y-1333863D01*
G01X8571161Y-1339705D01*
G01X8554143Y-1339705D01*
G01X8536871Y-1333863D01*
G01X8531283Y-1328275D01*
G01X8525441Y-1316845D01*
G01X8687493Y-1219563D02*
G01X8670475Y-1225405D01*
G01X8659045Y-1242423D01*
G01X8653203Y-1271125D01*
G01X8653203Y-1288143D01*
G01X8659045Y-1316845D01*
G01X8670475Y-1333863D01*
G01X8687493Y-1339705D01*
G01X8698923Y-1339705D01*
G01X8716195Y-1333863D01*
G01X8727625Y-1316845D01*
G01X8733213Y-1288143D01*
G01X8733213Y-1271125D01*
G01X8727625Y-1242423D01*
G01X8716195Y-1225405D01*
G01X8698923Y-1219563D01*
G01X8687493Y-1219563D01*
G01X8849545Y-1219563D02*
G01X8792395Y-1219563D01*
G01X8786807Y-1271125D01*
G01X8792395Y-1265283D01*
G01X8809667Y-1259695D01*
G01X8826685Y-1259695D01*
G01X8843957Y-1265283D01*
G01X8855387Y-1276713D01*
G01X8860975Y-1293985D01*
G01X8860975Y-1305415D01*
G01X8855387Y-1322433D01*
G01X8843957Y-1333863D01*
G01X8826685Y-1339705D01*
G01X8809667Y-1339705D01*
G01X8792395Y-1333863D01*
G01X8786807Y-1328275D01*
G01X8780965Y-1316845D01*
G01X8908727Y-1259695D02*
G01X8908727Y-1339705D01*
G01X8908727Y-1282555D02*
G01X8925999Y-1265283D01*
G01X8937429Y-1259695D01*
G01X8954447Y-1259695D01*
G01X8965877Y-1265283D01*
G01X8971719Y-1282555D01*
G01X8971719Y-1339705D01*
G01X8971719Y-1282555D02*
G01X8988737Y-1265283D01*
G01X9000167Y-1259695D01*
G01X9017439Y-1259695D01*
G01X9028869Y-1265283D01*
G01X9034457Y-1282555D01*
G01X9034457Y-1339705D01*
G01X9082209Y-1259695D02*
G01X9082209Y-1339705D01*
G01X9082209Y-1282555D02*
G01X9099481Y-1265283D01*
G01X9110911Y-1259695D01*
G01X9127929Y-1259695D01*
G01X9139359Y-1265283D01*
G01X9145201Y-1282555D01*
G01X9145201Y-1339705D01*
G01X9145201Y-1282555D02*
G01X9162219Y-1265283D01*
G01X9173649Y-1259695D01*
G01X9190921Y-1259695D01*
G01X9202351Y-1265283D01*
G01X9207939Y-1282555D01*
G01X9207939Y-1339705D01*
G01X9255691Y-1196703D02*
G01X9267121Y-1208133D01*
G01X9278551Y-1225405D01*
G01X9289981Y-1248265D01*
G01X9295823Y-1276713D01*
G01X9295823Y-1299573D01*
G01X9289981Y-1328275D01*
G01X9278551Y-1351135D01*
G01X9267121Y-1368153D01*
G01X9255691Y-1379583D01*
G01X11473003Y-1219563D02*
G01X11473003Y-1339705D01*
G01X11473003Y-1219563D02*
G01X11524565Y-1219563D01*
G01X11541583Y-1225405D01*
G01X11547425Y-1230993D01*
G01X11553013Y-1242423D01*
G01X11553013Y-1259695D01*
G01X11547425Y-1271125D01*
G01X11541583Y-1276713D01*
G01X11524565Y-1282555D01*
G01X11473003Y-1282555D01*
G01X11640897Y-1219563D02*
G01X11640897Y-1339705D01*
G01X11600765Y-1219563D02*
G01X11680775Y-1219563D01*
G01X11728527Y-1219563D02*
G01X11728527Y-1339705D01*
G01X11808537Y-1219563D02*
G01X11808537Y-1339705D01*
G01X11728527Y-1276713D02*
G01X11808537Y-1276713D01*
G01X12934410Y-1219563D02*
G01X12934410Y-1339705D01*
G01X12934410Y-1219563D02*
G01X12985972Y-1219563D01*
G01X13002990Y-1225405D01*
G01X13008832Y-1230993D01*
G01X13014420Y-1242423D01*
G01X13014420Y-1253853D01*
G01X13008832Y-1265283D01*
G01X13002990Y-1271125D01*
G01X12985972Y-1276713D01*
G01X12934410Y-1276713D01*
G01X12974542Y-1276713D02*
G01X13014420Y-1339705D01*
G01X13090874Y-1259695D02*
G01X13079444Y-1265283D01*
G01X13068014Y-1276713D01*
G01X13062172Y-1293985D01*
G01X13062172Y-1305415D01*
G01X13068014Y-1322433D01*
G01X13079444Y-1333863D01*
G01X13090874Y-1339705D01*
G01X13107892Y-1339705D01*
G01X13119322Y-1333863D01*
G01X13130752Y-1322433D01*
G01X13136594Y-1305415D01*
G01X13136594Y-1293985D01*
G01X13130752Y-1276713D01*
G01X13119322Y-1265283D01*
G01X13107892Y-1259695D01*
G01X13090874Y-1259695D01*
G01X13184346Y-1259695D02*
G01X13184346Y-1316845D01*
G01X13190188Y-1333863D01*
G01X13201618Y-1339705D01*
G01X13218636Y-1339705D01*
G01X13230066Y-1333863D01*
G01X13247338Y-1316845D01*
G01X13247338Y-1259695D02*
G01X13247338Y-1339705D01*
G01X13295090Y-1259695D02*
G01X13295090Y-1339705D01*
G01X13295090Y-1282555D02*
G01X13312362Y-1265283D01*
G01X13323792Y-1259695D01*
G01X13340810Y-1259695D01*
G01X13352240Y-1265283D01*
G01X13358082Y-1282555D01*
G01X13358082Y-1339705D01*
G01X13474414Y-1219563D02*
G01X13474414Y-1339705D01*
G01X13474414Y-1276713D02*
G01X13462984Y-1265283D01*
G01X13451554Y-1259695D01*
G01X13434536Y-1259695D01*
G01X13423106Y-1265283D01*
G01X13411676Y-1276713D01*
G01X13405834Y-1293985D01*
G01X13405834Y-1305415D01*
G01X13411676Y-1322433D01*
G01X13423106Y-1333863D01*
G01X13434536Y-1339705D01*
G01X13451554Y-1339705D01*
G01X13462984Y-1333863D01*
G01X13474414Y-1322433D01*
G01X14365591Y-1219563D02*
G01X14411311Y-1339705D01*
G01X14457031Y-1219563D02*
G01X14411311Y-1339705D01*
G01X14504783Y-1219563D02*
G01X14510625Y-1225405D01*
G01X14516213Y-1219563D01*
G01X14510625Y-1213975D01*
G01X14504783Y-1219563D01*
G01X14510625Y-1259695D02*
G01X14510625Y-1339705D01*
G01X14632545Y-1259695D02*
G01X14632545Y-1339705D01*
G01X14632545Y-1276713D02*
G01X14621115Y-1265283D01*
G01X14609685Y-1259695D01*
G01X14592667Y-1259695D01*
G01X14581237Y-1265283D01*
G01X14569807Y-1276713D01*
G01X14563965Y-1293985D01*
G01X14563965Y-1305415D01*
G01X14569807Y-1322433D01*
G01X14581237Y-1333863D01*
G01X14592667Y-1339705D01*
G01X14609685Y-1339705D01*
G01X14621115Y-1333863D01*
G01X14632545Y-1322433D01*
G01X17994271Y-1219563D02*
G01X17994271Y-1339705D01*
G01X17954139Y-1219563D02*
G01X18034149Y-1219563D01*
G01X18110603Y-1259695D02*
G01X18099173Y-1265283D01*
G01X18087743Y-1276713D01*
G01X18081901Y-1293985D01*
G01X18081901Y-1305415D01*
G01X18087743Y-1322433D01*
G01X18099173Y-1333863D01*
G01X18110603Y-1339705D01*
G01X18127621Y-1339705D01*
G01X18139051Y-1333863D01*
G01X18150481Y-1322433D01*
G01X18156323Y-1305415D01*
G01X18156323Y-1293985D01*
G01X18150481Y-1276713D01*
G01X18139051Y-1265283D01*
G01X18127621Y-1259695D01*
G01X18110603Y-1259695D01*
G01X18204075Y-1259695D02*
G01X18204075Y-1379583D01*
G01X18204075Y-1276713D02*
G01X18215505Y-1265283D01*
G01X18226935Y-1259695D01*
G01X18244207Y-1259695D01*
G01X18255637Y-1265283D01*
G01X18267067Y-1276713D01*
G01X18272655Y-1293985D01*
G01X18272655Y-1305415D01*
G01X18267067Y-1322433D01*
G01X18255637Y-1333863D01*
G01X18244207Y-1339705D01*
G01X18226935Y-1339705D01*
G01X18215505Y-1333863D01*
G01X18204075Y-1322433D01*
G01X18448423Y-1219563D02*
G01X18448423Y-1339705D01*
G01X18448423Y-1339705D02*
G01X18517003Y-1339705D01*
G01X18633335Y-1259695D02*
G01X18633335Y-1339705D01*
G01X18633335Y-1276713D02*
G01X18621905Y-1265283D01*
G01X18610475Y-1259695D01*
G01X18593457Y-1259695D01*
G01X18582027Y-1265283D01*
G01X18570597Y-1276713D01*
G01X18564755Y-1293985D01*
G01X18564755Y-1305415D01*
G01X18570597Y-1322433D01*
G01X18582027Y-1333863D01*
G01X18593457Y-1339705D01*
G01X18610475Y-1339705D01*
G01X18621905Y-1333863D01*
G01X18633335Y-1322433D01*
G01X18686929Y-1259695D02*
G01X18721219Y-1339705D01*
G01X18755509Y-1259695D02*
G01X18721219Y-1339705D01*
G01X18709789Y-1362565D01*
G01X18698359Y-1373995D01*
G01X18686929Y-1379583D01*
G01X18681087Y-1379583D01*
G01X18803261Y-1293985D02*
G01X18871841Y-1293985D01*
G01X18871841Y-1282555D01*
G01X18866253Y-1271125D01*
G01X18860411Y-1265283D01*
G01X18848981Y-1259695D01*
G01X18831963Y-1259695D01*
G01X18820533Y-1265283D01*
G01X18809103Y-1276713D01*
G01X18803261Y-1293985D01*
G01X18803261Y-1305415D01*
G01X18809103Y-1322433D01*
G01X18820533Y-1333863D01*
G01X18831963Y-1339705D01*
G01X18848981Y-1339705D01*
G01X18860411Y-1333863D01*
G01X18871841Y-1322433D01*
G01X18919593Y-1259695D02*
G01X18919593Y-1339705D01*
G01X18919593Y-1293985D02*
G01X18925435Y-1276713D01*
G01X18936865Y-1265283D01*
G01X18948295Y-1259695D01*
G01X18965313Y-1259695D01*
G01X19013065Y-1288143D02*
G01X19115935Y-1288143D01*
G01X19163687Y-1219563D02*
G01X19163687Y-1339705D01*
G01X19163687Y-1219563D02*
G01X19215249Y-1219563D01*
G01X19232267Y-1225405D01*
G01X19238109Y-1230993D01*
G01X19243697Y-1242423D01*
G01X19243697Y-1253853D01*
G01X19238109Y-1265283D01*
G01X19232267Y-1271125D01*
G01X19215249Y-1276713D01*
G01X19163687Y-1276713D02*
G01X19215249Y-1276713D01*
G01X19232267Y-1282555D01*
G01X19238109Y-1288143D01*
G01X19243697Y-1299573D01*
G01X19243697Y-1316845D01*
G01X19238109Y-1328275D01*
G01X19232267Y-1333863D01*
G01X19215249Y-1339705D01*
G01X19163687Y-1339705D01*
G01X19320151Y-1259695D02*
G01X19308721Y-1265283D01*
G01X19297291Y-1276713D01*
G01X19291449Y-1293985D01*
G01X19291449Y-1305415D01*
G01X19297291Y-1322433D01*
G01X19308721Y-1333863D01*
G01X19320151Y-1339705D01*
G01X19337169Y-1339705D01*
G01X19348599Y-1333863D01*
G01X19360029Y-1322433D01*
G01X19365871Y-1305415D01*
G01X19365871Y-1293985D01*
G01X19360029Y-1276713D01*
G01X19348599Y-1265283D01*
G01X19337169Y-1259695D01*
G01X19320151Y-1259695D01*
G01X19430895Y-1219563D02*
G01X19430895Y-1316845D01*
G01X19436483Y-1333863D01*
G01X19447913Y-1339705D01*
G01X19459343Y-1339705D01*
G01X19413623Y-1259695D02*
G01X19453755Y-1259695D01*
G01X19524367Y-1219563D02*
G01X19524367Y-1316845D01*
G01X19529955Y-1333863D01*
G01X19541385Y-1339705D01*
G01X19552815Y-1339705D01*
G01X19507095Y-1259695D02*
G01X19547227Y-1259695D01*
G01X19629269Y-1259695D02*
G01X19617839Y-1265283D01*
G01X19606409Y-1276713D01*
G01X19600567Y-1293985D01*
G01X19600567Y-1305415D01*
G01X19606409Y-1322433D01*
G01X19617839Y-1333863D01*
G01X19629269Y-1339705D01*
G01X19646287Y-1339705D01*
G01X19657717Y-1333863D01*
G01X19669147Y-1322433D01*
G01X19674989Y-1305415D01*
G01X19674989Y-1293985D01*
G01X19669147Y-1276713D01*
G01X19657717Y-1265283D01*
G01X19646287Y-1259695D01*
G01X19629269Y-1259695D01*
G01X19722741Y-1259695D02*
G01X19722741Y-1339705D01*
G01X19722741Y-1282555D02*
G01X19740013Y-1265283D01*
G01X19751443Y-1259695D01*
G01X19768461Y-1259695D01*
G01X19779891Y-1265283D01*
G01X19785733Y-1282555D01*
G01X19785733Y-1339705D01*
G01X19785733Y-1282555D02*
G01X19802751Y-1265283D01*
G01X19814181Y-1259695D01*
G01X19831453Y-1259695D01*
G01X19842883Y-1265283D01*
G01X19848471Y-1282555D01*
G01X19848471Y-1339705D01*
G01X20024239Y-1219563D02*
G01X20024239Y-1339705D01*
G01X20024239Y-1339705D02*
G01X20092819Y-1339705D01*
G01X20209151Y-1259695D02*
G01X20209151Y-1339705D01*
G01X20209151Y-1276713D02*
G01X20197721Y-1265283D01*
G01X20186291Y-1259695D01*
G01X20169273Y-1259695D01*
G01X20157843Y-1265283D01*
G01X20146413Y-1276713D01*
G01X20140571Y-1293985D01*
G01X20140571Y-1305415D01*
G01X20146413Y-1322433D01*
G01X20157843Y-1333863D01*
G01X20169273Y-1339705D01*
G01X20186291Y-1339705D01*
G01X20197721Y-1333863D01*
G01X20209151Y-1322433D01*
G01X20262745Y-1259695D02*
G01X20297035Y-1339705D01*
G01X20331325Y-1259695D02*
G01X20297035Y-1339705D01*
G01X20285605Y-1362565D01*
G01X20274175Y-1373995D01*
G01X20262745Y-1379583D01*
G01X20256903Y-1379583D01*
G01X20379077Y-1293985D02*
G01X20447657Y-1293985D01*
G01X20447657Y-1282555D01*
G01X20442069Y-1271125D01*
G01X20436227Y-1265283D01*
G01X20424797Y-1259695D01*
G01X20407779Y-1259695D01*
G01X20396349Y-1265283D01*
G01X20384919Y-1276713D01*
G01X20379077Y-1293985D01*
G01X20379077Y-1305415D01*
G01X20384919Y-1322433D01*
G01X20396349Y-1333863D01*
G01X20407779Y-1339705D01*
G01X20424797Y-1339705D01*
G01X20436227Y-1333863D01*
G01X20447657Y-1322433D01*
G01X20495409Y-1259695D02*
G01X20495409Y-1339705D01*
G01X20495409Y-1293985D02*
G01X20501251Y-1276713D01*
G01X20512681Y-1265283D01*
G01X20524111Y-1259695D01*
G01X20541129Y-1259695D01*

G04 Image Start*
G36*
G01X5000263Y-819604D02*
G01X4894649Y-808123D01*
G01X4851774Y-905329D01*
G01X4808899Y-808123D01*
G01X4703286Y-819604D01*
G01X4766049Y-733879D01*
G01X4726327Y-679624D01*
G01X4757820Y-679624D01*
G01X4797520Y-733879D01*
G01X4757820Y-788133D01*
G01X4824647Y-780869D01*
G01X4824647Y-780869D01*
G01X4851774Y-842362D01*
G01X4878901Y-780869D01*
G01X4945729Y-788133D01*
G01X4906029Y-733879D01*
G01X4945703Y-679650D01*
G01X4878876Y-686914D01*
G01X4851774Y-625395D01*
G01X4824647Y-686889D01*
G01X4757820Y-679624D01*
G01X4726327Y-679624D01*
G01X4703286Y-648154D01*
G01X4808924Y-659634D01*
G01X4851774Y-562429D01*
G01X4894649Y-659634D01*
G01X5000263Y-648154D01*
G01X4937499Y-733879D01*
G01X5000263Y-819604D01*
G37*
G36*
G01X4871269Y294701D02*
G01X4863529Y294113D01*
G01X4855686Y293914D01*
G01X4847843Y294113D01*
G01X4840102Y294701D01*
G01X4832475Y295670D01*
G01X4824970Y297010D01*
G01X4810364Y300765D01*
G01X4796362Y305890D01*
G01X4783040Y312307D01*
G01X4770474Y319940D01*
G01X4758742Y328713D01*
G01X4747920Y338548D01*
G01X4738084Y349371D01*
G01X4729311Y361103D01*
G01X4721678Y373668D01*
G01X4715261Y386990D01*
G01X4710137Y400992D01*
G01X4706382Y415598D01*
G01X4705042Y423104D01*
G01X4704072Y430731D01*
G01X4703484Y438471D01*
G01X4703286Y446314D01*
G01X4728686Y446314D01*
G01X4729343Y433348D01*
G01X4731270Y420752D01*
G01X4734405Y408590D01*
G01X4738682Y396928D01*
G01X4744037Y385828D01*
G01X4750405Y375357D01*
G01X4757723Y365577D01*
G01X4765925Y356554D01*
G01X4774949Y348351D01*
G01X4784728Y341034D01*
G01X4795200Y334665D01*
G01X4806299Y329310D01*
G01X4817962Y325034D01*
G01X4830123Y321899D01*
G01X4830123Y321899D01*
G01X4842719Y319971D01*
G01X4855686Y319314D01*
G01X4868652Y319971D01*
G01X4881248Y321899D01*
G01X4893410Y325034D01*
G01X4905072Y329310D01*
G01X4916172Y334665D01*
G01X4926643Y341034D01*
G01X4936423Y348351D01*
G01X4945446Y356554D01*
G01X4953649Y365577D01*
G01X4960966Y375357D01*
G01X4967335Y385828D01*
G01X4972690Y396928D01*
G01X4976966Y408590D01*
G01X4980101Y420752D01*
G01X4982029Y433348D01*
G01X4982686Y446314D01*
G01X4982029Y459281D01*
G01X4980101Y471877D01*
G01X4976966Y484038D01*
G01X4972690Y495701D01*
G01X4967335Y506800D01*
G01X4960966Y517272D01*
G01X4953649Y527051D01*
G01X4945446Y536075D01*
G01X4936423Y544277D01*
G01X4926643Y551595D01*
G01X4916172Y557963D01*
G01X4905072Y563318D01*
G01X4893410Y567595D01*
G01X4881248Y570729D01*
G01X4868652Y572657D01*
G01X4855686Y573314D01*
G01X4842719Y572657D01*
G01X4830123Y570729D01*
G01X4817962Y567595D01*
G01X4806299Y563318D01*
G01X4795200Y557963D01*
G01X4784728Y551595D01*
G01X4774949Y544277D01*
G01X4765925Y536075D01*
G01X4757723Y527051D01*
G01X4750405Y517272D01*
G01X4744037Y506800D01*
G01X4738682Y495701D01*
G01X4734405Y484038D01*
G01X4731270Y471877D01*
G01X4729343Y459281D01*
G01X4728686Y446314D01*
G01X4703286Y446314D01*
G01X4703484Y454157D01*
G01X4704072Y461898D01*
G01X4705042Y469525D01*
G01X4706382Y477030D01*
G01X4710137Y491636D01*
G01X4715261Y505638D01*
G01X4721678Y518960D01*
G01X4729311Y531526D01*
G01X4738084Y543258D01*
G01X4747920Y554080D01*
G01X4758742Y563916D01*
G01X4770474Y572689D01*
G01X4783040Y580322D01*
G01X4796362Y586739D01*
G01X4810364Y591863D01*
G01X4824970Y595618D01*
G01X4832475Y596958D01*
G01X4840102Y597928D01*
G01X4847843Y598516D01*
G01X4855686Y598714D01*
G01X4863529Y598516D01*
G01X4871269Y597928D01*
G01X4878896Y596958D01*
G01X4886402Y595618D01*
G01X4901008Y591863D01*
G01X4915010Y586739D01*
G01X4928332Y580322D01*
G01X4940897Y572689D01*
G01X4952629Y563916D01*
G01X4963452Y554080D01*
G01X4973287Y543258D01*
G01X4982060Y531526D01*
G01X4989693Y518960D01*
G01X4996110Y505638D01*
G01X5001235Y491636D01*
G01X5004990Y477030D01*
G01X5006330Y469525D01*
G01X5007299Y461898D01*
G01X5007887Y454157D01*
G01X5008086Y446314D01*
G01X5007887Y438471D01*
G01X5007299Y430731D01*
G01X5006330Y423104D01*
G01X5004990Y415598D01*
G01X5001235Y400992D01*
G01X4996110Y386990D01*
G01X4989693Y373668D01*
G01X4982060Y361103D01*
G01X4973287Y349371D01*
G01X4963452Y338548D01*
G01X4952629Y328713D01*
G01X4940897Y319940D01*
G01X4928332Y312307D01*
G01X4915010Y305890D01*
G01X4901008Y300765D01*
G01X4886402Y297010D01*
G01X4878896Y295670D01*
G01X4871269Y294701D01*
G37*
G36*
G01X5008086Y-1143000D02*
G01X4938058Y-1295400D01*
G01X5008086Y-1447800D01*
G01X4855686Y-1377772D01*
G01X4703286Y-1447800D01*
G01X4727048Y-1396086D01*
G01X4755000Y-1396086D01*
G01X4845069Y-1354684D01*
G01X4855686Y-1349807D01*
G01X4866303Y-1354684D01*
G01X4956371Y-1396086D01*
G01X4914969Y-1306017D01*
G01X4910093Y-1295400D01*
G01X4914969Y-1284783D01*
G01X4956371Y-1194714D01*
G01X4866303Y-1236116D01*
G01X4855686Y-1240993D01*
G01X4845069Y-1236116D01*
G01X4755000Y-1194714D01*
G01X4796402Y-1284783D01*
G01X4801279Y-1295400D01*
G01X4801279Y-1295400D01*
G01X4796402Y-1306017D01*
G01X4755000Y-1396086D01*
G01X4727048Y-1396086D01*
G01X4773314Y-1295400D01*
G01X4703286Y-1143000D01*
G01X4855686Y-1213028D01*
G01X5008086Y-1143000D01*
G37*
G36*
G01X4703286Y18143D02*
G01X5008086Y18143D01*
G01X4855686Y-245814D01*
G01X4717951Y-7257D01*
G01X4747279Y-7257D01*
G01X4855686Y-195014D01*
G01X4964093Y-7257D01*
G01X4964093Y-7257D01*
G01X4747279Y-7257D01*
G01X4717951Y-7257D01*
G01X4703286Y18143D01*
G37*
G36*
G01X4703286Y1179286D02*
G01X4982686Y1179286D01*
G01X4982686Y899886D01*
G01X4703286Y899886D01*
G01X4703286Y1153886D01*
G01X4728686Y1153886D01*
G01X4728686Y925286D01*
G01X4957286Y925286D01*
G01X4957286Y1153886D01*
G01X4957286Y1153886D01*
G01X4728686Y1153886D01*
G01X4703286Y1153886D01*
G01X4703286Y1179286D01*
G37*

G04 PolygonModel Start*
G54D16*
G01X4413000Y-1578429D02*
G01X21131861Y-1578429D01*
G01X4413000Y-997857D02*
G01X21131861Y-997857D01*
G01X4413000Y-417286D02*
G01X21131861Y-417286D01*
G01X4413000Y163286D02*
G01X21131861Y163286D01*
G01X4413000Y743857D02*
G01X21131861Y743857D01*
G01X4413000Y1324429D02*
G01X21131861Y1324429D01*
G01X4413000Y1905000D02*
G01X21131861Y1905000D01*
G01X4413000Y1905000D02*
G01X4413000Y-1553029D01*
G01X5864429Y1905000D02*
G01X5864429Y-1553029D01*
G01X7278592Y1905000D02*
G01X7278592Y-1553029D01*
G01X11172557Y1905000D02*
G01X11172557Y-1553029D01*
G01X12633964Y1905000D02*
G01X12633964Y-1553029D01*
G01X14065145Y1905000D02*
G01X14065145Y-1553029D01*
G01X15734324Y1905000D02*
G01X15734324Y-1553029D01*
G01X17653693Y1905000D02*
G01X17653693Y-1553029D01*
G01X21131861Y1905000D02*
G01X21131861Y-1553029D01*

M02*

