G04 Layer: TopSolderMaskLayer*
G04 EasyEDA Pro v3.2.186, 2026-09-24 20:26:46*
G04 Gerber Generator version 0.3*
G04 Scale: 100 percent, Rotated: No, Reflected: No*
G04 Dimensions in millimeters*
G04 Leading zeros omitted, absolute positions, 4 integers and 5 decimals*
G04 Generated by one-click*
G04 Object Configs: Pad,Via,Track,Text,Image,Dimension,BoardOutline,BoardCutout,CopperFilled,SolidRegion,FPCStiffener,Line,PlaneZone,ComponentProperty,ComponentSilkscreen,TearDrop*
G04 Layer Configs: 1,2,3,4,5,6,7,8,9,10,11,13,14,56*
G04 Copper Areas: 0*
%FSLAX45Y45*%
%MOMM*%
%AMRoundRect*1,1,$1,$2,$3*1,1,$1,$4,$5*1,1,$1,0-$2,0-$3*1,1,$1,0-$4,0-$5*20,1,$1,$2,$3,$4,$5,0*20,1,$1,$4,$5,0-$2,0-$3,0*20,1,$1,0-$2,0-$3,0-$4,0-$5,0*20,1,$1,0-$4,0-$5,$2,$3,0*4,1,4,$2,$3,$4,$5,0-$2,0-$3,0-$4,0-$5,$2,$3,0*%
%ADD10RoundRect,0.1016X-0.4X0.45X0.4X0.45*%
%ADD11C,1.7*%
%ADD12RoundRect,0.1X-0.7874X0.8X0.7874X0.8*%
%ADD13RoundRect,0.1016X-0.85X0.85X0.85X0.85*%
%ADD14C,1.8016*%
%ADD15C,2.1016*%
%ADD16C,2.3016*%
%ADD17RoundRect,0.1016X-0.56627X0.68851X0.56627X0.68851*%
%ADD18RoundRect,0.1069X-0.68851X-0.56627X-0.68851X0.56627*%
%ADD19RoundRect,0.1016X-0.68851X-0.56627X-0.68851X0.56627*%
%ADD20O,1.9016X0.68961*%
%ADD21C,2.6016*%
G75*


G04 Pad Start*
G54D10*
G01X-666598Y1671400D03*
G01X-806602Y1671400D03*
G01X-666598Y1460500D03*
G01X-806602Y1460500D03*
G01X666631Y1671435D03*
G01X806636Y1671435D03*
G01X666631Y1461500D03*
G01X806636Y1461500D03*
G01X-70002Y368300D03*
G01X70002Y368300D03*
G01X-70002Y-368300D03*
G01X70002Y-368300D03*
G54D11*
G01X-1231900Y1676400D03*
G01X-1485900Y1676400D03*
G54D12*
G01X-1739900Y1676400D03*
G54D11*
G01X1739900Y1663700D03*
G01X1485900Y1663700D03*
G54D12*
G01X1231900Y1663700D03*
G54D11*
G01X-1231900Y-1727200D03*
G01X-1485900Y-1727200D03*
G54D12*
G01X-1739900Y-1727200D03*
G54D11*
G01X1739900Y-1727200D03*
G01X1485900Y-1727200D03*
G54D12*
G01X1231900Y-1727200D03*
G54D13*
G01X-380991Y1671446D03*
G54D14*
G01X-126991Y1671446D03*
G01X127009Y1671446D03*
G01X381009Y1671446D03*
G54D15*
G01X-1999987Y699958D03*
G54D16*
G01X-2255003Y954974D03*
G01X-2255003Y444968D03*
G01X-1744997Y444968D03*
G01X-1744997Y954974D03*
G54D15*
G01X-1999987Y-700013D03*
G54D16*
G01X-2255003Y-444997D03*
G01X-2255003Y-955003D03*
G01X-1744997Y-955003D03*
G01X-1744997Y-444997D03*
G54D15*
G01X1999987Y700013D03*
G54D16*
G01X2255003Y444997D03*
G01X2255003Y955003D03*
G01X1744997Y955003D03*
G01X1744997Y444997D03*
G54D15*
G01X1999987Y-699987D03*
G54D16*
G01X2255003Y-955003D03*
G01X2255003Y-444997D03*
G01X1744997Y-444997D03*
G01X1744997Y-955003D03*
G54D17*
G01X-1271600Y700000D03*
G01X-1471600Y700000D03*
G01X-611200Y700000D03*
G01X-811200Y700000D03*
G01X-154000Y700000D03*
G01X-354000Y700000D03*
G01X354000Y700000D03*
G01X154000Y700000D03*
G54D19*
G01X-1028700Y455600D03*
G01X-1028700Y255600D03*
G01X0Y1100000D03*
G01X0Y1300000D03*
G54D17*
G01X-603300Y-965200D03*
G01X-803300Y-965200D03*
G54D19*
G01X-1028700Y-1208100D03*
G01X-1028700Y-1408100D03*
G01X-514350Y-1208100D03*
G01X-514350Y-1408100D03*
G54D17*
G01X-341300Y-700000D03*
G01X-141300Y-700000D03*
G01X354000Y-700000D03*
G01X154000Y-700000D03*
G01X-1271600Y-965200D03*
G01X-1471600Y-965200D03*
G01X912800Y-63500D03*
G01X712800Y-63500D03*
G54D19*
G01X1028700Y-738200D03*
G01X1028700Y-938200D03*
G54D17*
G01X1471600Y700000D03*
G01X1271600Y700000D03*
G01X1471600Y-700000D03*
G01X1271600Y-700000D03*
G54D19*
G01X-1028700Y1141400D03*
G01X-1028700Y941400D03*
G01X-1028700Y-522300D03*
G01X-1028700Y-722300D03*
G01X0Y-1208100D03*
G01X0Y-1408100D03*
G54D20*
G01X259994Y-190500D03*
G01X259994Y-63500D03*
G01X259994Y63500D03*
G01X259994Y190500D03*
G01X-259994Y-190500D03*
G01X-259994Y-63500D03*
G01X-259994Y63500D03*
G01X-259994Y190500D03*
G54D21*
G01X-2032000Y1524000D03*
G01X-2032003Y-1523985D03*
G01X2032000Y1524000D03*
G01X2032000Y-1524000D03*
G04 Pad End*

M02*

