G04 Layer: BottomLayer*
G04 EasyEDA Pro v3.2.186, 2026-09-24 20:26:46*
G04 Gerber Generator version 0.3*
G04 Scale: 100 percent, Rotated: No, Reflected: No*
G04 Dimensions in millimeters*
G04 Leading zeros omitted, absolute positions, 4 integers and 5 decimals*
G04 Generated by one-click*
G04 Object Configs: Pad,Via,Track,Text,Image,Dimension,BoardOutline,BoardCutout,CopperFilled,SolidRegion,FPCStiffener,Line,PlaneZone,ComponentProperty,ComponentSilkscreen,TearDrop*
G04 Layer Configs: 1,2,3,4,5,6,7,8,9,10,11,13,14,56*
G04 Copper Areas: 50*
%FSLAX45Y45*%
%MOMM*%
%ADD10C,0.2032*%
%ADD11C,0.254*%
%ADD12C,1.6*%
%ADD13R,1.5748X1.6*%
%ADD14R,1.7X1.7*%
%ADD15C,1.7*%
%ADD16C,2.0*%
%ADD17C,2.2029*%
%ADD18C,2.2*%
%ADD19C,2.5*%
%ADD20C,0.61*%
%ADD21C,0.762*%
%ADD22C,0.508*%
G75*


G04 Copper Start*
G36*
G01X1780540Y-1096419D02*
G01X1780540Y-1488440D01*
G01X1404649Y-1488440D01*
G01X391414Y-475205D01*
G01X391414Y220545D01*
G01X392279Y222116D01*
G01X393866Y224273D01*
G01X402092Y236802D01*
G01X407294Y250859D01*
G01X409207Y265724D01*
G01X407732Y280640D01*
G01X402946Y294843D01*
G01X395092Y307609D01*
G01X384572Y318285D01*
G01X371924Y326325D01*
G01X357792Y331320D01*
G01X342900Y333014D01*
G01X328008Y331320D01*
G01X313876Y326325D01*
G01X301228Y318285D01*
G01X290708Y307609D01*
G01X282854Y294843D01*
G01X278068Y280640D01*
G01X276593Y265724D01*
G01X278506Y250859D01*
G01X283708Y236802D01*
G01X291934Y224273D01*
G01X293521Y222116D01*
G01X294386Y220545D01*
G01X294386Y-495300D01*
G01X296039Y-507856D01*
G01X300886Y-519557D01*
G01X308595Y-529605D01*
G01X1267431Y-1488440D01*
G01X-1767840Y-1488440D01*
G01X-1767840Y-1099017D01*
G01X-1745027Y-1100817D01*
G01X-1722213Y-1099026D01*
G01X-1699961Y-1093688D01*
G01X-1678818Y-1084934D01*
G01X-1659304Y-1072980D01*
G01X-1641902Y-1058120D01*
G01X-1627038Y-1040720D01*
G01X-1615080Y-1021210D01*
G01X-1606321Y-1000068D01*
G01X-1600979Y-977817D01*
G01X-1599986Y-965200D01*
G01X-1095014Y-965200D01*
G01X-1093087Y-981070D01*
G01X-1087418Y-996018D01*
G01X-1078337Y-1009174D01*
G01X-1066371Y-1019775D01*
G01X-1052215Y-1027205D01*
G01X-1036693Y-1031031D01*
G01X-1020707Y-1031031D01*
G01X-1005185Y-1027205D01*
G01X-991029Y-1019775D01*
G01X-979063Y-1009174D01*
G01X-969982Y-996018D01*
G01X-964313Y-981070D01*
G01X-962386Y-965200D01*
G01X-964313Y-949330D01*
G01X-969982Y-934382D01*
G01X-979063Y-921226D01*
G01X-991029Y-910625D01*
G01X-1005185Y-903195D01*
G01X-1020707Y-899369D01*
G01X-1036693Y-899369D01*
G01X-1052215Y-903195D01*
G01X-1066371Y-910625D01*
G01X-1078337Y-921226D01*
G01X-1087418Y-934382D01*
G01X-1093087Y-949330D01*
G01X-1095014Y-965200D01*
G01X-1095014Y-965200D01*
G01X-1599986Y-965200D01*
G01X-1599183Y-955003D01*
G01X-1600979Y-932190D01*
G01X-1606321Y-909939D01*
G01X-1615080Y-888797D01*
G01X-1627038Y-869286D01*
G01X-1641902Y-851887D01*
G01X-1659304Y-837027D01*
G01X-1678818Y-825073D01*
G01X-1699961Y-816319D01*
G01X-1722213Y-810981D01*
G01X-1745027Y-809190D01*
G01X-1767840Y-810990D01*
G01X-1767840Y-589010D01*
G01X-1745027Y-590811D01*
G01X-1722213Y-589020D01*
G01X-1699961Y-583681D01*
G01X-1678818Y-574927D01*
G01X-1659304Y-562973D01*
G01X-1641902Y-548113D01*
G01X-1627038Y-530714D01*
G01X-1615080Y-511203D01*
G01X-1606321Y-490062D01*
G01X-1600979Y-467810D01*
G01X-1599183Y-444997D01*
G01X-1600979Y-422184D01*
G01X-1606321Y-399932D01*
G01X-1615080Y-378791D01*
G01X-1627038Y-359280D01*
G01X-1641902Y-341880D01*
G01X-1659304Y-327020D01*
G01X-1678818Y-315066D01*
G01X-1699961Y-306312D01*
G01X-1722213Y-300974D01*
G01X-1745027Y-299183D01*
G01X-1767840Y-300983D01*
G01X-1767840Y300955D01*
G01X-1745027Y299154D01*
G01X-1722213Y300945D01*
G01X-1699961Y306283D01*
G01X-1678818Y315037D01*
G01X-1659304Y326991D01*
G01X-1641902Y341851D01*
G01X-1627038Y359251D01*
G01X-1615080Y378762D01*
G01X-1606321Y399903D01*
G01X-1600979Y422155D01*
G01X-1599183Y444968D01*
G01X-1600979Y467781D01*
G01X-1606321Y490033D01*
G01X-1615080Y511174D01*
G01X-1627038Y530685D01*
G01X-1641902Y548084D01*
G01X-1659304Y562944D01*
G01X-1678818Y574899D01*
G01X-1699961Y583653D01*
G01X-1722213Y588991D01*
G01X-1745027Y590782D01*
G01X-1767840Y588981D01*
G01X-1767840Y700000D01*
G01X-1095014Y700000D01*
G01X-1093087Y684130D01*
G01X-1087418Y669182D01*
G01X-1078337Y656026D01*
G01X-1066371Y645425D01*
G01X-1052215Y637995D01*
G01X-1036693Y634170D01*
G01X-1020707Y634170D01*
G01X-1005185Y637995D01*
G01X-991029Y645425D01*
G01X-979063Y656026D01*
G01X-969982Y669182D01*
G01X-964313Y684130D01*
G01X-962386Y700000D01*
G01X-964313Y715870D01*
G01X-969982Y730818D01*
G01X-979063Y743974D01*
G01X-991029Y754576D01*
G01X-1005185Y762005D01*
G01X-1020707Y765831D01*
G01X-1036693Y765831D01*
G01X-1052215Y762005D01*
G01X-1066371Y754576D01*
G01X-1078337Y743974D01*
G01X-1087418Y730818D01*
G01X-1093087Y715870D01*
G01X-1095014Y700000D01*
G01X-1095014Y700000D01*
G01X-1767840Y700000D01*
G01X-1767840Y810961D01*
G01X-1745027Y809161D01*
G01X-1722213Y810952D01*
G01X-1699961Y816290D01*
G01X-1678818Y825044D01*
G01X-1659304Y836998D01*
G01X-1641902Y851858D01*
G01X-1627038Y869257D01*
G01X-1615080Y888768D01*
G01X-1606321Y909910D01*
G01X-1600979Y932161D01*
G01X-1599183Y954974D01*
G01X-1600979Y977788D01*
G01X-1606321Y1000039D01*
G01X-1615080Y1021181D01*
G01X-1627038Y1040691D01*
G01X-1641902Y1058091D01*
G01X-1659304Y1072951D01*
G01X-1678818Y1084905D01*
G01X-1699961Y1093659D01*
G01X-1722213Y1098997D01*
G01X-1745027Y1100788D01*
G01X-1767840Y1098988D01*
G01X-1767840Y1148601D01*
G01X-867622Y1148601D01*
G01X-867563Y1133677D01*
G01X-864168Y1119144D01*
G01X-857609Y1105738D01*
G01X-848218Y1094138D01*
G01X-836471Y1084933D01*
G01X-830720Y1081092D01*
G01X-823606Y1076071D01*
G01X-821216Y1074144D01*
G01X-818598Y1071728D01*
G01X-734314Y987444D01*
G01X-734314Y-434514D01*
G01X-732968Y-447281D01*
G01X-728989Y-459486D01*
G01X-762783Y-459486D01*
G01X-762783Y-459486D01*
G01X-766342Y-459343D01*
G01X-769395Y-459016D01*
G01X-777976Y-457536D01*
G01X-784759Y-456185D01*
G01X-799574Y-454388D01*
G01X-814417Y-455950D01*
G01X-828534Y-460791D01*
G01X-841211Y-468667D01*
G01X-851806Y-479178D01*
G01X-859782Y-491792D01*
G01X-864735Y-505871D01*
G01X-866414Y-520700D01*
G01X-864735Y-535529D01*
G01X-859782Y-549608D01*
G01X-851806Y-562222D01*
G01X-841211Y-572733D01*
G01X-828534Y-580609D01*
G01X-814417Y-585450D01*
G01X-799574Y-587012D01*
G01X-784759Y-585215D01*
G01X-777976Y-583864D01*
G01X-769395Y-582384D01*
G01X-766342Y-582057D01*
G01X-762783Y-581914D01*
G01X-76200Y-581914D01*
G01X-64258Y-580738D01*
G01X-52774Y-577254D01*
G01X-42191Y-571598D01*
G01X-32915Y-563985D01*
G01X3006Y-528064D01*
G01X10619Y-518788D01*
G01X16275Y-508205D01*
G01X19759Y-496721D01*
G01X20935Y-484779D01*
G01X20935Y61365D01*
G01X258198Y298628D01*
G01X260815Y301044D01*
G01X263206Y302971D01*
G01X270320Y307992D01*
G01X276071Y311833D01*
G01X287818Y321039D01*
G01X297209Y332638D01*
G01X303768Y346044D01*
G01X307163Y360577D01*
G01X307222Y375501D01*
G01X303942Y390060D01*
G01X297490Y403518D01*
G01X288191Y415191D01*
G01X276518Y424490D01*
G01X263060Y430942D01*
G01X248501Y434222D01*
G01X233577Y434163D01*
G01X219044Y430768D01*
G01X205638Y424209D01*
G01X194039Y414818D01*
G01X184833Y403071D01*
G01X180992Y397320D01*
G01X175971Y390206D01*
G01X174044Y387815D01*
G01X171628Y385198D01*
G01X-83564Y130006D01*
G01X-91177Y120730D01*
G01X-96833Y110147D01*
G01X-100317Y98663D01*
G01X-101493Y86721D01*
G01X-101556Y-459486D01*
G01X-519884Y-459486D01*
G01X-544603Y-449824D01*
G01X-568312Y-437897D01*
G01X-590806Y-423809D01*
G01X-611886Y-407684D01*
G01X-611886Y1012800D01*
G01X-613062Y1024742D01*
G01X-616546Y1036225D01*
G01X-622202Y1046808D01*
G01X-629815Y1056084D01*
G01X-732028Y1158298D01*
G01X-734444Y1160915D01*
G01X-736372Y1163306D01*
G01X-741392Y1170420D01*
G01X-745233Y1176171D01*
G01X-754439Y1187918D01*
G01X-766038Y1197308D01*
G01X-779444Y1203868D01*
G01X-793977Y1207263D01*
G01X-808901Y1207322D01*
G01X-823461Y1204042D01*
G01X-836918Y1197589D01*
G01X-848591Y1188291D01*
G01X-857890Y1176617D01*
G01X-864342Y1163160D01*
G01X-867622Y1148601D01*
G01X-1767840Y1148601D01*
G01X-1767840Y1310640D01*
G01X-454914Y1310640D01*
G01X-454914Y-203200D01*
G01X-453738Y-215142D01*
G01X-450254Y-226626D01*
G01X-444598Y-237209D01*
G01X-436985Y-246485D01*
G01X-298272Y-385198D01*
G01X-295856Y-387815D01*
G01X-293929Y-390206D01*
G01X-288908Y-397320D01*
G01X-285067Y-403071D01*
G01X-275861Y-414818D01*
G01X-264262Y-424209D01*
G01X-250856Y-430768D01*
G01X-236323Y-434163D01*
G01X-221399Y-434222D01*
G01X-206840Y-430942D01*
G01X-193382Y-424490D01*
G01X-181709Y-415191D01*
G01X-172410Y-403518D01*
G01X-165958Y-390060D01*
G01X-162678Y-375501D01*
G01X-162737Y-360577D01*
G01X-166132Y-346044D01*
G01X-172691Y-332638D01*
G01X-182082Y-321039D01*
G01X-193829Y-311833D01*
G01X-199580Y-307992D01*
G01X-206694Y-302971D01*
G01X-209085Y-301044D01*
G01X-211702Y-298628D01*
G01X-332486Y-177844D01*
G01X-332486Y1310640D01*
G01X319786Y1310640D01*
G01X319786Y1117556D01*
G01X32915Y830685D01*
G01X25302Y821409D01*
G01X19646Y810826D01*
G01X16162Y799342D01*
G01X14986Y787400D01*
G01X14986Y766792D01*
G01X206Y768508D01*
G01X-14584Y766884D01*
G01X-28640Y762005D01*
G01X-41254Y754114D01*
G01X-51791Y743609D01*
G01X-59721Y731020D01*
G01X-64645Y716979D01*
G01X-66314Y702194D01*
G01X-64645Y687409D01*
G01X-59721Y673368D01*
G01X-51791Y660779D01*
G01X-41254Y650274D01*
G01X-28640Y642383D01*
G01X-14584Y637503D01*
G01X206Y635880D01*
G01X14986Y637595D01*
G01X14986Y532617D01*
G01X14843Y529058D01*
G01X14516Y526005D01*
G01X13036Y517424D01*
G01X11685Y510641D01*
G01X9888Y495826D01*
G01X11450Y480983D01*
G01X16291Y466866D01*
G01X24167Y454189D01*
G01X34678Y443594D01*
G01X47292Y435618D01*
G01X61371Y430665D01*
G01X76200Y428986D01*
G01X91029Y430665D01*
G01X105108Y435618D01*
G01X117722Y443594D01*
G01X128233Y454189D01*
G01X136109Y466866D01*
G01X140950Y480983D01*
G01X142512Y495826D01*
G01X140715Y510641D01*
G01X139364Y517424D01*
G01X137884Y526005D01*
G01X137557Y529058D01*
G01X137414Y532617D01*
G01X137414Y762044D01*
G01X424285Y1048915D01*
G01X431898Y1058191D01*
G01X437554Y1068774D01*
G01X441038Y1080258D01*
G01X442214Y1092200D01*
G01X442214Y1310640D01*
G01X545890Y1310640D01*
G01X553615Y1302915D01*
G01X562891Y1295302D01*
G01X573474Y1289646D01*
G01X584958Y1286162D01*
G01X596900Y1284986D01*
G01X1422400Y1284986D01*
G01X1434342Y1286162D01*
G01X1445826Y1289646D01*
G01X1456409Y1295302D01*
G01X1465685Y1302915D01*
G01X1473410Y1310640D01*
G01X1780540Y1310640D01*
G01X1780540Y1096419D01*
G01X1756803Y1100338D01*
G01X1732744Y1100301D01*
G01X1709018Y1096309D01*
G01X1686273Y1088469D01*
G01X1665126Y1076996D01*
G01X1646153Y1062202D01*
G01X1629871Y1044490D01*
G01X1616724Y1024341D01*
G01X1607068Y1002304D01*
G01X1601168Y978980D01*
G01X1599183Y955003D01*
G01X1601168Y931027D01*
G01X1607068Y907702D01*
G01X1616724Y885666D01*
G01X1629871Y865517D01*
G01X1646153Y847805D01*
G01X1665126Y833011D01*
G01X1686273Y821538D01*
G01X1709018Y813698D01*
G01X1732744Y809705D01*
G01X1756803Y809668D01*
G01X1780540Y813588D01*
G01X1780540Y586412D01*
G01X1756803Y590332D01*
G01X1732744Y590295D01*
G01X1709018Y586302D01*
G01X1686273Y578463D01*
G01X1665126Y566990D01*
G01X1646153Y552195D01*
G01X1629871Y534483D01*
G01X1616724Y514334D01*
G01X1607068Y492298D01*
G01X1601168Y468974D01*
G01X1599183Y444997D01*
G01X1601168Y421020D01*
G01X1607068Y397696D01*
G01X1616724Y375659D01*
G01X1629871Y355511D01*
G01X1646153Y337798D01*
G01X1665126Y323004D01*
G01X1686273Y311531D01*
G01X1709018Y303691D01*
G01X1732744Y299699D01*
G01X1756803Y299662D01*
G01X1780540Y303581D01*
G01X1780540Y-303581D01*
G01X1756803Y-299662D01*
G01X1732744Y-299699D01*
G01X1709018Y-303691D01*
G01X1686273Y-311531D01*
G01X1665126Y-323004D01*
G01X1646153Y-337798D01*
G01X1629871Y-355511D01*
G01X1616724Y-375659D01*
G01X1607068Y-397696D01*
G01X1601168Y-421020D01*
G01X1599183Y-444997D01*
G01X1601168Y-468974D01*
G01X1607068Y-492298D01*
G01X1616724Y-514334D01*
G01X1629871Y-534483D01*
G01X1646153Y-552195D01*
G01X1665126Y-566990D01*
G01X1686273Y-578463D01*
G01X1709018Y-586302D01*
G01X1732744Y-590295D01*
G01X1756803Y-590332D01*
G01X1780540Y-586412D01*
G01X1780540Y-813588D01*
G01X1756803Y-809668D01*
G01X1732744Y-809705D01*
G01X1709018Y-813698D01*
G01X1686273Y-821538D01*
G01X1665126Y-833011D01*
G01X1646153Y-847805D01*
G01X1629871Y-865517D01*
G01X1616724Y-885666D01*
G01X1607068Y-907702D01*
G01X1601168Y-931027D01*
G01X1599183Y-955003D01*
G01X1601168Y-978980D01*
G01X1607068Y-1002304D01*
G01X1616724Y-1024341D01*
G01X1629871Y-1044490D01*
G01X1646153Y-1062202D01*
G01X1665126Y-1076996D01*
G01X1686273Y-1088469D01*
G01X1709018Y-1096309D01*
G01X1732744Y-1100301D01*
G01X1756803Y-1100338D01*
G01X1780540Y-1096419D01*
G37*
G36*
G01X1834970Y-1069749D02*
G01X1834970Y-1513840D01*
G01X1430049Y-1513840D01*
G01X391414Y-475205D01*
G01X391414Y220545D01*
G01X392279Y222116D01*
G01X393866Y224273D01*
G01X402092Y236802D01*
G01X407294Y250859D01*
G01X409207Y265724D01*
G01X407732Y280640D01*
G01X402946Y294843D01*
G01X395092Y307609D01*
G01X384572Y318285D01*
G01X371924Y326325D01*
G01X357792Y331320D01*
G01X342900Y333014D01*
G01X328008Y331320D01*
G01X313876Y326325D01*
G01X301228Y318285D01*
G01X290708Y307609D01*
G01X282854Y294843D01*
G01X278068Y280640D01*
G01X276593Y265724D01*
G01X278506Y250859D01*
G01X283708Y236802D01*
G01X291934Y224273D01*
G01X293521Y222116D01*
G01X294386Y220545D01*
G01X294386Y-495300D01*
G01X296039Y-507856D01*
G01X300886Y-519557D01*
G01X308595Y-529605D01*
G01X1292831Y-1513840D01*
G01X-1831340Y-1513840D01*
G01X-1831340Y-1072505D01*
G01X-1811846Y-1084591D01*
G01X-1790697Y-1093470D01*
G01X-1768418Y-1098924D01*
G01X-1745559Y-1100816D01*
G01X-1722687Y-1099100D01*
G01X-1700366Y-1093819D01*
G01X-1679150Y-1085103D01*
G01X-1659563Y-1073167D01*
G01X-1642090Y-1058308D01*
G01X-1627163Y-1040893D01*
G01X-1615152Y-1021352D01*
G01X-1606354Y-1000169D01*
G01X-1600987Y-977869D01*
G01X-1599987Y-965200D01*
G01X-1095014Y-965200D01*
G01X-1093087Y-981070D01*
G01X-1087418Y-996018D01*
G01X-1078337Y-1009174D01*
G01X-1066371Y-1019775D01*
G01X-1052215Y-1027205D01*
G01X-1036693Y-1031031D01*
G01X-1020707Y-1031031D01*
G01X-1005185Y-1027205D01*
G01X-991029Y-1019775D01*
G01X-979063Y-1009174D01*
G01X-969982Y-996018D01*
G01X-964313Y-981070D01*
G01X-962386Y-965200D01*
G01X-964313Y-949330D01*
G01X-969982Y-934382D01*
G01X-979063Y-921226D01*
G01X-991029Y-910625D01*
G01X-1005185Y-903195D01*
G01X-1020707Y-899369D01*
G01X-1036693Y-899369D01*
G01X-1052215Y-903195D01*
G01X-1066371Y-910625D01*
G01X-1078337Y-921226D01*
G01X-1087418Y-934382D01*
G01X-1093087Y-949330D01*
G01X-1095014Y-965200D01*
G01X-1095014Y-965200D01*
G01X-1599987Y-965200D01*
G01X-1599183Y-955003D01*
G01X-1600987Y-932138D01*
G01X-1606354Y-909837D01*
G01X-1615152Y-888655D01*
G01X-1627163Y-869114D01*
G01X-1642090Y-851699D01*
G01X-1659563Y-836839D01*
G01X-1679150Y-824904D01*
G01X-1700366Y-816188D01*
G01X-1722687Y-810907D01*
G01X-1745559Y-809191D01*
G01X-1768418Y-811083D01*
G01X-1790697Y-816536D01*
G01X-1811846Y-825416D01*
G01X-1831340Y-837502D01*
G01X-1831340Y-562498D01*
G01X-1811846Y-574584D01*
G01X-1790697Y-583464D01*
G01X-1768418Y-588917D01*
G01X-1745559Y-590810D01*
G01X-1722687Y-589094D01*
G01X-1700366Y-583812D01*
G01X-1679150Y-575096D01*
G01X-1659563Y-563161D01*
G01X-1642090Y-548301D01*
G01X-1627163Y-530886D01*
G01X-1615152Y-511345D01*
G01X-1606354Y-490163D01*
G01X-1600987Y-467863D01*
G01X-1599183Y-444997D01*
G01X-1600987Y-422131D01*
G01X-1606354Y-399831D01*
G01X-1615152Y-378648D01*
G01X-1627163Y-359108D01*
G01X-1642090Y-341692D01*
G01X-1659563Y-326833D01*
G01X-1679150Y-314897D01*
G01X-1700366Y-306181D01*
G01X-1722687Y-300900D01*
G01X-1745559Y-299184D01*
G01X-1768418Y-301076D01*
G01X-1790697Y-306530D01*
G01X-1811846Y-315410D01*
G01X-1831340Y-327496D01*
G01X-1831340Y327467D01*
G01X-1811846Y315381D01*
G01X-1790697Y306501D01*
G01X-1768418Y301047D01*
G01X-1745559Y299155D01*
G01X-1722687Y300871D01*
G01X-1700366Y306152D01*
G01X-1679150Y314868D01*
G01X-1659563Y326804D01*
G01X-1642090Y341663D01*
G01X-1627163Y359079D01*
G01X-1615152Y378619D01*
G01X-1606354Y399802D01*
G01X-1600987Y422102D01*
G01X-1599183Y444968D01*
G01X-1600987Y467834D01*
G01X-1606354Y490134D01*
G01X-1615152Y511316D01*
G01X-1627163Y530857D01*
G01X-1642090Y548273D01*
G01X-1659563Y563132D01*
G01X-1679150Y575067D01*
G01X-1700366Y583783D01*
G01X-1722687Y589065D01*
G01X-1745559Y590781D01*
G01X-1768418Y588888D01*
G01X-1790697Y583435D01*
G01X-1811846Y574555D01*
G01X-1831340Y562469D01*
G01X-1831340Y700000D01*
G01X-1095014Y700000D01*
G01X-1093087Y684130D01*
G01X-1087418Y669182D01*
G01X-1078337Y656026D01*
G01X-1066371Y645425D01*
G01X-1052215Y637995D01*
G01X-1036693Y634170D01*
G01X-1020707Y634170D01*
G01X-1005185Y637995D01*
G01X-991029Y645425D01*
G01X-979063Y656026D01*
G01X-969982Y669182D01*
G01X-964313Y684130D01*
G01X-962386Y700000D01*
G01X-964313Y715870D01*
G01X-969982Y730818D01*
G01X-979063Y743974D01*
G01X-991029Y754576D01*
G01X-1005185Y762005D01*
G01X-1020707Y765831D01*
G01X-1036693Y765831D01*
G01X-1052215Y762005D01*
G01X-1066371Y754576D01*
G01X-1078337Y743974D01*
G01X-1087418Y730818D01*
G01X-1093087Y715870D01*
G01X-1095014Y700000D01*
G01X-1095014Y700000D01*
G01X-1831340Y700000D01*
G01X-1831340Y837473D01*
G01X-1811846Y825387D01*
G01X-1790697Y816507D01*
G01X-1768418Y811054D01*
G01X-1745559Y809162D01*
G01X-1722687Y810878D01*
G01X-1700366Y816159D01*
G01X-1679150Y824875D01*
G01X-1659563Y836811D01*
G01X-1642090Y851670D01*
G01X-1627163Y869085D01*
G01X-1615152Y888626D01*
G01X-1606354Y909809D01*
G01X-1600987Y932109D01*
G01X-1599183Y954974D01*
G01X-1600987Y977840D01*
G01X-1606354Y1000140D01*
G01X-1615152Y1021323D01*
G01X-1627163Y1040864D01*
G01X-1642090Y1058279D01*
G01X-1659563Y1073138D01*
G01X-1679150Y1085074D01*
G01X-1700366Y1093790D01*
G01X-1722687Y1099071D01*
G01X-1745559Y1100787D01*
G01X-1768418Y1098895D01*
G01X-1790697Y1093441D01*
G01X-1811846Y1084562D01*
G01X-1831340Y1072476D01*
G01X-1831340Y1148601D01*
G01X-867622Y1148601D01*
G01X-867563Y1133677D01*
G01X-864168Y1119144D01*
G01X-857609Y1105738D01*
G01X-848218Y1094138D01*
G01X-836471Y1084933D01*
G01X-830720Y1081092D01*
G01X-823606Y1076071D01*
G01X-821216Y1074144D01*
G01X-818598Y1071728D01*
G01X-734314Y987444D01*
G01X-734314Y-434514D01*
G01X-732968Y-447281D01*
G01X-728989Y-459486D01*
G01X-762783Y-459486D01*
G01X-762783Y-459486D01*
G01X-766342Y-459343D01*
G01X-769395Y-459016D01*
G01X-777976Y-457536D01*
G01X-784759Y-456185D01*
G01X-799574Y-454388D01*
G01X-814417Y-455950D01*
G01X-828534Y-460791D01*
G01X-841211Y-468667D01*
G01X-851806Y-479178D01*
G01X-859782Y-491792D01*
G01X-864735Y-505871D01*
G01X-866414Y-520700D01*
G01X-864735Y-535529D01*
G01X-859782Y-549608D01*
G01X-851806Y-562222D01*
G01X-841211Y-572733D01*
G01X-828534Y-580609D01*
G01X-814417Y-585450D01*
G01X-799574Y-587012D01*
G01X-784759Y-585215D01*
G01X-777976Y-583864D01*
G01X-769395Y-582384D01*
G01X-766342Y-582057D01*
G01X-762783Y-581914D01*
G01X-76200Y-581914D01*
G01X-64258Y-580738D01*
G01X-52774Y-577254D01*
G01X-42191Y-571598D01*
G01X-32915Y-563985D01*
G01X3006Y-528064D01*
G01X10619Y-518788D01*
G01X16275Y-508205D01*
G01X19759Y-496721D01*
G01X20935Y-484779D01*
G01X20935Y61365D01*
G01X258198Y298628D01*
G01X260815Y301044D01*
G01X263206Y302971D01*
G01X270320Y307992D01*
G01X276071Y311833D01*
G01X287818Y321039D01*
G01X297209Y332638D01*
G01X303768Y346044D01*
G01X307163Y360577D01*
G01X307222Y375501D01*
G01X303942Y390060D01*
G01X297490Y403518D01*
G01X288191Y415191D01*
G01X276518Y424490D01*
G01X263060Y430942D01*
G01X248501Y434222D01*
G01X233577Y434163D01*
G01X219044Y430768D01*
G01X205638Y424209D01*
G01X194039Y414818D01*
G01X184833Y403071D01*
G01X180992Y397320D01*
G01X175971Y390206D01*
G01X174044Y387815D01*
G01X171628Y385198D01*
G01X-83564Y130006D01*
G01X-91177Y120730D01*
G01X-96833Y110147D01*
G01X-100317Y98663D01*
G01X-101493Y86721D01*
G01X-101556Y-459486D01*
G01X-519884Y-459486D01*
G01X-544603Y-449824D01*
G01X-568312Y-437897D01*
G01X-590806Y-423809D01*
G01X-611886Y-407684D01*
G01X-611886Y1012800D01*
G01X-613062Y1024742D01*
G01X-616546Y1036225D01*
G01X-622202Y1046808D01*
G01X-629815Y1056084D01*
G01X-732028Y1158298D01*
G01X-734444Y1160915D01*
G01X-736372Y1163306D01*
G01X-741392Y1170420D01*
G01X-745233Y1176171D01*
G01X-754439Y1187918D01*
G01X-766038Y1197308D01*
G01X-779444Y1203868D01*
G01X-793977Y1207263D01*
G01X-808901Y1207322D01*
G01X-823461Y1204042D01*
G01X-836918Y1197589D01*
G01X-848591Y1188291D01*
G01X-857890Y1176617D01*
G01X-864342Y1163160D01*
G01X-867622Y1148601D01*
G01X-1831340Y1148601D01*
G01X-1831340Y1374140D01*
G01X-454914Y1374140D01*
G01X-454914Y-203200D01*
G01X-453738Y-215142D01*
G01X-450254Y-226626D01*
G01X-444598Y-237209D01*
G01X-436985Y-246485D01*
G01X-298272Y-385198D01*
G01X-295856Y-387815D01*
G01X-293929Y-390206D01*
G01X-288908Y-397320D01*
G01X-285067Y-403071D01*
G01X-275861Y-414818D01*
G01X-264262Y-424209D01*
G01X-250856Y-430768D01*
G01X-236323Y-434163D01*
G01X-221399Y-434222D01*
G01X-206840Y-430942D01*
G01X-193382Y-424490D01*
G01X-181709Y-415191D01*
G01X-172410Y-403518D01*
G01X-165958Y-390060D01*
G01X-162678Y-375501D01*
G01X-162737Y-360577D01*
G01X-166132Y-346044D01*
G01X-172691Y-332638D01*
G01X-182082Y-321039D01*
G01X-193829Y-311833D01*
G01X-199580Y-307992D01*
G01X-206694Y-302971D01*
G01X-209085Y-301044D01*
G01X-211702Y-298628D01*
G01X-332486Y-177844D01*
G01X-332486Y1374140D01*
G01X319786Y1374140D01*
G01X319786Y1117556D01*
G01X32915Y830685D01*
G01X25302Y821409D01*
G01X19646Y810826D01*
G01X16162Y799342D01*
G01X14986Y787400D01*
G01X14986Y766792D01*
G01X206Y768508D01*
G01X-14584Y766884D01*
G01X-28640Y762005D01*
G01X-41254Y754114D01*
G01X-51791Y743609D01*
G01X-59721Y731020D01*
G01X-64645Y716979D01*
G01X-66314Y702194D01*
G01X-64645Y687409D01*
G01X-59721Y673368D01*
G01X-51791Y660779D01*
G01X-41254Y650274D01*
G01X-28640Y642383D01*
G01X-14584Y637503D01*
G01X206Y635880D01*
G01X14986Y637595D01*
G01X14986Y532617D01*
G01X14843Y529058D01*
G01X14516Y526005D01*
G01X13036Y517424D01*
G01X11685Y510641D01*
G01X9888Y495826D01*
G01X11450Y480983D01*
G01X16291Y466866D01*
G01X24167Y454189D01*
G01X34678Y443594D01*
G01X47292Y435618D01*
G01X61371Y430665D01*
G01X76200Y428986D01*
G01X91029Y430665D01*
G01X105108Y435618D01*
G01X117722Y443594D01*
G01X128233Y454189D01*
G01X136109Y466866D01*
G01X140950Y480983D01*
G01X142512Y495826D01*
G01X140715Y510641D01*
G01X139364Y517424D01*
G01X137884Y526005D01*
G01X137557Y529058D01*
G01X137414Y532617D01*
G01X137414Y762044D01*
G01X424285Y1048915D01*
G01X431898Y1058191D01*
G01X437554Y1068774D01*
G01X441038Y1080258D01*
G01X442214Y1092200D01*
G01X442214Y1374140D01*
G01X482026Y1374140D01*
G01X488839Y1367692D01*
G01X553615Y1302915D01*
G01X562891Y1295302D01*
G01X573474Y1289646D01*
G01X584958Y1286162D01*
G01X596900Y1284986D01*
G01X1422400Y1284986D01*
G01X1434342Y1286162D01*
G01X1445826Y1289646D01*
G01X1456409Y1295302D01*
G01X1465685Y1302915D01*
G01X1536910Y1374140D01*
G01X1834970Y1374140D01*
G01X1834970Y1069749D01*
G01X1815578Y1082596D01*
G01X1794390Y1092197D01*
G01X1771945Y1098305D01*
G01X1748814Y1100767D01*
G01X1725586Y1099520D01*
G01X1702853Y1094594D01*
G01X1681191Y1086116D01*
G01X1661153Y1074301D01*
G01X1643250Y1059450D01*
G01X1627935Y1041941D01*
G01X1615600Y1022220D01*
G01X1606557Y1000788D01*
G01X1601038Y978191D01*
G01X1599183Y955003D01*
G01X1601038Y931816D01*
G01X1606557Y909219D01*
G01X1615600Y887787D01*
G01X1627935Y868065D01*
G01X1643250Y850556D01*
G01X1661153Y835706D01*
G01X1681191Y823891D01*
G01X1702853Y815413D01*
G01X1725586Y810487D01*
G01X1748814Y809240D01*
G01X1771945Y811702D01*
G01X1794390Y817810D01*
G01X1815578Y827411D01*
G01X1834970Y840258D01*
G01X1834970Y559742D01*
G01X1815578Y572590D01*
G01X1794390Y582190D01*
G01X1771945Y588299D01*
G01X1748814Y590761D01*
G01X1725586Y589513D01*
G01X1702853Y584587D01*
G01X1681191Y576109D01*
G01X1661153Y564295D01*
G01X1643250Y549444D01*
G01X1627935Y531935D01*
G01X1615600Y512213D01*
G01X1606557Y490781D01*
G01X1601038Y468184D01*
G01X1599183Y444997D01*
G01X1601038Y421809D01*
G01X1606557Y399212D01*
G01X1615600Y377780D01*
G01X1627935Y358059D01*
G01X1643250Y340550D01*
G01X1661153Y325699D01*
G01X1681191Y313884D01*
G01X1702853Y305406D01*
G01X1725586Y300481D01*
G01X1748814Y299233D01*
G01X1771945Y301695D01*
G01X1794390Y307804D01*
G01X1815578Y317404D01*
G01X1834970Y330251D01*
G01X1834970Y-330251D01*
G01X1815578Y-317404D01*
G01X1794390Y-307804D01*
G01X1771945Y-301695D01*
G01X1748814Y-299233D01*
G01X1725586Y-300481D01*
G01X1702853Y-305406D01*
G01X1681191Y-313884D01*
G01X1661153Y-325699D01*
G01X1643250Y-340550D01*
G01X1627935Y-358059D01*
G01X1615600Y-377780D01*
G01X1606557Y-399212D01*
G01X1601038Y-421809D01*
G01X1599183Y-444997D01*
G01X1601038Y-468184D01*
G01X1606557Y-490781D01*
G01X1615600Y-512213D01*
G01X1627935Y-531935D01*
G01X1643250Y-549444D01*
G01X1661153Y-564295D01*
G01X1681191Y-576109D01*
G01X1702853Y-584587D01*
G01X1725586Y-589513D01*
G01X1748814Y-590761D01*
G01X1771945Y-588299D01*
G01X1794390Y-582190D01*
G01X1815578Y-572590D01*
G01X1834970Y-559742D01*
G01X1834970Y-840258D01*
G01X1815578Y-827411D01*
G01X1794390Y-817810D01*
G01X1771945Y-811702D01*
G01X1748814Y-809240D01*
G01X1725586Y-810487D01*
G01X1702853Y-815413D01*
G01X1681191Y-823891D01*
G01X1661153Y-835706D01*
G01X1643250Y-850556D01*
G01X1627935Y-868065D01*
G01X1615600Y-887787D01*
G01X1606557Y-909219D01*
G01X1601038Y-931816D01*
G01X1599183Y-955003D01*
G01X1601038Y-978191D01*
G01X1606557Y-1000788D01*
G01X1615600Y-1022220D01*
G01X1627935Y-1041941D01*
G01X1643250Y-1059450D01*
G01X1661153Y-1074301D01*
G01X1681191Y-1086116D01*
G01X1702853Y-1094594D01*
G01X1725586Y-1099520D01*
G01X1748814Y-1100767D01*
G01X1771945Y-1098305D01*
G01X1794390Y-1092197D01*
G01X1815578Y-1082596D01*
G01X1834970Y-1069749D01*
G37*
G54D10*
G01X1780540Y-1096419D02*
G01X1780540Y-1488440D01*
G01X1404649Y-1488440D01*
G01X391414Y-475205D01*
G01X391414Y220545D01*
G01X392279Y222116D01*
G01X393866Y224273D01*
G03X342900Y333014I-50966J42427D01*
G03X291934Y224273I0J-66314D01*
G01X293521Y222116D01*
G01X294386Y220545D01*
G01X294386Y-495300D01*
G03X308595Y-529605I48514J0D01*
G01X1267431Y-1488440D01*
G01X-1767840Y-1488440D01*
G01X-1767840Y-1099017D01*
G03X-1599183Y-955003I22843J144013D01*
G03X-1767840Y-810990I-145814J0D01*
G01X-1767840Y-589010D01*
G03X-1599183Y-444997I22843J144013D01*
G03X-1767840Y-300983I-145814J0D01*
G01X-1767840Y300955D01*
G03X-1599183Y444968I22843J144013D01*
G03X-1767840Y588981I-145814J0D01*
G01X-1767840Y810961D01*
G03X-1599183Y954974I22843J144013D01*
G03X-1767840Y1098988I-145814J0D01*
G01X-1767840Y1310640D01*
G01X-454914Y1310640D01*
G01X-454914Y-203200D01*
G03X-436985Y-246485I61214J0D01*
G01X-298272Y-385198D01*
G01X-295856Y-387815D01*
G01X-293929Y-390206D01*
G01X-288908Y-397320D01*
G01X-285067Y-403071D01*
G03X-181709Y-415191I56467J34771D01*
G03X-193829Y-311833I-46891J46891D01*
G01X-199580Y-307992D01*
G01X-206694Y-302971D01*
G01X-209085Y-301044D01*
G01X-211702Y-298628D01*
G01X-332486Y-177844D01*
G01X-332486Y1310640D01*
G01X319786Y1310640D01*
G01X319786Y1117556D01*
G01X32915Y830685D01*
G03X14986Y787400I43285J-43285D01*
G01X14986Y766792D01*
G03X-66314Y702194I-14986J-64599D01*
G03X14986Y637595I66314J0D01*
G01X14986Y532617D01*
G01X14843Y529058D01*
G01X14516Y526005D01*
G01X13036Y517424D01*
G01X11685Y510641D01*
G03X76200Y428986I64515J-15341D01*
G03X140715Y510641I0J66314D01*
G01X139364Y517424D01*
G01X137884Y526005D01*
G01X137557Y529058D01*
G01X137414Y532617D01*
G01X137414Y762044D01*
G01X424285Y1048915D01*
G03X442214Y1092200I-43285J43285D01*
G01X442214Y1310640D01*
G01X545890Y1310640D01*
G01X553615Y1302915D01*
G03X596900Y1284986I43285J43285D01*
G01X1422400Y1284986D01*
G03X1465685Y1302915I0J61214D01*
G01X1473410Y1310640D01*
G01X1780540Y1310640D01*
G01X1780540Y1096419D01*
G03X1599183Y955003I-35543J-141415D01*
G03X1780540Y813588I145814J0D01*
G01X1780540Y586412D01*
G03X1599183Y444997I-35543J-141415D01*
G03X1780540Y303581I145814J0D01*
G01X1780540Y-303581D01*
G03X1599183Y-444997I-35543J-141415D01*
G03X1780540Y-586412I145814J0D01*
G01X1780540Y-813588D01*
G03X1599183Y-955003I-35543J-141415D01*
G03X1780540Y-1096419I145814J0D01*
G01X-1095014Y-965200D02*
G03X-962386Y-965200I66314J0D01*
G03X-1095014Y-965200I-66314J0D01*
G01X-1095014Y700000D02*
G03X-962386Y700000I66314J0D01*
G03X-1095014Y700000I-66314J0D01*
G01X-762783Y-459486D02*
G01X-766342Y-459343D01*
G01X-769395Y-459016D01*
G01X-777976Y-457536D01*
G01X-784759Y-456185D01*
G03X-866414Y-520700I-15341J-64515D01*
G03X-784759Y-585215I66314J0D01*
G01X-777976Y-583864D01*
G01X-769395Y-582384D01*
G01X-766342Y-582057D01*
G01X-762783Y-581914D01*
G01X-76200Y-581914D01*
G03X-32915Y-563985I0J61214D01*
G01X3006Y-528064D01*
G03X20935Y-484779I-43285J43285D01*
G01X20935Y61365D01*
G01X258198Y298628D01*
G01X260815Y301044D01*
G01X263206Y302971D01*
G01X270320Y307992D01*
G01X276071Y311833D01*
G03X288191Y415191I-34771J56467D01*
G03X184833Y403071I-46891J-46891D01*
G01X180992Y397320D01*
G01X175971Y390206D01*
G01X174044Y387815D01*
G01X171628Y385198D01*
G01X-83564Y130006D01*
G03X-101493Y86721I43285J-43285D01*
G01X-101556Y-459486D01*
G01X-519884Y-459486D01*
G02X-611886Y-407684I90959J269148D01*
G01X-611886Y1012800D01*
G03X-629815Y1056084I-61214J0D01*
G01X-732028Y1158298D01*
G01X-734444Y1160915D01*
G01X-736372Y1163306D01*
G01X-741392Y1170420D01*
G01X-745233Y1176171D01*
G03X-848591Y1188291I-56467J-34771D01*
G03X-836471Y1084933I46891J-46891D01*
G01X-830720Y1081092D01*
G01X-823606Y1076071D01*
G01X-821216Y1074144D01*
G01X-818598Y1071728D01*
G01X-734314Y987444D01*
G01X-734314Y-434514D01*
G03X-728989Y-459486I61214J0D01*
G01X-762783Y-459486D01*
G01X1834970Y-1069749D02*
G01X1834970Y-1513840D01*
G01X1430049Y-1513840D01*
G01X391414Y-475205D01*
G01X391414Y220545D01*
G01X392279Y222116D01*
G01X393866Y224273D01*
G03X342900Y333014I-50966J42427D01*
G03X291934Y224273I0J-66314D01*
G01X293521Y222116D01*
G01X294386Y220545D01*
G01X294386Y-495300D01*
G03X308595Y-529605I48514J0D01*
G01X1292831Y-1513840D01*
G01X-1831340Y-1513840D01*
G01X-1831340Y-1072505D01*
G03X-1599183Y-955003I86343J117501D01*
G03X-1831340Y-837502I-145814J0D01*
G01X-1831340Y-562498D01*
G03X-1599183Y-444997I86343J117501D01*
G03X-1831340Y-327496I-145814J0D01*
G01X-1831340Y327467D01*
G03X-1599183Y444968I86343J117501D01*
G03X-1831340Y562469I-145814J0D01*
G01X-1831340Y837473D01*
G03X-1599183Y954974I86343J117501D01*
G03X-1831340Y1072476I-145814J0D01*
G01X-1831340Y1374140D01*
G01X-454914Y1374140D01*
G01X-454914Y-203200D01*
G03X-436985Y-246485I61214J0D01*
G01X-298272Y-385198D01*
G01X-295856Y-387815D01*
G01X-293929Y-390206D01*
G01X-288908Y-397320D01*
G01X-285067Y-403071D01*
G03X-181709Y-415191I56467J34771D01*
G03X-193829Y-311833I-46891J46891D01*
G01X-199580Y-307992D01*
G01X-206694Y-302971D01*
G01X-209085Y-301044D01*
G01X-211702Y-298628D01*
G01X-332486Y-177844D01*
G01X-332486Y1374140D01*
G01X319786Y1374140D01*
G01X319786Y1117556D01*
G01X32915Y830685D01*
G03X14986Y787400I43285J-43285D01*
G01X14986Y766792D01*
G03X-66314Y702194I-14986J-64599D01*
G03X14986Y637595I66314J0D01*
G01X14986Y532617D01*
G01X14843Y529058D01*
G01X14516Y526005D01*
G01X13036Y517424D01*
G01X11685Y510641D01*
G03X76200Y428986I64515J-15341D01*
G03X140715Y510641I0J66314D01*
G01X139364Y517424D01*
G01X137884Y526005D01*
G01X137557Y529058D01*
G01X137414Y532617D01*
G01X137414Y762044D01*
G01X424285Y1048915D01*
G03X442214Y1092200I-43285J43285D01*
G01X442214Y1374140D01*
G01X482026Y1374140D01*
G02X488839Y1367692I-114100J-127361D01*
G01X553615Y1302915D01*
G03X596900Y1284986I43285J43285D01*
G01X1422400Y1284986D01*
G03X1465685Y1302915I0J61214D01*
G01X1536910Y1374140D01*
G01X1834970Y1374140D01*
G01X1834970Y1069749D01*
G03X1599183Y955003I-89973J-114745D01*
G03X1834970Y840258I145814J0D01*
G01X1834970Y559742D01*
G03X1599183Y444997I-89973J-114745D01*
G03X1834970Y330251I145814J0D01*
G01X1834970Y-330251D01*
G03X1599183Y-444997I-89973J-114745D01*
G03X1834970Y-559742I145814J0D01*
G01X1834970Y-840258D01*
G03X1599183Y-955003I-89973J-114745D01*
G03X1834970Y-1069749I145814J0D01*
G01X-1095014Y-965200D02*
G03X-962386Y-965200I66314J0D01*
G03X-1095014Y-965200I-66314J0D01*
G01X-1095014Y700000D02*
G03X-962386Y700000I66314J0D01*
G03X-1095014Y700000I-66314J0D01*
G01X-762783Y-459486D02*
G01X-766342Y-459343D01*
G01X-769395Y-459016D01*
G01X-777976Y-457536D01*
G01X-784759Y-456185D01*
G03X-866414Y-520700I-15341J-64515D01*
G03X-784759Y-585215I66314J0D01*
G01X-777976Y-583864D01*
G01X-769395Y-582384D01*
G01X-766342Y-582057D01*
G01X-762783Y-581914D01*
G01X-76200Y-581914D01*
G03X-32915Y-563985I0J61214D01*
G01X3006Y-528064D01*
G03X20935Y-484779I-43285J43285D01*
G01X20935Y61365D01*
G01X258198Y298628D01*
G01X260815Y301044D01*
G01X263206Y302971D01*
G01X270320Y307992D01*
G01X276071Y311833D01*
G03X288191Y415191I-34771J56467D01*
G03X184833Y403071I-46891J-46891D01*
G01X180992Y397320D01*
G01X175971Y390206D01*
G01X174044Y387815D01*
G01X171628Y385198D01*
G01X-83564Y130006D01*
G03X-101493Y86721I43285J-43285D01*
G01X-101556Y-459486D01*
G01X-519884Y-459486D01*
G02X-611886Y-407684I90959J269148D01*
G01X-611886Y1012800D01*
G03X-629815Y1056084I-61214J0D01*
G01X-732028Y1158298D01*
G01X-734444Y1160915D01*
G01X-736372Y1163306D01*
G01X-741392Y1170420D01*
G01X-745233Y1176171D01*
G03X-848591Y1188291I-56467J-34771D01*
G03X-836471Y1084933I46891J-46891D01*
G01X-830720Y1081092D01*
G01X-823606Y1076071D01*
G01X-821216Y1074144D01*
G01X-818598Y1071728D01*
G01X-734314Y987444D01*
G01X-734314Y-434514D01*
G03X-728989Y-459486I61214J0D01*
G01X-762783Y-459486D01*
G54D11*
G01X-1744997Y-955003D02*
G01X-1609343Y-955003D01*
G01X-1744997Y-955003D02*
G01X-1744997Y-1090657D01*
G01X-1744997Y-955003D02*
G01X-1744997Y-819350D01*
G01X-1744997Y-444997D02*
G01X-1609343Y-444997D01*
G01X-1744997Y-444997D02*
G01X-1744997Y-580651D01*
G01X-1744997Y-444997D02*
G01X-1744997Y-309343D01*
G01X-1744997Y954974D02*
G01X-1609343Y954974D01*
G01X-1744997Y954974D02*
G01X-1744997Y819321D01*
G01X-1744997Y954974D02*
G01X-1744997Y1090628D01*
G01X-1744997Y444968D02*
G01X-1609343Y444968D01*
G01X-1744997Y444968D02*
G01X-1744997Y309314D01*
G01X-1744997Y444968D02*
G01X-1744997Y580622D01*
G01X1744997Y-955003D02*
G01X1609343Y-955003D01*
G01X1744997Y-955003D02*
G01X1744997Y-819350D01*
G01X1744997Y-955003D02*
G01X1744997Y-1090657D01*
G01X1744997Y-444997D02*
G01X1609343Y-444997D01*
G01X1744997Y-444997D02*
G01X1744997Y-309343D01*
G01X1744997Y-444997D02*
G01X1744997Y-580651D01*
G01X1744997Y444997D02*
G01X1609343Y444997D01*
G01X1744997Y444997D02*
G01X1744997Y580651D01*
G01X1744997Y444997D02*
G01X1744997Y309343D01*
G01X1744997Y955003D02*
G01X1609343Y955003D01*
G01X1744997Y955003D02*
G01X1744997Y1090657D01*
G01X1744997Y955003D02*
G01X1744997Y819350D01*
G01X-1744997Y-955003D02*
G01X-1609343Y-955003D01*
G01X-1744997Y-955003D02*
G01X-1744997Y-1090657D01*
G01X-1744997Y-955003D02*
G01X-1744997Y-819350D01*
G01X-1744997Y-444997D02*
G01X-1609343Y-444997D01*
G01X-1744997Y-444997D02*
G01X-1744997Y-580651D01*
G01X-1744997Y-444997D02*
G01X-1744997Y-309343D01*
G01X-1744997Y954974D02*
G01X-1609343Y954974D01*
G01X-1744997Y954974D02*
G01X-1744997Y819321D01*
G01X-1744997Y954974D02*
G01X-1744997Y1090628D01*
G01X-1744997Y444968D02*
G01X-1609343Y444968D01*
G01X-1744997Y444968D02*
G01X-1744997Y309314D01*
G01X-1744997Y444968D02*
G01X-1744997Y580622D01*
G01X1744997Y-955003D02*
G01X1609343Y-955003D01*
G01X1744997Y-955003D02*
G01X1744997Y-819350D01*
G01X1744997Y-955003D02*
G01X1744997Y-1090657D01*
G01X1744997Y-444997D02*
G01X1609343Y-444997D01*
G01X1744997Y-444997D02*
G01X1744997Y-309343D01*
G01X1744997Y-444997D02*
G01X1744997Y-580651D01*
G01X1744997Y444997D02*
G01X1609343Y444997D01*
G01X1744997Y444997D02*
G01X1744997Y580651D01*
G01X1744997Y444997D02*
G01X1744997Y309343D01*
G01X1744997Y955003D02*
G01X1609343Y955003D01*
G01X1744997Y955003D02*
G01X1744997Y1090657D01*
G01X1744997Y955003D02*
G01X1744997Y819350D01*
G04 Copper End*

G04 TearDrop Start*
G36*
G01X-1584619Y1625600D02*
G01X-1603669Y1701800D01*
G01X-1596659Y1702371D01*
G01X-1588995Y1703986D01*
G01X-1581006Y1706495D01*
G01X-1573020Y1709750D01*
G01X-1565366Y1713600D01*
G01X-1558370Y1717898D01*
G01X-1552362Y1722494D01*
G01X-1547669Y1727239D01*
G01X-1528619Y1608761D01*
G01X-1534251Y1611902D01*
G01X-1540930Y1614944D01*
G01X-1548328Y1617789D01*
G01X-1556117Y1620338D01*
G01X-1563969Y1622492D01*
G01X-1571555Y1624153D01*
G01X-1578548Y1625222D01*
G01X-1584619Y1625600D01*
G37*
G36*
G01X-1384300Y1701800D02*
G01X-1387181Y1625600D01*
G01X-1393252Y1625222D01*
G01X-1400245Y1624153D01*
G01X-1407831Y1622492D01*
G01X-1415683Y1620338D01*
G01X-1423472Y1617789D01*
G01X-1430870Y1614944D01*
G01X-1437549Y1611902D01*
G01X-1443181Y1608761D01*
G01X-1424131Y1727239D01*
G01X-1419801Y1722494D01*
G01X-1414820Y1717898D01*
G01X-1409419Y1713600D01*
G01X-1403832Y1709750D01*
G01X-1398294Y1706495D01*
G01X-1393037Y1703986D01*
G01X-1388294Y1702371D01*
G01X-1384300Y1701800D01*
G37*
G36*
G01X-1892300Y1625600D02*
G01X-1892300Y1701800D01*
G03X-1818640Y1756400I0J76987D01*
G01X-1818640Y1596400D01*
G03X-1892300Y1625600I-73660J-78308D01*
G37*
G36*
G01X-1546860Y1701800D02*
G01X-1546860Y1625600D01*
G03X-1661160Y1596400I0J-238308D01*
G01X-1661160Y1756400D01*
G03X-1546860Y1701800I114300J92339D01*
G37*
G36*
G01X1680846Y1568725D02*
G01X1644925Y1604646D01*
G01X1647210Y1608030D01*
G01X1649560Y1613486D01*
G01X1651886Y1620639D01*
G01X1654100Y1629112D01*
G01X1656113Y1638531D01*
G01X1657835Y1648521D01*
G01X1659180Y1658706D01*
G01X1660057Y1668710D01*
G01X1744910Y1583857D01*
G01X1734906Y1582980D01*
G01X1724721Y1581635D01*
G01X1714731Y1579913D01*
G01X1705312Y1577900D01*
G01X1696839Y1575686D01*
G01X1689686Y1573360D01*
G01X1684230Y1571010D01*
G01X1680846Y1568725D01*
G37*
G36*
G01X1126219Y1733460D02*
G01X1160880Y1770641D01*
G03X1241703Y1743700I80822J107763D01*
G01X1153160Y1652637D01*
G03X1126219Y1733460I-134704J0D01*
G37*
G36*
G01X1425292Y-1595652D02*
G01X1509927Y-1644367D01*
G01X1516010Y-1650142D01*
G01X1522246Y-1655592D01*
G01X1534382Y-1665538D01*
G01X1544743Y-1674244D01*
G01X1548761Y-1678145D01*
G01X1551737Y-1681753D01*
G01X1432580Y-1667560D01*
G01X1435536Y-1664467D01*
G01X1438013Y-1660941D01*
G01X1440016Y-1657035D01*
G01X1441549Y-1652802D01*
G01X1442618Y-1648294D01*
G01X1443229Y-1643565D01*
G01X1443386Y-1638666D01*
G01X1443096Y-1633651D01*
G01X1442363Y-1628571D01*
G01X1441193Y-1623481D01*
G01X1439592Y-1618432D01*
G01X1437563Y-1613477D01*
G01X1435114Y-1608669D01*
G01X1432248Y-1604060D01*
G01X1428973Y-1599704D01*
G01X1425292Y-1595652D01*
G37*
G36*
G01X-304972Y1783387D02*
G01X-269051Y1747466D01*
G03X-295991Y1666643I107763J-80822D01*
G01X-385794Y1756446D01*
G03X-304972Y1783387I0J134704D01*
G37*
G36*
G01X-88891Y1555724D02*
G01X-165091Y1555724D01*
G01X-165667Y1562050D01*
G01X-167295Y1569392D01*
G01X-169825Y1577399D01*
G01X-173107Y1585724D01*
G01X-176989Y1594017D01*
G01X-181323Y1601931D01*
G01X-185957Y1609116D01*
G01X-190741Y1615224D01*
G01X-63241Y1615224D01*
G01X-68026Y1609116D01*
G01X-72660Y1601931D01*
G01X-76993Y1594017D01*
G01X-80876Y1585724D01*
G01X-84157Y1577399D01*
G01X-86687Y1569392D01*
G01X-88315Y1562050D01*
G01X-88891Y1555724D01*
G37*
G36*
G01X235777Y1616559D02*
G01X181896Y1562677D01*
G01X177015Y1566744D01*
G01X170673Y1570783D01*
G01X163222Y1574656D01*
G01X155015Y1578222D01*
G01X146405Y1581341D01*
G01X137745Y1583873D01*
G01X129388Y1585677D01*
G01X121686Y1586613D01*
G01X211842Y1676769D01*
G01X212778Y1669067D01*
G01X214582Y1660709D01*
G01X217113Y1652049D01*
G01X220232Y1643440D01*
G01X223799Y1635233D01*
G01X227672Y1627782D01*
G01X231711Y1621440D01*
G01X235777Y1616559D01*
G37*
G36*
G01X406409Y1562091D02*
G01X355609Y1562091D01*
G01X354748Y1564867D01*
G01X352313Y1569371D01*
G01X343625Y1582313D01*
G01X331341Y1598428D01*
G01X317259Y1615224D01*
G01X444759Y1615224D01*
G01X430677Y1598428D01*
G01X418393Y1582313D01*
G01X409705Y1569371D01*
G01X407270Y1564867D01*
G01X406409Y1562091D01*
G37*
G36*
G01X-2248903Y784363D02*
G01X-2325103Y832363D01*
G01X-2325777Y835925D01*
G01X-2327681Y842121D01*
G01X-2334478Y860613D01*
G01X-2344086Y884231D01*
G01X-2355101Y909363D01*
G01X-2197238Y861363D01*
G01X-2202075Y858119D01*
G01X-2206874Y854403D01*
G01X-2216209Y845779D01*
G01X-2224937Y835943D01*
G01X-2232758Y825345D01*
G01X-2239367Y814437D01*
G01X-2244463Y803670D01*
G01X-2246349Y798480D01*
G01X-2247743Y793495D01*
G01X-2248607Y788771D01*
G01X-2248903Y784363D01*
G37*
G36*
G01X-2105246Y993074D02*
G01X-2105246Y916874D01*
G01X-2108030Y916620D01*
G01X-2111348Y915877D01*
G01X-2119359Y913059D01*
G01X-2128828Y908680D01*
G01X-2139304Y903000D01*
G01X-2150334Y896279D01*
G01X-2161469Y888778D01*
G01X-2172256Y880756D01*
G01X-2182245Y872475D01*
G01X-2182245Y1037474D01*
G01X-2172256Y1029193D01*
G01X-2161469Y1021171D01*
G01X-2150334Y1013670D01*
G01X-2139304Y1006949D01*
G01X-2128828Y1001269D01*
G01X-2119359Y996890D01*
G01X-2111348Y994072D01*
G01X-2108030Y993329D01*
G01X-2105246Y993074D01*
G37*
G36*
G01X-2325103Y567579D02*
G01X-2248903Y615579D01*
G01X-2248607Y611172D01*
G01X-2247743Y606447D01*
G01X-2246349Y601462D01*
G01X-2244463Y596272D01*
G01X-2239367Y585505D01*
G01X-2232758Y574597D01*
G01X-2224937Y564000D01*
G01X-2216209Y554163D01*
G01X-2206874Y545539D01*
G01X-2202075Y541823D01*
G01X-2197238Y538579D01*
G01X-2355101Y490579D01*
G01X-2344086Y515712D01*
G01X-2334478Y539329D01*
G01X-2327681Y557821D01*
G01X-2325777Y564017D01*
G01X-2325103Y567579D01*
G37*
G36*
G01X-2105246Y483068D02*
G01X-2105246Y406868D01*
G01X-2108030Y406613D01*
G01X-2111348Y405871D01*
G01X-2119359Y403052D01*
G01X-2128828Y398673D01*
G01X-2139304Y392993D01*
G01X-2150334Y386272D01*
G01X-2161469Y378771D01*
G01X-2172256Y370750D01*
G01X-2182245Y362468D01*
G01X-2182245Y527468D01*
G01X-2172256Y519186D01*
G01X-2161469Y511165D01*
G01X-2150334Y503663D01*
G01X-2139304Y496943D01*
G01X-2128828Y491263D01*
G01X-2119359Y486883D01*
G01X-2111348Y484065D01*
G01X-2108030Y483323D01*
G01X-2105246Y483068D01*
G37*
G36*
G01X-1894755Y406868D02*
G01X-1894755Y483068D01*
G01X-1891970Y483323D01*
G01X-1888652Y484065D01*
G01X-1880641Y486883D01*
G01X-1871172Y491263D01*
G01X-1860696Y496943D01*
G01X-1849666Y503663D01*
G01X-1838531Y511165D01*
G01X-1827744Y519186D01*
G01X-1817755Y527468D01*
G01X-1817755Y362468D01*
G01X-1827744Y370750D01*
G01X-1838531Y378771D01*
G01X-1849666Y386272D01*
G01X-1860696Y392993D01*
G01X-1871172Y398673D01*
G01X-1880641Y403052D01*
G01X-1888652Y405871D01*
G01X-1891970Y406613D01*
G01X-1894755Y406868D01*
G37*
G36*
G01X-1894755Y916874D02*
G01X-1894755Y993074D01*
G01X-1891970Y993329D01*
G01X-1888652Y994072D01*
G01X-1880641Y996890D01*
G01X-1871172Y1001269D01*
G01X-1860696Y1006949D01*
G01X-1849666Y1013670D01*
G01X-1838531Y1021171D01*
G01X-1827744Y1029193D01*
G01X-1817755Y1037474D01*
G01X-1817755Y872475D01*
G01X-1827744Y880756D01*
G01X-1838531Y888778D01*
G01X-1849666Y896279D01*
G01X-1860696Y903000D01*
G01X-1871172Y908680D01*
G01X-1880641Y913059D01*
G01X-1888652Y915877D01*
G01X-1891970Y916620D01*
G01X-1894755Y916874D01*
G37*
G36*
G01X-1790700Y1098856D02*
G01X-1714500Y1110261D01*
G01X-1714232Y1107109D01*
G01X-1713449Y1103473D01*
G01X-1710480Y1094973D01*
G01X-1705866Y1085211D01*
G01X-1699882Y1074638D01*
G01X-1692802Y1063705D01*
G01X-1684899Y1052864D01*
G01X-1676448Y1042565D01*
G01X-1667723Y1033261D01*
G01X-1832328Y1021856D01*
G01X-1824564Y1032503D01*
G01X-1817043Y1043761D01*
G01X-1810010Y1055178D01*
G01X-1803709Y1066302D01*
G01X-1798383Y1076684D01*
G01X-1794277Y1085870D01*
G01X-1791635Y1093412D01*
G01X-1790700Y1098856D01*
G37*
G36*
G01X-2248903Y-615608D02*
G01X-2325103Y-567608D01*
G01X-2325777Y-564046D01*
G01X-2327681Y-557850D01*
G01X-2334478Y-539358D01*
G01X-2344086Y-515741D01*
G01X-2355101Y-490608D01*
G01X-2197238Y-538608D01*
G01X-2202075Y-541852D01*
G01X-2206874Y-545568D01*
G01X-2216209Y-554192D01*
G01X-2224937Y-564028D01*
G01X-2232758Y-574626D01*
G01X-2239367Y-585534D01*
G01X-2244463Y-596301D01*
G01X-2246349Y-601491D01*
G01X-2247743Y-606476D01*
G01X-2248607Y-611201D01*
G01X-2248903Y-615608D01*
G37*
G36*
G01X-2105246Y-406897D02*
G01X-2105246Y-483097D01*
G01X-2108030Y-483352D01*
G01X-2111348Y-484094D01*
G01X-2119359Y-486912D01*
G01X-2128828Y-491292D01*
G01X-2139304Y-496972D01*
G01X-2150334Y-503692D01*
G01X-2161469Y-511194D01*
G01X-2172256Y-519215D01*
G01X-2182245Y-527497D01*
G01X-2182245Y-362497D01*
G01X-2172256Y-370779D01*
G01X-2161469Y-378800D01*
G01X-2150334Y-386301D01*
G01X-2139304Y-393022D01*
G01X-2128828Y-398702D01*
G01X-2119359Y-403081D01*
G01X-2111348Y-405900D01*
G01X-2108030Y-406642D01*
G01X-2105246Y-406897D01*
G37*
G36*
G01X-2325103Y-832392D02*
G01X-2248903Y-784392D01*
G01X-2248607Y-788800D01*
G01X-2247743Y-793524D01*
G01X-2246349Y-798509D01*
G01X-2244463Y-803699D01*
G01X-2239367Y-814466D01*
G01X-2232758Y-825374D01*
G01X-2224937Y-835972D01*
G01X-2216209Y-845808D01*
G01X-2206874Y-854432D01*
G01X-2202075Y-858148D01*
G01X-2197238Y-861392D01*
G01X-2355101Y-909392D01*
G01X-2344086Y-884259D01*
G01X-2334478Y-860642D01*
G01X-2327681Y-842150D01*
G01X-2325777Y-835954D01*
G01X-2325103Y-832392D01*
G37*
G36*
G01X-2105246Y-916903D02*
G01X-2105246Y-993103D01*
G01X-2108030Y-993358D01*
G01X-2111348Y-994101D01*
G01X-2119359Y-996919D01*
G01X-2128828Y-1001298D01*
G01X-2139304Y-1006978D01*
G01X-2150334Y-1013699D01*
G01X-2161469Y-1021200D01*
G01X-2172256Y-1029222D01*
G01X-2182245Y-1037503D01*
G01X-2182245Y-872504D01*
G01X-2172256Y-880785D01*
G01X-2161469Y-888807D01*
G01X-2150334Y-896308D01*
G01X-2139304Y-903028D01*
G01X-2128828Y-908709D01*
G01X-2119359Y-913088D01*
G01X-2111348Y-915906D01*
G01X-2108030Y-916649D01*
G01X-2105246Y-916903D01*
G37*
G36*
G01X-1894755Y-993103D02*
G01X-1894755Y-916903D01*
G01X-1891970Y-916649D01*
G01X-1888652Y-915906D01*
G01X-1880641Y-913088D01*
G01X-1871172Y-908709D01*
G01X-1860696Y-903028D01*
G01X-1849666Y-896308D01*
G01X-1838531Y-888807D01*
G01X-1827744Y-880785D01*
G01X-1817755Y-872504D01*
G01X-1817755Y-1037503D01*
G01X-1827744Y-1029222D01*
G01X-1838531Y-1021200D01*
G01X-1849666Y-1013699D01*
G01X-1860696Y-1006978D01*
G01X-1871172Y-1001298D01*
G01X-1880641Y-996919D01*
G01X-1888652Y-994101D01*
G01X-1891970Y-993358D01*
G01X-1894755Y-993103D01*
G37*
G36*
G01X-1894755Y-483097D02*
G01X-1894755Y-406897D01*
G01X-1891970Y-406642D01*
G01X-1888652Y-405900D01*
G01X-1880641Y-403081D01*
G01X-1871172Y-398702D01*
G01X-1860696Y-393022D01*
G01X-1849666Y-386301D01*
G01X-1838531Y-378800D01*
G01X-1827744Y-370779D01*
G01X-1817755Y-362497D01*
G01X-1817755Y-527497D01*
G01X-1827744Y-519215D01*
G01X-1838531Y-511194D01*
G01X-1849666Y-503692D01*
G01X-1860696Y-496972D01*
G01X-1871172Y-491292D01*
G01X-1880641Y-486912D01*
G01X-1888652Y-484094D01*
G01X-1891970Y-483352D01*
G01X-1894755Y-483097D01*
G37*
G36*
G01X2105246Y406897D02*
G01X2105246Y483097D01*
G01X2108030Y483352D01*
G01X2111348Y484094D01*
G01X2119359Y486912D01*
G01X2128828Y491292D01*
G01X2139304Y496972D01*
G01X2150334Y503692D01*
G01X2161469Y511194D01*
G01X2172256Y519215D01*
G01X2182245Y527497D01*
G01X2182245Y362497D01*
G01X2172256Y370779D01*
G01X2161469Y378800D01*
G01X2150334Y386301D01*
G01X2139304Y393022D01*
G01X2128828Y398702D01*
G01X2119359Y403081D01*
G01X2111348Y405900D01*
G01X2108030Y406642D01*
G01X2105246Y406897D01*
G37*
G36*
G01X2248903Y615608D02*
G01X2325103Y567608D01*
G01X2325777Y564046D01*
G01X2327681Y557850D01*
G01X2334478Y539358D01*
G01X2344086Y515741D01*
G01X2355101Y490608D01*
G01X2197238Y538608D01*
G01X2202075Y541852D01*
G01X2206874Y545568D01*
G01X2216209Y554192D01*
G01X2224937Y564028D01*
G01X2232758Y574626D01*
G01X2239367Y585534D01*
G01X2244463Y596301D01*
G01X2246349Y601491D01*
G01X2247743Y606476D01*
G01X2248607Y611201D01*
G01X2248903Y615608D01*
G37*
G36*
G01X2105246Y916903D02*
G01X2105246Y993103D01*
G01X2108030Y993358D01*
G01X2111348Y994101D01*
G01X2119359Y996919D01*
G01X2128828Y1001298D01*
G01X2139304Y1006978D01*
G01X2150334Y1013699D01*
G01X2161469Y1021200D01*
G01X2172256Y1029222D01*
G01X2182245Y1037503D01*
G01X2182245Y872504D01*
G01X2172256Y880785D01*
G01X2161469Y888807D01*
G01X2150334Y896308D01*
G01X2139304Y903028D01*
G01X2128828Y908709D01*
G01X2119359Y913088D01*
G01X2111348Y915906D01*
G01X2108030Y916649D01*
G01X2105246Y916903D01*
G37*
G36*
G01X2325103Y832392D02*
G01X2248903Y784392D01*
G01X2248607Y788800D01*
G01X2247743Y793524D01*
G01X2246349Y798509D01*
G01X2244463Y803699D01*
G01X2239367Y814466D01*
G01X2232758Y825374D01*
G01X2224937Y835972D01*
G01X2216209Y845808D01*
G01X2206874Y854432D01*
G01X2202075Y858148D01*
G01X2197238Y861392D01*
G01X2355101Y909392D01*
G01X2344086Y884259D01*
G01X2334478Y860642D01*
G01X2327681Y842150D01*
G01X2325777Y835954D01*
G01X2325103Y832392D01*
G37*
G36*
G01X1894755Y993103D02*
G01X1894755Y916903D01*
G01X1891970Y916649D01*
G01X1888652Y915906D01*
G01X1880641Y913088D01*
G01X1871172Y908709D01*
G01X1860696Y903028D01*
G01X1849666Y896308D01*
G01X1838531Y888807D01*
G01X1827744Y880785D01*
G01X1817755Y872504D01*
G01X1817755Y1037503D01*
G01X1827744Y1029222D01*
G01X1838531Y1021200D01*
G01X1849666Y1013699D01*
G01X1860696Y1006978D01*
G01X1871172Y1001298D01*
G01X1880641Y996919D01*
G01X1888652Y994101D01*
G01X1891970Y993358D01*
G01X1894755Y993103D01*
G37*
G36*
G01X1894755Y483097D02*
G01X1894755Y406897D01*
G01X1891970Y406642D01*
G01X1888652Y405900D01*
G01X1880641Y403081D01*
G01X1871172Y398702D01*
G01X1860696Y393022D01*
G01X1849666Y386301D01*
G01X1838531Y378800D01*
G01X1827744Y370779D01*
G01X1817755Y362497D01*
G01X1817755Y527497D01*
G01X1827744Y519215D01*
G01X1838531Y511194D01*
G01X1849666Y503692D01*
G01X1860696Y496972D01*
G01X1871172Y491292D01*
G01X1880641Y486912D01*
G01X1888652Y484094D01*
G01X1891970Y483352D01*
G01X1894755Y483097D01*
G37*
G36*
G01X2105246Y-993103D02*
G01X2105246Y-916903D01*
G01X2108030Y-916649D01*
G01X2111348Y-915906D01*
G01X2119359Y-913088D01*
G01X2128828Y-908709D01*
G01X2139304Y-903028D01*
G01X2150334Y-896308D01*
G01X2161469Y-888807D01*
G01X2172256Y-880785D01*
G01X2182245Y-872504D01*
G01X2182245Y-1037503D01*
G01X2172256Y-1029222D01*
G01X2161469Y-1021200D01*
G01X2150334Y-1013699D01*
G01X2139304Y-1006978D01*
G01X2128828Y-1001298D01*
G01X2119359Y-996919D01*
G01X2111348Y-994101D01*
G01X2108030Y-993358D01*
G01X2105246Y-993103D01*
G37*
G36*
G01X2248903Y-784392D02*
G01X2325103Y-832392D01*
G01X2325777Y-835954D01*
G01X2327681Y-842150D01*
G01X2334478Y-860642D01*
G01X2344086Y-884259D01*
G01X2355101Y-909392D01*
G01X2197238Y-861392D01*
G01X2202075Y-858148D01*
G01X2206874Y-854432D01*
G01X2216209Y-845808D01*
G01X2224937Y-835972D01*
G01X2232758Y-825374D01*
G01X2239367Y-814466D01*
G01X2244463Y-803699D01*
G01X2246349Y-798509D01*
G01X2247743Y-793524D01*
G01X2248607Y-788800D01*
G01X2248903Y-784392D01*
G37*
G36*
G01X2105246Y-483097D02*
G01X2105246Y-406897D01*
G01X2108030Y-406642D01*
G01X2111348Y-405900D01*
G01X2119359Y-403081D01*
G01X2128828Y-398702D01*
G01X2139304Y-393022D01*
G01X2150334Y-386301D01*
G01X2161469Y-378800D01*
G01X2172256Y-370779D01*
G01X2182245Y-362497D01*
G01X2182245Y-527497D01*
G01X2172256Y-519215D01*
G01X2161469Y-511194D01*
G01X2150334Y-503692D01*
G01X2139304Y-496972D01*
G01X2128828Y-491292D01*
G01X2119359Y-486912D01*
G01X2111348Y-484094D01*
G01X2108030Y-483352D01*
G01X2105246Y-483097D01*
G37*
G36*
G01X2325103Y-567608D02*
G01X2248903Y-615608D01*
G01X2248607Y-611201D01*
G01X2247743Y-606476D01*
G01X2246349Y-601491D01*
G01X2244463Y-596301D01*
G01X2239367Y-585534D01*
G01X2232758Y-574626D01*
G01X2224937Y-564028D01*
G01X2216209Y-554192D01*
G01X2206874Y-545568D01*
G01X2202075Y-541852D01*
G01X2197238Y-538608D01*
G01X2355101Y-490608D01*
G01X2344086Y-515741D01*
G01X2334478Y-539358D01*
G01X2327681Y-557850D01*
G01X2325777Y-564046D01*
G01X2325103Y-567608D01*
G37*
G36*
G01X1894755Y-406897D02*
G01X1894755Y-483097D01*
G01X1891970Y-483352D01*
G01X1888652Y-484094D01*
G01X1880641Y-486912D01*
G01X1871172Y-491292D01*
G01X1860696Y-496972D01*
G01X1849666Y-503692D01*
G01X1838531Y-511194D01*
G01X1827744Y-519215D01*
G01X1817755Y-527497D01*
G01X1817755Y-362497D01*
G01X1827744Y-370779D01*
G01X1838531Y-378800D01*
G01X1849666Y-386301D01*
G01X1860696Y-393022D01*
G01X1871172Y-398702D01*
G01X1880641Y-403081D01*
G01X1888652Y-405900D01*
G01X1891970Y-406642D01*
G01X1894755Y-406897D01*
G37*
G36*
G01X1894755Y-916903D02*
G01X1894755Y-993103D01*
G01X1891970Y-993358D01*
G01X1888652Y-994101D01*
G01X1880641Y-996919D01*
G01X1871172Y-1001298D01*
G01X1860696Y-1006978D01*
G01X1849666Y-1013699D01*
G01X1838531Y-1021200D01*
G01X1827744Y-1029222D01*
G01X1817755Y-1037503D01*
G01X1817755Y-872504D01*
G01X1827744Y-880785D01*
G01X1838531Y-888807D01*
G01X1849666Y-896308D01*
G01X1860696Y-903028D01*
G01X1871172Y-908709D01*
G01X1880641Y-913088D01*
G01X1888652Y-915906D01*
G01X1891970Y-916649D01*
G01X1894755Y-916903D01*
G37*
G36*
G01X50800Y531900D02*
G01X101600Y531900D01*
G01X101819Y526427D01*
G01X102397Y521044D01*
G01X104150Y510882D01*
G01X105903Y502078D01*
G01X106700Y495300D01*
G01X45700Y495300D01*
G01X46497Y502078D01*
G01X48250Y510882D01*
G01X50003Y521044D01*
G01X50581Y526427D01*
G01X50800Y531900D01*
G37*
G36*
G01X-272441Y-360380D02*
G01X-236520Y-324459D01*
G01X-232495Y-328174D01*
G01X-228280Y-331572D01*
G01X-219854Y-337519D01*
G01X-212389Y-342504D01*
G01X-207033Y-346733D01*
G01X-250167Y-389867D01*
G01X-254396Y-384511D01*
G01X-259381Y-377046D01*
G01X-265328Y-368620D01*
G01X-268726Y-364405D01*
G01X-272441Y-360380D01*
G37*
G36*
G01X-413359Y1465280D02*
G01X-449280Y1429359D01*
G01X-453305Y1433074D01*
G01X-457520Y1436472D01*
G01X-465946Y1442419D01*
G01X-473411Y1447404D01*
G01X-478767Y1451633D01*
G01X-435633Y1494767D01*
G01X-431404Y1489411D01*
G01X-426419Y1481946D01*
G01X-420472Y1473520D01*
G01X-417074Y1469305D01*
G01X-413359Y1465280D01*
G37*
G36*
G01X-763500Y-495300D02*
G01X-763500Y-546100D01*
G01X-768973Y-546319D01*
G01X-774356Y-546897D01*
G01X-784518Y-548650D01*
G01X-793322Y-550403D01*
G01X-800100Y-551200D01*
G01X-800100Y-490200D01*
G01X-793322Y-490997D01*
G01X-784518Y-492750D01*
G01X-774356Y-494503D01*
G01X-768973Y-495081D01*
G01X-763500Y-495300D01*
G37*
G36*
G01X233380Y324459D02*
G01X197459Y360380D01*
G01X201174Y364405D01*
G01X204572Y368620D01*
G01X210519Y377046D01*
G01X215504Y384511D01*
G01X219733Y389867D01*
G01X262867Y346733D01*
G01X257511Y342504D01*
G01X250046Y337519D01*
G01X241620Y331572D01*
G01X237405Y328174D01*
G01X233380Y324459D01*
G37*
G36*
G01X-757860Y1133480D02*
G01X-793781Y1097559D01*
G01X-797805Y1101274D01*
G01X-802020Y1104672D01*
G01X-810446Y1110618D01*
G01X-817911Y1115604D01*
G01X-823267Y1119833D01*
G01X-780133Y1162967D01*
G01X-775904Y1157610D01*
G01X-770919Y1150146D01*
G01X-764972Y1141720D01*
G01X-761574Y1137505D01*
G01X-757860Y1133480D01*
G37*
G36*
G01X355600Y225176D02*
G01X330200Y225176D01*
G01X329326Y229771D01*
G01X327020Y235528D01*
G01X323761Y241446D01*
G01X320025Y246526D01*
G01X365775Y246526D01*
G01X362039Y241446D01*
G01X358780Y235528D01*
G01X356474Y229771D01*
G01X355600Y225176D01*
G37*
G36*
G01X-691061Y-452474D02*
G02X-699035Y-495300I-18677J-18677D01*
G01X-586914Y-520700D01*
G01X-525593Y-495300D01*
G02X-655139Y-416553I96668J304962D01*
G01X-691061Y-452474D01*
G37*
G36*
G01X514163Y1393016D02*
G03X406400Y1449979I-146237J-146237D01*
G01X381004Y1562087D01*
G01X406409Y1623412D01*
G03X514172Y1464849I469526J203200D01*
G01X514163Y1393016D01*
G37*
G04 TearDrop End*

G04 Pad Start*
G54D12*
G01X-1231900Y1676400D03*
G01X-1485900Y1676400D03*
G54D13*
G01X-1739900Y1676400D03*
G54D12*
G01X1739900Y1663700D03*
G01X1485900Y1663700D03*
G54D13*
G01X1231900Y1663700D03*
G54D12*
G01X-1231900Y-1727200D03*
G01X-1485900Y-1727200D03*
G54D13*
G01X-1739900Y-1727200D03*
G54D12*
G01X1739900Y-1727200D03*
G01X1485900Y-1727200D03*
G54D13*
G01X1231900Y-1727200D03*
G54D14*
G01X-380991Y1671446D03*
G54D15*
G01X-126991Y1671446D03*
G01X127009Y1671446D03*
G01X381009Y1671446D03*
G54D16*
G01X-1999987Y699958D03*
G54D18*
G01X-2255003Y954974D03*
G01X-2255003Y444968D03*
G01X-1744997Y444968D03*
G01X-1744997Y954974D03*
G54D16*
G01X-1999987Y-700013D03*
G54D18*
G01X-2255003Y-444997D03*
G01X-2255003Y-955003D03*
G01X-1744997Y-955003D03*
G01X-1744997Y-444997D03*
G54D16*
G01X1999987Y700013D03*
G54D18*
G01X2255003Y444997D03*
G01X2255003Y955003D03*
G01X1744997Y955003D03*
G01X1744997Y444997D03*
G54D16*
G01X1999987Y-699987D03*
G54D18*
G01X2255003Y-955003D03*
G01X2255003Y-444997D03*
G01X1744997Y-444997D03*
G01X1744997Y-955003D03*
G54D19*
G01X-2032000Y1524000D03*
G01X-2032003Y-1523985D03*
G01X2032000Y1524000D03*
G01X2032000Y-1524000D03*
G04 Pad End*

G04 Via Start*
G54D20*
G01X0Y702194D03*
G01X-1028700Y700000D03*
G01X-1028700Y-965200D03*
G01X266700Y1397000D03*
G01X76200Y495300D03*
G01X-228600Y-368300D03*
G01X-203200Y1371600D03*
G01X-457200Y1473200D03*
G01X-800100Y-520700D03*
G01X241300Y368300D03*
G01X-801700Y1141400D03*
G01X342900Y266700D03*
G01X-1295400Y254000D03*
G01X-838200Y-1408100D03*
G01X-342900Y-1409700D03*
G01X203200Y-1408100D03*
G01X1219200Y-938200D03*
G01X190500Y-368300D03*
G01X-215900Y355600D03*
G04 Via End*

G04 Track Start*
G54D21*
G01X127009Y1671446D02*
G01X266700Y1531755D01*
G01X266700Y1397000D01*
G01X1776997Y955003D02*
G01X2287003Y955003D01*
G01X2287003Y444997D02*
G01X1776997Y444997D01*
G01X2287003Y444997D02*
G01X2287003Y955003D01*
G01X2287003Y-444997D02*
G01X1776997Y-444997D01*
G01X2287003Y-444997D02*
G01X2287003Y-955003D01*
G01X1776997Y-955003D01*
G01X-2287003Y-444997D02*
G01X-1776997Y-444997D01*
G01X-2287003Y-444997D02*
G01X-2287003Y-955003D01*
G01X-1776997Y-955003D01*
G01X-2287003Y444968D02*
G01X-2287003Y954974D01*
G01X-1776997Y444968D02*
G01X-2287003Y444968D01*
G54D22*
G01X76200Y495300D02*
G01X76200Y787400D01*
G01X381000Y1092200D01*
G01X-393700Y-203200D02*
G01X-228600Y-368300D01*
G54D21*
G01X-126991Y1671446D02*
G01X-126991Y1447809D01*
G01X-203200Y1371600D01*
G54D22*
G01X-457200Y1473200D02*
G01X-393700Y1409700D01*
G01X-393700Y-203200D01*
G01X-76200Y-520700D02*
G01X-40279Y-484779D01*
G01X-40279Y86721D01*
G01X241300Y368300D01*
G01X-801700Y1141400D02*
G01X-673100Y1012800D01*
G01X-673100Y-434514D02*
G01X-586914Y-520700D01*
G01X-800100Y-520700D02*
G01X-586914Y-520700D01*
G01X-76200Y-520700D01*
G01X-673100Y1012800D02*
G01X-673100Y-434514D01*
G54D11*
G01X342900Y266700D02*
G01X342900Y-495300D01*
G01X1574800Y-1727200D01*
G54D21*
G01X-1892300Y1663700D02*
G01X-1384300Y1663700D01*
G01X-2287003Y954974D02*
G01X-1752600Y954974D01*
G01X-1752600Y1524000D01*
G01X-1892300Y1663700D01*
G54D22*
G01X-380991Y1671446D02*
G01X-202809Y1849628D01*
G01X1045972Y1849628D01*
G01X1231900Y1663700D01*
G01X381009Y1671446D02*
G01X381009Y1562091D01*
G01X596900Y1346200D01*
G01X1422400Y1346200D01*
G01X1739900Y1663700D01*
G01X381000Y1092200D02*
G01X381000Y1562082D01*
G04 Track End*

M02*

