G04 Layer: TopSilkscreenLayer*
G04 EasyEDA Pro v3.2.186, 2026-09-24 20:26:46*
G04 Gerber Generator version 0.3*
G04 Scale: 100 percent, Rotated: No, Reflected: No*
G04 Dimensions in millimeters*
G04 Leading zeros omitted, absolute positions, 4 integers and 5 decimals*
G04 Generated by one-click*
G04 Object Configs: Pad,Via,Track,Text,Image,Dimension,BoardOutline,BoardCutout,CopperFilled,SolidRegion,FPCStiffener,Line,PlaneZone,ComponentProperty,ComponentSilkscreen,TearDrop*
G04 Layer Configs: 1,2,3,4,5,6,7,8,9,10,11,13,14,56*
G04 Copper Areas: 0*
%FSLAX45Y45*%
%MOMM*%
%ADD10C,0.1524*%
%ADD11C,0.254*%
%ADD12C,0.2032*%
%ADD13C,0.203*%
%ADD14C,0.15001*%
%ADD15C,0.3038*%
%ADD16C,0.3*%
G75*


G04 Text Start*
G54D10*
G01X-81026Y548640D02*
G01X-84074Y554990D01*
G01X-90424Y561086D01*
G01X-96520Y564134D01*
G01X-108966Y564134D01*
G01X-115062Y561086D01*
G01X-121412Y554990D01*
G01X-124460Y548640D01*
G01X-127508Y539496D01*
G01X-127508Y524002D01*
G01X-124460Y514604D01*
G01X-121412Y508508D01*
G01X-115062Y502158D01*
G01X-108966Y499110D01*
G01X-96520Y499110D01*
G01X-90424Y502158D01*
G01X-84074Y508508D01*
G01X-81026Y514604D01*
G01X-13716Y564134D02*
G01X-44704Y564134D01*
G01X-47752Y536448D01*
G01X-44704Y539496D01*
G01X-35560Y542544D01*
G01X-26162Y542544D01*
G01X-16764Y539496D01*
G01X-10668Y533146D01*
G01X-7620Y524002D01*
G01X-7620Y517652D01*
G01X-10668Y508508D01*
G01X-16764Y502158D01*
G01X-26162Y499110D01*
G01X-35560Y499110D01*
G01X-44704Y502158D01*
G01X-47752Y505460D01*
G01X-50800Y511556D01*
G01X-263398Y-454660D02*
G01X-266446Y-448310D01*
G01X-272796Y-442214D01*
G01X-278892Y-439166D01*
G01X-291338Y-439166D01*
G01X-297434Y-442214D01*
G01X-303784Y-448310D01*
G01X-306832Y-454660D01*
G01X-309880Y-463804D01*
G01X-309880Y-479298D01*
G01X-306832Y-488696D01*
G01X-303784Y-494792D01*
G01X-297434Y-501142D01*
G01X-291338Y-504190D01*
G01X-278892Y-504190D01*
G01X-272796Y-501142D01*
G01X-266446Y-494792D01*
G01X-263398Y-488696D01*
G01X-196088Y-448310D02*
G01X-199136Y-442214D01*
G01X-208534Y-439166D01*
G01X-214630Y-439166D01*
G01X-224028Y-442214D01*
G01X-230124Y-451612D01*
G01X-233172Y-466852D01*
G01X-233172Y-482346D01*
G01X-230124Y-494792D01*
G01X-224028Y-501142D01*
G01X-214630Y-504190D01*
G01X-211582Y-504190D01*
G01X-202438Y-501142D01*
G01X-196088Y-494792D01*
G01X-193040Y-485648D01*
G01X-193040Y-482346D01*
G01X-196088Y-473202D01*
G01X-202438Y-466852D01*
G01X-211582Y-463804D01*
G01X-214630Y-463804D01*
G01X-224028Y-466852D01*
G01X-230124Y-473202D01*
G01X-233172Y-482346D01*
G01X-1547713Y906263D02*
G01X-1547713Y841239D01*
G01X-1547713Y906263D02*
G01X-1519773Y906263D01*
G01X-1510629Y903215D01*
G01X-1507581Y900167D01*
G01X-1504279Y893817D01*
G01X-1504279Y887721D01*
G01X-1507581Y881625D01*
G01X-1510629Y878577D01*
G01X-1519773Y875275D01*
G01X-1547713Y875275D01*
G01X-1526123Y875275D02*
G01X-1504279Y841239D01*
G01X-1474053Y893817D02*
G01X-1467957Y897119D01*
G01X-1458813Y906263D01*
G01X-1458813Y841239D01*
G01X-887313Y906263D02*
G01X-887313Y841239D01*
G01X-887313Y906263D02*
G01X-859373Y906263D01*
G01X-850229Y903215D01*
G01X-847181Y900167D01*
G01X-843879Y893817D01*
G01X-843879Y887721D01*
G01X-847181Y881625D01*
G01X-850229Y878577D01*
G01X-859373Y875275D01*
G01X-887313Y875275D01*
G01X-865723Y875275D02*
G01X-843879Y841239D01*
G01X-810605Y890769D02*
G01X-810605Y893817D01*
G01X-807557Y900167D01*
G01X-804509Y903215D01*
G01X-798413Y906263D01*
G01X-785967Y906263D01*
G01X-779617Y903215D01*
G01X-776569Y900167D01*
G01X-773521Y893817D01*
G01X-773521Y887721D01*
G01X-776569Y881625D01*
G01X-782919Y872227D01*
G01X-813653Y841239D01*
G01X-770473Y841239D01*
G01X-430113Y906263D02*
G01X-430113Y841239D01*
G01X-430113Y906263D02*
G01X-402173Y906263D01*
G01X-393029Y903215D01*
G01X-389981Y900167D01*
G01X-386679Y893817D01*
G01X-386679Y887721D01*
G01X-389981Y881625D01*
G01X-393029Y878577D01*
G01X-402173Y875275D01*
G01X-430113Y875275D01*
G01X-408523Y875275D02*
G01X-386679Y841239D01*
G01X-350357Y906263D02*
G01X-316321Y906263D01*
G01X-334863Y881625D01*
G01X-325719Y881625D01*
G01X-319369Y878577D01*
G01X-316321Y875275D01*
G01X-313273Y866131D01*
G01X-313273Y859781D01*
G01X-316321Y850637D01*
G01X-322417Y844287D01*
G01X-331815Y841239D01*
G01X-341213Y841239D01*
G01X-350357Y844287D01*
G01X-353405Y847589D01*
G01X-356453Y853685D01*
G01X77887Y906263D02*
G01X77887Y841239D01*
G01X77887Y906263D02*
G01X105827Y906263D01*
G01X114971Y903215D01*
G01X118019Y900167D01*
G01X121321Y893817D01*
G01X121321Y887721D01*
G01X118019Y881625D01*
G01X114971Y878577D01*
G01X105827Y875275D01*
G01X77887Y875275D01*
G01X99477Y875275D02*
G01X121321Y841239D01*
G01X182281Y906263D02*
G01X151547Y863083D01*
G01X197775Y863083D01*
G01X182281Y906263D02*
G01X182281Y841239D01*
G01X-1262634Y363220D02*
G01X-1197610Y363220D01*
G01X-1262634Y363220D02*
G01X-1262634Y391160D01*
G01X-1259586Y400304D01*
G01X-1256538Y403352D01*
G01X-1250188Y406654D01*
G01X-1244092Y406654D01*
G01X-1237996Y403352D01*
G01X-1234948Y400304D01*
G01X-1231646Y391160D01*
G01X-1231646Y363220D01*
G01X-1231646Y384810D02*
G01X-1197610Y406654D01*
G01X-1262634Y473964D02*
G01X-1262634Y442976D01*
G01X-1234948Y439928D01*
G01X-1237996Y442976D01*
G01X-1241044Y452120D01*
G01X-1241044Y461518D01*
G01X-1237996Y470916D01*
G01X-1231646Y477012D01*
G01X-1222502Y480060D01*
G01X-1216152Y480060D01*
G01X-1207008Y477012D01*
G01X-1200658Y470916D01*
G01X-1197610Y461518D01*
G01X-1197610Y452120D01*
G01X-1200658Y442976D01*
G01X-1203960Y439928D01*
G01X-1210056Y436880D01*
G01X206263Y1376113D02*
G01X141239Y1376113D01*
G01X206263Y1376113D02*
G01X206263Y1348173D01*
G01X203215Y1339029D01*
G01X200167Y1335981D01*
G01X193817Y1332679D01*
G01X187721Y1332679D01*
G01X181625Y1335981D01*
G01X178577Y1339029D01*
G01X175275Y1348173D01*
G01X175275Y1376113D01*
G01X175275Y1354523D02*
G01X141239Y1332679D01*
G01X197119Y1265369D02*
G01X203215Y1268417D01*
G01X206263Y1277815D01*
G01X206263Y1283911D01*
G01X203215Y1293309D01*
G01X193817Y1299405D01*
G01X178577Y1302453D01*
G01X163083Y1302453D01*
G01X150637Y1299405D01*
G01X144287Y1293309D01*
G01X141239Y1283911D01*
G01X141239Y1280863D01*
G01X144287Y1271719D01*
G01X150637Y1265369D01*
G01X159781Y1262321D01*
G01X163083Y1262321D01*
G01X172227Y1265369D01*
G01X178577Y1271719D01*
G01X181625Y1280863D01*
G01X181625Y1283911D01*
G01X178577Y1293309D01*
G01X172227Y1299405D01*
G01X163083Y1302453D01*
G01X-879414Y-758937D02*
G01X-879414Y-823961D01*
G01X-879414Y-758937D02*
G01X-851474Y-758937D01*
G01X-842330Y-761985D01*
G01X-839282Y-765033D01*
G01X-835980Y-771383D01*
G01X-835980Y-777479D01*
G01X-839282Y-783575D01*
G01X-842330Y-786623D01*
G01X-851474Y-789925D01*
G01X-879414Y-789925D01*
G01X-857824Y-789925D02*
G01X-835980Y-823961D01*
G01X-762574Y-758937D02*
G01X-793562Y-823961D01*
G01X-805754Y-758937D02*
G01X-762574Y-758937D01*
G01X-1234963Y-1484213D02*
G01X-1169939Y-1484213D01*
G01X-1234963Y-1484213D02*
G01X-1234963Y-1456273D01*
G01X-1231915Y-1447129D01*
G01X-1228867Y-1444081D01*
G01X-1222517Y-1440779D01*
G01X-1216421Y-1440779D01*
G01X-1210325Y-1444081D01*
G01X-1207277Y-1447129D01*
G01X-1203975Y-1456273D01*
G01X-1203975Y-1484213D01*
G01X-1203975Y-1462623D02*
G01X-1169939Y-1440779D01*
G01X-1234963Y-1395313D02*
G01X-1231915Y-1404457D01*
G01X-1225819Y-1407505D01*
G01X-1219469Y-1407505D01*
G01X-1213373Y-1404457D01*
G01X-1210325Y-1398361D01*
G01X-1207277Y-1385915D01*
G01X-1203975Y-1376517D01*
G01X-1197879Y-1370421D01*
G01X-1191783Y-1367373D01*
G01X-1182385Y-1367373D01*
G01X-1176289Y-1370421D01*
G01X-1172987Y-1373469D01*
G01X-1169939Y-1382867D01*
G01X-1169939Y-1395313D01*
G01X-1172987Y-1404457D01*
G01X-1176289Y-1407505D01*
G01X-1182385Y-1410553D01*
G01X-1191783Y-1410553D01*
G01X-1197879Y-1407505D01*
G01X-1203975Y-1401409D01*
G01X-1207277Y-1392011D01*
G01X-1210325Y-1379819D01*
G01X-1213373Y-1373469D01*
G01X-1219469Y-1370421D01*
G01X-1225819Y-1370421D01*
G01X-1231915Y-1373469D01*
G01X-1234963Y-1382867D01*
G01X-1234963Y-1395313D01*
G01X-720613Y-1484213D02*
G01X-655589Y-1484213D01*
G01X-720613Y-1484213D02*
G01X-720613Y-1456273D01*
G01X-717565Y-1447129D01*
G01X-714517Y-1444081D01*
G01X-708167Y-1440779D01*
G01X-702071Y-1440779D01*
G01X-695975Y-1444081D01*
G01X-692927Y-1447129D01*
G01X-689625Y-1456273D01*
G01X-689625Y-1484213D01*
G01X-689625Y-1462623D02*
G01X-655589Y-1440779D01*
G01X-699023Y-1370421D02*
G01X-689625Y-1373469D01*
G01X-683529Y-1379819D01*
G01X-680481Y-1388963D01*
G01X-680481Y-1392011D01*
G01X-683529Y-1401409D01*
G01X-689625Y-1407505D01*
G01X-699023Y-1410553D01*
G01X-702071Y-1410553D01*
G01X-711469Y-1407505D01*
G01X-717565Y-1401409D01*
G01X-720613Y-1392011D01*
G01X-720613Y-1388963D01*
G01X-717565Y-1379819D01*
G01X-711469Y-1373469D01*
G01X-699023Y-1370421D01*
G01X-683529Y-1370421D01*
G01X-668035Y-1373469D01*
G01X-658637Y-1379819D01*
G01X-655589Y-1388963D01*
G01X-655589Y-1395313D01*
G01X-658637Y-1404457D01*
G01X-664987Y-1407505D01*
G01X-500380Y-489966D02*
G01X-500380Y-554990D01*
G01X-500380Y-489966D02*
G01X-472440Y-489966D01*
G01X-463296Y-493014D01*
G01X-460248Y-496062D01*
G01X-456946Y-502412D01*
G01X-456946Y-508508D01*
G01X-460248Y-514604D01*
G01X-463296Y-517652D01*
G01X-472440Y-520954D01*
G01X-500380Y-520954D01*
G01X-478790Y-520954D02*
G01X-456946Y-554990D01*
G01X-426720Y-502412D02*
G01X-420624Y-499110D01*
G01X-411480Y-489966D01*
G01X-411480Y-554990D01*
G01X-362712Y-489966D02*
G01X-372110Y-493014D01*
G01X-378206Y-502412D01*
G01X-381254Y-517652D01*
G01X-381254Y-527050D01*
G01X-378206Y-542544D01*
G01X-372110Y-551942D01*
G01X-362712Y-554990D01*
G01X-356616Y-554990D01*
G01X-347218Y-551942D01*
G01X-341122Y-542544D01*
G01X-338074Y-527050D01*
G01X-338074Y-517652D01*
G01X-341122Y-502412D01*
G01X-347218Y-493014D01*
G01X-356616Y-489966D01*
G01X-362712Y-489966D01*
G01X77887Y-493737D02*
G01X77887Y-558761D01*
G01X77887Y-493737D02*
G01X105827Y-493737D01*
G01X114971Y-496785D01*
G01X118019Y-499833D01*
G01X121321Y-506183D01*
G01X121321Y-512279D01*
G01X118019Y-518375D01*
G01X114971Y-521423D01*
G01X105827Y-524725D01*
G01X77887Y-524725D01*
G01X99477Y-524725D02*
G01X121321Y-558761D01*
G01X151547Y-506183D02*
G01X157643Y-502881D01*
G01X166787Y-493737D01*
G01X166787Y-558761D01*
G01X197013Y-506183D02*
G01X203109Y-502881D01*
G01X212253Y-493737D01*
G01X212253Y-558761D01*
G01X-1547713Y-758937D02*
G01X-1547713Y-823961D01*
G01X-1547713Y-758937D02*
G01X-1519773Y-758937D01*
G01X-1510629Y-761985D01*
G01X-1507581Y-765033D01*
G01X-1504279Y-771383D01*
G01X-1504279Y-777479D01*
G01X-1507581Y-783575D01*
G01X-1510629Y-786623D01*
G01X-1519773Y-789925D01*
G01X-1547713Y-789925D01*
G01X-1526123Y-789925D02*
G01X-1504279Y-823961D01*
G01X-1474053Y-771383D02*
G01X-1467957Y-768081D01*
G01X-1458813Y-758937D01*
G01X-1458813Y-823961D01*
G01X-1425539Y-774431D02*
G01X-1425539Y-771383D01*
G01X-1422491Y-765033D01*
G01X-1419443Y-761985D01*
G01X-1413347Y-758937D01*
G01X-1400901Y-758937D01*
G01X-1394551Y-761985D01*
G01X-1391503Y-765033D01*
G01X-1388455Y-771383D01*
G01X-1388455Y-777479D01*
G01X-1391503Y-783575D01*
G01X-1397853Y-792973D01*
G01X-1428587Y-823961D01*
G01X-1385407Y-823961D01*
G01X636687Y142763D02*
G01X636687Y77739D01*
G01X636687Y142763D02*
G01X664627Y142763D01*
G01X673771Y139715D01*
G01X676819Y136667D01*
G01X680121Y130317D01*
G01X680121Y124221D01*
G01X676819Y118125D01*
G01X673771Y115077D01*
G01X664627Y111775D01*
G01X636687Y111775D01*
G01X658277Y111775D02*
G01X680121Y77739D01*
G01X710347Y130317D02*
G01X716443Y133619D01*
G01X725587Y142763D01*
G01X725587Y77739D01*
G01X761909Y142763D02*
G01X795945Y142763D01*
G01X777403Y118125D01*
G01X786547Y118125D01*
G01X792897Y115077D01*
G01X795945Y111775D01*
G01X798993Y102631D01*
G01X798993Y96281D01*
G01X795945Y87137D01*
G01X789849Y80787D01*
G01X780451Y77739D01*
G01X771053Y77739D01*
G01X761909Y80787D01*
G01X758861Y84089D01*
G01X755813Y90185D01*
G01X822437Y-1014313D02*
G01X887461Y-1014313D01*
G01X822437Y-1014313D02*
G01X822437Y-986373D01*
G01X825485Y-977229D01*
G01X828533Y-974181D01*
G01X834883Y-970879D01*
G01X840979Y-970879D01*
G01X847075Y-974181D01*
G01X850123Y-977229D01*
G01X853425Y-986373D01*
G01X853425Y-1014313D01*
G01X853425Y-992723D02*
G01X887461Y-970879D01*
G01X834883Y-940653D02*
G01X831581Y-934557D01*
G01X822437Y-925413D01*
G01X887461Y-925413D01*
G01X822437Y-864453D02*
G01X865617Y-895187D01*
G01X865617Y-848959D01*
G01X822437Y-864453D02*
G01X887461Y-864453D01*
G01X1195487Y906263D02*
G01X1195487Y841239D01*
G01X1195487Y906263D02*
G01X1223427Y906263D01*
G01X1232571Y903215D01*
G01X1235619Y900167D01*
G01X1238921Y893817D01*
G01X1238921Y887721D01*
G01X1235619Y881625D01*
G01X1232571Y878577D01*
G01X1223427Y875275D01*
G01X1195487Y875275D01*
G01X1217077Y875275D02*
G01X1238921Y841239D01*
G01X1269147Y893817D02*
G01X1275243Y897119D01*
G01X1284387Y906263D01*
G01X1284387Y841239D01*
G01X1351697Y906263D02*
G01X1320709Y906263D01*
G01X1317661Y878577D01*
G01X1320709Y881625D01*
G01X1329853Y884673D01*
G01X1339251Y884673D01*
G01X1348649Y881625D01*
G01X1354745Y875275D01*
G01X1357793Y866131D01*
G01X1357793Y859781D01*
G01X1354745Y850637D01*
G01X1348649Y844287D01*
G01X1339251Y841239D01*
G01X1329853Y841239D01*
G01X1320709Y844287D01*
G01X1317661Y847589D01*
G01X1314613Y853685D01*
G01X1195487Y-493737D02*
G01X1195487Y-558761D01*
G01X1195487Y-493737D02*
G01X1223427Y-493737D01*
G01X1232571Y-496785D01*
G01X1235619Y-499833D01*
G01X1238921Y-506183D01*
G01X1238921Y-512279D01*
G01X1235619Y-518375D01*
G01X1232571Y-521423D01*
G01X1223427Y-524725D01*
G01X1195487Y-524725D01*
G01X1217077Y-524725D02*
G01X1238921Y-558761D01*
G01X1269147Y-506183D02*
G01X1275243Y-502881D01*
G01X1284387Y-493737D01*
G01X1284387Y-558761D01*
G01X1351697Y-502881D02*
G01X1348649Y-496785D01*
G01X1339251Y-493737D01*
G01X1333155Y-493737D01*
G01X1323757Y-496785D01*
G01X1317661Y-506183D01*
G01X1314613Y-521423D01*
G01X1314613Y-536917D01*
G01X1317661Y-549363D01*
G01X1323757Y-555713D01*
G01X1333155Y-558761D01*
G01X1336203Y-558761D01*
G01X1345347Y-555713D01*
G01X1351697Y-549363D01*
G01X1354745Y-540219D01*
G01X1354745Y-536917D01*
G01X1351697Y-527773D01*
G01X1345347Y-521423D01*
G01X1336203Y-518375D01*
G01X1333155Y-518375D01*
G01X1323757Y-521423D01*
G01X1317661Y-527773D01*
G01X1314613Y-536917D01*
G01X-1234963Y865287D02*
G01X-1169939Y865287D01*
G01X-1234963Y865287D02*
G01X-1234963Y893227D01*
G01X-1231915Y902371D01*
G01X-1228867Y905419D01*
G01X-1222517Y908721D01*
G01X-1216421Y908721D01*
G01X-1210325Y905419D01*
G01X-1207277Y902371D01*
G01X-1203975Y893227D01*
G01X-1203975Y865287D01*
G01X-1203975Y886877D02*
G01X-1169939Y908721D01*
G01X-1222517Y938947D02*
G01X-1225819Y945043D01*
G01X-1234963Y954187D01*
G01X-1169939Y954187D01*
G01X-1234963Y1027593D02*
G01X-1169939Y996605D01*
G01X-1234963Y984413D02*
G01X-1234963Y1027593D01*
G01X-1234963Y-798413D02*
G01X-1169939Y-798413D01*
G01X-1234963Y-798413D02*
G01X-1234963Y-770473D01*
G01X-1231915Y-761329D01*
G01X-1228867Y-758281D01*
G01X-1222517Y-754979D01*
G01X-1216421Y-754979D01*
G01X-1210325Y-758281D01*
G01X-1207277Y-761329D01*
G01X-1203975Y-770473D01*
G01X-1203975Y-798413D01*
G01X-1203975Y-776823D02*
G01X-1169939Y-754979D01*
G01X-1222517Y-724753D02*
G01X-1225819Y-718657D01*
G01X-1234963Y-709513D01*
G01X-1169939Y-709513D01*
G01X-1234963Y-664047D02*
G01X-1231915Y-673191D01*
G01X-1225819Y-676239D01*
G01X-1219469Y-676239D01*
G01X-1213373Y-673191D01*
G01X-1210325Y-667095D01*
G01X-1207277Y-654649D01*
G01X-1203975Y-645251D01*
G01X-1197879Y-639155D01*
G01X-1191783Y-636107D01*
G01X-1182385Y-636107D01*
G01X-1176289Y-639155D01*
G01X-1172987Y-642203D01*
G01X-1169939Y-651601D01*
G01X-1169939Y-664047D01*
G01X-1172987Y-673191D01*
G01X-1176289Y-676239D01*
G01X-1182385Y-679287D01*
G01X-1191783Y-679287D01*
G01X-1197879Y-676239D01*
G01X-1203975Y-670143D01*
G01X-1207277Y-660745D01*
G01X-1210325Y-648553D01*
G01X-1213373Y-642203D01*
G01X-1219469Y-639155D01*
G01X-1225819Y-639155D01*
G01X-1231915Y-642203D01*
G01X-1234963Y-651601D01*
G01X-1234963Y-664047D01*
G01X-206263Y-1484213D02*
G01X-141239Y-1484213D01*
G01X-206263Y-1484213D02*
G01X-206263Y-1456273D01*
G01X-203215Y-1447129D01*
G01X-200167Y-1444081D01*
G01X-193817Y-1440779D01*
G01X-187721Y-1440779D01*
G01X-181625Y-1444081D01*
G01X-178577Y-1447129D01*
G01X-175275Y-1456273D01*
G01X-175275Y-1484213D01*
G01X-175275Y-1462623D02*
G01X-141239Y-1440779D01*
G01X-193817Y-1410553D02*
G01X-197119Y-1404457D01*
G01X-206263Y-1395313D01*
G01X-141239Y-1395313D01*
G01X-184673Y-1324955D02*
G01X-175275Y-1328003D01*
G01X-169179Y-1334353D01*
G01X-166131Y-1343497D01*
G01X-166131Y-1346545D01*
G01X-169179Y-1355943D01*
G01X-175275Y-1362039D01*
G01X-184673Y-1365087D01*
G01X-187721Y-1365087D01*
G01X-197119Y-1362039D01*
G01X-203215Y-1355943D01*
G01X-206263Y-1346545D01*
G01X-206263Y-1343497D01*
G01X-203215Y-1334353D01*
G01X-197119Y-1328003D01*
G01X-184673Y-1324955D01*
G01X-169179Y-1324955D01*
G01X-153685Y-1328003D01*
G01X-144287Y-1334353D01*
G01X-141239Y-1343497D01*
G01X-141239Y-1349847D01*
G01X-144287Y-1358991D01*
G01X-150637Y-1362039D01*
G04 Text End*

G04 PolygonModel Start*
G54D11*
G01X-764619Y1600443D02*
G01X-844616Y1600443D01*
G01X-708574Y1600397D02*
G01X-628576Y1600397D01*
G01X-764619Y1742411D02*
G01X-844616Y1742411D01*
G01X-708574Y1742363D02*
G01X-628576Y1742363D01*
G01X-875591Y1631425D02*
G01X-875591Y1711430D01*
G01X-597598Y1711377D02*
G01X-597598Y1631375D01*
G01X-628581Y1742363D02*
G02X-597598Y1711377I0J-30983D01*
G01X-597598Y1631380D02*
G02X-628581Y1600397I-30983J0D01*
G01X-844611Y1600443D02*
G02X-875591Y1631425I3J30983D01*
G01X-875591Y1711423D02*
G02X-844611Y1742411I30983J5D01*
G01X-764619Y1389543D02*
G01X-844616Y1389543D01*
G01X-708574Y1389497D02*
G01X-628576Y1389497D01*
G01X-764619Y1531511D02*
G01X-844616Y1531511D01*
G01X-708574Y1531463D02*
G01X-628576Y1531463D01*
G01X-875591Y1420525D02*
G01X-875591Y1500530D01*
G01X-597598Y1500477D02*
G01X-597598Y1420475D01*
G01X-628581Y1531463D02*
G02X-597598Y1500477I0J-30983D01*
G01X-597598Y1420480D02*
G02X-628581Y1389497I-30983J0D01*
G01X-844611Y1389543D02*
G02X-875591Y1420525I3J30983D01*
G01X-875591Y1500523D02*
G02X-844611Y1531511I30983J5D01*
G01X764653Y1742393D02*
G01X844650Y1742393D01*
G01X708607Y1742438D02*
G01X628610Y1742438D01*
G01X764653Y1600425D02*
G01X844650Y1600425D01*
G01X708607Y1600473D02*
G01X628610Y1600473D01*
G01X875625Y1711410D02*
G01X875625Y1631405D01*
G01X597632Y1631458D02*
G01X597632Y1711461D01*
G01X628615Y1600473D02*
G02X597632Y1631458I0J30983D01*
G01X597632Y1711456D02*
G02X628615Y1742438I30983J0D01*
G01X844645Y1742393D02*
G02X875625Y1711410I-3J-30983D01*
G01X875625Y1631413D02*
G02X844645Y1600425I-30983J-5D01*
G01X764653Y1532457D02*
G01X844650Y1532457D01*
G01X708607Y1532503D02*
G01X628610Y1532503D01*
G01X764653Y1390489D02*
G01X844650Y1390489D01*
G01X708607Y1390537D02*
G01X628610Y1390537D01*
G01X875625Y1501475D02*
G01X875625Y1421470D01*
G01X597632Y1421523D02*
G01X597632Y1501525D01*
G01X628615Y1390537D02*
G02X597632Y1421523I0J30983D01*
G01X597632Y1501520D02*
G02X628615Y1532503I30983J0D01*
G01X844645Y1532457D02*
G02X875625Y1501475I-3J-30983D01*
G01X875625Y1421477D02*
G02X844645Y1390489I-30983J-5D01*
G01X28019Y439257D02*
G01X108016Y439257D01*
G01X-28026Y439303D02*
G01X-108024Y439303D01*
G01X28019Y297289D02*
G01X108016Y297289D01*
G01X-28026Y297337D02*
G01X-108024Y297337D01*
G01X138991Y408275D02*
G01X138991Y328270D01*
G01X-139001Y328323D02*
G01X-139001Y408325D01*
G01X-108019Y297337D02*
G02X-139001Y328323I0J30983D01*
G01X-139001Y408320D02*
G02X-108019Y439303I30983J0D01*
G01X108011Y439257D02*
G02X138991Y408275I-3J-30983D01*
G01X138991Y328277D02*
G02X108011Y297289I-30983J-5D01*
G01X28019Y-297343D02*
G01X108016Y-297343D01*
G01X-28026Y-297297D02*
G01X-108024Y-297297D01*
G01X28019Y-439311D02*
G01X108016Y-439311D01*
G01X-28026Y-439263D02*
G01X-108024Y-439263D01*
G01X138991Y-328325D02*
G01X138991Y-408330D01*
G01X-139001Y-408277D02*
G01X-139001Y-328275D01*
G01X-108019Y-439263D02*
G02X-139001Y-408277I0J30983D01*
G01X-139001Y-328280D02*
G02X-108019Y-297297I30983J0D01*
G01X108011Y-297343D02*
G02X138991Y-328325I-3J-30983D01*
G01X138991Y-408323D02*
G02X108011Y-439311I-30983J-5D01*
G54D12*
G01X-1676400Y1803400D02*
G01X-1866900Y1803400D01*
G01X-1866900Y1549400D01*
G01X-1104900Y1549400D01*
G01X-1104900Y1803400D01*
G54D13*
G01X-1104900Y1803400D02*
G01X-1676400Y1803400D01*
G54D12*
G01X1295400Y1790700D02*
G01X1104900Y1790700D01*
G01X1104900Y1536700D01*
G01X1866900Y1536700D01*
G01X1866900Y1790700D01*
G54D13*
G01X1866900Y1790700D02*
G01X1295400Y1790700D01*
G54D12*
G01X-1676400Y-1600200D02*
G01X-1866900Y-1600200D01*
G01X-1866900Y-1854200D01*
G01X-1104900Y-1854200D01*
G01X-1104900Y-1600200D01*
G54D13*
G01X-1104900Y-1600200D02*
G01X-1676400Y-1600200D01*
G54D12*
G01X1295400Y-1600200D02*
G01X1104900Y-1600200D01*
G01X1104900Y-1854200D01*
G01X1866900Y-1854200D01*
G01X1866900Y-1600200D01*
G54D13*
G01X1866900Y-1600200D02*
G01X1295400Y-1600200D01*
G54D11*
G01X-251639Y1798446D02*
G01X508009Y1798446D01*
G01X508009Y1798446D02*
G01X508009Y1544446D01*
G01X508009Y1544446D02*
G01X-507991Y1544446D01*
G01X-507991Y1544446D02*
G01X-507991Y1798446D01*
G01X-507991Y1798446D02*
G01X-251639Y1798446D01*
G01X-251639Y1798446D02*
G01X-251639Y1544446D01*
G01X-3162997Y431971D02*
G01X-3162997Y395171D01*
G01X-2378432Y395171D02*
G01X-3159998Y395171D01*
G01X-2378432Y1004771D02*
G01X-3162997Y1004771D01*
G01X-3162997Y961972D02*
G01X-3162997Y999971D01*
G01X-3162997Y431971D02*
G01X-3162997Y961972D01*
G01X-3041400Y966671D02*
G01X-3122680Y436670D01*
G01X-3122680Y436670D02*
G01X-3123338Y966671D01*
G01X-2944880Y436670D02*
G01X-2945538Y966671D01*
G01X-2952500Y966671D02*
G01X-3033780Y436670D01*
G01X-3033780Y436670D02*
G01X-3034438Y966671D01*
G01X-2863600Y966671D02*
G01X-2944880Y436670D01*
G01X-2855967Y433271D02*
G01X-2856625Y963273D01*
G01X-2774687Y963273D02*
G01X-2855967Y433271D01*
G01X-2774687Y433271D02*
G01X-2774687Y963273D01*
G01X-2131572Y395171D02*
G01X-1868428Y395171D01*
G01X-2304800Y831543D02*
G01X-2304800Y568399D01*
G01X-1868428Y1004771D02*
G01X-2131572Y1004771D01*
G01X-1695200Y568399D02*
G01X-1695200Y831543D01*
G01X-3162997Y-968001D02*
G01X-3162997Y-1004800D01*
G01X-2378432Y-1004800D02*
G01X-3159998Y-1004800D01*
G01X-2378432Y-395200D02*
G01X-3162997Y-395200D01*
G01X-3162997Y-437999D02*
G01X-3162997Y-400001D01*
G01X-3162997Y-968001D02*
G01X-3162997Y-437999D01*
G01X-3041400Y-433300D02*
G01X-3122680Y-963302D01*
G01X-3122680Y-963302D02*
G01X-3123338Y-433300D01*
G01X-2944880Y-963302D02*
G01X-2945538Y-433300D01*
G01X-2952500Y-433300D02*
G01X-3033780Y-963302D01*
G01X-3033780Y-963302D02*
G01X-3034438Y-433300D01*
G01X-2863600Y-433300D02*
G01X-2944880Y-963302D01*
G01X-2855967Y-966700D02*
G01X-2856625Y-436699D01*
G01X-2774687Y-436699D02*
G01X-2855967Y-966700D01*
G01X-2774687Y-966700D02*
G01X-2774687Y-436699D01*
G01X-2131572Y-1004800D02*
G01X-1868428Y-1004800D01*
G01X-2304800Y-568428D02*
G01X-2304800Y-831572D01*
G01X-1868428Y-395200D02*
G01X-2131572Y-395200D01*
G01X-1695200Y-831572D02*
G01X-1695200Y-568428D01*
G01X3162997Y968001D02*
G01X3162997Y1004800D01*
G01X2378432Y1004800D02*
G01X3159998Y1004800D01*
G01X2378432Y395200D02*
G01X3162997Y395200D01*
G01X3162997Y437999D02*
G01X3162997Y400001D01*
G01X3162997Y968001D02*
G01X3162997Y437999D01*
G01X3041400Y433300D02*
G01X3122680Y963302D01*
G01X3122680Y963302D02*
G01X3123338Y433300D01*
G01X2944880Y963302D02*
G01X2945538Y433300D01*
G01X2952500Y433300D02*
G01X3033780Y963302D01*
G01X3033780Y963302D02*
G01X3034438Y433300D01*
G01X2863600Y433300D02*
G01X2944880Y963302D01*
G01X2855967Y966700D02*
G01X2856625Y436699D01*
G01X2774687Y436699D02*
G01X2855967Y966700D01*
G01X2774687Y966700D02*
G01X2774687Y436699D01*
G01X2131572Y1004800D02*
G01X1868428Y1004800D01*
G01X2304800Y568428D02*
G01X2304800Y831572D01*
G01X1868428Y395200D02*
G01X2131572Y395200D01*
G01X1695200Y831572D02*
G01X1695200Y568428D01*
G01X3162997Y-432000D02*
G01X3162997Y-395200D01*
G01X2378432Y-395200D02*
G01X3159998Y-395200D01*
G01X2378432Y-1004800D02*
G01X3162997Y-1004800D01*
G01X3162997Y-962001D02*
G01X3162997Y-1000000D01*
G01X3162997Y-432000D02*
G01X3162997Y-962001D01*
G01X3041400Y-966700D02*
G01X3122680Y-436699D01*
G01X3122680Y-436699D02*
G01X3123338Y-966700D01*
G01X2944880Y-436699D02*
G01X2945538Y-966700D01*
G01X2952500Y-966700D02*
G01X3033780Y-436699D01*
G01X3033780Y-436699D02*
G01X3034438Y-966700D01*
G01X2863600Y-966700D02*
G01X2944880Y-436699D01*
G01X2855967Y-433300D02*
G01X2856625Y-963302D01*
G01X2774687Y-963302D02*
G01X2855967Y-433300D01*
G01X2774687Y-433300D02*
G01X2774687Y-963302D01*
G01X2131572Y-395200D02*
G01X1868428Y-395200D01*
G01X2304800Y-831572D02*
G01X2304800Y-568428D01*
G01X1868428Y-1004800D02*
G01X2131572Y-1004800D01*
G01X1695200Y-568428D02*
G01X1695200Y-831572D01*
G54D10*
G01X-1323980Y608291D02*
G01X-1195487Y608291D01*
G01X-1195487Y791709D01*
G01X-1323980Y791709D01*
G01X-1419220Y608291D02*
G01X-1547713Y608291D01*
G01X-1547713Y791709D01*
G01X-1419220Y791709D01*
G01X-663580Y608291D02*
G01X-535087Y608291D01*
G01X-535087Y791709D01*
G01X-663580Y791709D01*
G01X-758820Y608291D02*
G01X-887313Y608291D01*
G01X-887313Y791709D01*
G01X-758820Y791709D01*
G01X-206380Y608291D02*
G01X-77887Y608291D01*
G01X-77887Y791709D01*
G01X-206380Y791709D01*
G01X-301620Y608291D02*
G01X-430113Y608291D01*
G01X-430113Y791709D01*
G01X-301620Y791709D01*
G01X301620Y608291D02*
G01X430113Y608291D01*
G01X430113Y791709D01*
G01X301620Y791709D01*
G01X206380Y608291D02*
G01X77887Y608291D01*
G01X77887Y791709D01*
G01X206380Y791709D01*
G01X-936991Y403220D02*
G01X-936991Y531713D01*
G01X-1120409Y531713D01*
G01X-1120409Y403220D01*
G01X-936991Y307980D02*
G01X-936991Y179487D01*
G01X-1120409Y179487D01*
G01X-1120409Y307980D01*
G01X-91709Y1152380D02*
G01X-91709Y1023886D01*
G01X91709Y1023886D01*
G01X91709Y1152380D01*
G01X-91709Y1247620D02*
G01X-91709Y1376113D01*
G01X91709Y1376113D01*
G01X91709Y1247620D01*
G01X-655680Y-1056909D02*
G01X-527187Y-1056909D01*
G01X-527187Y-873491D01*
G01X-655680Y-873491D01*
G01X-750920Y-1056909D02*
G01X-879414Y-1056909D01*
G01X-879414Y-873491D01*
G01X-750920Y-873491D01*
G01X-936991Y-1260480D02*
G01X-936991Y-1131987D01*
G01X-1120409Y-1131987D01*
G01X-1120409Y-1260480D01*
G01X-936991Y-1355720D02*
G01X-936991Y-1484213D01*
G01X-1120409Y-1484213D01*
G01X-1120409Y-1355720D01*
G01X-422641Y-1260480D02*
G01X-422641Y-1131987D01*
G01X-606059Y-1131987D01*
G01X-606059Y-1260480D01*
G01X-422641Y-1355720D02*
G01X-422641Y-1484213D01*
G01X-606059Y-1484213D01*
G01X-606059Y-1355720D01*
G01X-288920Y-608291D02*
G01X-417413Y-608291D01*
G01X-417413Y-791709D01*
G01X-288920Y-791709D01*
G01X-193680Y-608291D02*
G01X-65187Y-608291D01*
G01X-65187Y-791709D01*
G01X-193680Y-791709D01*
G01X301620Y-791709D02*
G01X430113Y-791709D01*
G01X430113Y-608291D01*
G01X301620Y-608291D01*
G01X206380Y-791709D02*
G01X77887Y-791709D01*
G01X77887Y-608291D01*
G01X206380Y-608291D01*
G01X-1323980Y-1056909D02*
G01X-1195487Y-1056909D01*
G01X-1195487Y-873491D01*
G01X-1323980Y-873491D01*
G01X-1419220Y-1056909D02*
G01X-1547713Y-1056909D01*
G01X-1547713Y-873491D01*
G01X-1419220Y-873491D01*
G01X860420Y-155209D02*
G01X988913Y-155209D01*
G01X988913Y28209D01*
G01X860420Y28209D01*
G01X765180Y-155209D02*
G01X636687Y-155209D01*
G01X636687Y28209D01*
G01X765180Y28209D01*
G01X1120409Y-790580D02*
G01X1120409Y-662087D01*
G01X936991Y-662087D01*
G01X936991Y-790580D01*
G01X1120409Y-885820D02*
G01X1120409Y-1014313D01*
G01X936991Y-1014313D01*
G01X936991Y-885820D01*
G01X1419220Y608291D02*
G01X1547713Y608291D01*
G01X1547713Y791709D01*
G01X1419220Y791709D01*
G01X1323980Y608291D02*
G01X1195487Y608291D01*
G01X1195487Y791709D01*
G01X1323980Y791709D01*
G01X1419220Y-791709D02*
G01X1547713Y-791709D01*
G01X1547713Y-608291D01*
G01X1419220Y-608291D01*
G01X1323980Y-791709D02*
G01X1195487Y-791709D01*
G01X1195487Y-608291D01*
G01X1323980Y-608291D01*
G01X-936991Y1089020D02*
G01X-936991Y1217513D01*
G01X-1120409Y1217513D01*
G01X-1120409Y1089020D01*
G01X-936991Y993780D02*
G01X-936991Y865287D01*
G01X-1120409Y865287D01*
G01X-1120409Y993780D01*
G01X-936991Y-574680D02*
G01X-936991Y-446187D01*
G01X-1120409Y-446187D01*
G01X-1120409Y-574680D01*
G01X-936991Y-669920D02*
G01X-936991Y-798413D01*
G01X-1120409Y-798413D01*
G01X-1120409Y-669920D01*
G01X91709Y-1260480D02*
G01X91709Y-1131987D01*
G01X-91709Y-1131987D01*
G01X-91709Y-1260480D01*
G01X91709Y-1355720D02*
G01X91709Y-1484213D01*
G01X-91709Y-1484213D01*
G01X-91709Y-1355720D01*
G54D14*
G01X-152141Y252621D02*
G01X-152141Y-252621D01*
G01X152141Y252621D02*
G01X152141Y-252621D01*
G01X-43538Y252621D02*
G01X-152141Y252621D01*
G01X44889Y252621D02*
G01X152141Y252621D01*
G01X-152141Y206756D02*
G01X-152141Y252621D01*
G01X-152141Y79756D02*
G01X-152141Y174244D01*
G01X-152141Y-47244D02*
G01X-152141Y47244D01*
G01X-152141Y-174244D02*
G01X-152141Y-79756D01*
G01X-152141Y-252621D02*
G01X-152141Y-206756D01*
G01X152141Y-252621D02*
G01X-152141Y-252621D01*
G01X152141Y206756D02*
G01X152141Y252621D01*
G01X152141Y79756D02*
G01X152141Y174244D01*
G01X152141Y-47244D02*
G01X152141Y47244D01*
G01X152141Y-174244D02*
G01X152141Y-79756D01*
G01X152141Y-252621D02*
G01X152141Y-206756D01*
G01X-43538Y252621D02*
G03X44889Y252621I44214J0D01*

G04 Circle Start*
G54D16*
G01X-116611Y190500D02*
G03X-86589Y190500I15011J0D01*
G03X-116611Y190500I-15011J0D01*
G04 Circle End*

M02*

