G04 Layer: TopLayer*
G04 EasyEDA Pro v3.2.186, 2026-09-24 20:26:46*
G04 Gerber Generator version 0.3*
G04 Scale: 100 percent, Rotated: No, Reflected: No*
G04 Dimensions in millimeters*
G04 Leading zeros omitted, absolute positions, 4 integers and 5 decimals*
G04 Generated by one-click*
G04 Object Configs: Pad,Via,Track,Text,Image,Dimension,BoardOutline,BoardCutout,CopperFilled,SolidRegion,FPCStiffener,Line,PlaneZone,ComponentProperty,ComponentSilkscreen,TearDrop*
G04 Layer Configs: 1,2,3,4,5,6,7,8,9,10,11,13,14,56*
G04 Copper Areas: 0*
%FSLAX45Y45*%
%MOMM*%
%ADD10R,0.8X0.9*%
%ADD11C,1.6*%
%ADD12R,1.5748X1.6*%
%ADD13R,1.7X1.7*%
%ADD14C,1.7*%
%ADD15C,2.0*%
%ADD16C,2.2040*%
%ADD17C,2.2*%
%ADD18R,1.13254X1.37701*%
%ADD19R,1.37701X1.13254*%
%ADD20O,1.8X0.58801*%
%ADD21C,2.5*%
%ADD22C,0.61*%
%ADD23C,0.254*%
%ADD24C,0.508*%
%ADD25C,0.762*%
G75*


G04 TearDrop Start*
G36*
G01X-550398Y1696800D02*
G01X-550398Y1646000D01*
G03X-626598Y1626400I0J-157924D01*
G01X-626598Y1716400D01*
G03X-550398Y1696800I76200J138324D01*
G37*
G36*
G01X-960902Y1633300D02*
G01X-960902Y1709500D01*
G03X-846602Y1716400I0J950164D01*
G01X-846602Y1626400D01*
G03X-960902Y1633300I-114300J-943265D01*
G37*
G36*
G01X-628177Y1534842D02*
G01X-597256Y1493921D01*
G03X-626598Y1415500I90124J-78421D01*
G01X-706598Y1505500D01*
G03X-628177Y1534842I0J119467D01*
G37*
G36*
G01X-550398Y1498600D02*
G01X-550398Y1447800D01*
G03X-626598Y1415500I0J-106033D01*
G01X-626598Y1505500D01*
G03X-550398Y1498600I76200J417312D01*
G37*
G36*
G01X550431Y1646046D02*
G01X550431Y1696846D01*
G03X626631Y1716435I0J157999D01*
G01X626631Y1626435D01*
G03X550431Y1646046I-76200J-138238D01*
G37*
G36*
G01X911899Y1620054D02*
G01X863018Y1561172D01*
G03X766636Y1626435I-217696J-217696D01*
G01X846636Y1716435D01*
G03X911899Y1620054I282959J121315D01*
G37*
G36*
G01X597289Y1494921D02*
G01X628210Y1535842D01*
G03X706631Y1506500I78421J90124D01*
G01X626631Y1416500D01*
G03X597289Y1494921I-119467J0D01*
G37*
G36*
G01X-215900Y317500D02*
G01X-215900Y393700D01*
G03X-110002Y413300I0J295881D01*
G01X-110002Y323300D01*
G03X-215900Y317500I0J-969637D01*
G37*
G36*
G01X50800Y489500D02*
G01X101600Y489500D01*
G03X110002Y413300I349727J0D01*
G01X30002Y413300D01*
G03X50800Y489500I-129196J76200D01*
G37*
G36*
G01X139344Y334879D02*
G01X108423Y293958D01*
G03X30002Y323300I-78421J-90124D01*
G01X110002Y413300D01*
G03X139344Y334879I119467J0D01*
G37*
G36*
G01X186202Y393700D02*
G01X186202Y342900D01*
G03X110002Y323300I0J-157924D01*
G01X110002Y413300D01*
G03X186202Y393700I76200J138324D01*
G37*
G36*
G01X-186202Y-393700D02*
G01X-186202Y-342900D01*
G03X-110002Y-323300I0J157924D01*
G01X-110002Y-413300D01*
G03X-186202Y-393700I-76200J-138324D01*
G37*
G36*
G01X-145440Y-340975D02*
G01X-118214Y-296359D01*
G03X-37392Y-323300I80822J107763D01*
G01X-110002Y-413300D01*
G03X-145440Y-340975I-123366J-15603D01*
G37*
G36*
G01X190500Y-330200D02*
G01X190500Y-406400D01*
G03X110002Y-413300I0J-473012D01*
G01X110002Y-323300D01*
G03X190500Y-330200I80498J466112D01*
G37*
G36*
G01X-1119339Y1709500D02*
G01X-1126839Y1633300D01*
G01X-1133039Y1632849D01*
G01X-1140124Y1631574D01*
G01X-1147765Y1629592D01*
G01X-1155635Y1627022D01*
G01X-1163406Y1623981D01*
G01X-1170749Y1620587D01*
G01X-1177336Y1616957D01*
G01X-1182839Y1613210D01*
G01X-1175339Y1732975D01*
G01X-1170228Y1728597D01*
G01X-1163922Y1724356D01*
G01X-1156748Y1720389D01*
G01X-1149033Y1716836D01*
G01X-1141107Y1713833D01*
G01X-1133297Y1711517D01*
G01X-1125932Y1710027D01*
G01X-1119339Y1709500D01*
G37*
G36*
G01X-1336961Y1633300D02*
G01X-1344461Y1709500D01*
G01X-1337868Y1710027D01*
G01X-1330503Y1711517D01*
G01X-1322693Y1713833D01*
G01X-1314767Y1716836D01*
G01X-1307052Y1720389D01*
G01X-1299878Y1724356D01*
G01X-1293572Y1728597D01*
G01X-1288461Y1732975D01*
G01X-1280961Y1613210D01*
G01X-1286464Y1616957D01*
G01X-1293051Y1620587D01*
G01X-1300394Y1623981D01*
G01X-1308165Y1627022D01*
G01X-1316035Y1629592D01*
G01X-1323676Y1631574D01*
G01X-1330761Y1632849D01*
G01X-1336961Y1633300D01*
G37*
G36*
G01X1435826Y1559745D02*
G01X1381945Y1613626D01*
G01X1386102Y1618479D01*
G01X1390215Y1624559D01*
G01X1394143Y1631541D01*
G01X1397745Y1639105D01*
G01X1400878Y1646926D01*
G01X1403402Y1654682D01*
G01X1405175Y1662051D01*
G01X1406057Y1668710D01*
G01X1490910Y1583857D01*
G01X1484251Y1582975D01*
G01X1476882Y1581202D01*
G01X1469126Y1578678D01*
G01X1461305Y1575545D01*
G01X1453741Y1571943D01*
G01X1446759Y1568015D01*
G01X1440679Y1563902D01*
G01X1435826Y1559745D01*
G37*
G36*
G01X-539242Y1551934D02*
G01X-492932Y1670087D01*
G03X-465991Y1750909I-107763J80822D01*
G01X-465991Y1586446D01*
G03X-539242Y1551934I11376J-119139D01*
G37*
G36*
G01X-542191Y1646000D02*
G01X-542191Y1696800D01*
G03X-465991Y1734900I0J95250D01*
G01X-465991Y1607900D01*
G03X-542191Y1646000I-76200J-57150D01*
G37*
G36*
G01X-18223Y1616559D02*
G01X-72104Y1562677D01*
G01X-76985Y1566744D01*
G01X-83327Y1570783D01*
G01X-90778Y1574656D01*
G01X-98985Y1578222D01*
G01X-107595Y1581341D01*
G01X-116255Y1583873D01*
G01X-124612Y1585677D01*
G01X-132314Y1586613D01*
G01X-42158Y1676769D01*
G01X-41222Y1669067D01*
G01X-39418Y1660709D01*
G01X-36887Y1652049D01*
G01X-33768Y1643440D01*
G01X-30201Y1635233D01*
G01X-26328Y1627782D01*
G01X-22289Y1621440D01*
G01X-18223Y1616559D01*
G37*
G36*
G01X-11269Y1709546D02*
G01X-11269Y1633346D01*
G01X-17596Y1632770D01*
G01X-24937Y1631142D01*
G01X-32944Y1628612D01*
G01X-41269Y1625330D01*
G01X-49562Y1621448D01*
G01X-57476Y1617114D01*
G01X-64661Y1612480D01*
G01X-70769Y1607696D01*
G01X-70769Y1735196D01*
G01X-64661Y1730412D01*
G01X-57476Y1725778D01*
G01X-49562Y1721444D01*
G01X-41269Y1717562D01*
G01X-32944Y1714280D01*
G01X-24937Y1711750D01*
G01X-17596Y1710122D01*
G01X-11269Y1709546D01*
G37*
G36*
G01X11287Y1633346D02*
G01X11287Y1709546D01*
G01X17613Y1710122D01*
G01X24955Y1711750D01*
G01X32962Y1714280D01*
G01X41286Y1717562D01*
G01X49580Y1721444D01*
G01X57494Y1725778D01*
G01X64679Y1730412D01*
G01X70787Y1735196D01*
G01X70787Y1607696D01*
G01X64679Y1612480D01*
G01X57494Y1617114D01*
G01X49580Y1621448D01*
G01X41286Y1625330D01*
G01X32962Y1628612D01*
G01X24955Y1631142D01*
G01X17613Y1632770D01*
G01X11287Y1633346D01*
G37*
G36*
G01X496731Y1696846D02*
G01X496731Y1646046D01*
G01X492767Y1645185D01*
G01X487113Y1642750D01*
G01X480119Y1638968D01*
G01X472131Y1634062D01*
G01X463500Y1628257D01*
G01X454574Y1621778D01*
G01X445702Y1614849D01*
G01X437231Y1607696D01*
G01X437231Y1735196D01*
G01X445702Y1728043D01*
G01X454574Y1721114D01*
G01X463500Y1714635D01*
G01X472131Y1708830D01*
G01X480119Y1703924D01*
G01X487113Y1700142D01*
G01X492767Y1697707D01*
G01X496731Y1696846D01*
G37*
G36*
G01X481390Y1682662D02*
G01X502548Y1589662D01*
G01X498771Y1593121D01*
G01X494677Y1596287D01*
G01X490318Y1599151D01*
G01X485744Y1601700D01*
G01X476158Y1605816D01*
G01X466328Y1608551D01*
G01X456663Y1609822D01*
G01X452020Y1609882D01*
G01X447571Y1609544D01*
G01X443368Y1608798D01*
G01X439463Y1607633D01*
G01X435905Y1606039D01*
G01X432746Y1604005D01*
G01X443570Y1728988D01*
G01X450529Y1720402D01*
G01X459205Y1708835D01*
G01X469519Y1695763D01*
G01X475265Y1689124D01*
G01X481390Y1682662D01*
G37*
G36*
G01X-1863844Y712658D02*
G01X-1863844Y687258D01*
G01X-1869090Y686695D01*
G01X-1874314Y685090D01*
G01X-1879497Y682571D01*
G01X-1884617Y679267D01*
G01X-1889655Y675306D01*
G01X-1894591Y670815D01*
G01X-1904073Y660757D01*
G01X-1912901Y650118D01*
G01X-1920914Y639923D01*
G01X-1927949Y631195D01*
G01X-1933844Y624959D01*
G01X-1933844Y774958D01*
G01X-1927949Y768722D01*
G01X-1920914Y759994D01*
G01X-1912901Y749799D01*
G01X-1904073Y739160D01*
G01X-1894591Y729102D01*
G01X-1889655Y724611D01*
G01X-1884617Y720650D01*
G01X-1879497Y717346D01*
G01X-1874314Y714827D01*
G01X-1869090Y713222D01*
G01X-1863844Y712658D01*
G37*
G36*
G01X-1863844Y-687313D02*
G01X-1863844Y-712713D01*
G01X-1869090Y-713276D01*
G01X-1874314Y-714881D01*
G01X-1879497Y-717400D01*
G01X-1884617Y-720704D01*
G01X-1889655Y-724665D01*
G01X-1894591Y-729156D01*
G01X-1904073Y-739214D01*
G01X-1912901Y-749853D01*
G01X-1920914Y-760049D01*
G01X-1927949Y-768777D01*
G01X-1933844Y-775013D01*
G01X-1933844Y-625013D01*
G01X-1927949Y-631249D01*
G01X-1920914Y-639977D01*
G01X-1912901Y-650173D01*
G01X-1904073Y-660812D01*
G01X-1894591Y-670869D01*
G01X-1889655Y-675360D01*
G01X-1884617Y-679322D01*
G01X-1879497Y-682626D01*
G01X-1874314Y-685144D01*
G01X-1869090Y-686749D01*
G01X-1863844Y-687313D01*
G37*
G36*
G01X1863853Y687300D02*
G01X1863834Y712700D01*
G01X1869080Y713264D01*
G01X1874305Y714869D01*
G01X1879487Y717387D01*
G01X1884608Y720692D01*
G01X1889646Y724653D01*
G01X1894581Y729144D01*
G01X1904064Y739203D01*
G01X1912892Y749842D01*
G01X1920905Y760039D01*
G01X1927939Y768767D01*
G01X1933834Y775004D01*
G01X1933853Y625005D01*
G01X1927958Y631240D01*
G01X1920923Y639967D01*
G01X1912910Y650162D01*
G01X1904082Y660800D01*
G01X1894600Y670857D01*
G01X1889665Y675348D01*
G01X1884627Y679309D01*
G01X1879506Y682613D01*
G01X1874324Y685132D01*
G01X1869099Y686737D01*
G01X1863853Y687300D01*
G37*
G36*
G01X1863853Y-712700D02*
G01X1863834Y-687300D01*
G01X1869080Y-686737D01*
G01X1874305Y-685132D01*
G01X1879487Y-682613D01*
G01X1884608Y-679309D01*
G01X1889646Y-675347D01*
G01X1894581Y-670856D01*
G01X1904064Y-660798D01*
G01X1912892Y-650158D01*
G01X1920905Y-639962D01*
G01X1927939Y-631233D01*
G01X1933834Y-624996D01*
G01X1933853Y-774996D01*
G01X1927958Y-768760D01*
G01X1920923Y-760033D01*
G01X1912910Y-749838D01*
G01X1904082Y-739200D01*
G01X1894600Y-729143D01*
G01X1889665Y-724652D01*
G01X1884627Y-720691D01*
G01X1879506Y-717387D01*
G01X1874324Y-714869D01*
G01X1869099Y-713264D01*
G01X1863853Y-712700D01*
G37*
G36*
G01X-1176873Y712700D02*
G01X-1176873Y687300D01*
G03X-1214973Y668250I0J-47625D01*
G01X-1214973Y731750D01*
G03X-1176873Y712700I38100J28575D01*
G37*
G36*
G01X-1566327Y687258D02*
G01X-1566327Y712658D01*
G03X-1528227Y731708I0J47625D01*
G01X-1528227Y668208D01*
G03X-1566327Y687258I-38100J-28575D01*
G37*
G36*
G01X-541103Y647863D02*
G01X-546840Y617679D01*
G03X-587251Y631150I-40411J-53882D01*
G01X-554573Y688275D01*
G03X-541103Y647863I67352J0D01*
G37*
G36*
G01X-905927Y687300D02*
G01X-905927Y712700D01*
G03X-867827Y731750I0J47625D01*
G01X-867827Y668250D01*
G03X-905927Y687300I-38100J-28575D01*
G37*
G36*
G01X-59273Y712700D02*
G01X-59273Y687300D01*
G03X-97373Y668250I0J-47625D01*
G01X-97373Y731750D01*
G03X-59273Y712700I38100J28575D01*
G37*
G36*
G01X-341300Y605995D02*
G01X-366700Y605995D01*
G03X-385750Y631150I-26133J0D01*
G01X-322250Y631150D01*
G03X-341300Y605995I7083J-25155D01*
G37*
G36*
G01X424097Y647863D02*
G01X418360Y617679D01*
G03X377949Y631150I-40411J-53882D01*
G01X410627Y688275D01*
G03X424097Y647863I67352J0D01*
G37*
G36*
G01X448727Y712700D02*
G01X448727Y687300D01*
G03X410627Y668250I0J-47625D01*
G01X410627Y731750D01*
G03X448727Y712700I38100J28575D01*
G37*
G36*
G01X59273Y687300D02*
G01X59273Y712700D01*
G03X97373Y731750I0J47625D01*
G01X97373Y668250D01*
G03X59273Y687300I-38100J-28575D01*
G37*
G36*
G01X-1041400Y550327D02*
G01X-1016000Y550327D01*
G03X-996950Y512227I47625J0D01*
G01X-1060450Y512227D01*
G03X-1041400Y550327I-28575J38100D01*
G37*
G36*
G01X-1211851Y217500D02*
G01X-1211851Y293700D01*
G03X-1097551Y312227I0J361848D01*
G01X-1097551Y198973D01*
G03X-1211851Y217500I-114300J-343321D01*
G37*
G36*
G01X12700Y1005273D02*
G01X-12700Y1005273D01*
G03X-31750Y1043373I-47625J0D01*
G01X31750Y1043373D01*
G03X12700Y1005273I28575J-38100D01*
G37*
G36*
G01X-38100Y1470926D02*
G01X38100Y1470926D01*
G03X68851Y1356626I227802J0D01*
G01X-68851Y1356626D01*
G03X-38100Y1470926I-197052J114300D01*
G37*
G36*
G01X-508574Y-952500D02*
G01X-508574Y-977900D01*
G03X-546674Y-996950I0J-47625D01*
G01X-546674Y-933450D01*
G03X-508574Y-952500I38100J28575D01*
G37*
G36*
G01X-898027Y-977900D02*
G01X-898027Y-952500D01*
G03X-859927Y-933450I0J47625D01*
G01X-859927Y-996950D01*
G03X-898027Y-977900I-38100J-28575D01*
G37*
G36*
G01X-1041400Y-1113373D02*
G01X-1016000Y-1113373D01*
G03X-996950Y-1151473I47625J0D01*
G01X-1060450Y-1151473D01*
G03X-1041400Y-1113373I-28575J38100D01*
G37*
G36*
G01X-845549Y-1370000D02*
G01X-845549Y-1446200D01*
G03X-959849Y-1464727I0J-361848D01*
G01X-959849Y-1351473D01*
G03X-845549Y-1370000I114300J343321D01*
G37*
G36*
G01X-462213Y-1138003D02*
G01X-432029Y-1143740D01*
G03X-445499Y-1184151I53882J-40411D01*
G01X-502625Y-1151473D01*
G03X-462213Y-1138003I0J67352D01*
G37*
G36*
G01X-344500Y-1370000D02*
G01X-344500Y-1446200D01*
G03X-445499Y-1464727I0J-284564D01*
G01X-445499Y-1351473D01*
G03X-344500Y-1370000I100999J266037D01*
G37*
G36*
G01X-328600Y-806951D02*
G01X-354000Y-806951D01*
G03X-373050Y-768851I-47625J0D01*
G01X-309550Y-768851D01*
G03X-328600Y-806951I28575J-38100D01*
G37*
G36*
G01X-71203Y-752137D02*
G01X-76940Y-782321D01*
G03X-117351Y-768851I-40411J-53882D01*
G01X-84673Y-711726D01*
G03X-71203Y-752137I67352J0D01*
G37*
G36*
G01X418360Y-617679D02*
G01X424097Y-647863D01*
G03X410627Y-688275I53882J-40411D01*
G01X377949Y-631150D01*
G03X418360Y-617679I0J67352D01*
G37*
G36*
G01X66951Y-792310D02*
G01X77327Y-746012D01*
G03X97373Y-712177I-56082J56082D01*
G01X97373Y-768851D01*
G03X66951Y-792310I75552J-129434D01*
G37*
G36*
G01X-1176873Y-952500D02*
G01X-1176873Y-977900D01*
G03X-1214973Y-996950I0J-47625D01*
G01X-1214973Y-933450D01*
G03X-1176873Y-952500I38100J28575D01*
G37*
G36*
G01X-1541697Y-913063D02*
G01X-1535960Y-882879D01*
G03X-1495549Y-896349I40411J53882D01*
G01X-1528227Y-953475D01*
G03X-1541697Y-913063I-67352J0D01*
G37*
G36*
G01X982897Y-115637D02*
G01X977160Y-145821D01*
G03X936749Y-132351I-40411J-53882D01*
G01X969427Y-75225D01*
G03X982897Y-115637I67352J0D01*
G37*
G36*
G01X618073Y-76200D02*
G01X618073Y-50800D01*
G03X656173Y-31750I0J47625D01*
G01X656173Y-95250D01*
G03X618073Y-76200I-38100J-28575D01*
G37*
G36*
G01X1080837Y-668103D02*
G01X1111021Y-673840D01*
G03X1097551Y-714251I53882J-40411D01*
G01X1040425Y-681573D01*
G03X1080837Y-668103I0J67352D01*
G37*
G36*
G01X1211851Y-900100D02*
G01X1211851Y-976300D01*
G03X1097551Y-994827I0J-361848D01*
G01X1097551Y-881573D01*
G03X1211851Y-900100I114300J343321D01*
G37*
G36*
G01X1566327Y712700D02*
G01X1566327Y687300D01*
G03X1528227Y668250I0J-47625D01*
G01X1528227Y731750D01*
G03X1566327Y712700I38100J28575D01*
G37*
G36*
G01X1176873Y687300D02*
G01X1176873Y712700D01*
G03X1214973Y731750I0J47625D01*
G01X1214973Y668250D01*
G03X1176873Y687300I-38100J-28575D01*
G37*
G36*
G01X1566327Y-687300D02*
G01X1566327Y-712700D01*
G03X1528227Y-731750I0J-47625D01*
G01X1528227Y-668250D01*
G03X1566327Y-687300I38100J28575D01*
G37*
G36*
G01X1258900Y-593050D02*
G01X1284300Y-593050D01*
G03X1303350Y-631150I47625J0D01*
G01X1239850Y-631150D01*
G03X1258900Y-593050I-28575J38100D01*
G37*
G36*
G01X-883649Y1166800D02*
G01X-883649Y1116000D01*
G03X-959849Y1084773I0J-108586D01*
G01X-959849Y1198027D01*
G03X-883649Y1166800I76200J77359D01*
G37*
G36*
G01X-1016000Y846673D02*
G01X-1041400Y846673D01*
G03X-1060450Y884773I-47625J0D01*
G01X-996950Y884773D01*
G03X-1016000Y846673I28575J-38100D01*
G37*
G36*
G01X-883649Y-496900D02*
G01X-883649Y-547700D01*
G03X-959849Y-578927I0J-108586D01*
G01X-959849Y-465673D01*
G03X-883649Y-496900I76200J77359D01*
G37*
G36*
G01X-1016000Y-817027D02*
G01X-1041400Y-817027D01*
G03X-1060450Y-778927I-47625J0D01*
G01X-996950Y-778927D01*
G03X-1016000Y-817027I28575J-38100D01*
G37*
G36*
G01X-12700Y-1113373D02*
G01X12700Y-1113373D01*
G03X31750Y-1151473I47625J0D01*
G01X-31750Y-1151473D01*
G03X-12700Y-1113373I-28575J38100D01*
G37*
G36*
G01X183151Y-1370000D02*
G01X183151Y-1446200D01*
G03X68851Y-1464727I0J-361848D01*
G01X68851Y-1351473D01*
G03X183151Y-1370000I114300J343321D01*
G37*
G36*
G01X358694Y-50800D02*
G01X358694Y-76200D01*
G01X353022Y-76918D01*
G01X347481Y-78809D01*
G01X342135Y-81484D01*
G01X337049Y-84550D01*
G01X327914Y-90291D01*
G01X323994Y-92183D01*
G01X320594Y-92900D01*
G01X320594Y-34099D01*
G01X323994Y-34817D01*
G01X327914Y-36709D01*
G01X337049Y-42450D01*
G01X342135Y-45516D01*
G01X347481Y-48191D01*
G01X353022Y-50082D01*
G01X358694Y-50800D01*
G37*
G36*
G01X156255Y98723D02*
G01X206979Y119841D01*
G01X209811Y117319D01*
G01X213214Y114816D01*
G01X221502Y109949D01*
G01X231368Y105397D01*
G01X242339Y101319D01*
G01X253941Y97873D01*
G01X265702Y95216D01*
G01X277146Y93506D01*
G01X287801Y92901D01*
G01X199395Y34100D01*
G01X196586Y34588D01*
G01X193964Y35992D01*
G01X191490Y38216D01*
G01X189129Y41166D01*
G01X184599Y48864D01*
G01X180080Y58329D01*
G01X175279Y68804D01*
G01X169903Y79533D01*
G01X163660Y89758D01*
G01X160121Y94445D01*
G01X156255Y98723D01*
G37*
G36*
G01X291480Y239947D02*
G01X340915Y253460D01*
G01X335788Y248036D01*
G01X330957Y242365D01*
G01X326645Y236746D01*
G01X323071Y231479D01*
G01X320457Y226862D01*
G01X319026Y223194D01*
G01X318823Y221809D01*
G01X318998Y220774D01*
G01X319579Y220125D01*
G01X320594Y219901D01*
G01X257645Y219901D01*
G01X260667Y220351D01*
G01X264431Y221623D01*
G01X273390Y226165D01*
G01X282935Y232586D01*
G01X287432Y236207D01*
G01X291480Y239947D01*
G37*
G36*
G01X-172553Y-242020D02*
G01X-239574Y-246841D01*
G01X-242406Y-244319D01*
G01X-245809Y-241816D01*
G01X-254097Y-236949D01*
G01X-263963Y-232397D01*
G01X-274934Y-228319D01*
G01X-286536Y-224873D01*
G01X-298297Y-222216D01*
G01X-309741Y-220506D01*
G01X-320396Y-219900D01*
G01X-199395Y-161099D01*
G01X-196520Y-161771D01*
G01X-194230Y-163693D01*
G01X-192433Y-166720D01*
G01X-191038Y-170713D01*
G01X-189955Y-175527D01*
G01X-189092Y-181021D01*
G01X-187662Y-193478D01*
G01X-186021Y-206945D01*
G01X-184894Y-213702D01*
G01X-183442Y-220284D01*
G01X-181572Y-226549D01*
G01X-179195Y-232355D01*
G01X-176219Y-237560D01*
G01X-172553Y-242020D01*
G37*
G36*
G01X-291480Y-112947D02*
G01X-338674Y-124219D01*
G01X-333955Y-119203D01*
G01X-329524Y-113932D01*
G01X-325589Y-108691D01*
G01X-322357Y-103765D01*
G01X-320034Y-99439D01*
G01X-318828Y-95996D01*
G01X-318709Y-94695D01*
G01X-318946Y-93722D01*
G01X-319566Y-93112D01*
G01X-320594Y-92900D01*
G01X-257645Y-92900D01*
G01X-260667Y-93351D01*
G01X-264431Y-94623D01*
G01X-273390Y-99165D01*
G01X-282935Y-105586D01*
G01X-287432Y-109207D01*
G01X-291480Y-112947D01*
G37*
G36*
G01X-354310Y125220D02*
G01X-299539Y106371D01*
G01X-296422Y103858D01*
G01X-292278Y101425D01*
G01X-287345Y99149D01*
G01X-281860Y97110D01*
G01X-276058Y95387D01*
G01X-270178Y94058D01*
G01X-264456Y93203D01*
G01X-259128Y92901D01*
G01X-340663Y84985D01*
G01X-339533Y86345D01*
G01X-338714Y87996D01*
G01X-337969Y92055D01*
G01X-338349Y96926D01*
G01X-339772Y102374D01*
G01X-342160Y108163D01*
G01X-345432Y114058D01*
G01X-349509Y119822D01*
G01X-354310Y125220D01*
G37*
G36*
G01X-39826Y687300D02*
G01X-43117Y712700D01*
G01X-38275Y713633D01*
G01X-32436Y716093D01*
G01X-26599Y719572D01*
G01X-21767Y723559D01*
G01X-18476Y677927D01*
G01X-23773Y681369D01*
G01X-29765Y684371D01*
G01X-35449Y686495D01*
G01X-39826Y687300D01*
G37*
G36*
G01X-12700Y743718D02*
G01X12700Y743718D01*
G01X13574Y739123D01*
G01X15880Y733366D01*
G01X19139Y727447D01*
G01X22875Y722368D01*
G01X-22875Y722368D01*
G01X-19139Y727447D01*
G01X-15880Y733366D01*
G01X-13574Y739123D01*
G01X-12700Y743718D01*
G37*
G36*
G01X43117Y712700D02*
G01X39826Y687300D01*
G01X35449Y686495D01*
G01X29765Y684371D01*
G01X23773Y681369D01*
G01X18476Y677927D01*
G01X21767Y723559D01*
G01X26599Y719572D01*
G01X32436Y716093D01*
G01X38275Y713633D01*
G01X43117Y712700D01*
G37*
G36*
G01X-1016000Y658476D02*
G01X-1041400Y658476D01*
G01X-1042274Y663071D01*
G01X-1044580Y668828D01*
G01X-1047839Y674747D01*
G01X-1051575Y679826D01*
G01X-1005825Y679826D01*
G01X-1009561Y674747D01*
G01X-1012820Y668828D01*
G01X-1015126Y663071D01*
G01X-1016000Y658476D01*
G37*
G36*
G01X-1070224Y687300D02*
G01X-1070224Y712700D01*
G01X-1065629Y713575D01*
G01X-1059872Y715880D01*
G01X-1053954Y719139D01*
G01X-1048874Y722875D01*
G01X-1048874Y677125D01*
G01X-1053954Y680861D01*
G01X-1059872Y684120D01*
G01X-1065629Y686426D01*
G01X-1070224Y687300D01*
G37*
G36*
G01X-987176Y712700D02*
G01X-987176Y687300D01*
G01X-991771Y686426D01*
G01X-997528Y684120D01*
G01X-1003446Y680861D01*
G01X-1008526Y677125D01*
G01X-1008526Y722875D01*
G01X-1003446Y719139D01*
G01X-997528Y715880D01*
G01X-991771Y713575D01*
G01X-987176Y712700D01*
G37*
G36*
G01X-1041400Y741524D02*
G01X-1016000Y741524D01*
G01X-1015126Y736929D01*
G01X-1012820Y731172D01*
G01X-1009561Y725254D01*
G01X-1005825Y720174D01*
G01X-1051575Y720174D01*
G01X-1047839Y725254D01*
G01X-1044580Y731172D01*
G01X-1042274Y736929D01*
G01X-1041400Y741524D01*
G37*
G36*
G01X-1041400Y-923676D02*
G01X-1016000Y-923676D01*
G01X-1015126Y-928271D01*
G01X-1012820Y-934028D01*
G01X-1009561Y-939946D01*
G01X-1005825Y-945026D01*
G01X-1051575Y-945026D01*
G01X-1047839Y-939946D01*
G01X-1044580Y-934028D01*
G01X-1042274Y-928271D01*
G01X-1041400Y-923676D01*
G37*
G36*
G01X-1016000Y-1006724D02*
G01X-1041400Y-1006724D01*
G01X-1042274Y-1002129D01*
G01X-1044580Y-996372D01*
G01X-1047839Y-990454D01*
G01X-1051575Y-985374D01*
G01X-1005825Y-985374D01*
G01X-1009561Y-990454D01*
G01X-1012820Y-996372D01*
G01X-1015126Y-1002129D01*
G01X-1016000Y-1006724D01*
G37*
G36*
G01X-987176Y-952500D02*
G01X-987176Y-977900D01*
G01X-991771Y-978774D01*
G01X-997528Y-981080D01*
G01X-1003446Y-984339D01*
G01X-1008526Y-988075D01*
G01X-1008526Y-942325D01*
G01X-1003446Y-946061D01*
G01X-997528Y-949320D01*
G01X-991771Y-951626D01*
G01X-987176Y-952500D01*
G37*
G36*
G01X-1070224Y-977900D02*
G01X-1070224Y-952500D01*
G01X-1065629Y-951626D01*
G01X-1059872Y-949320D01*
G01X-1053954Y-946061D01*
G01X-1048874Y-942325D01*
G01X-1048874Y-988075D01*
G01X-1053954Y-984339D01*
G01X-1059872Y-981080D01*
G01X-1065629Y-978774D01*
G01X-1070224Y-977900D01*
G37*
G36*
G01X101600Y458700D02*
G01X50800Y458700D01*
G01X50581Y464173D01*
G01X50003Y469556D01*
G01X48250Y479718D01*
G01X46497Y488522D01*
G01X45700Y495300D01*
G01X106700Y495300D01*
G01X105903Y488522D01*
G01X104150Y479718D01*
G01X102397Y469556D01*
G01X101819Y464173D01*
G01X101600Y458700D01*
G37*
G36*
G01X-192000Y-342900D02*
G01X-192000Y-393700D01*
G01X-197473Y-393919D01*
G01X-202856Y-394497D01*
G01X-213018Y-396250D01*
G01X-221822Y-398003D01*
G01X-228600Y-398800D01*
G01X-228600Y-337800D01*
G01X-221822Y-338597D01*
G01X-213018Y-340350D01*
G01X-202856Y-342103D01*
G01X-197473Y-342681D01*
G01X-192000Y-342900D01*
G37*
G36*
G01X-493800Y1447800D02*
G01X-493800Y1498600D01*
G01X-488327Y1498819D01*
G01X-482944Y1499397D01*
G01X-472782Y1501150D01*
G01X-463978Y1502903D01*
G01X-457200Y1503700D01*
G01X-457200Y1442700D01*
G01X-463978Y1443497D01*
G01X-472782Y1445250D01*
G01X-482944Y1447003D01*
G01X-488327Y1447581D01*
G01X-493800Y1447800D01*
G37*
G36*
G01X-835100Y-547700D02*
G01X-838300Y-496900D01*
G01X-832829Y-496630D01*
G01X-827450Y-495915D01*
G01X-817296Y-493717D01*
G01X-808495Y-491447D01*
G01X-801700Y-490242D01*
G01X-798500Y-551158D01*
G01X-805257Y-550781D01*
G01X-814063Y-549574D01*
G01X-824237Y-548295D01*
G01X-835100Y-547700D01*
G37*
G36*
G01X204700Y342900D02*
G01X204700Y393700D01*
G01X210173Y393919D01*
G01X215556Y394497D01*
G01X225718Y396250D01*
G01X234522Y398003D01*
G01X241300Y398800D01*
G01X241300Y337800D01*
G01X234522Y338597D01*
G01X225718Y340350D01*
G01X215556Y342103D01*
G01X210173Y342681D01*
G01X204700Y342900D01*
G37*
G36*
G01X-838300Y1116000D02*
G01X-838300Y1166800D01*
G01X-832827Y1167019D01*
G01X-827445Y1167597D01*
G01X-817282Y1169350D01*
G01X-808478Y1171103D01*
G01X-801700Y1171900D01*
G01X-801700Y1110900D01*
G01X-808478Y1111697D01*
G01X-817282Y1113450D01*
G01X-827445Y1115203D01*
G01X-832827Y1115781D01*
G01X-838300Y1116000D01*
G37*
G36*
G01X316824Y229370D02*
G01X303893Y252359D01*
G01X306341Y255815D01*
G01X308984Y261115D01*
G01X311391Y267277D01*
G01X313127Y273319D01*
G01X340055Y236333D01*
G01X333875Y236127D01*
G01X327218Y234680D01*
G01X321171Y232318D01*
G01X318717Y230897D01*
G01X316824Y229370D01*
G37*
G36*
G01X-502179Y573018D02*
G02X-448297Y442937I-130082J-130082D01*
G01X-422897Y442937D01*
G02X-369016Y573018I183963J0D01*
G01X-381716Y596239D01*
G02X-489479Y596239I-53882J53882D01*
G01X-502179Y573018D01*
G37*
G36*
G01X-359619Y-987180D02*
G02X-332320Y-883680I209846J0D01*
G01X-350280Y-865720D01*
G02X-426201Y-833877I964J108727D01*
G01X-444161Y-851838D01*
G02X-440780Y-956220I-53995J-53995D01*
G01X-422820Y-974180D01*
G02X-385019Y-1012580I-604J-38400D01*
G01X-359619Y-987180D01*
G37*
G36*
G01X-66582Y-792679D02*
G02X-12700Y-922761I-130082J-130082D01*
G01X12700Y-922761D01*
G02X66582Y-792679I183963J0D01*
G01X53882Y-769458D01*
G02X-53882Y-769458I-53882J53882D01*
G01X-66582Y-792679D01*
G37*
G36*
G01X567142Y-130082D02*
G02X589461Y-76200I22318J22318D01*
G01X564061Y-50800D01*
G02X453480Y-16420I0J195025D01*
G01X435520Y-34380D01*
G02X375739Y-50800I-59780J100613D01*
G01X401139Y-76200D01*
G02X531221Y-130082I0J-183963D01*
G01X567142Y-130082D01*
G37*
G36*
G01X1205019Y-579842D02*
G02X1258900Y-551361I73118J-73118D01*
G01X1271600Y-498091D01*
G01X1258900Y-464639D01*
G02X1205019Y-543921I-234763J101600D01*
G01X1205019Y-579842D01*
G37*
G04 TearDrop End*

G04 Pad Start*
G54D10*
G01X-666598Y1671400D03*
G01X-806602Y1671400D03*
G01X-666598Y1460500D03*
G01X-806602Y1460500D03*
G01X666631Y1671435D03*
G01X806636Y1671435D03*
G01X666631Y1461500D03*
G01X806636Y1461500D03*
G01X-70002Y368300D03*
G01X70002Y368300D03*
G01X-70002Y-368300D03*
G01X70002Y-368300D03*
G54D11*
G01X-1231900Y1676400D03*
G01X-1485900Y1676400D03*
G54D12*
G01X-1739900Y1676400D03*
G54D11*
G01X1739900Y1663700D03*
G01X1485900Y1663700D03*
G54D12*
G01X1231900Y1663700D03*
G54D11*
G01X-1231900Y-1727200D03*
G01X-1485900Y-1727200D03*
G54D12*
G01X-1739900Y-1727200D03*
G54D11*
G01X1739900Y-1727200D03*
G01X1485900Y-1727200D03*
G54D12*
G01X1231900Y-1727200D03*
G54D13*
G01X-380991Y1671446D03*
G54D14*
G01X-126991Y1671446D03*
G01X127009Y1671446D03*
G01X381009Y1671446D03*
G54D15*
G01X-1999987Y699958D03*
G54D17*
G01X-2255003Y954974D03*
G01X-2255003Y444968D03*
G01X-1744997Y444968D03*
G01X-1744997Y954974D03*
G54D15*
G01X-1999987Y-700013D03*
G54D17*
G01X-2255003Y-444997D03*
G01X-2255003Y-955003D03*
G01X-1744997Y-955003D03*
G01X-1744997Y-444997D03*
G54D15*
G01X1999987Y700013D03*
G54D17*
G01X2255003Y444997D03*
G01X2255003Y955003D03*
G01X1744997Y955003D03*
G01X1744997Y444997D03*
G54D15*
G01X1999987Y-699987D03*
G54D17*
G01X2255003Y-955003D03*
G01X2255003Y-444997D03*
G01X1744997Y-444997D03*
G01X1744997Y-955003D03*
G54D18*
G01X-1271600Y700000D03*
G01X-1471600Y700000D03*
G01X-611200Y700000D03*
G01X-811200Y700000D03*
G01X-154000Y700000D03*
G01X-354000Y700000D03*
G01X354000Y700000D03*
G01X154000Y700000D03*
G54D19*
G01X-1028700Y455600D03*
G01X-1028700Y255600D03*
G01X0Y1100000D03*
G01X0Y1300000D03*
G54D18*
G01X-603300Y-965200D03*
G01X-803300Y-965200D03*
G54D19*
G01X-1028700Y-1208100D03*
G01X-1028700Y-1408100D03*
G01X-514350Y-1208100D03*
G01X-514350Y-1408100D03*
G54D18*
G01X-341300Y-700000D03*
G01X-141300Y-700000D03*
G01X354000Y-700000D03*
G01X154000Y-700000D03*
G01X-1271600Y-965200D03*
G01X-1471600Y-965200D03*
G01X912800Y-63500D03*
G01X712800Y-63500D03*
G54D19*
G01X1028700Y-738200D03*
G01X1028700Y-938200D03*
G54D18*
G01X1471600Y700000D03*
G01X1271600Y700000D03*
G01X1471600Y-700000D03*
G01X1271600Y-700000D03*
G54D19*
G01X-1028700Y1141400D03*
G01X-1028700Y941400D03*
G01X-1028700Y-522300D03*
G01X-1028700Y-722300D03*
G01X0Y-1208100D03*
G01X0Y-1408100D03*
G54D20*
G01X259994Y-190500D03*
G01X259994Y-63500D03*
G01X259994Y63500D03*
G01X259994Y190500D03*
G01X-259994Y-190500D03*
G01X-259994Y-63500D03*
G01X-259994Y63500D03*
G01X-259994Y190500D03*
G54D21*
G01X-2032000Y1524000D03*
G01X-2032003Y-1523985D03*
G01X2032000Y1524000D03*
G01X2032000Y-1524000D03*
G04 Pad End*

G04 Via Start*
G54D22*
G01X0Y702194D03*
G01X-1028700Y700000D03*
G01X-1028700Y-965200D03*
G01X266700Y1397000D03*
G01X76200Y495300D03*
G01X-228600Y-368300D03*
G01X-203200Y1371600D03*
G01X-457200Y1473200D03*
G01X-800100Y-520700D03*
G01X241300Y368300D03*
G01X-801700Y1141400D03*
G01X342900Y266700D03*
G01X-1295400Y254000D03*
G01X-838200Y-1408100D03*
G01X-342900Y-1409700D03*
G01X203200Y-1408100D03*
G01X1219200Y-938200D03*
G01X190500Y-368300D03*
G01X-215900Y355600D03*
G04 Via End*

G04 Track Start*
G54D23*
G01X-2031987Y699958D02*
G01X-1471641Y699958D01*
G01X-2031987Y-700013D02*
G01X-1736787Y-700013D01*
G01X-1471600Y-965200D01*
G01X-1028700Y455600D02*
G01X-1028700Y700000D01*
G01X-1028700Y941400D01*
G01X-1271600Y700000D02*
G01X-1028700Y700000D01*
G01X-811200Y700000D01*
G01X-611200Y700000D02*
G01X-435597Y524397D01*
G01X-435597Y224468D01*
G01X-274629Y63500D01*
G01X-259994Y63500D01*
G01X-354000Y700000D02*
G01X-354000Y605995D01*
G01X-435597Y524397D01*
G01X0Y1100000D02*
G01X0Y702194D01*
G01X2194Y700000D01*
G01X-154000Y700000D02*
G01X2194Y700000D01*
G01X154000Y700000D01*
G01X-1271600Y-965200D02*
G01X-1028700Y-965200D01*
G01X-803300Y-965200D01*
G01X-1028700Y-722300D02*
G01X-1028700Y-965200D01*
G01X-1028700Y-1208100D01*
G01X-341300Y-700000D02*
G01X-341300Y-874700D01*
G01X-431800Y-965200D02*
G01X-603300Y-965200D01*
G01X-514350Y-1208100D02*
G01X-372319Y-1066069D01*
G01X-372319Y-905719D01*
G01X-341300Y-874700D02*
G01X-372319Y-905719D01*
G01X-431800Y-965200D01*
G01X-372319Y-905719D02*
G01X-600213Y-677826D01*
G01X-344328Y-133199D02*
G01X-329694Y-133199D01*
G01X-259994Y-63500D01*
G01X-600213Y-677826D02*
G01X-600213Y-389084D01*
G01X-344328Y-133199D01*
G01X-141300Y-700000D02*
G01X0Y-841300D01*
G01X0Y-1208100D01*
G01X154000Y-700000D02*
G01X141300Y-700000D01*
G01X0Y-841300D01*
G01X354000Y-700000D02*
G01X584200Y-469800D01*
G01X584200Y-165100D01*
G01X482600Y-63500D01*
G01X712800Y-63500D01*
G01X482600Y-63500D02*
G01X259994Y-63500D01*
G01X912800Y-63500D02*
G01X1271600Y-422300D01*
G01X1028700Y-738200D02*
G01X1268809Y-498091D01*
G01X1271600Y-498091D01*
G01X1271600Y-422300D02*
G01X1271600Y-498091D01*
G01X1271600Y-700000D01*
G01X354000Y700000D02*
G01X1271600Y700000D01*
G01X482600Y-63500D02*
G01X444500Y-25400D01*
G01X444500Y609500D01*
G01X354000Y700000D01*
G54D24*
G01X-259994Y-190500D02*
G01X-82194Y-368300D01*
G01X-70002Y-368300D01*
G01X70002Y368300D02*
G01X129394Y308908D01*
G01X129394Y161505D01*
G01X227399Y63500D01*
G01X259994Y63500D01*
G54D25*
G01X0Y1300000D02*
G01X0Y1544455D01*
G01X-126991Y1671446D01*
G01X127009Y1671446D01*
G54D24*
G01X-666598Y1671400D02*
G01X-455698Y1671400D01*
G01X70002Y368300D02*
G01X76200Y374498D01*
G01X76200Y495300D01*
G01X-82194Y-368300D02*
G01X-228600Y-368300D01*
G54D25*
G01X-203200Y1371600D02*
G01X-595120Y1371600D01*
G01X-604520Y1362200D01*
G01X-728675Y1362200D01*
G01X-759898Y1393422D01*
G01X-759898Y1624695D02*
G01X-806602Y1671400D01*
G01X-1376600Y1671400D01*
G01X-1384300Y1663700D01*
G01X266700Y1397000D02*
G01X570754Y1397000D01*
G01X604554Y1363200D01*
G01X728709Y1363200D01*
G01X759931Y1394422D01*
G01X759931Y1624731D02*
G01X806636Y1671435D01*
G01X1030271Y1447800D01*
G54D24*
G01X-457200Y1473200D02*
G01X-653898Y1473200D01*
G01X-666598Y1460500D01*
G01X-455698Y1671400D02*
G01X-653898Y1473200D01*
G01X-1028700Y-522300D02*
G01X-801700Y-522300D01*
G01X-800100Y-520700D01*
G01X241300Y368300D02*
G01X70002Y368300D01*
G01X-1028700Y1141400D02*
G01X-801700Y1141400D01*
G54D23*
G01X1471600Y700000D02*
G01X2031975Y700000D01*
G01X1471600Y-700000D02*
G01X2031975Y-700000D01*
G01X259994Y190500D02*
G01X336194Y266700D01*
G01X342900Y266700D01*
G54D25*
G01X-759898Y1393422D02*
G01X-759898Y1624695D01*
G01X759931Y1394422D02*
G01X759931Y1624731D01*
G01X-1028700Y255600D02*
G01X-1293800Y255600D01*
G01X-1295400Y254000D01*
G01X-1028700Y-1408100D02*
G01X-838200Y-1408100D01*
G01X-514350Y-1408100D02*
G01X-344500Y-1408100D01*
G01X-342900Y-1409700D01*
G01X0Y-1408100D02*
G01X203200Y-1408100D01*
G01X1028700Y-938200D02*
G01X1219200Y-938200D01*
G01X70002Y-368300D02*
G01X190500Y-368300D01*
G01X-70002Y368300D02*
G01X-82702Y355600D01*
G01X-215900Y355600D01*
G01X1030271Y1447800D02*
G01X1270000Y1447800D01*
G01X1485900Y1663700D01*
G54D24*
G01X381009Y1671446D02*
G01X456685Y1671446D01*
G01X666631Y1461500D01*
G01X456685Y1671446D02*
G01X666621Y1671446D01*
G04 Track End*

M02*

